<?xml version="1.0" encoding="iso-8859-1"?>
<!-- Generator: Adobe Illustrator 19.0.0, SVG Export Plug-In . SVG Version: 6.00 Build 0)  -->
<svg version="1.1" id="Capa_1" xmlns="http://www.w3.org/2000/svg" xmlns:xlink="http://www.w3.org/1999/xlink" x="0px" y="0px"
	 viewBox="0 0 512 512" style="enable-background:new 0 0 512 512;" xml:space="preserve">
<path style="fill:#FF4F19;" d="M512,456.023H0v-390h512V456.023z"/>
<rect x="256" y="66.02" style="fill:#FF3200;" width="256" height="390"/>
<path style="fill:#B857D0;" d="M501,277.023h-80v-90h80V277.023z"/>
<path style="fill:#CA80DE;" d="M101,216.184l-80-24v-91.32l80,24V216.184z"/>
<path style="fill:#FFDF47;" d="M451,111.023H258.16L71,55.977v301.271l182.841,53.776H451V111.023z"/>
<polygon style="fill:#FFCF00;" points="258.16,111.023 256,110.388 256,411.023 451,411.023 451,111.023 "/>
<g>
	
		<rect x="121.381" y="136.033" transform="matrix(-0.9594 -0.2822 0.2822 -0.9594 292.4262 344.1821)" style="fill:#FF9A00;" width="99.234" height="30.001"/>
	
		<rect x="121.378" y="186.033" transform="matrix(-0.9594 -0.2822 0.2822 -0.9594 278.3109 442.1492)" style="fill:#FF9A00;" width="99.234" height="30.001"/>
	
		<rect x="121.378" y="236.033" transform="matrix(-0.9594 -0.2822 0.2822 -0.9594 264.2015 540.1172)" style="fill:#FF9A00;" width="99.234" height="30.001"/>
	
		<rect x="121.378" y="286.033" transform="matrix(-0.9594 -0.2822 0.2822 -0.9594 250.0921 638.0851)" style="fill:#FF9A00;" width="99.234" height="30.001"/>
</g>
<g>
	<rect x="290" y="161.02" style="fill:#E67500;" width="112" height="30"/>
	<rect x="290" y="211.02" style="fill:#E67500;" width="112" height="30"/>
	<rect x="290" y="261.02" style="fill:#E67500;" width="112" height="30"/>
	<rect x="290" y="311.02" style="fill:#E67500;" width="112" height="30"/>
</g>
<g>
</g>
<g>
</g>
<g>
</g>
<g>
</g>
<g>
</g>
<g>
</g>
<g>
</g>
<g>
</g>
<g>
</g>
<g>
</g>
<g>
</g>
<g>
</g>
<g>
</g>
<g>
</g>
<g>
</g>
</svg>
