<?xml version="1.0" encoding="iso-8859-1"?>
<!-- Generator: Adobe Illustrator 19.0.0, SVG Export Plug-In . SVG Version: 6.00 Build 0)  -->
<svg version="1.1" id="Capa_1" xmlns="http://www.w3.org/2000/svg" xmlns:xlink="http://www.w3.org/1999/xlink" x="0px" y="0px"
	 viewBox="0 0 512 512" style="enable-background:new 0 0 512 512;" xml:space="preserve">
<path style="fill:#FFCF00;" d="M427.713,418h-63.426L325.5,379.213v-92.426L364.287,248h63.426l38.787,38.787v92.426L427.713,418z
	 M376.713,388h38.574l21.213-21.213v-67.574L415.287,278h-38.574L355.5,299.213v67.574L376.713,388z"/>
<path style="fill:#CA80DE;" d="M329.834,250H91.166L79.803,0h261.395L329.834,250z"/>
<polygon style="fill:#B857D0;" points="341.197,0 210.5,0 210.5,250 329.834,250 "/>
<path style="fill:#FF9A00;" d="M355.5,462h-290V220h290V462z"/>
<rect x="210.5" y="220" style="fill:#E67500;" width="145" height="242"/>
<rect x="215.5" style="fill:#FFCF00;" width="30" height="188"/>
<path style="fill:#FF4F19;" d="M302.5,286h-140V134h140V286z"/>
<path style="fill:#FFDF47;" d="M335.5,512h-250c-22.056,0-40-17.944-40-40s17.944-40,40-40h250c22.056,0,40,17.944,40,40
	S357.556,512,335.5,512z"/>
<path style="fill:#FFCF00;" d="M335.5,432h-125v80h125c22.056,0,40-17.944,40-40S357.556,432,335.5,432z"/>
<path style="fill:#FF3200;" d="M302.5,286h-92V134h92V286z"/>
<g>
</g>
<g>
</g>
<g>
</g>
<g>
</g>
<g>
</g>
<g>
</g>
<g>
</g>
<g>
</g>
<g>
</g>
<g>
</g>
<g>
</g>
<g>
</g>
<g>
</g>
<g>
</g>
<g>
</g>
</svg>
