<?xml version="1.0" encoding="iso-8859-1"?>
<!-- Generator: Adobe Illustrator 19.0.0, SVG Export Plug-In . SVG Version: 6.00 Build 0)  -->
<svg version="1.1" id="Capa_1" xmlns="http://www.w3.org/2000/svg" xmlns:xlink="http://www.w3.org/1999/xlink" x="0px" y="0px"
	 viewBox="0 0 512 512" style="enable-background:new 0 0 512 512;" xml:space="preserve">
<path style="fill:#FF9A00;" d="M166,512H76v-90h90V512z"/>
<path style="fill:#E67500;" d="M436,512h-90v-90h90V512z"/>
<path style="fill:#CA80DE;" d="M436,452H76V0h360V452z"/>
<rect x="256" style="fill:#B857D0;" width="180" height="452"/>
<path style="fill:#FF4F19;" d="M386,400H126V240h260V400z"/>
<rect x="256" y="240" style="fill:#FF3200;" width="130" height="160"/>
<circle style="fill:#FFDF47;" cx="256" cy="305" r="15"/>
<path style="fill:#FFCF00;" d="M256,290v30c8.284,0,15-6.716,15-15S264.284,290,256,290z"/>
<path style="fill:#FF4F19;" d="M386,210H126V50h260V210z"/>
<rect x="256" y="50" style="fill:#FF3200;" width="130" height="160"/>
<circle style="fill:#FFDF47;" cx="256" cy="115" r="15"/>
<path style="fill:#FFCF00;" d="M256,100v30c8.284,0,15-6.716,15-15S264.284,100,256,100z"/>
<g>
</g>
<g>
</g>
<g>
</g>
<g>
</g>
<g>
</g>
<g>
</g>
<g>
</g>
<g>
</g>
<g>
</g>
<g>
</g>
<g>
</g>
<g>
</g>
<g>
</g>
<g>
</g>
<g>
</g>
</svg>
