<?xml version="1.0" encoding="iso-8859-1"?>
<!-- Generator: Adobe Illustrator 19.0.0, SVG Export Plug-In . SVG Version: 6.00 Build 0)  -->
<svg version="1.1" id="Capa_1" xmlns="http://www.w3.org/2000/svg" xmlns:xlink="http://www.w3.org/1999/xlink" x="0px" y="0px"
	 viewBox="0 0 512.002 512.002" style="enable-background:new 0 0 512.002 512.002;" xml:space="preserve">
<path style="fill:#FF127F;" d="M349.781,431.112H0.5V81.831h349.28V431.112z"/>
<rect x="175.141" y="81.831" style="fill:#E80C6A;" width="174.64" height="349.28"/>
<path style="fill:#B857D0;" d="M209.017,512L34.377,209.514l302.485-174.64l174.64,302.486L209.017,512z"/>
<rect x="22.674" y="229.785" transform="matrix(0.5 0.866 -0.866 0.5 373.2704 -12.3259)" style="fill:#CA80DE;" width="349.273" height="174.636"/>
<g>
	<path style="fill:#FF4F19;" d="M197.806,333.584l-28.959-7.595c4.42-16.849,15.128-30.905,30.152-39.579
		c15.024-8.672,32.549-10.915,49.35-6.323c9.03,2.473,18.436,1.273,26.481-3.372c8.046-4.645,13.786-12.192,16.162-21.247
		c4.42-16.849,15.128-30.904,30.152-39.578c15.023-8.674,32.55-10.921,49.351-6.321l-7.902,28.877
		c-9.028-2.47-18.434-1.272-26.481,3.373c-8.046,4.645-13.786,12.191-16.162,21.246c-4.42,16.849-15.128,30.905-30.151,39.579
		c-15.025,8.672-32.552,10.918-49.352,6.321c-9.028-2.469-18.433-1.272-26.48,3.373
		C205.921,316.982,200.182,324.527,197.806,333.584z"/>
	<path style="fill:#FF4F19;" d="M230.738,390.623l-28.959-7.595c4.42-16.85,15.129-30.906,30.152-39.579
		c15.024-8.674,32.55-10.919,49.35-6.321c9.028,2.469,18.434,1.271,26.481-3.374c8.046-4.645,13.786-12.191,16.161-21.246
		l28.959,7.595c-4.42,16.848-15.127,30.904-30.151,39.577c-15.024,8.675-32.551,10.918-49.352,6.324
		c-9.029-2.473-18.434-1.272-26.48,3.371C238.853,374.02,233.114,381.567,230.738,390.623z"/>
</g>
<path style="fill:#FFDF47;" d="M216.555,219.548c-24.488,0-44.408-19.922-44.408-44.408V65.864h29.938v109.275
	c0,7.979,6.492,14.47,14.47,14.47s14.47-6.492,14.47-14.47V69.856c0-22.011-17.907-39.918-39.918-39.918
	S151.19,47.845,151.19,69.856v11.975h-29.938V69.856C121.252,31.337,152.589,0,191.108,0s69.856,31.337,69.856,69.856v105.283
	C260.964,199.626,241.043,219.548,216.555,219.548z"/>
<g>
	<path style="fill:#FF3200;" d="M322.732,359.68L322.732,359.68c15.024-8.674,25.732-22.73,30.152-39.578l-28.959-7.595
		c-2.375,9.055-8.114,16.601-16.161,21.246c0,0,0,0-0.001,0L322.732,359.68z"/>
	<path style="fill:#FF3200;" d="M321.144,215.887c-15.024,8.674-25.732,22.729-30.152,39.578
		c-2.375,9.055-8.115,16.602-16.162,21.247l14.969,25.928c15.023-8.674,25.731-22.73,30.151-39.579
		c2.375-9.055,8.115-16.601,16.162-21.246c8.047-4.645,17.453-5.842,26.481-3.373l7.902-28.877
		C353.695,204.967,336.168,207.213,321.144,215.887z"/>
</g>
<path style="fill:#FFCF00;" d="M191.108,0v29.938c22.011,0,39.918,17.907,39.918,39.918v105.283c0,7.979-6.492,14.47-14.47,14.47
	s-14.47-6.492-14.47-14.47V65.864h-10.977v145.637c7.213,5.063,15.986,8.046,25.448,8.046c24.488,0,44.409-19.922,44.409-44.408
	V69.856C260.964,31.337,229.626,0,191.108,0z"/>
<g>
</g>
<g>
</g>
<g>
</g>
<g>
</g>
<g>
</g>
<g>
</g>
<g>
</g>
<g>
</g>
<g>
</g>
<g>
</g>
<g>
</g>
<g>
</g>
<g>
</g>
<g>
</g>
<g>
</g>
</svg>
