<?xml version="1.0" encoding="iso-8859-1"?>
<!-- Generator: Adobe Illustrator 19.0.0, SVG Export Plug-In . SVG Version: 6.00 Build 0)  -->
<svg version="1.1" id="Capa_1" xmlns="http://www.w3.org/2000/svg" xmlns:xlink="http://www.w3.org/1999/xlink" x="0px" y="0px"
	 viewBox="0 0 512 512" style="enable-background:new 0 0 512 512;" xml:space="preserve">
<path style="fill:#FFDF47;" d="M512,458.604H0v-300h512V458.604z"/>
<rect x="256" y="158.6" style="fill:#FFCF00;" width="256" height="300"/>
<g>
	<rect x="121" y="293.6" style="fill:#FF9A00;" width="270" height="30"/>
	<rect x="101" y="353.6" style="fill:#FF9A00;" width="310" height="30"/>
</g>
<path style="fill:#B857D0;" d="M287.112,294.141L140.521,147.548l18.05-42.116l30.801-3.423l6.939-21.975l33.905-26.639
	l155.221,155.221l-50.911,5.658l-3.176,28.58l-27.268,11.687L287.112,294.141z"/>
<polygon style="fill:#CA80DE;" points="256,79.18 230.216,53.396 196.311,80.035 189.372,102.009 158.571,105.432 140.521,147.548 
	256,263.029 "/>
<g>
	<rect x="256" y="293.6" style="fill:#E67500;" width="135" height="30"/>
	<rect x="256" y="353.6" style="fill:#E67500;" width="155" height="30"/>
</g>
<g>
</g>
<g>
</g>
<g>
</g>
<g>
</g>
<g>
</g>
<g>
</g>
<g>
</g>
<g>
</g>
<g>
</g>
<g>
</g>
<g>
</g>
<g>
</g>
<g>
</g>
<g>
</g>
<g>
</g>
</svg>
