<?xml version="1.0" encoding="iso-8859-1"?>
<!-- Generator: Adobe Illustrator 19.0.0, SVG Export Plug-In . SVG Version: 6.00 Build 0)  -->
<svg version="1.1" id="Capa_1" xmlns="http://www.w3.org/2000/svg" xmlns:xlink="http://www.w3.org/1999/xlink" x="0px" y="0px"
	 viewBox="0 0 512 512" style="enable-background:new 0 0 512 512;" xml:space="preserve">
<path style="fill:#FF4F19;" d="M200,142h-79V39.5C121,17.72,138.72,0,160.5,0S200,17.72,200,39.5V142z"/>
<path style="fill:#FF3200;" d="M391,142h-80V40c0-22.056,17.944-40,40-40s40,17.944,40,40V142z"/>
<path style="fill:#FF9A00;" d="M466,312H46V207c0-52.383,42.617-95,95-95h230c52.383,0,95,42.617,95,95V312z"/>
<path style="fill:#E67500;" d="M466,207c0-52.383-42.617-95-95-95H256v200h210V207z"/>
<path style="fill:#FFDF47;" d="M416,312H136V173h215c35.841,0,65,29.159,65,65V312z"/>
<path style="fill:#FFCF00;" d="M351,173h-95v139h160v-74C416,202.159,386.841,173,351,173z"/>
<path style="fill:#E80C6A;" d="M416,253h-80v-80h15c35.841,0,65,29.159,65,65V253z"/>
<path style="fill:#FF127F;" d="M326,312H96v-89h230V312z"/>
<path style="fill:#E80C6A;" d="M326,312h-70v-89h70V312z"/>
<path style="fill:#FF4F19;" d="M466,512H46V282h420V512z"/>
<rect x="256" y="282" style="fill:#FF3200;" width="210" height="230"/>
<path style="fill:#CA80DE;" d="M201,436h-80v-80h80V436z"/>
<path style="fill:#B857D0;" d="M391,436h-80v-80h80V436z"/>
<g>
</g>
<g>
</g>
<g>
</g>
<g>
</g>
<g>
</g>
<g>
</g>
<g>
</g>
<g>
</g>
<g>
</g>
<g>
</g>
<g>
</g>
<g>
</g>
<g>
</g>
<g>
</g>
<g>
</g>
</svg>
