<?xml version="1.0" encoding="iso-8859-1"?>
<!-- Generator: Adobe Illustrator 19.0.0, SVG Export Plug-In . SVG Version: 6.00 Build 0)  -->
<svg version="1.1" id="Capa_1" xmlns="http://www.w3.org/2000/svg" xmlns:xlink="http://www.w3.org/1999/xlink" x="0px" y="0px"
	 viewBox="0 0 512 512" style="enable-background:new 0 0 512 512;" xml:space="preserve">
<path style="fill:#CA80DE;" d="M405.5,512h-370V0h281.213L405.5,88.787V512z"/>
<polygon style="fill:#B857D0;" points="405.5,88.787 316.713,0 220.5,0 220.5,512 405.5,512 "/>
<polygon style="fill:#E80C6A;" points="295.5,110 405.5,110 405.5,88.787 316.713,0 295.5,0 "/>
<path style="fill:#FF9A00;" d="M174.5,212h-80v-80h80V212z"/>
<g>
	<rect x="203.5" y="132" style="fill:#E80C6A;" width="142" height="30"/>
	<rect x="203.5" y="182" style="fill:#E80C6A;" width="122" height="30"/>
</g>
<g>
	<rect x="203.5" y="132" style="fill:#FF127F;" width="17" height="30"/>
	<rect x="203.5" y="182" style="fill:#FF127F;" width="17" height="30"/>
</g>
<path style="fill:#FF9A00;" d="M174.5,320h-80v-80h80V320z"/>
<g>
	<rect x="203.5" y="240" style="fill:#E80C6A;" width="142" height="30"/>
	<rect x="203.5" y="290" style="fill:#E80C6A;" width="122" height="30"/>
</g>
<g>
	<rect x="203.5" y="240" style="fill:#FF127F;" width="17" height="30"/>
	<rect x="203.5" y="290" style="fill:#FF127F;" width="17" height="30"/>
</g>
<path style="fill:#FF9A00;" d="M174.5,428h-80v-80h80V428z"/>
<g>
	<rect x="203.5" y="348" style="fill:#E80C6A;" width="142" height="30"/>
	<rect x="203.5" y="398" style="fill:#E80C6A;" width="122" height="30"/>
</g>
<g>
	<rect x="203.5" y="348" style="fill:#FF127F;" width="17" height="30"/>
	<rect x="203.5" y="398" style="fill:#FF127F;" width="17" height="30"/>
</g>
<path style="fill:#FF9A00;" d="M386.5,475.766l-130-22.101v-83.256l130,20.8V475.766z M286.5,428.335l70,11.899v-23.443l-70-11.2
	V428.335z"/>
<polygon style="fill:#E67500;" points="321.5,380.809 321.5,411.191 356.5,416.791 356.5,440.234 321.5,434.285 321.5,464.715 
	386.5,475.766 386.5,391.209 "/>
<path style="fill:#FF4F19;" d="M426.5,428.707l-210-35V278.293l210-35V428.707z"/>
<path style="fill:#FFDF47;" d="M246.5,421h-80V251h80V421z"/>
<polygon style="fill:#FF3200;" points="426.5,243.293 321.5,260.793 321.5,411.207 426.5,428.707 "/>
<path style="fill:#FFCF00;" d="M476.5,451h-80V221h80V451z"/>
<g>
</g>
<g>
</g>
<g>
</g>
<g>
</g>
<g>
</g>
<g>
</g>
<g>
</g>
<g>
</g>
<g>
</g>
<g>
</g>
<g>
</g>
<g>
</g>
<g>
</g>
<g>
</g>
<g>
</g>
</svg>
