<?xml version="1.0" encoding="iso-8859-1"?>
<!-- Generator: Adobe Illustrator 19.0.0, SVG Export Plug-In . SVG Version: 6.00 Build 0)  -->
<svg version="1.1" id="Capa_1" xmlns="http://www.w3.org/2000/svg" xmlns:xlink="http://www.w3.org/1999/xlink" x="0px" y="0px"
	 viewBox="0 0 512 512" style="enable-background:new 0 0 512 512;" xml:space="preserve">
<path style="fill:#FFDF47;" d="M405.5,512h-370V0h281.213L405.5,88.787V512z"/>
<polygon style="fill:#FFCF00;" points="405.5,88.787 316.713,0 220.5,0 220.5,512 405.5,512 "/>
<path style="fill:#FF9A00;" d="M95.5,189v180h250V189H95.5z M315.5,264h-40v-45h40V264z M195.5,264v-45h50v45H195.5z M245.5,294v45
	h-50v-45H245.5z M165.5,219v45h-40v-45H165.5z M125.5,294h40v45h-40V294z M275.5,339v-45h40v45H275.5z"/>
<g>
	<rect x="95.5" y="129" style="fill:#FF4F19;" width="148" height="30"/>
	<rect x="95.5" y="79" style="fill:#FF4F19;" width="88" height="30"/>
</g>
<polygon style="fill:#E67500;" points="295.5,0 295.5,110 405.5,110 405.5,88.787 316.713,0 "/>
<rect x="220.5" y="129" style="fill:#FF3200;" width="23" height="30"/>
<path style="fill:#E67500;" d="M220.5,189v30h25v45h-25v30h25v45h-25v30h125V189H220.5z M315.5,339h-40v-45h40V339z M315.5,264h-40
	v-45h40V264z"/>
<path style="fill:#B857D0;" d="M341.5,512c-74.439,0-135-60.561-135-135s60.561-135,135-135s135,60.561,135,135
	S415.939,512,341.5,512z"/>
<path style="fill:#FF127F;" d="M341.434,511.529c-0.002,0,0.001,0-0.001,0c-36.211,0-70.113-13.959-95.459-39.306
	c-25.346-25.346-39.305-59.247-39.305-95.459s13.959-70.113,39.306-95.459C271.32,255.959,305.221,242,341.433,242
	s70.113,13.959,95.459,39.306l10.607,10.606l-84.853,84.853l84.852,84.854l-10.606,10.606
	C411.547,497.569,377.643,511.529,341.434,511.529z"/>
<path style="fill:#E80C6A;" d="M447.499,291.912l-10.607-10.606c-25.33-25.331-59.206-39.288-95.392-39.305v269.528
	c36.184-0.017,70.062-13.975,95.392-39.304l10.606-10.606l-84.852-84.854L447.499,291.912z"/>
<g>
</g>
<g>
</g>
<g>
</g>
<g>
</g>
<g>
</g>
<g>
</g>
<g>
</g>
<g>
</g>
<g>
</g>
<g>
</g>
<g>
</g>
<g>
</g>
<g>
</g>
<g>
</g>
<g>
</g>
</svg>
