<?xml version="1.0" encoding="iso-8859-1"?>
<!-- Generator: Adobe Illustrator 19.0.0, SVG Export Plug-In . SVG Version: 6.00 Build 0)  -->
<svg version="1.1" id="Capa_1" xmlns="http://www.w3.org/2000/svg" xmlns:xlink="http://www.w3.org/1999/xlink" x="0px" y="0px"
	 viewBox="0 0 512 512" style="enable-background:new 0 0 512 512;" xml:space="preserve">
<path style="fill:#FF9A00;" d="M320,512H0V329c0-88.225,71.776-160,160-160s160,71.775,160,160V512z"/>
<path style="fill:#E67500;" d="M320,329c0-88.225-71.776-160-160-160v343h160V329z"/>
<path style="fill:#FFDF47;" d="M160,246c-67.822,0-123-55.178-123-123S92.178,0,160,0s123,55.178,123,123S227.822,246,160,246z"/>
<path style="fill:#FFCF00;" d="M160,0v246c67.822,0,123-55.178,123-123S227.822,0,160,0z"/>
<path style="fill:#CA80DE;" d="M512,464H142V224h40.687l-16.523-85.921L319.004,224H512V464z"/>
<rect x="327" y="224" style="fill:#B857D0;" width="185" height="240"/>
<polygon style="fill:#FF4F19;" points="279.858,396.609 223.997,340.749 245.209,319.536 279.858,354.184 342.791,291.251 
	364.003,312.464 "/>
<g>
	<rect x="395" y="275" style="fill:#FF3200;" width="30" height="89"/>
	<rect x="395" y="385" style="fill:#FF3200;" width="30" height="30"/>
	<polygon style="fill:#FF3200;" points="327,349.467 364.003,312.464 342.791,291.251 327,307.042 	"/>
</g>
<g>
</g>
<g>
</g>
<g>
</g>
<g>
</g>
<g>
</g>
<g>
</g>
<g>
</g>
<g>
</g>
<g>
</g>
<g>
</g>
<g>
</g>
<g>
</g>
<g>
</g>
<g>
</g>
<g>
</g>
</svg>
