<?xml version="1.0" encoding="iso-8859-1"?>
<!-- Generator: Adobe Illustrator 19.0.0, SVG Export Plug-In . SVG Version: 6.00 Build 0)  -->
<svg version="1.1" id="Capa_1" xmlns="http://www.w3.org/2000/svg" xmlns:xlink="http://www.w3.org/1999/xlink" x="0px" y="0px"
	 viewBox="0 0 512 512" style="enable-background:new 0 0 512 512;" xml:space="preserve">
<path style="fill:#CA80DE;" d="M392,122H120V55c0-30.327,24.673-55,55-55h162c30.327,0,55,24.673,55,55V122z"/>
<path style="fill:#B857D0;" d="M392,55c0-30.327-24.673-55-55-55h-81v122h136V55z"/>
<path style="fill:#CA80DE;" d="M364.734,512H147.266l-32.647-370h282.764L364.734,512z"/>
<polygon style="fill:#B857D0;" points="397.382,142 256,142 256,512 364.734,512 "/>
<path style="fill:#FF127F;" d="M441,172H71V92h109.834l7.813-40h134.707l7.813,40H441V172z"/>
<g>
	<polygon style="fill:#E67500;" points="317.394,297.606 276.5,256.713 241.5,291.713 217,267.213 188.606,295.606 167.394,274.394 
		217,224.787 241.5,249.287 276.5,214.287 338.606,276.394 	"/>
	<rect x="187" y="321" style="fill:#E67500;" width="138" height="30"/>
</g>
<path style="fill:#FF4F19;" d="M426,475H306v-90h120V475z"/>
<path style="fill:#FF3200;" d="M426,475h-60v-90h60V475z"/>
<path style="fill:#FFDF47;" d="M426,415H306V243.787l60-60l60,60V415z"/>
<polygon style="fill:#FFCF00;" points="426,243.787 366,183.787 366,415 426,415 "/>
<polygon style="fill:#E80C6A;" points="441,92 331.166,92 323.354,52 256,52 256,172 441,172 "/>
<g>
	<polygon style="fill:#FF9A00;" points="256,234.787 241.5,249.287 217,224.787 167.394,274.394 188.606,295.606 217,267.213 
		241.5,291.713 256,277.213 	"/>
	<rect x="187" y="321" style="fill:#FF9A00;" width="69" height="30"/>
</g>
<g>
</g>
<g>
</g>
<g>
</g>
<g>
</g>
<g>
</g>
<g>
</g>
<g>
</g>
<g>
</g>
<g>
</g>
<g>
</g>
<g>
</g>
<g>
</g>
<g>
</g>
<g>
</g>
<g>
</g>
</svg>
