<?xml version="1.0" encoding="iso-8859-1"?>
<!-- Generator: Adobe Illustrator 19.0.0, SVG Export Plug-In . SVG Version: 6.00 Build 0)  -->
<svg version="1.1" id="Capa_1" xmlns="http://www.w3.org/2000/svg" xmlns:xlink="http://www.w3.org/1999/xlink" x="0px" y="0px"
	 viewBox="0 0 512 512" style="enable-background:new 0 0 512 512;" xml:space="preserve">
<path style="fill:#FF9A00;" d="M351.959,484.098H138.251l25.184-146.063h163.34L351.959,484.098z"/>
<polygon style="fill:#E67500;" points="326.775,338.035 245.105,338.035 245.105,484.098 351.959,484.098 "/>
<path style="fill:#FFDF47;" d="M490.21,368.048H0V27.902h490.21V368.048z"/>
<rect x="245.105" y="27.902" style="fill:#FFCF00;" width="245.105" height="340.146"/>
<path style="fill:#FF9A00;" d="M440.188,318.027H50.021V77.924h390.167V318.027z"/>
<path style="fill:#E67500;" d="M440.188,318.027H245.105V77.924h195.083V318.027z"/>
<path style="fill:#E80C6A;" d="M427.183,448.082h-65.028V338.035h110.047v65.028C472.202,427.887,452.006,448.082,427.183,448.082z"
	/>
<path style="fill:#B857D0;" d="M434.186,194.095c-11.528,0-23.057-4.389-31.833-13.165l-45.982-45.982l77.814-77.815L512,134.947
	l-45.982,45.982C457.243,189.706,445.714,194.095,434.186,194.095z"/>
<path style="fill:#FF3200;" d="M433.054,340.166l-55.024-95.303l95.303-55.024l32.514,56.315
	c6.013,10.413,7.609,22.546,4.498,34.161c-3.112,11.615-10.563,21.323-20.976,27.336L433.054,340.166z"/>
<g>
</g>
<g>
</g>
<g>
</g>
<g>
</g>
<g>
</g>
<g>
</g>
<g>
</g>
<g>
</g>
<g>
</g>
<g>
</g>
<g>
</g>
<g>
</g>
<g>
</g>
<g>
</g>
<g>
</g>
</svg>
