<?xml version="1.0" encoding="iso-8859-1"?>
<!-- Generator: Adobe Illustrator 19.0.0, SVG Export Plug-In . SVG Version: 6.00 Build 0)  -->
<svg version="1.1" id="Capa_1" xmlns="http://www.w3.org/2000/svg" xmlns:xlink="http://www.w3.org/1999/xlink" x="0px" y="0px"
	 viewBox="0 0 512 512" style="enable-background:new 0 0 512 512;" xml:space="preserve">
<path style="fill:#FF127F;" d="M184,170c-46.869,0-85-38.131-85-85s38.131-85,85-85s85,38.131,85,85S230.869,170,184,170z M184,30
	c-30.327,0-55,24.673-55,55s24.673,55,55,55s55-24.673,55-55S214.327,30,184,30z"/>
<path style="fill:#E80C6A;" d="M185,0.025v30c29.866,0.537,54,24.983,54,54.975s-24.134,54.437-54,54.975v30
	c46.408-0.54,84-38.441,84-84.975S231.408,0.566,185,0.025z"/>
<path style="fill:#FF4F19;" d="M225,184h-80V84h80V184z"/>
<rect x="185" y="84" style="fill:#FF3200;" width="40" height="100"/>
<path style="fill:#CA80DE;" d="M185,512C82.991,512,0,429.01,0,327s82.991-185,185-185s185,82.99,185,185S287.009,512,185,512z"/>
<path style="fill:#B857D0;" d="M185,142v370c102.009,0,185-82.99,185-185S287.009,142,185,142z"/>
<path style="fill:#FFDF47;" d="M185,462c-74.439,0-135-60.561-135-135s60.561-135,135-135s135,60.561,135,135S259.439,462,185,462z"
	/>
<path style="fill:#FFCF00;" d="M185,192v270c74.439,0,135-60.561,135-135S259.439,192,185,192z"/>
<polygon style="fill:#FF127F;" points="259,342 170,342 170,240 200,240 200,312 259,312 "/>
<path style="fill:#FF4F19;" d="M512,373H278V139h234V373z"/>
<rect x="395" y="139" style="fill:#FF3200;" width="117" height="234"/>
<g>
	<rect x="380" y="199" style="fill:#FFDF47;" width="30" height="51"/>
	<rect x="380" y="283" style="fill:#FFDF47;" width="30" height="30"/>
</g>
<g>
	<rect x="395" y="199" style="fill:#FFCF00;" width="15" height="51"/>
	<rect x="395" y="283" style="fill:#FFCF00;" width="15" height="30"/>
</g>
<polygon style="fill:#E80C6A;" points="259,342 185,342 185,240 200,240 200,312 259,312 "/>
<g>
</g>
<g>
</g>
<g>
</g>
<g>
</g>
<g>
</g>
<g>
</g>
<g>
</g>
<g>
</g>
<g>
</g>
<g>
</g>
<g>
</g>
<g>
</g>
<g>
</g>
<g>
</g>
<g>
</g>
</svg>
