<?xml version="1.0" encoding="iso-8859-1"?>
<!-- Generator: Adobe Illustrator 19.0.0, SVG Export Plug-In . SVG Version: 6.00 Build 0)  -->
<svg version="1.1" id="Capa_1" xmlns="http://www.w3.org/2000/svg" xmlns:xlink="http://www.w3.org/1999/xlink" x="0px" y="0px"
	 viewBox="0 0 512 512" style="enable-background:new 0 0 512 512;" xml:space="preserve">
<path style="fill:#FFDF47;" d="M432,426H0V46h432V426z"/>
<rect x="216" y="46" style="fill:#FFCF00;" width="216" height="380"/>
<path style="fill:#FF9A00;" d="M432,259v-30H331v-69h-30v69h-70v-69h-30v69h-70v-69h-30v69H0v30h101v54H0v30h101v83h30v-83h70v83h30
	v-83h70v83h30v-83h101v-30H331v-54H432z M131,313v-54h70v54H131z M301,313h-70v-54h70V313z"/>
<path style="fill:#E67500;" d="M432,259v-30H331v-69h-30v69h-70v-69h-15v266h15v-83h70v83h30v-83h101v-30H331v-54H432z M301,313h-70
	v-54h70V313z"/>
<path style="fill:#FF4F19;" d="M432,176H0V46h432V176z"/>
<rect x="216" y="46" style="fill:#FF3200;" width="216" height="130"/>
<path style="fill:#FF9A00;" d="M90,122c-21.505,0-39-17.495-39-39V39C51,17.495,68.495,0,90,0s39,17.495,39,39v44
	C129,104.505,111.505,122,90,122z"/>
<path style="fill:#E67500;" d="M342,122c-21.505,0-39-17.495-39-39V39c0-21.505,17.495-39,39-39s39,17.495,39,39v44
	C381,104.505,363.505,122,342,122z"/>
<path style="fill:#FF127F;" d="M367,252c-33.084,0-60-26.916-60-60s26.916-60,60-60s60,26.916,60,60S400.084,252,367,252z M367,162
	c-16.542,0-30,13.458-30,30s13.458,30,30,30s30-13.458,30-30S383.542,162,367,162z"/>
<path style="fill:#E80C6A;" d="M367,132v30c16.542,0,30,13.458,30,30s-13.458,30-30,30v30c33.084,0,60-26.916,60-60
	S400.084,132,367,132z"/>
<path style="fill:#CA80DE;" d="M367,512c-79.953,0-145-65.047-145-145s65.047-145,145-145s145,65.047,145,145S446.953,512,367,512z"
	/>
<path style="fill:#B857D0;" d="M367,222v290c79.953,0,145-65.047,145-145S446.953,222,367,222z"/>
<polygon style="fill:#FFDF47;" points="463,382 352,382 352,293.651 382,293.651 382,352 463,352 "/>
<polygon style="fill:#FFCF00;" points="463,382 367,382 367,293.651 382,293.651 382,352 463,352 "/>
<g>
</g>
<g>
</g>
<g>
</g>
<g>
</g>
<g>
</g>
<g>
</g>
<g>
</g>
<g>
</g>
<g>
</g>
<g>
</g>
<g>
</g>
<g>
</g>
<g>
</g>
<g>
</g>
<g>
</g>
</svg>
