<?xml version="1.0" encoding="iso-8859-1"?>
<!-- Generator: Adobe Illustrator 19.0.0, SVG Export Plug-In . SVG Version: 6.00 Build 0)  -->
<svg version="1.1" id="Capa_1" xmlns="http://www.w3.org/2000/svg" xmlns:xlink="http://www.w3.org/1999/xlink" x="0px" y="0px"
	 viewBox="0 0 512 512" style="enable-background:new 0 0 512 512;" xml:space="preserve">
<path style="fill:#CA80DE;" d="M401,512H31V0h275c52.383,0,95,42.617,95,95V512z"/>
<path style="fill:#B857D0;" d="M401,95c0-52.383-42.617-95-95-95h-90v512h185V95z"/>
<path style="fill:#E80C6A;" d="M401,110H291V0h15c52.383,0,95,42.617,95,95V110z"/>
<g>
	<rect x="101" y="241" style="fill:#FFCF00;" width="230" height="30"/>
	<rect x="101" y="191" style="fill:#FFCF00;" width="230" height="30"/>
	<rect x="101" y="141" style="fill:#FFCF00;" width="230" height="30"/>
	<rect x="101" y="91" style="fill:#FFCF00;" width="150" height="30"/>
	<rect x="101" y="291" style="fill:#FFCF00;" width="230" height="30"/>
	<rect x="101" y="341" style="fill:#FFCF00;" width="230" height="30"/>
	<rect x="101" y="391" style="fill:#FFCF00;" width="160" height="30"/>
</g>
<path style="fill:#FF9A00;" d="M341,445.025V268h90v102.025L341,445.025z"/>
<g>
	<rect x="101" y="91" style="fill:#FFDF47;" width="115" height="30"/>
	<rect x="101" y="141" style="fill:#FFDF47;" width="115" height="30"/>
	<rect x="101" y="191" style="fill:#FFDF47;" width="115" height="30"/>
	<rect x="101" y="241" style="fill:#FFDF47;" width="115" height="30"/>
	<rect x="101" y="291" style="fill:#FFDF47;" width="115" height="30"/>
	<rect x="101" y="341" style="fill:#FFDF47;" width="115" height="30"/>
	<rect x="101" y="391" style="fill:#FFDF47;" width="115" height="30"/>
</g>
<polygon style="fill:#E67500;" points="431,268 386,268 386,407.525 431,370.025 "/>
<path style="fill:#FF4F19;" d="M406,301h-40c-41.355,0-75-33.645-75-75v-45h190v45C481,267.355,447.355,301,406,301z"/>
<path style="fill:#FF3200;" d="M386,181v120h20c41.355,0,75-33.645,75-75v-45H386z"/>
<g>
</g>
<g>
</g>
<g>
</g>
<g>
</g>
<g>
</g>
<g>
</g>
<g>
</g>
<g>
</g>
<g>
</g>
<g>
</g>
<g>
</g>
<g>
</g>
<g>
</g>
<g>
</g>
<g>
</g>
</svg>
