<?xml version="1.0" encoding="iso-8859-1"?>
<!-- Generator: Adobe Illustrator 19.0.0, SVG Export Plug-In . SVG Version: 6.00 Build 0)  -->
<svg version="1.1" id="Capa_1" xmlns="http://www.w3.org/2000/svg" xmlns:xlink="http://www.w3.org/1999/xlink" x="0px" y="0px"
	 viewBox="0 0 512 512" style="enable-background:new 0 0 512 512;" xml:space="preserve">
<g>
	<polygon style="fill:#E67500;" points="420,184.5 390,184.5 390,132.5 315,132.5 315,102.5 420,102.5 	"/>
	<path style="fill:#E67500;" d="M492,449.5H300v-155h192V449.5z"/>
</g>
<path style="fill:#FF3200;" d="M512,324.5H300v-155h212V324.5z"/>
<path style="fill:#CA80DE;" d="M330,481.5H0v-410h330V481.5z"/>
<rect x="165" y="71.5" style="fill:#B857D0;" width="165" height="410"/>
<path style="fill:#FF127F;" d="M255,140.5H75v-110h180V140.5z"/>
<path style="fill:#FFDF47;" d="M139,251.5H59v-80h80V251.5z"/>
<g>
	<rect x="168" y="171.5" style="fill:#FFCF00;" width="99" height="30"/>
	<rect x="168" y="221.5" style="fill:#FFCF00;" width="79" height="30"/>
</g>
<path style="fill:#FFDF47;" d="M139,381.5H59v-80h80V381.5z"/>
<g>
	<rect x="168" y="301.5" style="fill:#FFCF00;" width="99" height="30"/>
	<rect x="168" y="351.5" style="fill:#FFCF00;" width="79" height="30"/>
	<path style="fill:#FFCF00;" d="M444,358.5h-98v-98h98V358.5z"/>
</g>
<rect x="165" y="30.5" style="fill:#E80C6A;" width="90" height="110"/>
<g>
</g>
<g>
</g>
<g>
</g>
<g>
</g>
<g>
</g>
<g>
</g>
<g>
</g>
<g>
</g>
<g>
</g>
<g>
</g>
<g>
</g>
<g>
</g>
<g>
</g>
<g>
</g>
<g>
</g>
</svg>
