<?xml version="1.0" encoding="iso-8859-1"?>
<!-- Generator: Adobe Illustrator 19.0.0, SVG Export Plug-In . SVG Version: 6.00 Build 0)  -->
<svg version="1.1" id="Capa_1" xmlns="http://www.w3.org/2000/svg" xmlns:xlink="http://www.w3.org/1999/xlink" x="0px" y="0px"
	 viewBox="0 0 512 512" style="enable-background:new 0 0 512 512;" xml:space="preserve">
<polygon style="fill:#FF9A00;" points="338.606,490.394 271,422.787 271,375 241,375 241,422.787 173.394,490.394 194.606,511.606 
	241,465.213 241,512 271,512 271,465.213 317.394,511.606 "/>
<polygon style="fill:#E67500;" points="271,422.787 271,375 256,375 256,512 271,512 271,465.213 317.394,511.606 338.606,490.394 
	"/>
<rect x="241" style="fill:#FF9A00;" width="30" height="55"/>
<rect x="256" style="fill:#E67500;" width="15" height="55"/>
<path style="fill:#FF127F;" d="M336,120H176V40h160V120z"/>
<rect x="256" y="40" style="fill:#E80C6A;" width="80" height="80"/>
<path style="fill:#CA80DE;" d="M462,340H50V90h412V340z"/>
<rect x="256" y="90" style="fill:#B857D0;" width="206" height="250"/>
<path style="fill:#FF127F;" d="M482,390H30v-80h452V390z"/>
<polygon style="fill:#FFDF47;" points="412,290 100,290 100,160 130,160 130,260 412,260 "/>
<polygon style="fill:#FF4F19;" points="356,149 303,149 318.768,164.768 280.75,202.787 235.25,157.287 163.144,229.394 
	184.356,250.606 235.25,199.713 280.75,245.213 339.981,185.982 356,202 "/>
<rect x="256" y="310" style="fill:#E80C6A;" width="226" height="80"/>
<rect x="256" y="260" style="fill:#FFCF00;" width="156" height="30"/>
<polygon style="fill:#FF3200;" points="303,149 318.768,164.768 280.75,202.787 256,178.037 256,220.463 280.75,245.213 
	339.981,185.982 356,202 356,149 "/>
<g>
</g>
<g>
</g>
<g>
</g>
<g>
</g>
<g>
</g>
<g>
</g>
<g>
</g>
<g>
</g>
<g>
</g>
<g>
</g>
<g>
</g>
<g>
</g>
<g>
</g>
<g>
</g>
<g>
</g>
</svg>
