<?xml version="1.0" encoding="iso-8859-1"?>
<!-- Generator: Adobe Illustrator 19.0.0, SVG Export Plug-In . SVG Version: 6.00 Build 0)  -->
<svg version="1.1" id="Capa_1" xmlns="http://www.w3.org/2000/svg" xmlns:xlink="http://www.w3.org/1999/xlink" x="0px" y="0px"
	 viewBox="0 0 512 512" style="enable-background:new 0 0 512 512;" xml:space="preserve">
<polygon style="fill:#FF9A00;" points="119,413 41,413 41,215 71,215 71,383 119,383 "/>
<path style="fill:#CA80DE;" d="M512,230H0V0h512V230z"/>
<rect x="256" style="fill:#B857D0;" width="256" height="230"/>
<path style="fill:#FF9A00;" d="M125,200c-46.869,0-85-38.131-85-85s38.131-85,85-85s85,38.131,85,85S171.869,200,125,200z"/>
<g>
	<rect x="242" y="50" style="fill:#E80C6A;" width="210" height="30"/>
	<rect x="242" y="100" style="fill:#E80C6A;" width="210" height="30"/>
	<rect x="242" y="150" style="fill:#E80C6A;" width="170" height="30"/>
</g>
<path style="fill:#FF127F;" d="M125,119c-29.776,0-54,24.224-54,54v7.595C85.693,192.713,104.511,200,125,200
	s39.307-7.287,54-19.405V173C179,143.224,154.776,119,125,119z"/>
<path style="fill:#FFDF47;" d="M125,149c-22.056,0-40-17.944-40-40s17.944-40,40-40s40,17.944,40,40S147.056,149,125,149z"/>
<g>
	<rect x="242" y="50" style="fill:#FF127F;" width="14" height="30"/>
	<rect x="242" y="100" style="fill:#FF127F;" width="14" height="30"/>
	<rect x="242" y="150" style="fill:#FF127F;" width="14" height="30"/>
</g>
<path style="fill:#FFDF47;" d="M512,512H104V282h408V512z"/>
<path style="fill:#FFCF00;" d="M512,512H256V282h256V512z"/>
<g>
	<rect x="346" y="332" style="fill:#FF3200;" width="106" height="30"/>
	<rect x="346" y="382" style="fill:#FF3200;" width="106" height="30"/>
	<rect x="346" y="432" style="fill:#FF3200;" width="66" height="30"/>
</g>
<path style="fill:#CA80DE;" d="M229,482c-46.869,0-85-38.131-85-85s38.131-85,85-85s85,38.131,85,85S275.869,482,229,482z"/>
<path style="fill:#B857D0;" d="M256,316.422v161.157c33.669-11.312,58-43.147,58-80.578S289.669,327.734,256,316.422z"/>
<path style="fill:#FF4F19;" d="M229,401c-29.776,0-54,24.224-54,54v7.595C189.693,474.713,208.511,482,229,482
	s39.307-7.287,54-19.405V455C283,425.224,258.776,401,229,401z"/>
<path style="fill:#FF3200;" d="M256,408.265v69.321c9.941-3.34,19.074-8.454,27-14.991V455C283,435.056,272.124,417.616,256,408.265
	z"/>
<path style="fill:#FFDF47;" d="M229,431c-22.056,0-40-17.944-40-40s17.944-40,40-40s40,17.944,40,40S251.056,431,229,431z"/>
<path style="fill:#FFCF00;" d="M256,361.517v58.966c7.984-7.318,13-17.825,13-29.483S263.984,368.835,256,361.517z"/>
<g>
</g>
<g>
</g>
<g>
</g>
<g>
</g>
<g>
</g>
<g>
</g>
<g>
</g>
<g>
</g>
<g>
</g>
<g>
</g>
<g>
</g>
<g>
</g>
<g>
</g>
<g>
</g>
<g>
</g>
</svg>
