<?xml version="1.0" encoding="iso-8859-1"?>
<!-- Generator: Adobe Illustrator 19.0.0, SVG Export Plug-In . SVG Version: 6.00 Build 0)  -->
<svg version="1.1" id="Capa_1" xmlns="http://www.w3.org/2000/svg" xmlns:xlink="http://www.w3.org/1999/xlink" x="0px" y="0px"
	 viewBox="0 0 512 512" style="enable-background:new 0 0 512 512;" xml:space="preserve">
<path style="fill:#FF127F;" d="M464,142H114V0h350V142z"/>
<path style="fill:#E80C6A;" d="M464,142H256V0h208V142z"/>
<path style="fill:#CA80DE;" d="M398,142H48V52h350V142z"/>
<path style="fill:#B857D0;" d="M398,142H256V52h142V142z"/>
<path style="fill:#FF9A00;" d="M510.699,232H1.301l26.667-120h456.065L510.699,232z"/>
<polygon style="fill:#E67500;" points="484.033,112 256,112 256,232 510.699,232 "/>
<path style="fill:#FFDF47;" d="M512,512H0V202h512V512z"/>
<rect x="256" y="202" style="fill:#FFCF00;" width="256" height="310"/>
<path style="fill:#B857D0;" d="M462,462H272V352h190V462z"/>
<g>
	<rect x="50" y="252" style="fill:#FF4F19;" width="162" height="30"/>
	<rect x="50" y="302" style="fill:#FF4F19;" width="162" height="30"/>
	<rect x="50" y="352" style="fill:#FF4F19;" width="112" height="30"/>
</g>
<g>
</g>
<g>
</g>
<g>
</g>
<g>
</g>
<g>
</g>
<g>
</g>
<g>
</g>
<g>
</g>
<g>
</g>
<g>
</g>
<g>
</g>
<g>
</g>
<g>
</g>
<g>
</g>
<g>
</g>
</svg>
