<?xml version="1.0" encoding="iso-8859-1"?>
<!-- Generator: Adobe Illustrator 19.0.0, SVG Export Plug-In . SVG Version: 6.00 Build 0)  -->
<svg version="1.1" id="Capa_1" xmlns="http://www.w3.org/2000/svg" xmlns:xlink="http://www.w3.org/1999/xlink" x="0px" y="0px"
	 viewBox="0 0 512 512" style="enable-background:new 0 0 512 512;" xml:space="preserve">
<path style="fill:#FFDF47;" d="M390.5,512h-350V0h350V512z"/>
<rect x="215.5" style="fill:#FFCF00;" width="175" height="512"/>
<g>
	<rect x="150.5" y="165" style="fill:#FF9A00;" width="180" height="30"/>
	<rect x="150.5" y="225" style="fill:#FF9A00;" width="140" height="30"/>
	<rect x="150.5" y="285" style="fill:#FF9A00;" width="90" height="30"/>
	<rect x="150.5" y="345" style="fill:#FF9A00;" width="90" height="30"/>
	<rect x="150.5" y="405" style="fill:#FF9A00;" width="120" height="30"/>
</g>
<g>
	<circle style="fill:#FF4F19;" cx="115.5" cy="180" r="15"/>
	<circle style="fill:#FF4F19;" cx="115.5" cy="240" r="15"/>
	<circle style="fill:#FF4F19;" cx="115.5" cy="300" r="15"/>
	<circle style="fill:#FF4F19;" cx="115.5" cy="360" r="15"/>
	<circle style="fill:#FF4F19;" cx="115.5" cy="420" r="15"/>
</g>
<rect x="138.5" y="76" style="fill:#FF9A00;" width="154" height="30"/>
<g>
	<rect x="215.5" y="76" style="fill:#E67500;" width="77" height="30"/>
	<rect x="215.5" y="165" style="fill:#E67500;" width="115" height="30"/>
	<rect x="215.5" y="225" style="fill:#E67500;" width="75" height="30"/>
	<rect x="215.5" y="285" style="fill:#E67500;" width="25" height="30"/>
	<rect x="215.5" y="345" style="fill:#E67500;" width="25" height="30"/>
	<rect x="215.5" y="405" style="fill:#E67500;" width="55" height="30"/>
</g>
<path style="fill:#B857D0;" d="M346.5,462c-68.925,0-125-56.075-125-125s56.075-125,125-125s125,56.075,125,125
	S415.425,462,346.5,462z"/>
<polygon style="fill:#FFCF00;" points="337.973,399.336 275.747,337.111 296.96,315.898 337.973,356.91 402.993,291.889 
	424.206,313.102 "/>
<g>
</g>
<g>
</g>
<g>
</g>
<g>
</g>
<g>
</g>
<g>
</g>
<g>
</g>
<g>
</g>
<g>
</g>
<g>
</g>
<g>
</g>
<g>
</g>
<g>
</g>
<g>
</g>
<g>
</g>
</svg>
