<?xml version="1.0" encoding="iso-8859-1"?>
<!-- Generator: Adobe Illustrator 19.0.0, SVG Export Plug-In . SVG Version: 6.00 Build 0)  -->
<svg version="1.1" id="Capa_1" xmlns="http://www.w3.org/2000/svg" xmlns:xlink="http://www.w3.org/1999/xlink" x="0px" y="0px"
	 viewBox="0 0 512 512" style="enable-background:new 0 0 512 512;" xml:space="preserve">
<path style="fill:#FF9A00;" d="M512,512H40V162h472V512z"/>
<path style="fill:#E67500;" d="M512,512H256V162h256V512z"/>
<path style="fill:#FFDF47;" d="M462,462H0V122h462V462z"/>
<path style="fill:#FFCF00;" d="M462,462H256V122h206V462z"/>
<path style="fill:#FF9A00;" d="M125,359.79V198h262v81.674l-40.212,23.142l-27.861-0.878l-30.022,23.294l-29.436-5.355
	l-29.536,20.65l-35.345-9.141l-22.306-4.655L125,359.79z"/>
<polygon style="fill:#E67500;" points="256,198 256,322.303 259.469,319.877 288.904,325.232 318.927,301.938 346.788,302.816 
	387,279.674 387,198 "/>
<path style="fill:#CA80DE;" d="M421,250H91V87h330V250z"/>
<rect x="256" y="87" style="fill:#B857D0;" width="165" height="163"/>
<path style="fill:#FF127F;" d="M366,200h-73.426l-12.14-109.253l3.572-4.755C288.582,79.902,291,72.643,291,65
	c0-19.299-15.701-35-35-35s-35,15.701-35,35c0,7.643,2.418,14.902,6.993,20.992l3.572,4.755L219.426,200H146v-30h46.574
	l7.908-71.175C194.261,88.661,191,77.086,191,65c0-35.841,29.159-65,65-65s65,29.159,65,65c0,12.086-3.261,23.661-9.482,33.825
	L319.426,170H366V200z"/>
<path style="fill:#E80C6A;" d="M319.426,170l-7.908-71.175C317.739,88.661,321,77.086,321,65c0-35.841-29.159-65-65-65v30
	c19.299,0,35,15.701,35,35c0,7.643-2.418,14.902-6.993,20.992l-3.572,4.755L292.574,200H366v-30H319.426z"/>
<g>
</g>
<g>
</g>
<g>
</g>
<g>
</g>
<g>
</g>
<g>
</g>
<g>
</g>
<g>
</g>
<g>
</g>
<g>
</g>
<g>
</g>
<g>
</g>
<g>
</g>
<g>
</g>
<g>
</g>
</svg>
