<?xml version="1.0" encoding="iso-8859-1"?>
<!-- Generator: Adobe Illustrator 19.0.0, SVG Export Plug-In . SVG Version: 6.00 Build 0)  -->
<svg version="1.1" id="Capa_1" xmlns="http://www.w3.org/2000/svg" xmlns:xlink="http://www.w3.org/1999/xlink" x="0px" y="0px"
	 viewBox="0 0 512 512" style="enable-background:new 0 0 512 512;" xml:space="preserve">
<path style="fill:#FF3200;" d="M391.134,512l-65.064-39.039L261.005,512V390.387h130.129V512z"/>
<path style="fill:#CA80DE;" d="M441.183,420.416H150.896V0h290.287V420.416z"/>
<path style="fill:#B857D0;" d="M441.183,420.416H256V0h185.183V420.416z"/>
<path style="fill:#FF127F;" d="M180.926,420.416h-65.064c-24.838,0-45.045-20.207-45.045-45.045V45.045
	C70.817,20.207,91.024,0,115.861,0h65.064V420.416z"/>
<path style="fill:#E80C6A;" d="M441.183,265.263h-85.084c-30.357,0-55.055-24.697-55.055-55.055s24.697-55.055,55.055-55.055h85.084
	V265.263z"/>
<circle style="fill:#FFCF00;" cx="358.105" cy="210.208" r="15.015"/>
<g>
	<rect x="230.979" y="330.327" style="fill:#FFDF47;" width="130.129" height="30.03"/>
	<rect x="230.979" y="280.278" style="fill:#FFDF47;" width="130.129" height="30.03"/>
</g>
<g>
	<rect x="256.004" y="280.278" style="fill:#FFCF00;" width="105.104" height="30.03"/>
	<rect x="256.004" y="330.327" style="fill:#FFCF00;" width="105.104" height="30.03"/>
</g>
<g>
</g>
<g>
</g>
<g>
</g>
<g>
</g>
<g>
</g>
<g>
</g>
<g>
</g>
<g>
</g>
<g>
</g>
<g>
</g>
<g>
</g>
<g>
</g>
<g>
</g>
<g>
</g>
<g>
</g>
</svg>
