<?xml version="1.0" encoding="iso-8859-1"?>
<!-- Generator: Adobe Illustrator 19.0.0, SVG Export Plug-In . SVG Version: 6.00 Build 0)  -->
<svg version="1.1" id="Capa_1" xmlns="http://www.w3.org/2000/svg" xmlns:xlink="http://www.w3.org/1999/xlink" x="0px" y="0px"
	 viewBox="0 0 512 512" style="enable-background:new 0 0 512 512;" xml:space="preserve">
<path style="fill:#FFDF47;" d="M390.443,512h-390V0h390V512z"/>
<rect x="195.438" style="fill:#FFCF00;" width="195" height="512"/>
<g>
	<path style="fill:#FF9A00;" d="M95.443,156c-19.555,0-36.228,12.541-42.42,30H0.443v30h52.58c6.192,17.459,22.865,30,42.42,30
		c24.813,0,45-20.187,45-45S120.256,156,95.443,156z M95.443,216c-8.271,0-15-6.729-15-15s6.729-15,15-15s15,6.729,15,15
		S103.714,216,95.443,216z"/>
	<path style="fill:#FF9A00;" d="M95.443,136c24.813,0,45-20.187,45-45s-20.187-45-45-45c-19.555,0-36.228,12.541-42.42,30H0.443v30
		h52.58C59.216,123.459,75.889,136,95.443,136z M95.443,76c8.271,0,15,6.729,15,15s-6.729,15-15,15s-15-6.729-15-15
		S87.172,76,95.443,76z"/>
	<path style="fill:#FF9A00;" d="M95.443,376c-19.555,0-36.228,12.541-42.42,30H0.443v30h52.58c6.192,17.459,22.865,30,42.42,30
		c24.813,0,45-20.187,45-45S120.256,376,95.443,376z M95.443,436c-8.271,0-15-6.729-15-15s6.729-15,15-15s15,6.729,15,15
		S103.714,436,95.443,436z"/>
	<path style="fill:#FF9A00;" d="M95.443,266c-19.555,0-36.228,12.541-42.42,30H0.443v30h52.58c6.192,17.459,22.865,30,42.42,30
		c24.813,0,45-20.187,45-45S120.256,266,95.443,266z M95.443,326c-8.271,0-15-6.729-15-15s6.729-15,15-15s15,6.729,15,15
		S103.714,326,95.443,326z"/>
</g>
<polygon style="fill:#B857D0;" points="243.443,369 213.443,369 213.443,284.787 261.23,237 176.23,237 274.23,139 179.443,139 
	179.443,109 346.657,109 248.657,207 333.657,207 243.443,297.213 "/>
<g>
	<rect x="179.438" y="109" style="fill:#CA80DE;" width="16" height="30"/>
	<polygon style="fill:#CA80DE;" points="195.443,217.787 176.23,237 195.443,237 	"/>
</g>
<path style="fill:#FF9A00;" d="M447.913,341.437l-70.711-70.711l63.64-63.64l70.71,70.711L447.913,341.437z"/>
<rect x="437.06" y="246.934" transform="matrix(-0.7071 -0.7071 0.7071 -0.7071 582.3575 825.0872)" style="fill:#E67500;" width="50" height="89.999"/>
<path style="fill:#FF127F;" d="M291.492,512h-84.853v-84.853l142.279-142.279l84.853,84.853L291.492,512z"/>
<polygon style="fill:#E80C6A;" points="433.771,369.721 391.345,327.294 206.639,512 291.492,512 "/>
<path style="fill:#CA80DE;" d="M412.558,390.934l-84.853-84.853l63.64-63.64l84.853,84.853L412.558,390.934z"/>
<rect x="393.163" y="292.903" transform="matrix(-0.7071 -0.7071 0.7071 -0.7071 483.4504 876.0569)" style="fill:#B857D0;" width="59.999" height="89.999"/>
<g>
</g>
<g>
</g>
<g>
</g>
<g>
</g>
<g>
</g>
<g>
</g>
<g>
</g>
<g>
</g>
<g>
</g>
<g>
</g>
<g>
</g>
<g>
</g>
<g>
</g>
<g>
</g>
<g>
</g>
</svg>
