<?xml version="1.0" encoding="iso-8859-1"?>
<!-- Generator: Adobe Illustrator 19.0.0, SVG Export Plug-In . SVG Version: 6.00 Build 0)  -->
<svg version="1.1" id="Capa_1" xmlns="http://www.w3.org/2000/svg" xmlns:xlink="http://www.w3.org/1999/xlink" x="0px" y="0px"
	 viewBox="0 0 512 512" style="enable-background:new 0 0 512 512;" xml:space="preserve">
<path style="fill:#FFDF47;" d="M449,512H149V0h300V512z"/>
<rect x="256" style="fill:#FFCF00;" width="193" height="512"/>
<path style="fill:#CA80DE;" d="M179,512H69V0h110V512z"/>
<g>
	<rect x="224" y="129" style="fill:#FF9A00;" width="150" height="30"/>
	<rect x="244" y="79" style="fill:#FF9A00;" width="110" height="30"/>
</g>
<g>
	<rect x="256" y="79" style="fill:#E67500;" width="98" height="30"/>
	<rect x="256" y="129" style="fill:#E67500;" width="118" height="30"/>
</g>
<path style="fill:#FF127F;" d="M484,444H384v-90h100V444z"/>
<rect x="434" y="354" style="fill:#E80C6A;" width="50" height="90"/>
<path style="fill:#CA80DE;" d="M484,384H384V232.231l50-42.989l50,42.733V384z"/>
<polygon style="fill:#B857D0;" points="484,231.975 434,189.242 434,384 484,384 "/>
<g>
	<path style="fill:#FF127F;" d="M69,109.217C62.352,104.502,58,96.752,58,88c0-14.336,11.664-26,26-26s26,11.664,26,26h30
		c0-30.878-25.122-56-56-56S28,57.122,28,88c0,25.683,17.385,47.368,41,53.943V109.217z"/>
	<path style="fill:#FF127F;" d="M69,221.217c-6.648-4.714-11-12.464-11-21.217c0-14.336,11.664-26,26-26s26,11.664,26,26h30
		c0-30.878-25.122-56-56-56s-56,25.122-56,56c0,25.683,17.385,47.368,41,53.943V221.217z"/>
	<path style="fill:#FF127F;" d="M69,333.217c-6.648-4.714-11-12.464-11-21.217c0-14.336,11.664-26,26-26s26,11.664,26,26h30
		c0-30.878-25.122-56-56-56s-56,25.122-56,56c0,25.683,17.385,47.368,41,53.943V333.217z"/>
	<path style="fill:#FF127F;" d="M69,445.217c-6.648-4.714-11-12.464-11-21.217c0-14.336,11.664-26,26-26s26,11.664,26,26h30
		c0-30.878-25.122-56-56-56s-56,25.122-56,56c0,25.683,17.385,47.368,41,53.943V445.217z"/>
</g>
<g>
</g>
<g>
</g>
<g>
</g>
<g>
</g>
<g>
</g>
<g>
</g>
<g>
</g>
<g>
</g>
<g>
</g>
<g>
</g>
<g>
</g>
<g>
</g>
<g>
</g>
<g>
</g>
<g>
</g>
</svg>
