<?xml version="1.0" encoding="iso-8859-1"?>
<!-- Generator: Adobe Illustrator 19.0.0, SVG Export Plug-In . SVG Version: 6.00 Build 0)  -->
<svg version="1.1" id="Capa_1" xmlns="http://www.w3.org/2000/svg" xmlns:xlink="http://www.w3.org/1999/xlink" x="0px" y="0px"
	 viewBox="0 0 512 512" style="enable-background:new 0 0 512 512;" xml:space="preserve">
<path style="fill:#FFDF47;" d="M512,512H0V0h512V512z"/>
<rect x="256" style="fill:#FFCF00;" width="256" height="512"/>
<g>
	<rect y="281" style="fill:#FF9A00;" width="512" height="30"/>
	<rect y="181" style="fill:#FF9A00;" width="512" height="30"/>
	<rect y="382" style="fill:#FF9A00;" width="512" height="30"/>
	<path style="fill:#FF9A00;" d="M170,512H0V80h170V512z"/>
</g>
<rect x="60" y="130" style="fill:#FF127F;" width="50" height="30"/>
<rect x="60" y="232" style="fill:#CA80DE;" width="50" height="30"/>
<rect x="60" y="331" style="fill:#FF4F19;" width="50" height="30"/>
<rect x="60" y="430" style="fill:#FFDF47;" width="50" height="30"/>
<rect x="190" y="130" style="fill:#FF127F;" width="110" height="30"/>
<rect x="352" y="232" style="fill:#B857D0;" width="110" height="30"/>
<rect x="217" y="331" style="fill:#FF4F19;" width="170" height="30"/>
<g>
	<rect x="321" y="430" style="fill:#E67500;" width="110" height="30"/>
	<rect x="256" y="382" style="fill:#E67500;" width="256" height="30"/>
	<rect x="256" y="281" style="fill:#E67500;" width="256" height="30"/>
	<rect x="256" y="181" style="fill:#E67500;" width="256" height="30"/>
</g>
<path style="fill:#FF4F19;" d="M512,110H0V0h512V110z"/>
<circle style="fill:#CA80DE;" cx="65" cy="55" r="15"/>
<circle style="fill:#FF127F;" cx="115" cy="55" r="15"/>
<circle style="fill:#FFDF47;" cx="165" cy="55" r="15"/>
<g>
	<rect x="256" style="fill:#FF3200;" width="256" height="110"/>
	<rect x="256" y="331" style="fill:#FF3200;" width="131" height="30"/>
</g>
<rect x="256" y="130" style="fill:#E80C6A;" width="44" height="30"/>
<g>
</g>
<g>
</g>
<g>
</g>
<g>
</g>
<g>
</g>
<g>
</g>
<g>
</g>
<g>
</g>
<g>
</g>
<g>
</g>
<g>
</g>
<g>
</g>
<g>
</g>
<g>
</g>
<g>
</g>
</svg>
