<?xml version="1.0" encoding="iso-8859-1"?>
<!-- Generator: Adobe Illustrator 19.0.0, SVG Export Plug-In . SVG Version: 6.00 Build 0)  -->
<svg version="1.1" id="Capa_1" xmlns="http://www.w3.org/2000/svg" xmlns:xlink="http://www.w3.org/1999/xlink" x="0px" y="0px"
	 viewBox="0 0 512 512" style="enable-background:new 0 0 512 512;" xml:space="preserve">
<polygon style="fill:#CA80DE;" points="271,293 271,255 241,255 241,293 70,293 70,357 100,357 100,323 241,323 241,357 271,357 
	271,323 412,323 412,357 442,357 442,293 "/>
<polygon style="fill:#B857D0;" points="271,293 271,255 256,255 256,357 271,357 271,323 412,323 412,357 442,357 442,293 "/>
<path style="fill:#CA80DE;" d="M391,270H121V0h270V270z"/>
<rect x="256" style="fill:#B857D0;" width="135" height="270"/>
<path style="fill:#FF127F;" d="M365,270H147v-15c0-60.103,48.897-109,109-109s109,48.897,109,109V270z"/>
<path style="fill:#FF4F19;" d="M256,512c-46.869,0-85-38.131-85-85s38.131-85,85-85s85,38.131,85,85S302.869,512,256,512z"/>
<path style="fill:#E67500;" d="M427,512c-46.869,0-85-38.131-85-85s38.131-85,85-85s85,38.131,85,85S473.869,512,427,512z"/>
<path style="fill:#FFDF47;" d="M85,512c-46.869,0-85-38.131-85-85s38.131-85,85-85s85,38.131,85,85S131.869,512,85,512z"/>
<polygon style="fill:#FF127F;" points="76.929,463.326 42.281,428.678 63.494,407.465 76.929,420.899 104.506,393.322 
	125.719,414.535 "/>
<path style="fill:#E80C6A;" d="M365,255c0-60.103-48.897-109-109-109v124h109V255z"/>
<path style="fill:#FFDF47;" d="M256,176c-34.187,0-62-27.813-62-62s27.813-62,62-62s62,27.813,62,62S290.187,176,256,176z"/>
<path style="fill:#FFCF00;" d="M256,52v124c34.187,0,62-27.813,62-62S290.187,52,256,52z"/>
<path style="fill:#FF3200;" d="M256,342v170c46.869,0,85-38.131,85-85S302.869,342,256,342z"/>
<polygon style="fill:#FFDF47;" points="296.606,408.606 275.394,387.394 256,406.787 236.606,387.394 215.394,408.606 234.787,428 
	215.394,447.394 236.606,468.606 256,449.213 275.394,468.606 296.606,447.394 277.213,428 "/>
<polygon style="fill:#FFCF00;" points="296.606,408.606 275.394,387.394 256,406.787 256,449.213 275.394,468.606 296.606,447.394 
	277.213,428 "/>
<g>
</g>
<g>
</g>
<g>
</g>
<g>
</g>
<g>
</g>
<g>
</g>
<g>
</g>
<g>
</g>
<g>
</g>
<g>
</g>
<g>
</g>
<g>
</g>
<g>
</g>
<g>
</g>
<g>
</g>
</svg>
