<?xml version="1.0" encoding="iso-8859-1"?>
<!-- Generator: Adobe Illustrator 19.0.0, SVG Export Plug-In . SVG Version: 6.00 Build 0)  -->
<svg version="1.1" id="Capa_1" xmlns="http://www.w3.org/2000/svg" xmlns:xlink="http://www.w3.org/1999/xlink" x="0px" y="0px"
	 viewBox="0 0 512 512" style="enable-background:new 0 0 512 512;" xml:space="preserve">
<path style="fill:#FF127F;" d="M266,136H30V81c0-24.813,20.187-45,45-45h146c24.813,0,45,20.187,45,45V136z"/>
<path style="fill:#E80C6A;" d="M256,52.76V136h10V81C266,70.312,262.248,60.487,256,52.76z"/>
<path style="fill:#FFDF47;" d="M512,476H0V106h512V476z"/>
<rect x="256" y="106" style="fill:#FFCF00;" width="256" height="370"/>
<g>
	<rect x="235" y="241" style="fill:#FF9A00;" width="42" height="30"/>
	<rect x="163" y="241" style="fill:#FF9A00;" width="42" height="30"/>
	<rect x="163" y="361" style="fill:#FF9A00;" width="42" height="30"/>
	<rect x="91" y="301" style="fill:#FF9A00;" width="42" height="30"/>
	<rect x="91" y="361" style="fill:#FF9A00;" width="42" height="30"/>
	<rect x="91" y="241" style="fill:#FF9A00;" width="42" height="30"/>
	<rect x="235" y="301" style="fill:#FF9A00;" width="42" height="30"/>
	<rect x="163" y="301" style="fill:#FF9A00;" width="42" height="30"/>
	<rect x="235" y="361" style="fill:#FF9A00;" width="42" height="30"/>
</g>
<rect x="61" y="161" style="fill:#CA80DE;" width="390" height="50"/>
<g>
	<rect x="379" y="241" style="fill:#E67500;" width="42" height="30"/>
	<rect x="379" y="301" style="fill:#E67500;" width="42" height="30"/>
	<rect x="379" y="361" style="fill:#E67500;" width="42" height="30"/>
	<rect x="307" y="241" style="fill:#E67500;" width="42" height="30"/>
	<rect x="307" y="361" style="fill:#E67500;" width="42" height="30"/>
	<rect x="307" y="301" style="fill:#E67500;" width="42" height="30"/>
</g>
<rect x="256" y="161" style="fill:#B857D0;" width="195" height="50"/>
<g>
	<rect x="256" y="241" style="fill:#E67500;" width="21" height="30"/>
	<rect x="256" y="301" style="fill:#E67500;" width="21" height="30"/>
	<rect x="256" y="361" style="fill:#E67500;" width="21" height="30"/>
</g>
<g>
</g>
<g>
</g>
<g>
</g>
<g>
</g>
<g>
</g>
<g>
</g>
<g>
</g>
<g>
</g>
<g>
</g>
<g>
</g>
<g>
</g>
<g>
</g>
<g>
</g>
<g>
</g>
<g>
</g>
</svg>
