<?xml version="1.0" encoding="iso-8859-1"?>
<!-- Generator: Adobe Illustrator 19.0.0, SVG Export Plug-In . SVG Version: 6.00 Build 0)  -->
<svg version="1.1" id="Capa_1" xmlns="http://www.w3.org/2000/svg" xmlns:xlink="http://www.w3.org/1999/xlink" x="0px" y="0px"
	 viewBox="0 0 512 512" style="enable-background:new 0 0 512 512;" xml:space="preserve">
<polygon style="fill:#FF9A00;" points="153,271 153,241 95,241 95,145 65,145 65,447 153,447 153,417 95,417 95,271 "/>
<path style="fill:#FF4F19;" d="M512,512H138V352h374V512z"/>
<path style="fill:#FF3200;" d="M512,512H256V352h256V512z"/>
<path style="fill:#CA80DE;" d="M512,335H138V175h374V335z"/>
<path style="fill:#B857D0;" d="M512,335H256V175h256V335z"/>
<path style="fill:#FFDF47;" d="M512,160H0V0h512V160z"/>
<rect x="256" style="fill:#FFCF00;" width="256" height="160"/>
<path style="fill:#FF127F;" d="M95,125c-24.813,0-45-20.187-45-45s20.187-45,45-45s45,20.187,45,45S119.813,125,95,125z"/>
<rect x="160" y="65" style="fill:#CA80DE;" width="234" height="30"/>
<g>
	<rect x="298" y="240" style="fill:#FFCF00;" width="116" height="30"/>
	<rect x="298" y="417" style="fill:#FFCF00;" width="144" height="30"/>
</g>
<polygon style="fill:#CA80DE;" points="275.426,410.787 254.213,389.574 233,410.787 211.787,389.574 190.574,410.787 211.787,432 
	190.574,453.213 211.787,474.426 233,453.213 254.213,474.426 275.426,453.213 254.213,432 "/>
<polygon style="fill:#FF127F;" points="224.394,293.447 191.16,260.213 212.373,239 224.394,251.021 257.627,217.787 278.84,239 "/>
<rect x="256" y="65" style="fill:#B857D0;" width="138" height="30"/>
<polygon style="fill:#E80C6A;" points="256,261.841 278.84,239 257.627,217.787 256,219.415 "/>
<g>
	<polygon style="fill:#B857D0;" points="256,472.64 275.426,453.213 256,433.787 	"/>
	<polygon style="fill:#B857D0;" points="256,391.36 256,430.213 275.426,410.787 	"/>
</g>
<g>
</g>
<g>
</g>
<g>
</g>
<g>
</g>
<g>
</g>
<g>
</g>
<g>
</g>
<g>
</g>
<g>
</g>
<g>
</g>
<g>
</g>
<g>
</g>
<g>
</g>
<g>
</g>
<g>
</g>
</svg>
