<?xml version="1.0" encoding="iso-8859-1"?>
<!-- Generator: Adobe Illustrator 19.0.0, SVG Export Plug-In . SVG Version: 6.00 Build 0)  -->
<svg version="1.1" id="Capa_1" xmlns="http://www.w3.org/2000/svg" xmlns:xlink="http://www.w3.org/1999/xlink" x="0px" y="0px"
	 viewBox="0 0 512 512" style="enable-background:new 0 0 512 512;" xml:space="preserve">
<path style="fill:#FFDF47;" d="M0,492.818V19.182h512v420.524L0,492.818z"/>
<polygon style="fill:#FFCF00;" points="512,19.182 256,19.182 256,466.262 512,439.706 "/>
<path style="fill:#FF9A00;" d="M95.359,137.159l-43.133-19.427L0,119.782v-100.6h512v93.23l-52.859-10.375l-41.974,22.113
	l-40.037-18.116l-40.216,21.977l-40.255-18.505l-40.216,21.437l-40.249-18.794l-39.327,20.476l-40.613-14.038L95.359,137.159z"/>
<g>
	<path style="fill:#CA80DE;" d="M256,300.182c24.262,0,44-19.738,44-44v-62c0-24.262-19.738-44-44-44s-44,19.738-44,44v62
		C212,280.443,231.738,300.182,256,300.182z"/>
	<path style="fill:#CA80DE;" d="M316,225.182v40c0,30.327-24.673,55-55,55h-12c-30.327,0-55-24.673-55-55v-40h-30v40
		c0,44.17,33.87,80.565,77,84.612v30.388h-45v30h120v-30h-45v-30.608c42.171-4.968,75-40.908,75-84.392v-40H316z"/>
</g>
<g>
	<path style="fill:#B857D0;" d="M316,225.182v40c0,30.327-24.673,55-55,55h-5v90h60v-30h-45v-30.608
		c42.171-4.968,75-40.908,75-84.392v-40H316z"/>
	<path style="fill:#B857D0;" d="M256,150.182v150c24.262,0,44-19.738,44-44v-62C300,169.92,280.262,150.182,256,150.182z"/>
</g>
<path style="fill:#FF4F19;" d="M475.919,354.82c-22.929-16.878-51.671-21.707-78.859-13.246L0,465.114v27.683l512-53.091v-13.524
	C512,397.709,498.849,371.699,475.919,354.82z"/>
<path style="fill:#FF3200;" d="M475.919,354.82c-22.929-16.878-51.671-21.707-78.859-13.246L256,385.463v80.788l256-26.545v-13.524
	C512,397.709,498.849,371.699,475.919,354.82z"/>
<polygon style="fill:#E67500;" points="256,19.182 256,130.736 256.443,130.943 296.659,109.506 336.915,128.011 377.13,106.034 
	417.167,124.15 459.141,102.037 512,112.412 512,19.182 "/>
<g>
</g>
<g>
</g>
<g>
</g>
<g>
</g>
<g>
</g>
<g>
</g>
<g>
</g>
<g>
</g>
<g>
</g>
<g>
</g>
<g>
</g>
<g>
</g>
<g>
</g>
<g>
</g>
<g>
</g>
</svg>
