<?xml version="1.0" encoding="iso-8859-1"?>
<!-- Generator: Adobe Illustrator 19.0.0, SVG Export Plug-In . SVG Version: 6.00 Build 0)  -->
<svg version="1.1" id="Capa_1" xmlns="http://www.w3.org/2000/svg" xmlns:xlink="http://www.w3.org/1999/xlink" x="0px" y="0px"
	 viewBox="0 0 512 512" style="enable-background:new 0 0 512 512;" xml:space="preserve">
<path style="fill:#FFDF47;" d="M436.922,200.135H286.987V90.31l45.421-49.105h59.091l45.421,49.105L436.922,200.135L436.922,200.135
	z"/>
<polygon style="fill:#FFCF00;" points="391.5,41.204 361.954,41.204 361.954,200.135 436.922,200.135 436.922,90.31 "/>
<path style="fill:#FF9A00;" d="M391.941,101.178c-11.512,0-22.022,4.352-29.987,11.49c-7.965-7.138-18.475-11.49-29.987-11.49
	c-24.802,0-44.98,20.178-44.98,44.98v243.894h59.974h29.987h59.974V146.159C436.922,121.356,416.744,101.178,391.941,101.178z"/>
<polygon style="fill:#FF4F19;" points="391.941,42.204 331.967,42.204 361.954,0.222 "/>
<polygon style="fill:#FF3200;" points="361.954,0.222 361.954,42.204 391.941,42.204 "/>
<path style="fill:#E67500;" d="M391.941,101.178c-11.512,0-22.022,4.352-29.987,11.49v277.385h14.993h59.974V146.159
	C436.922,121.356,416.744,101.178,391.941,101.178z"/>
<path style="fill:#CA80DE;" d="M426.926,512H296.982v-89.961h129.944V512z"/>
<rect x="361.953" y="422.037" style="fill:#B857D0;" width="64.972" height="89.961"/>
<path style="fill:#FF4F19;" d="M436.922,452.026H286.987v-91.96h149.935V452.026z"/>
<rect x="361.953" y="360.064" style="fill:#FF3200;" width="74.967" height="91.96"/>
<path style="fill:#FF127F;" d="M231.011,112.173h-69.97V47.23L231.011,0V112.173z"/>
<polygon style="fill:#E80C6A;" points="231.011,0 196.026,23.615 196.026,112.173 231.011,112.173 "/>
<path style="fill:#CA80DE;" d="M274.945,512H117.107L93.944,192.139h204.163L274.945,512z"/>
<polygon style="fill:#B857D0;" points="298.108,192.139 196.026,192.139 196.026,512 274.945,512 "/>
<path style="fill:#CA80DE;" d="M280.989,172.147H111.063v-14.993c0-41.337,33.63-74.968,74.967-74.968h19.991
	c41.337,0,74.967,33.63,74.967,74.968V172.147z"/>
<rect x="206.021" y="252.111" style="fill:#FFCF00;" width="29.987" height="116.949"/>
<g>
	<rect x="156.042" y="252.111" style="fill:#FFDF47;" width="29.987" height="86.962"/>
	<path style="fill:#FFDF47;" d="M196.026,464.021c-22.046,0-39.983-17.936-39.983-39.983c0-22.046,17.936-39.983,39.983-39.983
		s39.983,17.936,39.983,39.983C236.009,446.085,218.072,464.021,196.026,464.021z"/>
</g>
<path style="fill:#B857D0;" d="M280.989,157.154c0-41.337-33.63-74.968-74.967-74.968h-9.996v89.961h84.963V157.154z"/>
<path style="fill:#FF127F;" d="M276.991,222.126h-161.93c-22.046,0-39.983-17.936-39.983-39.983s17.936-39.983,39.983-39.983h161.93
	c22.046,0,39.983,17.936,39.983,39.983S299.037,222.126,276.991,222.126z"/>
<path style="fill:#E80C6A;" d="M276.991,142.16h-80.965v79.965h80.965c22.046,0,39.983-17.936,39.983-39.983
	S299.037,142.16,276.991,142.16z"/>
<path style="fill:#FFCF00;" d="M196.026,384.055v79.965c22.046,0,39.983-17.936,39.983-39.983
	C236.009,401.992,218.072,384.055,196.026,384.055z"/>
<g>
</g>
<g>
</g>
<g>
</g>
<g>
</g>
<g>
</g>
<g>
</g>
<g>
</g>
<g>
</g>
<g>
</g>
<g>
</g>
<g>
</g>
<g>
</g>
<g>
</g>
<g>
</g>
<g>
</g>
</svg>
