<?xml version="1.0" encoding="iso-8859-1"?>
<!-- Generator: Adobe Illustrator 19.0.0, SVG Export Plug-In . SVG Version: 6.00 Build 0)  -->
<svg version="1.1" id="Capa_1" xmlns="http://www.w3.org/2000/svg" xmlns:xlink="http://www.w3.org/1999/xlink" x="0px" y="0px"
	 viewBox="0 0 512 512" style="enable-background:new 0 0 512 512;" xml:space="preserve">
<rect x="482" y="224.4" style="fill:#E80C6A;" width="30" height="237"/>
<path style="fill:#CA80DE;" d="M512,232.401H302v-150h210V232.401z"/>
<rect x="407" y="82.4" style="fill:#B857D0;" width="105" height="150"/>
<path style="fill:#FF4F19;" d="M511.484,340.401L355,243.464v46.937h-87v100h87v46.937L511.484,340.401z"/>
<polygon style="fill:#FF3200;" points="268,390.401 355,390.401 355,437.338 511.484,340.401 268,340.401 "/>
<path style="fill:#FF9A00;" d="M214.213,175.401H189v-30h12.388c8.932-10.82,13.823-24.255,13.888-38.42
	c0.073-16.143-6.152-31.299-17.53-42.677C186.327,52.887,171.147,46.599,155,46.599s-31.327,6.288-42.745,17.706
	c-11.378,11.378-17.604,26.534-17.53,42.677c0.064,14.165,4.956,27.6,13.888,38.42H121v30H95.787l-4.394-4.393
	c-17.088-17.087-26.559-39.778-26.669-63.891C64.615,82.91,73.96,60.172,91.041,43.092C108.125,26.007,130.84,16.599,155,16.599
	s46.875,9.409,63.958,26.493c17.081,17.081,26.427,39.819,26.317,64.026c-0.11,24.113-9.581,46.803-26.669,63.891L214.213,175.401z"
	/>
<path style="fill:#E67500;" d="M218.958,43.091C201.875,26.007,179.16,16.599,155,16.599v30c16.147,0,31.327,6.288,42.745,17.706
	c11.378,11.378,17.604,26.534,17.53,42.677c-0.064,14.165-4.956,27.6-13.888,38.42H189v30h25.213l4.394-4.393
	c17.088-17.087,26.559-39.778,26.669-63.891C245.385,82.91,236.039,60.172,218.958,43.091z"/>
<path style="fill:#FF4F19;" d="M204,215.401h-98v-50c0-27.019,21.981-49,49-49s49,21.981,49,49V215.401z"/>
<path style="fill:#FF3200;" d="M204,165.401c0-27.019-21.981-49-49-49v99h49V165.401z"/>
<path style="fill:#FFDF47;" d="M155,495.401c-85.468,0-155-69.533-155-155s69.532-155,155-155s155,69.533,155,155
	S240.468,495.401,155,495.401z"/>
<path style="fill:#FFCF00;" d="M155,185.401v310c85.468,0,155-69.533,155-155S240.468,185.401,155,185.401z"/>
<polygon style="fill:#FF4F19;" points="154.904,361.722 102.234,308.038 123.648,287.028 155.096,319.081 214.446,259.668 
	235.671,280.871 "/>
<g>
	<rect x="362" y="172.4" style="fill:#FF127F;" width="30" height="30"/>
	<rect x="332" y="142.4" style="fill:#FF127F;" width="30" height="30"/>
	<rect x="362" y="112.4" style="fill:#FF127F;" width="30" height="30"/>
	<rect x="392" y="142.4" style="fill:#FF127F;" width="30" height="30"/>
	<rect x="302" y="112.4" style="fill:#FF127F;" width="30" height="30"/>
	<rect x="332" y="82.4" style="fill:#FF127F;" width="30" height="30"/>
	<rect x="332" y="202.4" style="fill:#FF127F;" width="30" height="30"/>
	<rect x="302" y="172.4" style="fill:#FF127F;" width="30" height="30"/>
	<rect x="392" y="202.4" style="fill:#FF127F;" width="30" height="30"/>
	<rect x="392" y="82.4" style="fill:#FF127F;" width="30" height="30"/>
</g>
<g>
	<rect x="422" y="172.4" style="fill:#E80C6A;" width="30" height="30"/>
	<rect x="422" y="112.4" style="fill:#E80C6A;" width="30" height="30"/>
	<rect x="452" y="142.4" style="fill:#E80C6A;" width="30" height="30"/>
	<rect x="452" y="82.4" style="fill:#E80C6A;" width="30" height="30"/>
	<rect x="482" y="112.4" style="fill:#E80C6A;" width="30" height="30"/>
	<rect x="452" y="202.4" style="fill:#E80C6A;" width="30" height="30"/>
	<rect x="482" y="172.4" style="fill:#E80C6A;" width="30" height="30"/>
	<rect x="407" y="82.4" style="fill:#E80C6A;" width="15" height="30"/>
	<rect x="407" y="142.4" style="fill:#E80C6A;" width="15" height="30"/>
	<rect x="407" y="202.4" style="fill:#E80C6A;" width="15" height="30"/>
</g>
<polygon style="fill:#FF3200;" points="155,361.626 235.671,280.871 214.446,259.668 155.096,319.081 155,318.984 "/>
<g>
</g>
<g>
</g>
<g>
</g>
<g>
</g>
<g>
</g>
<g>
</g>
<g>
</g>
<g>
</g>
<g>
</g>
<g>
</g>
<g>
</g>
<g>
</g>
<g>
</g>
<g>
</g>
<g>
</g>
</svg>
