<?xml version="1.0" encoding="iso-8859-1"?>
<!-- Generator: Adobe Illustrator 19.0.0, SVG Export Plug-In . SVG Version: 6.00 Build 0)  -->
<svg version="1.1" id="Capa_1" xmlns="http://www.w3.org/2000/svg" xmlns:xlink="http://www.w3.org/1999/xlink" x="0px" y="0px"
	 viewBox="0 0 512 512" style="enable-background:new 0 0 512 512;" xml:space="preserve">
<path style="fill:#FFDF47;" d="M512,446H0V66h512V446z"/>
<rect x="256" y="66" style="fill:#FFCF00;" width="256" height="380"/>
<path style="fill:#FF4F19;" d="M250,396H90.787l-45-45l45-45H250V396z"/>
<path style="fill:#FF127F;" d="M163,242H43V122h120V242z"/>
<path style="fill:#B857D0;" d="M329.071,375.923l-84.853-84.852l84.853-84.853l84.853,84.853L329.071,375.923z"/>
<g>
	<path style="fill:#E80C6A;" d="M297.251,294.251c-9.349,0-18.138-3.641-24.748-10.251c-6.61-6.61-10.252-15.4-10.252-24.749
		s3.642-18.138,10.252-24.749c13.646-13.646,35.85-13.647,49.497,0l0,0c6.61,6.61,10.251,15.4,10.251,24.749S328.61,277.39,322,284
		C315.39,290.611,306.601,294.251,297.251,294.251z"/>
	<path style="fill:#E80C6A;" d="M460,269H340V149h120V269z"/>
</g>
<path style="fill:#E67500;" d="M400,199c-19.299,0-35-15.701-35-35s15.701-35,35-35s35,15.701,35,35S419.299,199,400,199z"/>
<g>
	
		<rect x="236.991" y="162.691" transform="matrix(-0.124 -0.9923 0.9923 -0.124 81.8025 478.2197)" style="fill:#FF9A00;" width="30.001" height="80.621"/>
	<rect x="196" y="151" style="fill:#FF9A00;" width="120" height="30"/>
	<path style="fill:#FF9A00;" d="M512,446H0v-80h512V446z"/>
</g>
<rect x="256" y="366" style="fill:#E67500;" width="256" height="80"/>
<path style="fill:#CA80DE;" d="M103,172c-19.299,0-35-15.701-35-35s15.701-35,35-35s35,15.701,35,35S122.299,172,103,172z"/>
<g>
	<rect x="256" y="151" style="fill:#E67500;" width="60" height="30"/>
	<polygon style="fill:#E67500;" points="256,217.617 293.86,212.884 290.14,183.116 256,187.383 	"/>
</g>
<g>
</g>
<g>
</g>
<g>
</g>
<g>
</g>
<g>
</g>
<g>
</g>
<g>
</g>
<g>
</g>
<g>
</g>
<g>
</g>
<g>
</g>
<g>
</g>
<g>
</g>
<g>
</g>
<g>
</g>
</svg>
