<?xml version="1.0" encoding="iso-8859-1"?>
<!-- Generator: Adobe Illustrator 19.0.0, SVG Export Plug-In . SVG Version: 6.00 Build 0)  -->
<svg version="1.1" id="Capa_1" xmlns="http://www.w3.org/2000/svg" xmlns:xlink="http://www.w3.org/1999/xlink" x="0px" y="0px"
	 viewBox="0 0 512 512" style="enable-background:new 0 0 512 512;" xml:space="preserve">
<path style="fill:#FFDF47;" d="M512,512H182V0h330V512z"/>
<rect x="256" style="fill:#FFCF00;" width="256" height="512"/>
<path style="fill:#FF4F19;" d="M197,341h-15V171h15c41.355,0,75,33.645,75,75v20C272,307.355,238.355,341,197,341z M212,203.57
	v104.86c17.461-6.191,30-22.874,30-42.43v-20C242,226.444,229.461,209.761,212,203.57z"/>
<path style="fill:#CA80DE;" d="M341,168H231V58h110V168z"/>
<path style="fill:#E80C6A;" d="M375.325,267.585l-37.91-103.261l103.261-37.91l37.91,103.261L375.325,267.585z"/>
<g>
	<rect x="379" y="124" style="fill:#B857D0;" width="30" height="43"/>
	<path style="fill:#B857D0;" d="M349,409.782L271.218,332L349,254.218L426.782,332L349,409.782z"/>
</g>
<rect x="326" y="241" style="fill:#FF3200;" width="30" height="43"/>
<path style="fill:#FF9A00;" d="M212,512H0V0h212V512z"/>
<path style="fill:#FFDF47;" d="M171,321H41V191h130V321z"/>
<rect x="91" y="191" style="fill:#FF4F19;" width="30" height="59"/>
<path style="fill:#FF3200;" d="M256,199.781V312.22c10.009-12.748,16-28.792,16-46.219v-20C272,228.573,266.009,212.529,256,199.781
	z"/>
<path style="fill:#B857D0;" d="M341,168h-85V58h85V168z"/>
<rect x="268" y="39" style="fill:#FF3200;" width="30" height="43"/>
<g>
</g>
<g>
</g>
<g>
</g>
<g>
</g>
<g>
</g>
<g>
</g>
<g>
</g>
<g>
</g>
<g>
</g>
<g>
</g>
<g>
</g>
<g>
</g>
<g>
</g>
<g>
</g>
<g>
</g>
</svg>
