<?xml version="1.0" encoding="iso-8859-1"?>
<!-- Generator: Adobe Illustrator 19.0.0, SVG Export Plug-In . SVG Version: 6.00 Build 0)  -->
<svg version="1.1" id="Capa_1" xmlns="http://www.w3.org/2000/svg" xmlns:xlink="http://www.w3.org/1999/xlink" x="0px" y="0px"
	 viewBox="0 0 512 512" style="enable-background:new 0 0 512 512;" xml:space="preserve">
<path style="fill:#FF9A00;" d="M401,512H116c-35.841,0-65-29.159-65-65v-85h350V512z"/>
<rect x="256" y="362" style="fill:#E67500;" width="145" height="150"/>
<path style="fill:#FFDF47;" d="M386,442H161V40h300v327C461,408.355,427.355,442,386,442z"/>
<path style="fill:#FFCF00;" d="M386,442H256V40h205v327C461,408.355,427.355,442,386,442z"/>
<path style="fill:#E67500;" d="M386,442h-15v-90h90v15C461,408.355,427.355,442,386,442z"/>
<g>
	<rect x="185" y="110" style="fill:#FF3200;" width="200" height="30"/>
	<rect x="185" y="170" style="fill:#FF3200;" width="220" height="30"/>
	<rect x="185" y="230" style="fill:#FF3200;" width="190" height="30"/>
	<rect x="185" y="290" style="fill:#FF3200;" width="210" height="30"/>
</g>
<path style="fill:#CA80DE;" d="M106,0C75.673,0,51,24.673,51,55v387c0-30.376,24.624-55,55-55s55,24.624,55,55V55
	C161,24.673,136.327,0,106,0z"/>
<g>
	<rect x="185" y="110" style="fill:#FF4F19;" width="71" height="30"/>
	<rect x="185" y="170" style="fill:#FF4F19;" width="71" height="30"/>
	<rect x="185" y="230" style="fill:#FF4F19;" width="71" height="30"/>
	<rect x="185" y="290" style="fill:#FF4F19;" width="71" height="30"/>
</g>
<g>
</g>
<g>
</g>
<g>
</g>
<g>
</g>
<g>
</g>
<g>
</g>
<g>
</g>
<g>
</g>
<g>
</g>
<g>
</g>
<g>
</g>
<g>
</g>
<g>
</g>
<g>
</g>
<g>
</g>
</svg>
