<?xml version="1.0" encoding="iso-8859-1"?>
<!-- Generator: Adobe Illustrator 19.0.0, SVG Export Plug-In . SVG Version: 6.00 Build 0)  -->
<svg version="1.1" id="Capa_1" xmlns="http://www.w3.org/2000/svg" xmlns:xlink="http://www.w3.org/1999/xlink" x="0px" y="0px"
	 viewBox="0 0 512 512" style="enable-background:new 0 0 512 512;" xml:space="preserve">
<path style="fill:#FFDF47;" d="M445,512H157V0h288V512z"/>
<rect x="256" style="fill:#FFCF00;" width="189" height="512"/>
<path style="fill:#CA80DE;" d="M187,512H67V0h120V512z"/>
<g>
	<rect x="112" y="193" style="fill:#FFDF47;" width="30" height="126"/>
	<circle style="fill:#FFDF47;" cx="127" cy="145" r="15"/>
	<circle style="fill:#FFDF47;" cx="127" cy="364" r="15"/>
	<rect x="112" y="52" style="fill:#FFDF47;" width="30" height="48"/>
	<rect x="112" y="415" style="fill:#FFDF47;" width="30" height="48"/>
</g>
<g>
	<rect x="212" y="60" style="fill:#FF4F19;" width="76" height="30"/>
	<rect x="212" y="110" style="fill:#FF4F19;" width="136" height="30"/>
</g>
<rect x="325" y="328" style="fill:#E67500;" width="76" height="30"/>
<path style="fill:#FF9A00;" d="M212,158v150h189V158H212z M281.6,233L242,262.887v-59.774L281.6,233z M271.775,188h69.45
	L306.5,214.208L271.775,188z M306.5,251.792L341.225,278h-69.45L306.5,251.792z M331.4,233l39.6-29.887v59.774L331.4,233z"/>
<g>
	<rect x="212" y="378" style="fill:#FF4F19;" width="189" height="30"/>
	<rect x="212" y="428" style="fill:#FF4F19;" width="189" height="30"/>
</g>
<g>
	<rect x="256" y="60" style="fill:#FF3200;" width="32" height="30"/>
	<rect x="256" y="110" style="fill:#FF3200;" width="92" height="30"/>
</g>
<path style="fill:#E67500;" d="M256,158v55.679L281.6,233L256,252.321V308h145V158H256z M271.775,188h69.45L306.5,214.208
	L271.775,188z M271.775,278l34.725-26.208L341.225,278H271.775z M371,262.887L331.4,233l39.6-29.887V262.887z"/>
<g>
	<rect x="256" y="378" style="fill:#FF3200;" width="145" height="30"/>
	<rect x="256" y="428" style="fill:#FF3200;" width="145" height="30"/>
</g>
<g>
</g>
<g>
</g>
<g>
</g>
<g>
</g>
<g>
</g>
<g>
</g>
<g>
</g>
<g>
</g>
<g>
</g>
<g>
</g>
<g>
</g>
<g>
</g>
<g>
</g>
<g>
</g>
<g>
</g>
</svg>
