<?xml version="1.0" encoding="iso-8859-1"?>
<!-- Generator: Adobe Illustrator 19.0.0, SVG Export Plug-In . SVG Version: 6.00 Build 0)  -->
<svg version="1.1" id="Capa_1" xmlns="http://www.w3.org/2000/svg" xmlns:xlink="http://www.w3.org/1999/xlink" x="0px" y="0px"
	 viewBox="0 0 512 512" style="enable-background:new 0 0 512 512;" xml:space="preserve">
<g>
	<rect x="25" y="457" style="fill:#FF9A00;" width="30" height="55"/>
	<rect x="25" y="281" style="fill:#FF9A00;" width="30" height="126"/>
	<rect x="25" style="fill:#FF9A00;" width="30" height="55"/>
	<rect x="25" y="105" style="fill:#FF9A00;" width="30" height="126"/>
</g>
<g>
	<path style="fill:#FF4F19;" d="M40,120c-22.056,0-40-17.944-40-40s17.944-40,40-40s40,17.944,40,40S62.056,120,40,120z M40,70
		c-5.514,0-10,4.486-10,10s4.486,10,10,10s10-4.486,10-10S45.514,70,40,70z"/>
	<path style="fill:#FF4F19;" d="M40,296c-22.056,0-40-17.944-40-40s17.944-40,40-40s40,17.944,40,40S62.056,296,40,296z M40,246
		c-5.514,0-10,4.486-10,10s4.486,10,10,10s10-4.486,10-10S45.514,246,40,246z"/>
	<path style="fill:#FF4F19;" d="M40,472c-22.056,0-40-17.944-40-40s17.944-40,40-40s40,17.944,40,40S62.056,472,40,472z M40,422
		c-5.514,0-10,4.486-10,10s4.486,10,10,10s10-4.486,10-10S45.514,422,40,422z"/>
</g>
<path style="fill:#FFDF47;" d="M512,160H122v-49.599L82.347,80L122,49.599V0h390V160z"/>
<rect x="256" style="fill:#FFCF00;" width="256" height="160"/>
<g>
	<rect x="182" y="45" style="fill:#CA80DE;" width="280" height="30"/>
	<rect x="182" y="85" style="fill:#CA80DE;" width="230" height="30"/>
</g>
<g>
	<rect x="256" y="45" style="fill:#B857D0;" width="206" height="30"/>
	<rect x="256" y="85" style="fill:#B857D0;" width="156" height="30"/>
</g>
<path style="fill:#CA80DE;" d="M512,336H122v-49.599L82.347,256L122,225.599V176h390V336z"/>
<rect x="256" y="176" style="fill:#B857D0;" width="256" height="160"/>
<g>
	<rect x="182" y="221" style="fill:#FF127F;" width="280" height="30"/>
	<rect x="182" y="261" style="fill:#FF127F;" width="230" height="30"/>
</g>
<g>
	<rect x="256" y="221" style="fill:#E80C6A;" width="206" height="30"/>
	<rect x="256" y="261" style="fill:#E80C6A;" width="156" height="30"/>
</g>
<path style="fill:#FF127F;" d="M512,512H122v-49.599L82.347,432L122,401.599V352h390V512z"/>
<rect x="256" y="352" style="fill:#E80C6A;" width="256" height="160"/>
<g>
	<rect x="182" y="397" style="fill:#FFDF47;" width="280" height="30"/>
	<rect x="182" y="437" style="fill:#FFDF47;" width="230" height="30"/>
</g>
<g>
	<rect x="256" y="397" style="fill:#FFCF00;" width="206" height="30"/>
	<rect x="256" y="437" style="fill:#FFCF00;" width="156" height="30"/>
</g>
<g>
</g>
<g>
</g>
<g>
</g>
<g>
</g>
<g>
</g>
<g>
</g>
<g>
</g>
<g>
</g>
<g>
</g>
<g>
</g>
<g>
</g>
<g>
</g>
<g>
</g>
<g>
</g>
<g>
</g>
</svg>
