<?xml version="1.0" encoding="iso-8859-1"?>
<!-- Generator: Adobe Illustrator 19.0.0, SVG Export Plug-In . SVG Version: 6.00 Build 0)  -->
<svg version="1.1" id="Capa_1" xmlns="http://www.w3.org/2000/svg" xmlns:xlink="http://www.w3.org/1999/xlink" x="0px" y="0px"
	 viewBox="0 0 512 512" style="enable-background:new 0 0 512 512;" xml:space="preserve">
<rect x="331" y="383.5" style="fill:#E67500;" width="66" height="30"/>
<g>
	<rect x="165" y="383.5" style="fill:#FF9A00;" width="66" height="30"/>
	<rect y="383.5" style="fill:#FF9A00;" width="65" height="30"/>
</g>
<polygon style="fill:#E80C6A;" points="512,258.5 300.787,258.5 407,364.713 512,259.713 "/>
<path style="fill:#CA80DE;" d="M512,288.5H0v-240h512V288.5z"/>
<rect x="256" y="48.5" style="fill:#B857D0;" width="256" height="240"/>
<path style="fill:#FF3200;" d="M447,463.5c-35.841,0-65-29.159-65-65s29.159-65,65-65s65,29.159,65,65S482.841,463.5,447,463.5z"/>
<g>
	<circle style="fill:#FFDF47;" cx="256" cy="137.5" r="15"/>
	<circle style="fill:#FFDF47;" cx="256" cy="197.5" r="15"/>
</g>
<g>
	<polygon style="fill:#FF127F;" points="231.606,149.106 210.394,127.894 191,147.287 171.606,127.894 150.394,149.106 
		169.787,168.5 150.394,187.894 171.606,209.106 191,189.713 210.394,209.106 231.606,187.894 212.213,168.5 	"/>
	<polygon style="fill:#FF127F;" points="109.394,127.894 90,147.287 70.606,127.894 49.394,149.106 68.787,168.5 49.394,187.894 
		70.606,209.106 90,189.713 109.394,209.106 130.606,187.894 111.213,168.5 130.606,149.106 	"/>
</g>
<g>
	<polygon style="fill:#E80C6A;" points="462.606,149.106 441.394,127.894 422,147.287 402.606,127.894 381.394,149.106 
		400.787,168.5 381.394,187.894 402.606,209.106 422,189.713 441.394,209.106 462.606,187.894 443.213,168.5 	"/>
	<polygon style="fill:#E80C6A;" points="340.394,127.894 321,147.287 301.606,127.894 280.394,149.106 299.787,168.5 
		280.394,187.894 301.606,209.106 321,189.713 340.394,209.106 361.606,187.894 342.213,168.5 361.606,149.106 	"/>
</g>
<g>
	<path style="fill:#FFDF47;" d="M281,463.5c-35.841,0-65-29.159-65-65s29.159-65,65-65s65,29.159,65,65S316.841,463.5,281,463.5z"/>
	<path style="fill:#FFDF47;" d="M115,463.5c-35.841,0-65-29.159-65-65s29.159-65,65-65s65,29.159,65,65S150.841,463.5,115,463.5z"/>
</g>
<g>
	<path style="fill:#FFCF00;" d="M256,122.5v30c8.284,0,15-6.716,15-15S264.284,122.5,256,122.5z"/>
	<path style="fill:#FFCF00;" d="M256,182.5v30c8.284,0,15-6.716,15-15S264.284,182.5,256,182.5z"/>
	<path style="fill:#FFCF00;" d="M281,333.5c-8.855,0-17.3,1.786-25,5.007v119.986c7.7,3.221,16.145,5.007,25,5.007
		c35.841,0,65-29.159,65-65S316.841,333.5,281,333.5z"/>
</g>
<g>
</g>
<g>
</g>
<g>
</g>
<g>
</g>
<g>
</g>
<g>
</g>
<g>
</g>
<g>
</g>
<g>
</g>
<g>
</g>
<g>
</g>
<g>
</g>
<g>
</g>
<g>
</g>
<g>
</g>
</svg>
