<?xml version="1.0" encoding="iso-8859-1"?>
<!-- Generator: Adobe Illustrator 19.0.0, SVG Export Plug-In . SVG Version: 6.00 Build 0)  -->
<svg version="1.1" id="Capa_1" xmlns="http://www.w3.org/2000/svg" xmlns:xlink="http://www.w3.org/1999/xlink" x="0px" y="0px"
	 viewBox="0 0 512 512" style="enable-background:new 0 0 512 512;" xml:space="preserve">
<path style="fill:#CA80DE;" d="M306,70H206V50c0-27.57,22.43-50,50-50s50,22.43,50,50V70z M238.684,40h34.632
	c-3.463-5.974-9.928-10-17.316-10S242.147,34.026,238.684,40z"/>
<path style="fill:#B857D0;" d="M256,0v30c7.388,0,13.853,4.026,17.316,10H256v30h50V50C306,22.43,283.57,0,256,0z"/>
<path style="fill:#CA80DE;" d="M456,512H56V70h400V512z"/>
<rect x="256" y="70" style="fill:#B857D0;" width="200" height="442"/>
<path style="fill:#FFDF47;" d="M406,462H106V70h300V462z"/>
<rect x="256" y="70" style="fill:#FFCF00;" width="150" height="392"/>
<path style="fill:#FF9A00;" d="M191.036,191.212l-43.319-4.278L106,142.985V70h300v94.825l-46.322-8.032l-33.813,17.588
	l-34.363-6.26l-33.814,14.472l-33.572-6.41L191.036,191.212z"/>
<path style="fill:#FF4F19;" d="M196,286c-22.056,0-40-17.944-40-40s17.944-40,40-40s40,17.944,40,40S218.056,286,196,286z M196,236
	c-5.514,0-10,4.486-10,10s4.486,10,10,10s10-4.486,10-10S201.514,236,196,236z"/>
<g>
	<rect x="256" y="206" style="fill:#FF3200;" width="110" height="30"/>
	<rect x="256" y="256" style="fill:#FF3200;" width="90" height="30"/>
</g>
<path style="fill:#FF4F19;" d="M196,406c-22.056,0-40-17.944-40-40s17.944-40,40-40s40,17.944,40,40S218.056,406,196,406z M196,356
	c-5.514,0-10,4.486-10,10s4.486,10,10,10s10-4.486,10-10S201.514,356,196,356z"/>
<g>
	<rect x="256" y="326" style="fill:#FF3200;" width="110" height="30"/>
	<rect x="256" y="376" style="fill:#FF3200;" width="90" height="30"/>
</g>
<polygon style="fill:#E67500;" points="256,70 256,182.271 257.688,182.593 291.502,168.122 325.865,174.381 359.678,156.793 
	406,164.825 406,70 "/>
<path style="fill:#FF127F;" d="M306,130H206c-13.785,0-25-11.215-25-25V65c0-13.785,11.215-25,25-25h100c13.785,0,25,11.215,25,25
	v40C331,118.785,319.785,130,306,130z"/>
<path style="fill:#E80C6A;" d="M306,40h-50v90h50c13.785,0,25-11.215,25-25V65C331,51.215,319.785,40,306,40z"/>
<g>
</g>
<g>
</g>
<g>
</g>
<g>
</g>
<g>
</g>
<g>
</g>
<g>
</g>
<g>
</g>
<g>
</g>
<g>
</g>
<g>
</g>
<g>
</g>
<g>
</g>
<g>
</g>
<g>
</g>
</svg>
