<?xml version="1.0" encoding="iso-8859-1"?>
<!-- Generator: Adobe Illustrator 19.0.0, SVG Export Plug-In . SVG Version: 6.00 Build 0)  -->
<svg version="1.1" id="Capa_1" xmlns="http://www.w3.org/2000/svg" xmlns:xlink="http://www.w3.org/1999/xlink" x="0px" y="0px"
	 viewBox="0 0 512 512" style="enable-background:new 0 0 512 512;" xml:space="preserve">
<path style="fill:#CA80DE;" d="M356.101,512H40.783V150.423l68.856-68.856h361.577v315.318C471.217,460.36,419.576,512,356.101,512z
	"/>
<path style="fill:#B857D0;" d="M256,81.566V512h100.101c63.475,0,115.116-51.641,115.116-115.116V81.566
	C471.217,81.566,256,81.566,256,81.566z"/>
<path style="fill:#E80C6A;" d="M356.101,512h-15.015V381.869h130.131v15.015C471.217,460.36,419.576,512,356.101,512z"/>
<g>
	<rect x="120.862" y="215.697" style="fill:#FFDF47;" width="270.272" height="30.03"/>
	<rect x="120.862" y="275.758" style="fill:#FFDF47;" width="270.272" height="30.03"/>
	<rect x="120.862" y="335.818" style="fill:#FFDF47;" width="200.202" height="30.03"/>
</g>
<g>
	<path style="fill:#FF4F19;" d="M273.437,148.808l-80.679-80.679L280.35,0l61.215,61.216L273.437,148.808z"/>
	
		<rect x="202.148" y="86.855" transform="matrix(-0.7071 -0.7071 0.7071 -0.7071 282.7618 365.9078)" style="fill:#FF4F19;" width="30.03" height="75.075"/>
</g>
<polygon style="fill:#FF127F;" points="40.783,181.667 140.884,181.667 140.884,81.566 109.64,81.566 40.783,150.423 "/>
<g>
	<rect x="255.998" y="215.697" style="fill:#FFCF00;" width="135.136" height="30.03"/>
	<rect x="255.998" y="275.758" style="fill:#FFCF00;" width="135.136" height="30.03"/>
	<rect x="255.998" y="335.818" style="fill:#FFCF00;" width="65.066" height="30.03"/>
</g>
<polygon style="fill:#FF3200;" points="280.35,0 256,18.938 256,131.372 273.437,148.808 341.564,61.216 "/>
<rect x="167.638" y="82.83" transform="matrix(-0.7071 -0.7071 0.7071 -0.7071 346.8592 339.3643)" style="fill:#FF9A00;" width="152.152" height="30.03"/>
<polygon style="fill:#E67500;" points="256,88.903 256,131.371 286.891,162.263 308.126,141.028 "/>
<g>
</g>
<g>
</g>
<g>
</g>
<g>
</g>
<g>
</g>
<g>
</g>
<g>
</g>
<g>
</g>
<g>
</g>
<g>
</g>
<g>
</g>
<g>
</g>
<g>
</g>
<g>
</g>
<g>
</g>
</svg>
