<svg id="Capa_1" enable-background="new 0 0 511.995 511.995" height="512" viewBox="0 0 511.995 511.995" width="512" xmlns="http://www.w3.org/2000/svg" xmlns:xlink="http://www.w3.org/1999/xlink"><linearGradient id="SVGID_1_" gradientUnits="userSpaceOnUse" x1="255.997" x2="255.997" y1="360.986" y2="151.009"><stop offset="0" stop-color="#fd5900"/><stop offset="1" stop-color="#ffde00"/></linearGradient><g><g><g><path d="m496.995 210.985h-357.782l10.342-41.367c1.523-6.152-.967-12.612-6.27-16.128-5.244-3.472-12.158-3.296-17.285.498l-120 90c-8.006 5.989-7.996 18.013 0 23.994l120 90c5.057 3.779 11.936 4.044 17.285.498 5.303-3.516 7.793-9.976 6.27-16.128l-10.342-41.367h357.781c8.291 0 15-6.709 15-15v-60c.001-8.291-6.708-15-14.999-15z" fill="url(#SVGID_1_)"/></g></g></g></svg>