<svg id="Capa_1" enable-background="new 0 0 512 512" height="512" viewBox="0 0 512 512" width="512" xmlns="http://www.w3.org/2000/svg" xmlns:xlink="http://www.w3.org/1999/xlink"><linearGradient id="SVGID_1_" gradientUnits="userSpaceOnUse" x1="256" x2="256" y1="512" y2="0"><stop offset="0" stop-color="#a93aff"/><stop offset="1" stop-color="#ff81ff"/></linearGradient><g><g><g><path d="m358.012 125.669-90-120c-5.684-7.559-18.34-7.559-24.023 0l-90 120c-3.809 5.068-3.984 11.997-.498 17.285 3.545 5.303 10.049 7.881 16.143 6.255l41.366-10.327v358.118c0 8.291 6.709 15 15 15h60c8.291 0 15-6.709 15-15v-358.118l41.367 10.327c6.182 1.626 12.598-.952 16.143-6.255 3.486-5.288 3.31-12.217-.498-17.285z" fill="url(#SVGID_1_)"/></g></g></g></svg>