<svg id="Capa_1" enable-background="new 0 0 511.995 511.995" height="512" viewBox="0 0 511.995 511.995" width="512" xmlns="http://www.w3.org/2000/svg" xmlns:xlink="http://www.w3.org/1999/xlink"><linearGradient id="SVGID_1_" gradientUnits="userSpaceOnUse" x1="255.997" x2="255.997" y1="511.995" y2="0"><stop offset="0" stop-color="#00b59c"/><stop offset="1" stop-color="#9cffac"/></linearGradient><g><g><g><path d="m342.365 362.454-41.367 10.327v-233.899l41.367 10.327c6.211 1.626 12.627-.952 16.143-6.255 3.486-5.288 3.311-12.217-.498-17.285l-90-120c-5.684-7.559-18.34-7.559-24.023 0l-90 120c-3.809 5.068-3.984 11.997-.498 17.285 3.545 5.303 9.99 7.881 16.143 6.255l41.367-10.327v233.899l-41.367-10.327c-6.152-1.538-12.598.952-16.143 6.255-3.486 5.288-3.311 12.217.498 17.285l90 120c6.02 8.006 18.011 7.996 24.023 0l90-120c3.809-5.068 3.984-11.997.498-17.285-3.517-5.303-9.933-7.793-16.143-6.255z" fill="url(#SVGID_1_)"/></g></g></g></svg>