<svg id="Capa_1" enable-background="new 0 0 511.995 511.995" height="512" viewBox="0 0 511.995 511.995" width="512" xmlns="http://www.w3.org/2000/svg" xmlns:xlink="http://www.w3.org/1999/xlink"><linearGradient id="SVGID_1_" gradientUnits="userSpaceOnUse" x1="255.997" x2="255.997" y1="360.998" y2="150.997"><stop offset="0" stop-color="#00b59c"/><stop offset="1" stop-color="#9cffac"/></linearGradient><g><g><g><path d="m505.994 244-120-90c-5.098-3.809-12.012-3.984-17.285-.498-5.303 3.516-7.793 9.976-6.27 16.128l10.342 41.367h-64.516c-24.932-37.222-67.178-60-112.266-60s-87.334 22.778-112.266 60h-68.733c-8.291 0-15 6.709-15 15v60c0 8.291 6.709 15 15 15h121c8.291 0 15-6.709 15-15 0-24.814 20.186-45 45-45s45 20.186 45 45c0 8.291 6.709 15 15 15h116.781l-10.342 41.367c-1.523 6.152.967 12.612 6.27 16.128 5.346 3.544 12.225 3.283 17.285-.498l120-90c8.006-5.989 7.996-18.013 0-23.994z" fill="url(#SVGID_1_)"/></g></g></g></svg>