<svg id="Capa_1" enable-background="new 0 0 512 512" height="512" viewBox="0 0 512 512" width="512" xmlns="http://www.w3.org/2000/svg" xmlns:xlink="http://www.w3.org/1999/xlink"><linearGradient id="SVGID_1_" gradientUnits="userSpaceOnUse" x1="256" x2="256" y1="512" y2="0"><stop offset="0" stop-color="#fd5900"/><stop offset="1" stop-color="#ffde00"/></linearGradient><g><g><g><path d="m494.853.147-148.506 21.299c-6.27.908-11.309 5.669-12.568 11.895s1.553 12.568 7.002 15.835l36.621 21.914-306.318 306.302-21.914-36.606c-3.223-5.42-9.404-8.174-15.82-7.002-6.211 1.26-10.986 6.284-11.895 12.583l-21.298 148.506c-1.422 9.862 7.053 18.369 16.992 16.978l148.506-21.299c6.27-.908 11.309-5.669 12.568-11.895s-1.553-12.568-7.002-15.835l-36.621-21.914 306.318-306.303 21.914 36.606c3.223 5.435 9.463 8.232 15.82 7.002 6.211-1.26 10.986-6.284 11.895-12.583l21.299-148.506c1.39-9.644-6.786-18.369-16.993-16.977z" fill="url(#SVGID_1_)"/></g></g></g></svg>