<svg id="Capa_1" enable-background="new 0 0 512 512" height="512" viewBox="0 0 512 512" width="512" xmlns="http://www.w3.org/2000/svg" xmlns:xlink="http://www.w3.org/1999/xlink"><linearGradient id="SVGID_1_" gradientUnits="userSpaceOnUse" x1="136" x2="136" y1="512" y2="0"><stop offset="0" stop-color="#fd3a84"/><stop offset="1" stop-color="#ffa68d"/></linearGradient><linearGradient id="SVGID_2_" gradientUnits="userSpaceOnUse" x1="376" x2="376" y1="511.995" y2="0"><stop offset="0" stop-color="#ffc2cc"/><stop offset="1" stop-color="#fff2f4"/></linearGradient><g id="Arrow_145_"><g><g><path d="m238.012 125.669-90-120c-5.684-7.559-18.34-7.559-24.023 0l-90 120c-3.809 5.068-3.984 11.997-.498 17.285 3.545 5.303 10.02 7.822 16.143 6.255l41.366-10.327v358.118c0 8.291 6.709 15 15 15h60c8.291 0 15-6.709 15-15v-358.118l41.367 10.327c6.152 1.567 12.627-.952 16.143-6.255 3.486-5.288 3.31-12.217-.498-17.285z" fill="url(#SVGID_1_)"/></g></g><g><g><path d="m478.51 368.709c-3.516-5.288-9.961-7.852-16.143-6.255l-41.367 10.327v-357.781c0-8.291-6.709-15-15-15h-60c-8.291 0-15 6.709-15 15v357.781l-41.367-10.327c-6.123-1.597-12.627.967-16.143 6.255-3.486 5.288-3.311 12.217.498 17.285l90 120c6.02 8.006 18.011 7.996 24.023 0l90-120c3.809-5.068 3.985-11.997.499-17.285z" fill="url(#SVGID_2_)"/></g></g></g></svg>