<svg id="Capa_1" enable-background="new 0 0 511.998 511.998" height="512" viewBox="0 0 511.998 511.998" width="512" xmlns="http://www.w3.org/2000/svg" xmlns:xlink="http://www.w3.org/1999/xlink"><linearGradient id="SVGID_1_" gradientUnits="userSpaceOnUse" x1="255.999" x2="255.999" y1="511.999" y2="0"><stop offset="0" stop-color="#5558ff"/><stop offset="1" stop-color="#00c0ff"/></linearGradient><g><g><g><path d="m505.992 93.001-121-90c-5.127-3.823-12.012-3.999-17.285-.498-5.303 3.516-7.793 9.976-6.27 16.128l10.4 41.602c-12.598.439-26.25 1.758-39.404 5.728-29.092 7.866-55.664 23.936-76.436 45.952-20.771-22.017-47.283-38.071-76.023-45.835-13.33-4.028-26.807-5.376-39.814-5.83l10.4-41.616c1.523-6.152-.967-12.612-6.27-16.128-5.244-3.486-12.158-3.311-17.285.498l-121 90c-8.006 5.989-7.996 18.013 0 23.994l121 90c5.127 3.823 12.012 3.999 17.285.498 5.303-3.516 7.793-9.976 6.27-16.128l-10.283-41.133c4.98.308 9.873 1.011 15.615 2.563 34.189 9.214 54.287 37.412 55.107 77.065v267.137c0 8.291 6.709 15 15 15h59.998c8.291 0 15-6.709 15-15v-266.975c.879-39.888 20.977-68.042 55.107-77.227 5.742-1.553 10.635-2.241 15.615-2.563l-10.283 41.133c-1.523 6.152.967 12.612 6.27 16.128 5.273 3.516 12.188 3.34 17.285-.498l121-90c8.007-5.989 7.997-18.013.001-23.995z" fill="url(#SVGID_1_)"/></g></g></g></svg>