<svg id="Capa_1" enable-background="new 0 0 512 512" height="512" viewBox="0 0 512 512" width="512" xmlns="http://www.w3.org/2000/svg" xmlns:xlink="http://www.w3.org/1999/xlink"><linearGradient id="SVGID_1_" gradientUnits="userSpaceOnUse" x1="136" x2="136" y1="512" y2="0"><stop offset="0" stop-color="#a93aff"/><stop offset="1" stop-color="#ff81ff"/></linearGradient><linearGradient id="SVGID_2_" gradientUnits="userSpaceOnUse" x1="376" x2="376" y1="512" y2="0"><stop offset="0" stop-color="#ffbef9"/><stop offset="1" stop-color="#fff1ff"/></linearGradient><g id="Arrow_144_"><g><g><path d="m238.011 125.669-90-120c-5.684-7.559-18.34-7.559-24.023 0l-89.998 120c-3.809 5.068-3.984 11.997-.498 17.285 3.545 5.288 10.02 7.837 16.143 6.255l41.367-10.327v358.118c0 8.291 6.709 15 15 15h59.998c8.291 0 15-6.709 15-15v-358.118l41.367 10.327c6.152 1.582 12.627-.967 16.143-6.255 3.485-5.288 3.309-12.217-.499-17.285z" fill="url(#SVGID_1_)"/></g></g><g><g><path d="m478.011 125.669-90-120c-5.684-7.559-18.34-7.559-24.023 0l-89.998 120c-3.809 5.068-3.984 11.997-.498 17.285 3.516 5.288 10.02 7.837 16.143 6.255l41.367-10.327v358.118c0 8.291 6.709 15 15 15h59.998c8.291 0 15-6.709 15-15v-358.118l41.367 10.327c6.182 1.582 12.627-.967 16.143-6.255 3.485-5.288 3.309-12.217-.499-17.285z" fill="url(#SVGID_2_)"/></g></g></g></svg>