<svg id="Capa_1" enable-background="new 0 0 512 512" height="512" viewBox="0 0 512 512" width="512" xmlns="http://www.w3.org/2000/svg" xmlns:xlink="http://www.w3.org/1999/xlink"><linearGradient id="SVGID_1_" gradientUnits="userSpaceOnUse" x1="256" x2="256" y1="512" y2="0"><stop offset="0" stop-color="#5558ff"/><stop offset="1" stop-color="#00c0ff"/></linearGradient><g><g><g><path d="m433.007 125.669-90-120c-5.684-7.559-18.34-7.559-24.023 0l-89.998 120c-3.809 5.068-3.984 11.997-.498 17.285 3.545 5.303 10.02 7.852 16.143 6.255l41.367-10.327v118.96c-9.873-5.054-20.244-9.126-31.025-12.114-13.184-4.028-26.807-5.391-39.814-5.845l10.4-41.587c1.523-6.152-.967-12.612-6.27-16.128-5.244-3.472-12.158-3.311-17.285.498l-120 90c-8.006 5.989-7.996 18.013 0 23.994l120 90c5.127 3.823 12.041 3.999 17.285.498 5.303-3.516 7.793-9.976 6.27-16.128l-10.313-41.221c4.98.308 9.844 1.025 15.527 2.637 5.654 1.523 55.225 16.582 55.225 74.619v89.935c0 8.291 6.709 15 15 15h59.998c8.291 0 15-6.709 15-15v-358.118l41.367 10.327c6.152 1.597 12.627-.952 16.143-6.255 3.485-5.288 3.309-12.217-.499-17.285z" fill="url(#SVGID_1_)"/></g></g></g></svg>