<svg id="Capa_1" enable-background="new 0 0 512 512" height="512" viewBox="0 0 512 512" width="512" xmlns="http://www.w3.org/2000/svg" xmlns:xlink="http://www.w3.org/1999/xlink"><linearGradient id="SVGID_1_" gradientUnits="userSpaceOnUse" x1="256" x2="256" y1="512" y2="0"><stop offset="0" stop-color="#a93aff"/><stop offset="1" stop-color="#ff81ff"/></linearGradient><g><g><g><path d="m429.997 272.666-120-90c-5.098-3.823-12.012-3.984-17.285-.498-5.303 3.516-7.793 9.976-6.27 16.128l10.4 41.572c-12.656.439-26.367 1.743-39.492 5.757-10.957 3.047-21.445 7.148-31.348 12.231v-118.974l41.367 10.327c6.211 1.597 12.627-.952 16.143-6.255 3.486-5.288 3.311-12.217-.498-17.285l-90-120c-5.684-7.559-18.34-7.559-24.023 0l-89.998 120c-3.809 5.068-3.984 11.997-.498 17.285 3.545 5.303 9.99 7.852 16.143 6.255l41.367-10.327v358.118c0 8.291 6.709 15 15 15h59.998c8.291 0 15-6.709 15-15v-89.935c0-58.037 49.57-73.096 55.371-74.663 5.596-1.582 10.43-2.285 15.381-2.593l-10.313 41.221c-1.523 6.152.967 12.612 6.27 16.128 5.273 3.516 12.188 3.34 17.285-.498l120-90c8.006-5.989 7.995-18.013 0-23.994z" fill="url(#SVGID_1_)"/></g></g></g></svg>