<svg id="Capa_1" enable-background="new 0 0 512 512" height="512" viewBox="0 0 512 512" width="512" xmlns="http://www.w3.org/2000/svg" xmlns:xlink="http://www.w3.org/1999/xlink"><linearGradient id="SVGID_1_" gradientUnits="userSpaceOnUse" x1="195.996" x2="195.996" y1="512" y2="120.015"><stop offset="0" stop-color="#ffe59a"/><stop offset="1" stop-color="#ffffd5"/></linearGradient><linearGradient id="SVGID_2_" gradientUnits="userSpaceOnUse" x1="329.14" x2="329.14" y1="365.713" y2="0"><stop offset="0" stop-color="#fd5900"/><stop offset="1" stop-color="#ffde00"/></linearGradient><g id="Arrow_122_"><g><g><path d="m382.733 163.462c-5.537-2.329-12.041-1.055-16.348 3.252l-162.802 162.788-21.094-21.094 162.803-162.788c4.277-4.292 5.566-10.737 3.252-16.348-2.314-5.596-7.793-9.258-13.857-9.258h-319.687c-8.291 0-15 6.709-15 15v361.986c0 8.291 6.709 15 15 15h361.991c8.291 0 15-6.709 15-15v-319.68c0-6.065-3.662-11.543-9.258-13.858z" fill="url(#SVGID_1_)"/></g></g><g><g><path d="m494.853.161-148.506 21.299c-6.27.908-11.309 5.669-12.568 11.895s1.553 12.568 7.002 15.835l36.621 21.914-226.729 226.699c-5.856 5.856-5.86 15.351 0 21.211l42.305 42.305c5.86 5.86 15.352 5.859 21.211 0l226.729-226.699 21.914 36.606c3.252 5.435 9.492 8.262 15.82 7.002 6.211-1.26 10.986-6.284 11.895-12.583l21.299-148.506c1.412-9.802-7.034-18.435-16.993-16.978z" fill="url(#SVGID_2_)"/></g></g></g></svg>