<svg id="Capa_1" enable-background="new 0 0 512 512" height="512" viewBox="0 0 512 512" width="512" xmlns="http://www.w3.org/2000/svg" xmlns:xlink="http://www.w3.org/1999/xlink"><linearGradient id="SVGID_1_" gradientUnits="userSpaceOnUse" x1="255.999" x2="255.999" y1="391" y2="0"><stop offset="0" stop-color="#fd3a84"/><stop offset="1" stop-color="#ffa68d"/></linearGradient><linearGradient id="SVGID_2_" gradientUnits="userSpaceOnUse" x1="256" x2="256" y1="512" y2="361"><stop offset="0" stop-color="#ffc2cc"/><stop offset="1" stop-color="#fff2f4"/></linearGradient><g id="Arrow_135_"><g><g><path d="m358.011 125.669-90-120c-5.684-7.559-18.34-7.559-24.023 0l-90 120c-3.809 5.068-3.984 11.997-.498 17.285 3.545 5.303 10.049 7.852 16.143 6.255l41.367-10.327v237.118c0 8.291 6.709 15 15 15h60c8.291 0 15-6.709 15-15v-237.118l41.367 10.327c6.182 1.597 12.598-.952 16.143-6.255 3.485-5.288 3.309-12.217-.499-17.285z" fill="url(#SVGID_1_)"/></g></g><g><g><path d="m496.999 361h-89.998c-8.291 0-15 6.709-15 15v45h-271.002v-45c0-8.291-6.709-15-15-15h-90.998c-8.291 0-15 6.709-15 15v121c0 8.291 6.709 15 16.002 15h481.998c7.289 0 13.998-6.709 13.998-15v-121c0-8.291-6.709-15-15-15z" fill="url(#SVGID_2_)"/></g></g></g></svg>