<svg id="Capa_1" enable-background="new 0 0 512 512" height="512" viewBox="0 0 512 512" width="512" xmlns="http://www.w3.org/2000/svg" xmlns:xlink="http://www.w3.org/1999/xlink"><linearGradient id="SVGID_1_" gradientUnits="userSpaceOnUse" x1="255.999" x2="255.999" y1="390.995" y2="0"><stop offset="0" stop-color="#00b59c"/><stop offset="1" stop-color="#9cffac"/></linearGradient><linearGradient id="SVGID_2_" gradientUnits="userSpaceOnUse" x1="256" x2="256" y1="512" y2="361"><stop offset="0" stop-color="#c3ffe8"/><stop offset=".9973" stop-color="#f0fff4"/></linearGradient><g id="Arrow_136_"><g><g><path d="m358.509 247.709c-3.516-5.303-9.932-7.793-16.143-6.255l-41.367 10.327v-236.781c0-8.291-6.709-15-15-15h-60c-8.291 0-15 6.709-15 15v236.781l-41.367-10.327c-6.152-1.538-12.598.952-16.143 6.255-3.486 5.288-3.311 12.217.498 17.285l90 120c6.02 8.006 18.011 7.996 24.023 0l90-120c3.809-5.068 3.985-11.997.499-17.285z" fill="url(#SVGID_1_)"/></g></g><g><g><path d="m496.999 361h-89.998c-8.291 0-15 6.709-15 15v45h-272v-45c0-8.291-6.709-15-15-15h-90c-8.291 0-15 6.709-15 15v121c0 8.291 6.709 15 16.002 15h481.998c7.289 0 13.998-6.709 13.998-15v-121c0-8.291-6.709-15-15-15z" fill="url(#SVGID_2_)"/></g></g></g></svg>