<svg id="Capa_1" enable-background="new 0 0 512 512" height="512" viewBox="0 0 512 512" width="512" xmlns="http://www.w3.org/2000/svg" xmlns:xlink="http://www.w3.org/1999/xlink"><linearGradient id="SVGID_1_" gradientUnits="userSpaceOnUse" x1="165.5" x2="165.5" y1="512" y2="0"><stop offset="0" stop-color="#c3ffe8"/><stop offset=".9973" stop-color="#f0fff4"/></linearGradient><linearGradient id="SVGID_2_" gradientUnits="userSpaceOnUse" x1="301.502" x2="301.502" y1="361" y2="151.013"><stop offset="0" stop-color="#00b59c"/><stop offset="1" stop-color="#9cffac"/></linearGradient><g><g><g><path d="m199.163 235.229c2.842 3.647 7.207 5.771 11.836 5.771h105c8.291 0 15-6.709 15-15v-211c0-8.291-6.709-15-15-15h-300.998c-8.291 0-15 6.709-15 15v482c0 8.291 6.709 15 15 15h300.998c8.291 0 15-6.709 15-15v-211c0-8.291-6.709-15-15-15h-105c-4.629 0-8.994 2.124-11.836 5.771-2.842 3.633-3.838 8.379-2.725 12.861l4.775 19.014-70.224-52.646 70.225-52.646-4.775 19.014c-1.114 4.482-.118 9.228 2.724 12.861z" fill="url(#SVGID_1_)"/></g></g><g><g><path d="m496.999 211h-266.781l10.342-41.367c1.523-6.152-.967-12.612-6.27-16.128-5.244-3.486-12.158-3.311-17.285.498l-120 90c-8.006 5.989-7.996 18.013 0 23.994l120 90c5.057 3.779 11.936 4.043 17.285.498 5.303-3.516 7.793-9.976 6.27-16.128l-10.342-41.367h266.781c8.291 0 15-6.709 15-15v-60c0-8.291-6.709-15-15-15z" fill="url(#SVGID_2_)"/></g></g></g></svg>