<svg id="Capa_1" enable-background="new 0 0 512 512" height="512" viewBox="0 0 512 512" width="512" xmlns="http://www.w3.org/2000/svg" xmlns:xlink="http://www.w3.org/1999/xlink"><linearGradient id="SVGID_1_" gradientUnits="userSpaceOnUse" x1="166.003" x2="166.003" y1="512" y2="0"><stop offset="0" stop-color="#ffc2cc"/><stop offset="1" stop-color="#fff2f4"/></linearGradient><linearGradient id="SVGID_2_" gradientUnits="userSpaceOnUse" x1="301.999" x2="301.999" y1="361" y2="151.002"><stop offset="0" stop-color="#fd3a84"/><stop offset="1" stop-color="#ffa68d"/></linearGradient><g><g><g><path d="m317.002 241c8.291 0 15-6.709 15-15v-211c0-8.291-6.709-15-15-15h-301.998c-8.291 0-15 6.709-15 15v482c0 8.291 6.709 15 15 15h301.998c8.291 0 15-6.709 15-15v-211c0-8.291-6.709-15-15-15h-195v-30z" fill="url(#SVGID_1_)"/></g></g><g><g><path d="m505.996 244.003-120-90c-5.127-3.823-12.012-3.999-17.285-.498-5.303 3.516-7.793 9.976-6.27 16.128l10.342 41.367h-265.781c-8.291 0-15 6.709-15 15v60c0 8.291 6.709 15 15 15h265.781l-10.342 41.367c-1.523 6.152.967 12.612 6.27 16.128 5.346 3.543 12.225 3.283 17.285-.498l120-90c8.006-5.989 7.995-18.013 0-23.994z" fill="url(#SVGID_2_)"/></g></g></g></svg>