<svg id="Capa_1" enable-background="new 0 0 512 512" height="512" viewBox="0 0 512 512" width="512" xmlns="http://www.w3.org/2000/svg" xmlns:xlink="http://www.w3.org/1999/xlink"><linearGradient id="SVGID_1_" gradientUnits="userSpaceOnUse" x1="256" x2="256" y1="512" y2="0"><stop offset="0" stop-color="#5558ff"/><stop offset="1" stop-color="#00c0ff"/></linearGradient><g><g><g><path d="m478.009 125.669-90-120c-5.684-7.559-18.34-7.559-24.023 0l-90 120c-3.809 5.068-3.984 11.997-.498 17.285 3.545 5.303 9.99 7.866 16.143 6.255l41.367-10.327v87.964l-75 37.5-75-37.5v-87.964l41.367 10.327c6.182 1.611 12.598-.952 16.143-6.255 3.486-5.288 3.311-12.217-.498-17.285l-90-120c-5.684-7.559-18.34-7.559-24.023 0l-89.996 120c-3.809 5.068-3.984 11.997-.498 17.285 3.545 5.303 9.99 7.866 16.143 6.255l41.367-10.327v134.326c0 5.684 3.223 10.869 8.291 13.418l111.705 55.854v154.52c0 8.291 6.709 15 15 15h60c8.291 0 15-6.709 15-15v-154.52l111.709-55.854c5.068-2.549 8.291-7.734 8.291-13.418v-134.326l41.367 10.327c6.123 1.611 12.627-.952 16.143-6.255 3.485-5.288 3.309-12.217-.5-17.285z" fill="url(#SVGID_1_)"/></g></g></g></svg>