<svg id="Capa_1" enable-background="new 0 0 512 512" height="512" viewBox="0 0 512 512" width="512" xmlns="http://www.w3.org/2000/svg" xmlns:xlink="http://www.w3.org/1999/xlink"><linearGradient id="SVGID_1_" gradientUnits="userSpaceOnUse" x1="256" x2="256" y1="512" y2="0"><stop offset="0" stop-color="#a93aff"/><stop offset="1" stop-color="#ff81ff"/></linearGradient><g id="Arrow_128_"><g><g><path d="m243.987 234.994c6.02 8.006 18.011 7.996 24.023 0l90-120c3.809-5.068 3.984-11.997.498-17.285-3.545-5.288-9.961-7.837-16.143-6.255l-41.367 10.327v-86.781c0-8.291-6.709-15-15-15h-59.998c-8.291 0-15 6.709-15 15v86.781l-41.367-10.327c-6.094-1.582-12.598.967-16.143 6.255-3.486 5.288-3.311 12.217.498 17.285zm24.024 42.012c-5.684-7.559-18.34-7.559-24.023 0l-89.998 120c-3.809 5.068-3.984 11.997-.498 17.285 3.545 5.303 10.049 7.808 16.143 6.255l41.367-10.327v86.781c0 8.291 6.709 15 15 15h59.998c8.291 0 15-6.709 15-15v-86.781l41.367 10.327c6.182 1.553 12.598-.952 16.143-6.255 3.486-5.288 3.311-12.217-.498-17.285zm-33.018-33.003-120-90c-5.098-3.823-12.012-3.999-17.285-.498-5.303 3.516-7.793 9.976-6.27 16.128l10.342 41.367h-86.779c-8.291 0-15 6.709-15 15v60c0 8.291 6.709 15 15 15h86.779l-10.342 41.367c-1.523 6.152.967 12.612 6.27 16.128 5.346 3.543 12.225 3.283 17.285-.498l120-90c8.006-5.989 7.996-18.013 0-23.994zm262.006-33.003h-86.781l10.342-41.367c1.523-6.152-.967-12.612-6.27-16.128-5.244-3.486-12.158-3.311-17.285.498l-120 90c-8.006 5.989-7.996 18.013 0 23.994l120 90c5.057 3.779 11.936 4.043 17.285.498 5.303-3.516 7.793-9.976 6.27-16.128l-10.342-41.367h86.781c8.291 0 15-6.709 15-15v-60c0-8.291-6.709-15-15-15z" fill="url(#SVGID_1_)"/></g></g></g></svg>