<svg id="Capa_1" enable-background="new 0 0 512 512" height="512" viewBox="0 0 512 512" width="512" xmlns="http://www.w3.org/2000/svg" xmlns:xlink="http://www.w3.org/1999/xlink"><linearGradient id="SVGID_1_" gradientUnits="userSpaceOnUse" x1="229.453" x2="229.453" y1="512" y2="235.097"><stop offset="0" stop-color="#fd5900"/><stop offset="1" stop-color="#ffde00"/></linearGradient><linearGradient id="SVGID_2_" gradientUnits="userSpaceOnUse" x1="282.549" x2="282.549" y1="276.908" y2="0"><stop offset="0" stop-color="#ffe59a"/><stop offset="1" stop-color="#ffffd5"/></linearGradient><g id="Arrow_127_"><g><g><path d="m363.521 281.797-42.305-42.305c-5.859-5.859-15.352-5.859-21.211 0l-137.93 137.9-21.914-36.606c-3.223-5.42-9.434-8.188-15.82-7.002-6.211 1.26-10.986 6.284-11.895 12.583l-21.298 148.506c-1.422 9.862 7.053 18.369 16.992 16.978l148.506-21.299c6.27-.908 11.309-5.669 12.568-11.895s-1.553-12.568-7.002-15.835l-36.621-21.914 137.93-137.9c5.856-5.857 5.86-15.352 0-21.211z" fill="url(#SVGID_1_)"/></g></g><g><g><path d="m403.863.155-148.506 21.299c-6.27.908-11.309 5.669-12.568 11.895s1.553 12.568 7.002 15.835l36.621 21.914-137.93 137.9c-5.856 5.856-5.86 15.351 0 21.211l42.305 42.305c5.86 5.859 15.352 5.859 21.211 0l137.93-137.9 21.914 36.606c3.252 5.449 9.434 8.232 15.82 7.002 6.211-1.26 10.986-6.284 11.895-12.583l21.299-148.506c1.384-9.605-6.772-18.417-16.993-16.978z" fill="url(#SVGID_2_)"/></g></g></g></svg>