<svg id="Capa_1" enable-background="new 0 0 512 512" height="512" viewBox="0 0 512 512" width="512" xmlns="http://www.w3.org/2000/svg" xmlns:xlink="http://www.w3.org/1999/xlink"><linearGradient id="SVGID_1_" gradientUnits="userSpaceOnUse" x1="256" x2="256" y1="511.953" y2=".047"><stop offset="0" stop-color="#5558ff"/><stop offset="1" stop-color="#00c0ff"/></linearGradient><g><g><g><path d="m496.615 285.862-36.533-21.929 7.441-7.456c46.348-44.883 57.539-112.383 28.535-171.987-28.798-59.136-88.447-91.817-151.523-83.028-72.451 7.808-117.597 64.615-128.994 114.2-24.086 90.119 12.259 191.809-6.797 257.314-6.768 26.924-25.898 45.454-51.68 48.398-30.79 4.307-51.269-14.59-60.409-33.545-9.229-18.984-11.133-46.904 11.279-68.481l7.617-7.632 21.973 36.577c3.281 5.449 9.844 8.218 15.82 6.987 6.24-1.26 10.986-6.299 11.895-12.583l21.211-148.491c1.438-9.972-7.251-18.434-16.963-16.978l-148.507 21.211c-6.299.908-11.338 5.654-12.598 11.88s1.553 12.568 7.002 15.835l36.533 21.929-7.441 7.456c-46.348 44.883-57.539 112.383-28.535 171.987 28.825 59.227 88.609 91.743 151.523 83.027 72.568-7.822 116.895-64.834 128.027-113.906 24.268-90.166-12.19-192.275 6.885-257.845 6.768-26.924 26.777-45.216 52.558-48.16 30.675-4.307 51.241 14.59 60.411 33.545 9.229 18.984 11.133 46.904-11.279 68.481l-7.617 7.632-21.973-36.577c-3.281-5.449-9.814-8.174-15.82-6.987-6.24 1.26-10.986 6.299-11.895 12.583l-21.21 148.491c-1.451 10.062 7.37 18.435 16.963 16.978l148.506-21.211c6.299-.908 11.338-5.654 12.598-11.88s-1.554-12.569-7.003-15.835z" fill="url(#SVGID_1_)"/></g></g></g></svg>