<svg id="Capa_1" enable-background="new 0 0 511.998 511.998" height="512" viewBox="0 0 511.998 511.998" width="512" xmlns="http://www.w3.org/2000/svg" xmlns:xlink="http://www.w3.org/1999/xlink"><linearGradient id="SVGID_1_" gradientUnits="userSpaceOnUse" x1="347.001" x2="347.001" y1="419.487" y2="32.514"><stop offset="0" stop-color="#ffbef9"/><stop offset="1" stop-color="#fff1ff"/></linearGradient><linearGradient id="SVGID_2_" gradientUnits="userSpaceOnUse" x1="164.997" x2="164.997" y1="479.484" y2="92.488"><stop offset="0" stop-color="#a93aff"/><stop offset="1" stop-color="#ff81ff"/></linearGradient><g id="Arrow_129_"><g><g><path d="m346.998 92.501h-25.781l10.342-41.367c1.523-6.152-.967-12.612-6.27-16.128-5.244-3.486-12.129-3.311-17.285.498l-120 90c-8.006 5.989-7.996 18.013 0 23.994l120 90c5.127 3.809 12.041 3.984 17.285.498 5.303-3.516 7.793-9.976 6.27-16.128l-10.342-41.367h25.781c41.367 0 75 33.647 75 75 0 31.699-20.098 60.117-50.01 70.723-5.977 2.124-9.99 7.778-9.99 14.136v62.124c0 9.5 8.724 16.6 17.988 14.692 76.494-15.571 132.012-83.569 132.012-161.675 0-90.981-74.033-165-165-165z" fill="url(#SVGID_1_)"/></g></g><g><g><path d="m323.994 362.487-120-90c-5.098-3.823-12.012-3.984-17.285-.498-5.303 3.516-7.793 9.976-6.27 16.128l10.342 41.367h-25.781c-41.367 0-75-33.647-75-75 0-31.699 20.098-60.117 50.01-70.723 5.977-2.124 9.99-7.778 9.99-14.136v-62.124c0-4.497-2.021-8.774-5.508-11.616-3.486-2.871-8.086-4.014-12.48-3.076-76.494 15.571-132.012 83.569-132.012 161.675 0 90.981 74.033 165 165 165h25.781l-10.342 41.367c-1.523 6.152.967 12.612 6.27 16.128 5.346 3.543 12.225 3.283 17.285-.498l120-90c8.006-5.989 7.996-18.013 0-23.994z" fill="url(#SVGID_2_)"/></g></g></g></svg>