<svg id="Capa_1" enable-background="new 0 0 511.992 511.992" height="512" viewBox="0 0 511.992 511.992" width="512" xmlns="http://www.w3.org/2000/svg" xmlns:xlink="http://www.w3.org/1999/xlink"><linearGradient id="SVGID_1_" gradientUnits="userSpaceOnUse" x1="255.996" x2="255.996" y1="480.996" y2="90.995"><stop offset="0" stop-color="#c3ffe8"/><stop offset=".9973" stop-color="#f0fff4"/></linearGradient><linearGradient id="SVGID_2_" gradientUnits="userSpaceOnUse" x1="255.996" x2="255.996" y1="420.995" y2="30.997"><stop offset="0" stop-color="#00b59c"/><stop offset="1" stop-color="#9cffac"/></linearGradient><g><g><g><path d="m505.992 363.998-120-90c-5.098-3.823-12.012-3.984-17.285-.498-5.303 3.516-7.793 9.976-6.27 16.128l10.107 40.43c-39.023-3.999-82.354-22.09-100.049-78.267-4.146-13.248-22.562-14.16-28.066-1.436-4.143 9.613-6.325 34.885-29.854 67.324-3.779 5.2-3.838 12.231-.117 17.476 36.885 52.207 90.117 80.815 158.467 85.239l-10.488 41.968c-1.523 6.152.967 12.612 6.27 16.128 5.346 3.543 12.225 3.283 17.285-.498l120-90c8.006-5.988 7.996-18.013 0-23.994zm-266.66-170.244c3.604-5.2 3.545-12.085-.117-17.241-37.998-53.555-99.99-85.518-165.82-85.518h-58.395c-8.291 0-15 6.709-15 15v60c0 8.291 6.709 15 15 15h58.394c49.98 0 93.398 31.919 108.076 79.424 4.158 13.579 23.245 14.305 28.359.879 1.025-2.739 1.758-5.464 2.666-8.994 5.45-21.035 14.474-40.737 26.837-58.55z" fill="url(#SVGID_1_)"/></g></g><g><g><path d="m505.992 123.998-120-90c-5.098-3.823-12.012-3.999-17.285-.498-5.303 3.516-7.793 9.976-6.27 16.128l10.518 41.982c-84.961 5.64-132.744 48.574-158.291 85.034-25.095 36.211-30.342 67.161-33.164 74.854-14.971 47.549-58.389 79.497-108.105 79.497h-58.395c-8.291 0-15 6.709-15 15v60c0 8.291 6.709 15 15 15h58.394c66.064 0 127.969-32.109 165.439-85.679 43.42-59.713 24.893-141.084 133.682-153.267l-10.078 40.313c-1.523 6.152.967 12.612 6.27 16.128 5.273 3.501 12.188 3.325 17.285-.498l120-90c8.006-5.988 7.996-18.013 0-23.994z" fill="url(#SVGID_2_)"/></g></g></g></svg>