<svg id="Capa_1" enable-background="new 0 0 512 512" height="512" viewBox="0 0 512 512" width="512" xmlns="http://www.w3.org/2000/svg" xmlns:xlink="http://www.w3.org/1999/xlink"><linearGradient id="SVGID_1_" gradientUnits="userSpaceOnUse" x1="256" x2="256" y1="512" y2="0"><stop offset="0" stop-color="#fd3a84"/><stop offset="1" stop-color="#ffa68d"/></linearGradient><g><g><g><path d="m417.543 209.792c-7.09-17.153-23.027-27.803-41.543-27.803h-131.367l113.89-113.961c5.859-5.859 5.859-15.352 0-21.211l-42.422-42.422c-5.859-5.859-15.352-5.859-21.211 0l-190.706 190.777c-13.096 13.081-16.816 31.86-9.727 49.014s23.027 27.803 41.543 27.803h131.367l-105.351 105.351-21.943-36.563c-3.281-5.449-9.58-8.174-15.82-6.987-6.24 1.26-10.986 6.299-11.895 12.583l-21.212 148.492c-1.428 9.905 7.156 18.408 16.963 16.978l148.506-21.211c6.299-.908 11.338-5.654 12.598-11.88s-1.553-12.568-7.002-15.835l-36.563-21.943 182.168-182.168c13.096-13.082 16.817-31.861 9.727-49.014z" fill="url(#SVGID_1_)"/></g></g></g></svg>