<svg id="Capa_1" enable-background="new 0 0 512 512" height="512" viewBox="0 0 512 512" width="512" xmlns="http://www.w3.org/2000/svg" xmlns:xlink="http://www.w3.org/1999/xlink"><linearGradient id="SVGID_1_" gradientUnits="userSpaceOnUse" x1="466" x2="466" y1="512" y2="0"><stop offset="0" stop-color="#ffe59a"/><stop offset="1" stop-color="#ffffd5"/></linearGradient><linearGradient id="SVGID_2_" gradientUnits="userSpaceOnUse" x1="195.997" x2="195.997" y1="361" y2="151.002"><stop offset="0" stop-color="#fd5900"/><stop offset="1" stop-color="#ffde00"/></linearGradient><g id="Arrow_123_"><g><g><path d="m496.499 0h-60.998c-8.291 0-15 6.709-15 15v482c0 8.291 6.709 15 15 15h60.998c8.291 0 15-6.709 15-15v-482c0-8.291-6.709-15-15-15z" fill="url(#SVGID_1_)"/></g></g><g><g><path d="m385.493 244.003-120-90c-5.127-3.823-12.012-3.999-17.285-.498-5.303 3.516-7.793 9.976-6.27 16.128l10.342 41.367h-236.779c-8.291 0-15 6.709-15 15v60c0 8.291 6.709 15 15 15h236.779l-10.342 41.367c-1.523 6.152.967 12.612 6.27 16.128 5.346 3.543 12.225 3.283 17.285-.498l120-90c8.006-5.989 7.996-18.013 0-23.994z" fill="url(#SVGID_2_)"/></g></g></g></svg>