<svg id="Capa_1" enable-background="new 0 0 512.01 512.01" height="512" viewBox="0 0 512.01 512.01" width="512" xmlns="http://www.w3.org/2000/svg" xmlns:xlink="http://www.w3.org/1999/xlink"><linearGradient id="SVGID_1_" gradientUnits="userSpaceOnUse" x1="256.005" x2="256.005" y1="512.01" y2="0"><stop offset="0" stop-color="#5558ff"/><stop offset="1" stop-color="#00c0ff"/></linearGradient><g id="Arrow_117_"><g><g><path d="m134.66 71 36.563-21.929c5.449-3.267 8.262-9.609 7.002-15.835s-6.299-10.972-12.598-11.88l-148.506-21.211c-10.034-1.333-18.374 7.194-16.963 16.978l21.211 148.491c.908 6.284 5.654 11.323 11.895 12.583 6.123 1.143 12.539-1.538 15.82-6.987l21.943-36.563 90.645 90.659c5.86 5.859 15.352 5.859 21.211 0l42.451-42.422c5.856-5.856 5.86-15.351 0-21.211zm377.193 423.875-21.211-148.491c-.908-6.284-5.654-11.323-11.895-12.583-6.211-1.187-12.539 1.523-15.82 6.987l-21.943 36.563-90.645-90.659c-5.859-5.859-15.352-5.859-21.211 0l-42.451 42.422c-5.856 5.856-5.86 15.351 0 21.211l90.674 90.674-36.563 21.929c-5.449 3.267-8.262 9.609-7.002 15.835s6.299 10.972 12.598 11.88l148.506 21.211c9.821 1.43 18.389-7.086 16.963-16.979zm-182.733-269.569c5.86 5.859 15.352 5.859 21.211 0l90.645-90.659 21.943 36.563c3.311 5.449 9.668 8.203 15.82 6.987 6.24-1.26 10.986-6.299 11.895-12.583l21.211-148.491c1.418-9.836-7.009-18.346-16.963-16.978l-148.506 21.211c-6.299.908-11.338 5.654-12.598 11.88s1.553 12.568 7.002 15.835l36.563 21.929-90.674 90.674c-5.856 5.856-5.86 15.351 0 21.211zm-146.238 61.374c-5.859-5.859-15.352-5.859-21.211 0l-90.645 90.659-21.943-36.563c-3.281-5.435-9.639-8.101-15.82-6.987-6.24 1.26-10.986 6.299-11.895 12.583l-21.21 148.491c-1.428 9.905 7.156 18.408 16.963 16.978l148.506-21.211c6.299-.908 11.338-5.654 12.598-11.88s-1.553-12.568-7.002-15.835l-36.563-21.929 90.674-90.674c5.856-5.856 5.86-15.351 0-21.211z" fill="url(#SVGID_1_)"/></g></g></g></svg>