<svg id="Capa_1" enable-background="new 0 0 512 512" height="512" viewBox="0 0 512 512" width="512" xmlns="http://www.w3.org/2000/svg" xmlns:xlink="http://www.w3.org/1999/xlink"><linearGradient id="SVGID_1_" gradientUnits="userSpaceOnUse" x1="256" x2="256" y1="481" y2="31"><stop offset="0" stop-color="#a93aff"/><stop offset="1" stop-color="#ff81ff"/></linearGradient><g><g><g><path d="m509.01 157.006-90-120c-5.684-7.559-18.34-7.559-24.023 0l-90 120c-3.809 5.068-3.984 11.997-.498 17.285 3.545 5.288 10.02 7.822 16.143 6.255l41.367-10.327v175.781c0 24.814-20.186 45-45 45s-45-20.186-45-45v-180c0-74.443-61.557-135-136-135s-135.999 60.557-135.999 135v300c0 8.291 6.709 15 15 15h60c8.291 0 15-6.709 15-15v-300c0-24.814 21.183-45 45.998-45s46 20.186 46 45v180c0 74.443 60.557 135 135 135s135-60.557 135-135v-175.781l41.367 10.327c6.152 1.567 12.627-.967 16.143-6.255 3.486-5.288 3.31-12.217-.498-17.285z" fill="url(#SVGID_1_)"/></g></g></g></svg>