<svg id="Capa_1" enable-background="new 0 0 511.995 511.995" height="512" viewBox="0 0 511.995 511.995" width="512" xmlns="http://www.w3.org/2000/svg" xmlns:xlink="http://www.w3.org/1999/xlink"><linearGradient id="SVGID_1_" gradientUnits="userSpaceOnUse" x1="255.997" x2="255.997" y1="511.995" y2="0"><stop offset="0" stop-color="#00b59c"/><stop offset="1" stop-color="#9cffac"/></linearGradient><g><g><g><path d="m505.99 244.003-121-90c-5.098-3.823-12.012-3.999-17.285-.498-5.303 3.516-7.793 9.976-6.27 16.128l10.342 41.367h-70.781v-70.781l41.367 10.327c6.211 1.567 12.627-.952 16.143-6.255 3.486-5.288 3.311-12.217-.498-17.285l-90-121.337c-5.684-7.559-18.34-7.559-24.023 0l-89.998 121.337c-3.809 5.068-3.984 11.997-.498 17.285 3.545 5.303 9.99 7.822 16.143 6.255l41.367-10.327v70.781h-70.781l10.342-41.367c1.523-6.152-.967-12.612-6.27-16.128-5.244-3.486-12.158-3.311-17.285.498l-121 90c-8.006 5.989-7.996 18.013 0 23.994l121 90c5.098 3.823 12.012 3.984 17.285.498 5.303-3.516 7.793-9.976 6.27-16.128l-10.343-41.367h70.781v70.781l-41.367-10.327c-6.152-1.597-12.598.967-16.143 6.255-3.486 5.288-3.311 12.217.498 17.285l89.998 121c6.02 8.006 18.011 7.996 24.023 0l90-121c3.809-5.068 3.984-11.997.498-17.285-3.516-5.288-9.932-7.852-16.143-6.255l-41.367 10.327v-70.781h70.781l-10.342 41.367c-1.523 6.152.967 12.612 6.27 16.128 5.273 3.501 12.188 3.34 17.285-.498l121-90c8.007-5.989 7.997-18.013.001-23.994z" fill="url(#SVGID_1_)"/></g></g></g></svg>