<svg id="Capa_1" enable-background="new 0 0 511.998 511.998" height="512" viewBox="0 0 511.998 511.998" width="512" xmlns="http://www.w3.org/2000/svg" xmlns:xlink="http://www.w3.org/1999/xlink"><linearGradient id="SVGID_1_" gradientUnits="userSpaceOnUse" x1="226.001" x2="226.001" y1="386.976" y2=".008"><stop offset="0" stop-color="#00b59c"/><stop offset="1" stop-color="#9cffac"/></linearGradient><linearGradient id="SVGID_2_" gradientUnits="userSpaceOnUse" x1="255.999" x2="255.999" y1="511.99" y2="360.99"><stop offset="0" stop-color="#c3ffe8"/><stop offset=".9973" stop-color="#f0fff4"/></linearGradient><g id="Arrow_119_"><g><g><path d="m225.998 59.99h-25.781l10.342-41.367c1.523-6.152-.967-12.612-6.27-16.128-5.244-3.472-12.158-3.311-17.285.498l-120 90c-8.006 5.989-7.996 18.013 0 23.994l120 90c5.127 3.809 12.041 3.984 17.285.498 5.303-3.516 7.793-9.976 6.27-16.128l-10.342-41.367h25.781c41.367 0 75 33.647 75 75 0 31.699-20.098 60.117-50.01 70.723-5.977 2.124-9.99 7.778-9.99 14.136v62.124c0 9.5 8.724 16.6 17.988 14.692 76.494-15.571 132.012-83.569 132.012-161.675 0-90.982-74.033-165-165-165z" fill="url(#SVGID_1_)"/></g></g><g><g><path d="m496.998 360.99h-89.998c-8.291 0-15 6.709-15 15v45h-272v-45c0-8.291-6.709-15-15-15h-90c-8.291 0-15 6.709-15 15v121c0 8.291 6.709 15 16.002 15h481.998c7.289 0 13.998-6.709 13.998-15v-121c0-8.291-6.709-15-15-15z" fill="url(#SVGID_2_)"/></g></g></g></svg>