<svg id="Capa_1" enable-background="new 0 0 511.998 511.998" height="512" viewBox="0 0 511.998 511.998" width="512" xmlns="http://www.w3.org/2000/svg" xmlns:xlink="http://www.w3.org/1999/xlink"><linearGradient id="SVGID_1_" gradientUnits="userSpaceOnUse" x1="285.995" x2="285.995" y1="386.978" y2=".005"><stop offset="0" stop-color="#a93aff"/><stop offset="1" stop-color="#ff81ff"/></linearGradient><linearGradient id="SVGID_2_" gradientUnits="userSpaceOnUse" x1="255.999" x2="255.999" y1="511.993" y2="360.993"><stop offset="0" stop-color="#ffbef9"/><stop offset="1" stop-color="#fff1ff"/></linearGradient><g id="Arrow_118_"><g><g><path d="m444.992 92.996-120-90c-5.098-3.809-12.012-3.984-17.285-.498-5.303 3.516-7.793 9.976-6.27 16.128l10.342 41.367h-25.781c-90.967 0-165 74.019-165 165 0 78.105 55.518 146.104 132.012 161.675 9.229 1.9 17.988-5.156 17.988-14.692v-62.124c0-6.357-4.014-12.012-9.99-14.136-29.912-10.605-50.01-39.023-50.01-70.723 0-41.353 33.633-75 75-75h25.781l-10.342 41.367c-1.523 6.152.967 12.612 6.27 16.128 5.273 3.501 12.188 3.325 17.285-.498l120-90c8.006-5.989 7.996-18.013 0-23.994z" fill="url(#SVGID_1_)"/></g></g><g><g><path d="m496.998 360.993h-89.998c-8.291 0-15 6.709-15 15v45h-271.002v-45c0-8.291-6.709-15-15-15h-90.998c-8.291 0-15 6.709-15 15v121c0 8.291 6.709 15 16.002 15h481.998c7.289 0 13.998-6.709 13.998-15v-121c0-8.291-6.709-15-15-15z" fill="url(#SVGID_2_)"/></g></g></g></svg>