<svg id="Capa_1" enable-background="new 0 0 512 512" height="512" viewBox="0 0 512 512" width="512" xmlns="http://www.w3.org/2000/svg" xmlns:xlink="http://www.w3.org/1999/xlink"><linearGradient id="SVGID_1_" gradientUnits="userSpaceOnUse" x1="256" x2="256" y1="512" y2="0"><stop offset="0" stop-color="#ffc2cc"/><stop offset="1" stop-color="#fff2f4"/></linearGradient><linearGradient id="SVGID_2_" gradientUnits="userSpaceOnUse" x1="255.998" x2="255.998" y1="361" y2="151.002"><stop offset="0" stop-color="#fd3a84"/><stop offset="1" stop-color="#ffa68d"/></linearGradient><g id="Arrow_125_"><g><g><path d="m15 0c-8.291 0-15 6.709-15 15v482c0 8.291 6.709 15 15 15s15-6.709 15-15v-482c0-8.291-6.709-15-15-15zm482 0c-8.291 0-15 6.709-15 15v482c0 8.291 6.709 15 15 15s15-6.709 15-15v-482c0-8.291-6.709-15-15-15z" fill="url(#SVGID_1_)"/></g></g><g><g><path d="m444.992 244.003-120-90c-5.127-3.823-12.012-3.999-17.285-.498-5.303 3.516-7.793 9.976-6.27 16.128l10.342 41.367h-111.562l10.342-41.367c1.523-6.152-.967-12.612-6.27-16.128-5.244-3.486-12.158-3.311-17.285.498l-120 90c-8.006 5.989-7.996 18.013 0 23.994l120 90c5.127 3.809 12.012 3.984 17.285.498 5.303-3.516 7.793-9.976 6.27-16.128l-10.342-41.367h111.563l-10.342 41.367c-1.523 6.152.967 12.612 6.27 16.128 5.346 3.543 12.225 3.283 17.285-.498l120-90c8.005-5.989 7.995-18.013-.001-23.994z" fill="url(#SVGID_2_)"/></g></g></g></svg>