<svg id="Capa_1" enable-background="new 0 0 511.998 511.998" height="512" viewBox="0 0 511.998 511.998" width="512" xmlns="http://www.w3.org/2000/svg" xmlns:xlink="http://www.w3.org/1999/xlink"><linearGradient id="SVGID_1_" gradientUnits="userSpaceOnUse" x1="255.999" x2="255.999" y1="360.999" y2="151"><stop offset="0" stop-color="#fd5900"/><stop offset="1" stop-color="#ffde00"/></linearGradient><linearGradient id="SVGID_2_" gradientUnits="userSpaceOnUse" x1="255" x2="255" y1="420.999" y2="90.999"><stop offset="0" stop-color="#ffe59a"/><stop offset="1" stop-color="#ffffd5"/></linearGradient><g id="Arrow_124_"><g><g><path d="m496.998 210.999h-56.781l10.342-41.367c1.523-6.152-.967-12.612-6.27-16.128-5.244-3.486-12.129-3.311-17.285.498l-120 90c-8.006 5.989-7.996 18.013 0 23.994l120 90c5.057 3.779 11.936 4.043 17.285.498 5.303-3.516 7.793-9.976 6.27-16.128l-10.342-41.367h56.781c8.291 0 15-6.709 15-15v-60c0-8.291-6.709-15-15-15zm-292.006 33.003-120-90c-5.127-3.823-12.041-3.999-17.285-.498-5.303 3.516-7.793 9.976-6.27 16.128l10.342 41.367h-56.779c-8.291 0-15 6.709-15 15v60c0 8.291 6.709 15 15 15h56.779l-10.342 41.367c-1.523 6.152.967 12.612 6.27 16.128 5.346 3.543 12.225 3.283 17.285-.498l120-90c8.006-5.989 7.996-18.013 0-23.994z" fill="url(#SVGID_1_)"/></g></g><g><g><path d="m255 90.999c-8.291 0-15 6.709-15 15v300c0 8.291 6.709 15 15 15s15-6.709 15-15v-300c0-8.291-6.709-15-15-15z" fill="url(#SVGID_2_)"/></g></g></g></svg>