<svg id="Capa_1" enable-background="new 0 0 511.989 511.989" height="512" viewBox="0 0 511.989 511.989" width="512" xmlns="http://www.w3.org/2000/svg" xmlns:xlink="http://www.w3.org/1999/xlink"><linearGradient id="SVGID_1_" gradientUnits="userSpaceOnUse" x1="255.995" x2="255.995" y1="360.995" y2="150.996"><stop offset="0" stop-color="#5558ff"/><stop offset="1" stop-color="#00c0ff"/></linearGradient><linearGradient id="SVGID_2_" gradientUnits="userSpaceOnUse" x1="254.997" x2="254.997" y1="420.995" y2="90.995"><stop offset="0" stop-color="#addcff"/><stop offset=".5028" stop-color="#eaf6ff"/><stop offset="1" stop-color="#eaf6ff"/></linearGradient><g id="Arrow_115_"><g><g><path d="m505.989 243.998-120-90c-5.098-3.823-12.012-3.999-17.285-.498-5.303 3.516-7.793 9.976-6.27 16.128l10.342 41.367h-57.779c-8.291 0-15 6.709-15 15v60c0 8.291 6.709 15 15 15h57.779l-10.342 41.367c-1.523 6.152.967 12.612 6.27 16.128 5.346 3.543 12.225 3.283 17.285-.498l120-90c8.006-5.989 7.995-18.013 0-23.994zm-309.994-33.003h-56.781l10.342-41.367c1.523-6.152-.967-12.612-6.27-16.128-5.244-3.486-12.158-3.311-17.285.498l-120 90c-8.006 5.989-7.996 18.013 0 23.994l120 90c5.057 3.779 11.936 4.043 17.285.498 5.303-3.516 7.793-9.976 6.27-16.128l-10.342-41.367h56.781c8.291 0 15-6.709 15-15v-60c0-8.291-6.709-15-15-15z" fill="url(#SVGID_1_)"/></g></g><g><g><path d="m254.997 90.995c-8.291 0-15 6.709-15 15v300c0 8.291 6.709 15 15 15s15-6.709 15-15v-300c0-8.291-6.709-15-15-15z" fill="url(#SVGID_2_)"/></g></g></g></svg>