<svg id="Capa_1" enable-background="new 0 0 511.995 511.995" height="512" viewBox="0 0 511.995 511.995" width="512" xmlns="http://www.w3.org/2000/svg" xmlns:xlink="http://www.w3.org/1999/xlink"><linearGradient id="SVGID_1_" gradientUnits="userSpaceOnUse" x1="255.998" x2="255.998" y1="480.829" y2="31.166"><stop offset="0" stop-color="#5558ff"/><stop offset="1" stop-color="#00c0ff"/></linearGradient><g><g><g><path d="m505.995 363.832-121.011-90c-5.054-3.794-11.982-4.014-17.285-.498s-7.808 9.976-6.255 16.128l10.327 41.367h-70.781v-160.781l41.367 10.327c6.138 1.597 12.627-.952 16.128-6.255 3.516-5.288 3.311-12.217-.498-17.285l-90-120c-5.654-7.559-18.34-7.559-23.994 0l-91.995 120c-3.809 5.068-4.014 11.997-.498 17.285 3.516 5.303 9.976 7.852 16.128 6.255l41.367-10.327v160.781h-70.781l10.327-41.367c1.553-6.152-.952-12.612-6.255-16.128-5.288-3.516-12.217-3.296-17.285.498l-119 90c-8.006 5.989-7.996 18.013 0 23.994l119 90c5.068 3.794 11.997 4.014 17.285.498 5.303-3.516 7.808-9.976 6.255-16.128l-10.327-41.367h233.557l-10.327 41.367c-1.553 6.152.952 12.612 6.255 16.128 5.329 3.532 12.237 3.295 17.285-.498l121.011-90c8.005-5.989 7.995-18.012 0-23.994z" fill="url(#SVGID_1_)"/></g></g></g></svg>