<svg id="Capa_1" enable-background="new 0 0 512 512" height="512" viewBox="0 0 512 512" width="512" xmlns="http://www.w3.org/2000/svg" xmlns:xlink="http://www.w3.org/1999/xlink"><linearGradient id="SVGID_1_" gradientUnits="userSpaceOnUse" x1="256" x2="256" y1="512" y2="0"><stop offset="0" stop-color="#fd5900"/><stop offset="1" stop-color="#ffde00"/></linearGradient><g><g><g><path d="m448.011 127.006-90-121.337c-5.684-7.559-18.34-7.559-24.023 0l-90 121.337c-3.809 5.068-3.984 11.997-.498 17.285 3.545 5.303 9.99 7.852 16.143 6.255l40.283-10.063c-6.035 52.397-36.797 89.839-84.814 101.865-90.734 22.69-154.103 103.842-154.103 197.343v57.309c0 8.291 6.709 15 15 15h60c8.291 0 15-6.709 15-15v-57.309c0-52.134 35.332-97.383 85.957-110.039 24.668-6.196 143.818-43.638 153.428-189.595l41.982 10.488c6.211 1.597 12.598-.952 16.143-6.255 3.486-5.287 3.31-12.216-.498-17.284z" fill="url(#SVGID_1_)"/></g></g></g></svg>