<svg id="Capa_1" enable-background="new 0 0 512 512" height="512" viewBox="0 0 512 512" width="512" xmlns="http://www.w3.org/2000/svg" xmlns:xlink="http://www.w3.org/1999/xlink"><linearGradient id="SVGID_1_" gradientUnits="userSpaceOnUse" x1="256" x2="256" y1="512" y2="0"><stop offset="0" stop-color="#00b59c"/><stop offset="1" stop-color="#9cffac"/></linearGradient><g><g><g><path d="m296.929 242.348c-48.047-12.012-78.809-49.468-84.844-101.865l40.283 10.063c6.182 1.597 12.598-.952 16.143-6.255 3.486-5.288 3.311-12.217-.498-17.285l-90-121.337c-5.684-7.559-18.34-7.559-24.023 0l-90 121.337c-3.809 5.068-3.984 11.997-.498 17.285 3.545 5.303 9.99 7.852 16.143 6.255l41.982-10.488c9.609 146.016 128.789 183.413 153.486 189.595 50.566 12.656 85.898 57.905 85.898 110.039v57.308c0 8.291 6.709 15 15 15h60c8.291 0 15-6.709 15-15v-57.309c0-93.501-63.34-174.653-154.072-197.343z" fill="url(#SVGID_1_)"/></g></g></g></svg>