<svg id="Capa_1" enable-background="new 0 0 511.995 511.995" height="512" viewBox="0 0 511.995 511.995" width="512" xmlns="http://www.w3.org/2000/svg" xmlns:xlink="http://www.w3.org/1999/xlink"><linearGradient id="SVGID_1_" gradientUnits="userSpaceOnUse" x1="255.997" x2="255.997" y1="511.989" y2=".006"><stop offset="0" stop-color="#a93aff"/><stop offset="1" stop-color="#ff81ff"/></linearGradient><g><g><g><path d="m505.994 92.997-120-90c-5.127-3.809-12.012-3.984-17.285-.498-5.303 3.516-7.793 9.976-6.27 16.128l10.342 41.367h-297.779c-8.291 0-15 6.709-15 15v297.781l-41.367-10.327c-6.152-1.567-12.598.967-16.143 6.255-3.486 5.288-3.311 12.217.498 17.285l90.998 120c6.02 8.006 18.011 7.996 24.023 0l90-120c3.809-5.068 3.984-11.997.498-17.285-3.516-5.288-9.932-7.822-16.143-6.255l-41.366 10.327v-222.781h221.781l-10.342 41.367c-1.523 6.152.967 12.612 6.27 16.128 5.273 3.501 12.188 3.325 17.285-.498l120-90c8.006-5.989 7.996-18.013 0-23.994z" fill="url(#SVGID_1_)"/></g></g></g></svg>