<svg id="Capa_1" enable-background="new 0 0 512 512" height="512" viewBox="0 0 512 512" width="512" xmlns="http://www.w3.org/2000/svg" xmlns:xlink="http://www.w3.org/1999/xlink"><linearGradient id="SVGID_1_" gradientUnits="userSpaceOnUse" x1="256" x2="256" y1="512" y2="0"><stop offset="0" stop-color="#fd3a84"/><stop offset="1" stop-color="#ffa68d"/></linearGradient><g><g><g><path d="m496.998 422c-107.52 0-196-87.48-196-195v-88.118l41.367 10.327c6.123 1.611 12.627-.952 16.143-6.255 3.486-5.288 3.311-12.217-.498-17.285l-90-120c-5.684-7.559-18.34-7.559-24.023 0l-90.998 120c-3.809 5.068-3.984 11.997-.498 17.285 3.545 5.303 9.99 7.866 16.143 6.255l41.366-10.327v88.118c0 107.52-87.478 195-194.998 195-8.291 0-15 6.709-15 15v60c0 8.291 6.709 15 15 15 98.027 0 188.73-49.731 240.996-131.396 52.265 81.665 142.972 131.396 241 131.396 8.291 0 15-6.709 15-15v-60c0-8.291-6.709-15-15-15z" fill="url(#SVGID_1_)"/></g></g></g></svg>