<svg id="Capa_1" enable-background="new 0 0 512.004 512.004" height="512" viewBox="0 0 512.004 512.004" width="512" xmlns="http://www.w3.org/2000/svg" xmlns:xlink="http://www.w3.org/1999/xlink"><linearGradient id="SVGID_1_" gradientUnits="userSpaceOnUse" x1="197.843" x2="197.843" y1="374.997" y2=".002"><stop offset="0" stop-color="#5558ff"/><stop offset="1" stop-color="#00c0ff"/></linearGradient><linearGradient id="SVGID_2_" gradientUnits="userSpaceOnUse" x1="314.147" x2="314.147" y1="512.002" y2="137.339"><stop offset="0" stop-color="#addcff"/><stop offset=".5028" stop-color="#eaf6ff"/><stop offset="1" stop-color="#eaf6ff"/></linearGradient><g id="Arrow_102_"><g><g><path d="m392.639 73.449c-35.83-47.358-84.727-73.447-137.666-73.447-114.404.308-186.24 117.129-194.238 235.972l-42.1-10.518c-6.094-1.523-12.598.952-16.143 6.255-3.486 5.288-3.311 12.217.498 17.285l90 120c6.02 8.006 18.011 7.996 24.023 0l90-120c3.809-5.068 3.984-11.997.498-17.285-3.545-5.303-9.961-7.778-16.143-6.255l-40.488 10.107c7.266-87.861 57.48-145.562 104.121-145.562 27.334 0 54.639 18.633 74.854 51.123 4.927 7.855 17.53 10.703 24.727 1.084l38.086-50.698c4.043-5.346 4.014-12.729-.029-18.061z" fill="url(#SVGID_1_)"/></g></g><g><g><path d="m509.014 263.008-90-120c-5.684-7.559-18.34-7.559-24.023 0l-90 120c-3.809 5.068-3.984 11.997-.498 17.285 3.516 5.317 10.02 7.837 16.143 6.255l40.488-10.107c-7.266 87.861-57.48 145.562-104.121 145.562-27.334 0-54.639-18.633-74.854-51.123-5.492-8.757-18.25-9.708-24.727-1.084l-38.115 50.698c-4.043 5.347-4.014 12.729.029 18.062 35.889 47.358 84.756 73.447 137.695 73.447 114.404-.308 186.24-117.129 194.238-235.972l42.1 10.518c6.152 1.582 12.627-.938 16.143-6.255 3.486-5.289 3.311-12.218-.498-17.286z" fill="url(#SVGID_2_)"/></g></g></g></svg>