<svg id="Capa_1" enable-background="new 0 0 512 512" height="512" viewBox="0 0 512 512" width="512" xmlns="http://www.w3.org/2000/svg" xmlns:xlink="http://www.w3.org/1999/xlink"><linearGradient id="SVGID_1_" gradientUnits="userSpaceOnUse" x1="256" x2="256" y1="442.162" y2="69.838"><stop offset="0" stop-color="#fd5900"/><stop offset="1" stop-color="#ffde00"/></linearGradient><g><g><g><path d="m494.853 70.004-148.506 21.299c-6.27.908-11.309 5.669-12.568 11.895s1.553 12.568 7.002 15.835l36.621 21.914-180.41 180.381-128.791-129.081c-5.855-5.886-15.359-5.866-21.211-.015l-42.598 42.598c-5.868 5.868-5.845 15.38 0 21.226l181.994 181.727c5.874 5.845 15.357 5.84 21.211-.015l233.32-233.306 21.914 36.606c3.223 5.435 9.463 8.247 15.82 7.002 6.211-1.26 10.986-6.284 11.895-12.583l21.299-148.506c1.409-9.765-7.011-18.459-16.992-16.977z" fill="url(#SVGID_1_)"/></g></g></g></svg>