<svg id="Capa_1" enable-background="new 0 0 512 512" height="512" viewBox="0 0 512 512" width="512" xmlns="http://www.w3.org/2000/svg" xmlns:xlink="http://www.w3.org/1999/xlink"><linearGradient id="SVGID_1_" gradientUnits="userSpaceOnUse" x1="210.002" x2="210.002" y1="270" y2="0"><stop offset="0" stop-color="#00b59c"/><stop offset="1" stop-color="#9cffac"/></linearGradient><linearGradient id="SVGID_2_" gradientUnits="userSpaceOnUse" x1="301.998" x2="301.998" y1="512" y2="242"><stop offset="0" stop-color="#c3ffe8"/><stop offset=".9973" stop-color="#f0fff4"/></linearGradient><g id="Arrow_112_"><g><g><path d="m417.511 126.709c-3.516-5.288-9.99-7.822-16.143-6.255l-41.367 10.327v-115.781c0-8.291-6.709-15-15-15h-330c-8.291 0-15 6.709-15 15v240c0 8.291 6.709 15 15 15h60c8.291 0 15-6.709 15-15v-165h180v40.781l-41.367-10.327c-6.152-1.567-12.598.967-16.143 6.255-3.486 5.288-3.311 12.217.498 17.285l90 120c6.02 8.006 18.011 7.996 24.023 0l90-120c3.809-5.068 3.985-11.997.499-17.285z" fill="url(#SVGID_1_)"/></g></g><g><g><path d="m496.999 242h-60.998c-8.291 0-15 6.709-15 15v165h-179.002v-40.781l41.367 10.327c6.182 1.626 12.627-.952 16.143-6.255 3.486-5.288 3.311-12.217-.498-17.285l-90-120c-5.684-7.559-18.34-7.559-24.023 0l-90 120c-3.809 5.068-3.984 11.997-.498 17.285 3.545 5.303 10.02 7.881 16.143 6.255l41.367-10.327v115.781c0 8.291 6.709 15 14.002 15h330c9.289 0 15.998-6.709 15.998-15v-240c-.001-8.291-6.71-15-15.001-15z" fill="url(#SVGID_2_)"/></g></g></g></svg>