<?xml version="1.0" encoding="iso-8859-1"?>
<!-- Generator: Adobe Illustrator 19.0.0, SVG Export Plug-In . SVG Version: 6.00 Build 0)  -->
<svg xmlns="http://www.w3.org/2000/svg" xmlns:xlink="http://www.w3.org/1999/xlink" version="1.1" id="Layer_1" x="0px" y="0px" viewBox="0 0 488.829 488.829" style="enable-background:new 0 0 488.829 488.829;" xml:space="preserve" width="512" height="512">
<g>
	<path style="fill:#E06919;" d="M142.092,117.704H349.86c19.741,0,35.744,16.003,35.744,35.744v3.151   c0,19.741-16.003,35.744-35.744,35.744H142.092c-19.741,0-35.744-16.003-35.744-35.744v-3.151   C106.348,133.707,122.351,117.704,142.092,117.704z"/>
	<path style="fill:#FFCBB3;" d="M408.632,230.994c0,20.455-15.753,37.218-35.784,38.821c-1.045,0.089-2.107,0.133-3.17,0.133   c-2.727,0-5.384-0.275-7.952-0.815H127.103c-2.568,0.54-5.225,0.815-7.952,0.815h-0.027c-21.509-0.018-38.927-17.444-38.927-38.953   c0-20.278,15.496-36.934,35.296-38.768c1.204-0.124,2.426-0.177,3.657-0.177c1.638,0,3.241,0.097,4.826,0.292h240.876   c1.585-0.195,3.188-0.292,4.826-0.292c2.311,0,4.578,0.204,6.774,0.593C394.738,195.84,408.632,211.796,408.632,230.994z"/>
	<path style="fill:#E89876;" d="M376.452,192.643v49.34c0,9.581-1.248,18.906-3.604,27.832c-1.045,0.089-2.107,0.133-3.17,0.133   c-2.727,0-5.384-0.275-7.952-0.815H127.103c-2.568,0.54-5.225,0.815-7.952,0.815h-0.027c-2.373-8.97-3.63-18.33-3.63-27.964   v-49.757c1.204-0.124,2.426-0.177,3.657-0.177c1.638,0,3.241,0.097,4.826,0.292h240.876c1.585-0.195,3.188-0.292,4.826-0.292   C371.989,192.05,374.256,192.253,376.452,192.643z"/>
	<path style="fill:#E89876;" d="M387.395,239.668c-2.896,0-5.654-1.687-6.882-4.511c-3.133-7.206-12.599-4.903-13.666-4.616   c-3.983,1.13-8.106-1.189-9.238-5.174c-1.131-3.985,1.208-8.139,5.193-9.27c7.936-2.252,24.728-2.419,31.467,13.08   c1.652,3.799-0.089,8.217-3.888,9.868C389.408,239.468,388.393,239.668,387.395,239.668z"/>
	<path style="fill:#E89876;" d="M105.436,239.667c-0.999,0-2.015-0.201-2.989-0.625c-3.798-1.653-5.537-6.072-3.884-9.87   c3.811-8.755,13.715-16.875,30.089-13.412c4.052,0.858,6.642,4.838,5.785,8.89c-0.857,4.052-4.837,6.641-8.89,5.785   c-3.822-0.809-10.621-1.27-13.23,4.723C111.088,237.981,108.331,239.667,105.436,239.667z"/>
	<path style="fill:#27394C;" d="M364.851,438.433v50.394h-237.75v-50.394c0-65.652,53.219-118.879,118.871-118.879   c9.289,0,18.33,1.071,27.008,3.082c21.987,5.109,41.628,16.32,57.053,31.737C351.542,375.89,364.851,405.607,364.851,438.433z"/>
	<path style="fill:#3E5268;" d="M364.851,438.433v50.394H181.117v-50.394c0-56.363,39.228-103.569,91.863-115.798   c21.987,5.109,41.628,16.32,57.053,31.737C351.542,375.89,364.851,405.607,364.851,438.433z"/>
	<polyline style="fill:#FFFFFF;" points="187.92,359.673 245.971,477.479 304.023,359.673  "/>
	<polyline style="fill:#FC74AF;" points="194.947,365.733 245.971,430.909 296.996,365.733  "/>
	<polyline style="fill:#BBB8CC;" points="303.823,360.087 277.355,413.798 245.972,379.637 245.975,379.637 214.592,413.798    188.124,360.087  "/>
	<path style="fill:#172635;" d="M245.975,477.479v11.35h-29.2l-30.44-30.44l12.71-26.39h-29.33l-15.03-69.69   c6.9-8.29,14.92-15.61,23.82-21.75L245.975,477.479z"/>
	<path style="fill:#172635;" d="M245.968,477.479v11.35h29.2l30.44-30.44l-12.71-26.39h29.33l15.03-69.69   c-6.9-8.29-14.92-15.61-23.82-21.75L245.968,477.479z"/>
	<path style="fill:#E89876;" d="M364.851,174.791v80.953c0,57.93-41.442,106.181-96.299,116.728   c-7.305,1.408-14.859,2.143-22.58,2.143c-65.652,0-118.871-53.219-118.871-118.871v-80.953   c0-65.651,53.219-118.879,118.871-118.879c7.722,0,15.275,0.735,22.58,2.143c23.776,4.569,45.028,16.223,61.481,32.675   C351.542,112.248,364.851,141.965,364.851,174.791z"/>
	<path style="fill:#FFCBB3;" d="M364.851,174.791v80.953c0,57.93-41.442,106.181-96.299,116.728   c-54.857-10.547-96.299-58.798-96.299-116.728v-80.953c0-57.93,41.442-106.19,96.299-116.736   c23.776,4.569,45.028,16.223,61.481,32.675C351.542,112.248,364.851,141.965,364.851,174.791z"/>
	<path style="fill:#D39262;" d="M245.975,308.375c-19.745,0-38.309-7.689-52.271-21.652c-2.929-2.929-2.929-7.677,0-10.606   c2.929-2.929,7.678-2.929,10.606,0c11.129,11.129,25.926,17.258,41.665,17.258s30.536-6.129,41.665-17.258   c2.929-2.929,7.678-2.929,10.606,0c2.929,2.929,2.929,7.677,0,10.606C284.284,300.686,265.72,308.375,245.975,308.375z"/>
	<g>
		<g>
			<path style="fill:#172635;" d="M194.188,247.215c-4.142,0-7.5-3.358-7.5-7.5v-29.22c0-4.142,3.358-7.5,7.5-7.5s7.5,3.358,7.5,7.5     v29.22C201.688,243.857,198.33,247.215,194.188,247.215z"/>
			<path style="fill:#172635;" d="M297.764,247.215c-4.142,0-7.5-3.358-7.5-7.5v-29.22c0-4.142,3.358-7.5,7.5-7.5s7.5,3.358,7.5,7.5     v29.22C305.264,243.857,301.906,247.215,297.764,247.215z"/>
		</g>
	</g>
	<path style="fill:#F9A74D;" d="M357.783,0l-53.33,53.33c-4.517-11.093-15.392-18.921-28.108-18.921   c-10.435,0-19.636,5.269-25.099,13.289c-13.937-17.17-35.204-28.145-59.045-28.145c-42.002,0-76.052,34.05-76.052,76.052   s34.05,76.052,76.052,76.052c17.546,0,33.692-5.958,46.56-15.939c37.768,21.646,86.764,16.361,119.023-15.897   C396.393,101.209,396.393,38.61,357.783,0z"/>
	<path style="fill:#E06919;" d="M161.786,95.605c0,34.048,22.377,62.878,53.224,72.566c-7.187,2.268-14.857,3.485-22.81,3.485   c-42.002,0-76.05-34.048-76.05-76.05s34.049-76.05,76.05-76.05c7.953,0,15.607,1.217,22.81,3.485   C184.162,32.727,161.786,61.556,161.786,95.605z"/>
	<polygon style="fill:#FC74AF;" points="260.051,448.899 245.971,477.479 231.891,448.899 245.971,430.909  "/>
</g>















</svg>
