<?xml version="1.0" encoding="iso-8859-1"?>
<!-- Generator: Adobe Illustrator 19.0.0, SVG Export Plug-In . SVG Version: 6.00 Build 0)  -->
<svg xmlns="http://www.w3.org/2000/svg" xmlns:xlink="http://www.w3.org/1999/xlink" version="1.1" id="Layer_1" x="0px" y="0px" viewBox="0 0 494.616 494.616" style="enable-background:new 0 0 494.616 494.616;" xml:space="preserve" width="512" height="512">
<g>
	<g>
		<path style="fill:#96EFFF;" d="M479.674,205.093c-9.189-56.019-39.239-107.019-83.422-142.567l12.364-1.497    c4.112-0.498,7.042-4.235,6.544-8.347c-0.498-4.112-4.236-7.041-8.347-6.544l-31.075,3.763c-0.079,0.01-0.156,0.028-0.235,0.04    c-0.133,0.02-0.266,0.041-0.398,0.068c-0.11,0.023-0.217,0.052-0.325,0.079c-0.128,0.033-0.255,0.066-0.382,0.105    c-0.104,0.033-0.206,0.07-0.308,0.107c-0.128,0.046-0.256,0.093-0.382,0.147c-0.094,0.04-0.185,0.084-0.277,0.127    c-0.13,0.062-0.26,0.125-0.387,0.194c-0.083,0.045-0.163,0.094-0.244,0.143c-0.129,0.077-0.257,0.156-0.382,0.241    c-0.076,0.052-0.15,0.107-0.224,0.162c-0.122,0.09-0.242,0.181-0.359,0.279c-0.075,0.063-0.147,0.129-0.22,0.195    c-0.107,0.097-0.213,0.195-0.315,0.298c-0.079,0.08-0.154,0.164-0.229,0.248c-0.088,0.098-0.176,0.195-0.259,0.299    c-0.024,0.03-0.052,0.057-0.076,0.087c-0.057,0.072-0.105,0.15-0.159,0.224c-0.05,0.069-0.105,0.133-0.154,0.205    c-0.02,0.029-0.035,0.06-0.054,0.089c-0.073,0.11-0.138,0.224-0.204,0.338c-0.062,0.106-0.125,0.21-0.18,0.318    c-0.052,0.101-0.098,0.205-0.146,0.308c-0.058,0.125-0.117,0.25-0.168,0.378c-0.035,0.087-0.063,0.177-0.095,0.266    c-0.052,0.145-0.103,0.29-0.146,0.437c-0.022,0.079-0.039,0.16-0.059,0.24c-0.04,0.157-0.078,0.314-0.107,0.473    c-0.015,0.082-0.024,0.164-0.036,0.246c-0.023,0.157-0.046,0.314-0.06,0.472c-0.008,0.092-0.009,0.184-0.013,0.277    c-0.007,0.149-0.014,0.297-0.012,0.446c0.001,0.102,0.009,0.204,0.015,0.306c0.008,0.14,0.015,0.28,0.03,0.419    c0.003,0.029,0.003,0.058,0.006,0.087l3.763,31.075c0.461,3.806,3.696,6.599,7.436,6.599c0.301,0,0.605-0.018,0.911-0.055    c4.112-0.498,7.042-4.235,6.544-8.347l-1.679-13.864c41.7,33.267,70.064,81.199,78.702,133.865    c0.604,3.677,3.784,6.287,7.393,6.287c0.403,0,0.812-0.033,1.223-0.1C477.574,213.038,480.344,209.181,479.674,205.093z"/>
		<path style="fill:#96EFFF;" d="M124.67,49.608C64.697,89.098,26.948,153.319,21.25,224.034l-8.081-9.33    c-2.712-3.132-7.448-3.471-10.579-0.759c-3.131,2.712-3.471,7.448-0.759,10.579l20.493,23.661    c1.302,1.504,3.148,2.428,5.133,2.571c0.179,0.013,0.357,0.019,0.536,0.019c1.798,0,3.543-0.646,4.91-1.831l23.66-20.493    c3.131-2.712,3.471-7.449,0.759-10.58c-2.713-3.131-7.45-3.47-10.579-0.759l-10.602,9.183    c5.04-66.537,40.397-127.035,96.779-164.159c3.459-2.278,4.417-6.929,2.139-10.389C132.781,48.289,128.129,47.33,124.67,49.608z"/>
		<path style="fill:#96EFFF;" d="M303.34,455.761l-24.2-19.854c-3.202-2.627-7.927-2.162-10.556,1.041    c-2.627,3.202-2.16,7.928,1.042,10.555l11.444,9.389c-22.912,3.103-46.537,2.564-69.157-1.635    c-4.065-0.755-7.986,1.932-8.743,6.005c-0.756,4.073,1.933,7.987,6.005,8.743c13.902,2.581,28.181,3.889,42.438,3.889    c9.573,0,19.137-0.604,28.604-1.772l-7.285,8.88c-2.627,3.202-2.16,7.928,1.042,10.555c1.395,1.145,3.079,1.702,4.753,1.702    c2.168,0,4.319-0.936,5.803-2.743l19.854-24.2C307.009,463.114,306.542,458.388,303.34,455.761z"/>
	</g>
	<g>
		<path style="fill:#3E5268;" d="M209.398,366.367l6.559-10.526c1.867-2.996,2.965-6.438,2.978-9.968c0-0.026,0-0.053,0-0.079    c0-4.425-1.384-8.536-3.737-11.918c4.338-3.83,7.079-9.425,7.079-15.668c0-9.004-5.695-16.677-13.676-19.618    c0.434-1.678,0.668-3.436,0.668-5.247c0-11.551-9.365-20.909-20.909-20.909c-1.618,0-3.188,0.187-4.706,0.541    c-0.087-11.47-9.412-20.741-20.902-20.741c-3.483,0-6.771,0.862-9.659,2.366c-1.865-9.632-10.341-16.905-20.521-16.905    c-6.263,0-11.878,2.754-15.708,7.112c-3.83-4.358-9.445-7.112-15.708-7.112c-10.18,0-18.656,7.273-20.521,16.905    c-2.888-1.504-6.176-2.366-9.659-2.366c-11.49,0-20.815,9.271-20.902,20.741c-1.517-0.354-3.088-0.541-4.706-0.541    c-11.544,0-20.909,9.358-20.909,20.909c0,1.811,0.234,3.569,0.668,5.247c-7.981,2.941-13.676,10.615-13.676,19.618    c0,6.243,2.741,11.838,7.079,15.668c-2.353,3.382-3.737,7.493-3.737,11.918c0,0.026,0,0.053,0,0.079    c0.013,3.53,1.111,6.972,2.978,9.968l6.559,10.526"/>
		<path style="fill:#27394C;" d="M117.226,254.599c-2.888-1.504-6.176-2.366-9.659-2.366c-11.49,0-20.815,9.271-20.902,20.741    c-1.517-0.354-3.088-0.541-4.706-0.541c-11.544,0-20.909,9.358-20.909,20.909c0,1.811,0.234,3.569,0.668,5.247    c-7.981,2.941-13.676,10.615-13.676,19.619c0,6.243,2.741,11.838,7.079,15.668c-2.353,3.382-3.737,7.493-3.737,11.918v0.08    c0.013,3.529,1.11,6.972,2.975,9.966l6.564,10.528h-36.59l-6.557-10.528c-1.865-2.995-2.968-6.437-2.981-9.966v-0.08    c0-4.425,1.384-8.536,3.737-11.918c-4.338-3.83-7.079-9.425-7.079-15.668c0-9.004,5.695-16.677,13.676-19.619    c-0.434-1.678-0.668-3.436-0.668-5.247c0-11.551,9.365-20.909,20.909-20.909c1.618,0,3.188,0.187,4.706,0.541    c0.087-11.47,9.412-20.741,20.902-20.741c3.483,0,6.771,0.862,9.659,2.366c1.865-9.632,10.341-16.905,20.521-16.905    c5.341,0,10.214,2.005,13.903,5.307C114.786,247.307,115.442,251.524,117.226,254.599z"/>
		<path style="fill:#C99061;" d="M225.587,391.213c0,13.673-10.53,24.877-23.919,25.949c-0.698,0.059-1.409,0.089-2.119,0.089    c-1.823,0-3.599-0.184-5.315-0.545H37.407c-1.717,0.361-3.492,0.545-5.315,0.545h-0.018c-14.377-0.012-26.02-11.66-26.02-26.037    c0-13.554,10.358-24.688,23.593-25.913c0.805-0.083,1.622-0.118,2.444-0.118c1.095,0,2.166,0.065,3.226,0.195h161.007    c1.06-0.13,2.131-0.195,3.226-0.195c1.545,0,3.06,0.136,4.528,0.397C216.301,367.715,225.587,378.381,225.587,391.213z"/>
		<path style="fill:#A86340;" d="M204.078,365.578v32.98c0,6.404-0.835,12.637-2.409,18.603c-0.698,0.059-1.409,0.089-2.119,0.089    c-1.823,0-3.599-0.184-5.315-0.545H37.407c-1.717,0.361-3.492,0.545-5.315,0.545h-0.018c-1.586-5.996-2.427-12.252-2.427-18.692    V365.3c0.805-0.083,1.622-0.118,2.444-0.118c1.095,0,2.166,0.065,3.226,0.195h161.007c1.06-0.13,2.131-0.195,3.226-0.195    C201.095,365.182,202.61,365.318,204.078,365.578z"/>
		<path style="fill:#A86340;" d="M211.393,397.011c-1.935,0-3.779-1.127-4.6-3.016c-2.094-4.817-8.421-3.277-9.135-3.086    c-2.663,0.756-5.418-0.795-6.175-3.459c-0.756-2.664,0.807-5.44,3.471-6.196c5.305-1.506,16.529-1.617,21.033,8.743    c1.104,2.539-0.059,5.493-2.599,6.596C212.738,396.877,212.06,397.011,211.393,397.011z"/>
		<path style="fill:#A86340;" d="M22.924,397.01c-0.668,0-1.347-0.134-1.998-0.418c-2.539-1.105-3.701-4.059-2.596-6.598    c2.547-5.852,9.169-11.28,20.112-8.965c2.709,0.573,4.44,3.233,3.867,5.942c-0.572,2.709-3.232,4.44-5.942,3.867    c-2.555-0.541-7.1-0.849-8.843,3.157C26.702,395.884,24.859,397.01,22.924,397.01z"/>
		<path style="fill:#A86340;" d="M196.322,354.731v53.027c0,38.722-27.7,70.974-64.37,78.019c-4.88,0.942-9.926,1.437-15.093,1.437    c-43.883,0-79.45-35.574-79.45-79.457v-53.02c3.817,4.111,9.264,6.678,15.314,6.678c5.815,0,11.076-2.373,14.866-6.21    c3.73-3.777,6.036-8.964,6.036-14.692c0-1.197-0.1-2.366-0.294-3.509c0.087,0.007,0.174,0.007,0.261,0.007    c7.146,0,13.449-3.583,17.225-9.057c2.861,1.471,6.096,2.306,9.539,2.306c6.711,0,12.687-3.168,16.51-8.088    c3.823,4.92,9.793,8.088,16.51,8.088c3.436,0,6.678-0.836,9.538-2.306c3.77,5.474,10.08,9.057,17.226,9.057    c0.087,0,0.174,0,0.261-0.007c-0.194,1.143-0.301,2.313-0.301,3.509c0,11.544,9.365,20.902,20.909,20.902    C187.057,361.416,192.512,358.842,196.322,354.731z"/>
		<path style="fill:#C99061;" d="M196.322,354.731v53.027c0,38.722-27.7,70.974-64.37,78.019    c-36.664-7.045-64.363-39.297-64.363-78.019v-52.552c3.73-3.777,6.036-8.964,6.036-14.692c0-1.197-0.1-2.366-0.294-3.509    c0.087,0.007,0.174,0.007,0.261,0.007c7.146,0,13.449-3.583,17.225-9.057c2.861,1.471,6.096,2.306,9.539,2.306    c6.711,0,12.687-3.168,16.51-8.088c3.823,4.92,9.793,8.088,16.51,8.088c3.436,0,6.678-0.836,9.538-2.306    c3.77,5.474,10.08,9.057,17.226,9.057c0.087,0,0.174,0,0.261-0.007c-0.194,1.143-0.301,2.313-0.301,3.509    c0,11.544,9.365,20.902,20.909,20.902C187.057,361.416,192.512,358.842,196.322,354.731z"/>
		<path style="fill:#965D36;" d="M116.864,438.487c-9.602,0-18.629-3.739-25.418-10.528c-1.958-1.958-1.958-5.132,0-7.09    c1.958-1.958,5.132-1.957,7.09,0c4.895,4.896,11.404,7.592,18.328,7.592c6.923,0,13.432-2.696,18.328-7.592    c1.958-1.958,5.132-1.958,7.09,0c1.958,1.958,1.958,5.132,0,7.09C135.492,434.748,126.465,438.487,116.864,438.487z"/>
		<g>
			<g>
				<path style="fill:#172635;" d="M82.248,402.056c-2.769,0-5.013-2.245-5.013-5.013v-19.532c0-2.769,2.245-5.013,5.013-5.013      s5.013,2.245,5.013,5.013v19.532C87.262,399.811,85.017,402.056,82.248,402.056z"/>
				<path style="fill:#172635;" d="M151.48,402.056c-2.769,0-5.013-2.245-5.013-5.013v-19.532c0-2.769,2.245-5.013,5.013-5.013      s5.013,2.245,5.013,5.013v19.532C156.494,399.811,154.249,402.056,151.48,402.056z"/>
			</g>
		</g>
	</g>
	<g>
		<path style="fill:#E06919;" d="M316.449,315.488H455.33c13.196,0,23.893,10.697,23.893,23.893v2.106    c0,13.196-10.697,23.893-23.893,23.893H316.449c-13.196,0-23.893-10.697-23.893-23.893v-2.106    C292.557,326.185,303.254,315.488,316.449,315.488z"/>
		<path style="fill:#FFCBB3;" d="M494.616,391.216c0,13.673-10.53,24.878-23.919,25.949c-0.698,0.059-1.409,0.089-2.119,0.089    c-1.823,0-3.599-0.184-5.315-0.545H306.43c-1.717,0.361-3.492,0.545-5.315,0.545h-0.018c-14.377-0.012-26.02-11.661-26.02-26.038    c0-13.555,10.358-24.688,23.594-25.914c0.805-0.083,1.622-0.118,2.445-0.118c1.095,0,2.166,0.065,3.226,0.195h161.011    c1.06-0.13,2.131-0.195,3.226-0.195c1.545,0,3.06,0.136,4.528,0.397C485.328,367.717,494.616,378.383,494.616,391.216z"/>
		<path style="fill:#E89876;" d="M473.106,365.58v32.981c0,6.404-0.835,12.637-2.409,18.604c-0.698,0.059-1.409,0.089-2.119,0.089    c-1.823,0-3.599-0.184-5.315-0.545H306.43c-1.717,0.361-3.492,0.545-5.315,0.545h-0.018c-1.586-5.996-2.427-12.253-2.427-18.693    v-33.259c0.805-0.083,1.622-0.118,2.445-0.118c1.095,0,2.166,0.065,3.226,0.195h161.011c1.06-0.13,2.131-0.195,3.226-0.195    C470.122,365.184,471.638,365.32,473.106,365.58z"/>
		<path style="fill:#E89876;" d="M480.42,397.014c-1.935,0-3.779-1.128-4.6-3.016c-2.094-4.817-8.421-3.278-9.135-3.086    c-2.663,0.756-5.418-0.795-6.175-3.459c-0.756-2.664,0.807-5.441,3.471-6.197c5.305-1.505,16.529-1.617,21.034,8.743    c1.104,2.539-0.059,5.493-2.599,6.596C481.765,396.88,481.087,397.014,480.42,397.014z"/>
		<path style="fill:#E89876;" d="M291.947,397.013c-0.668,0-1.347-0.134-1.998-0.418c-2.539-1.105-3.701-4.059-2.596-6.598    c2.547-5.852,9.168-11.28,20.113-8.965c2.709,0.573,4.44,3.234,3.867,5.943c-0.573,2.709-3.233,4.439-5.943,3.867    c-2.555-0.541-7.1-0.849-8.843,3.157C295.725,395.886,293.882,397.013,291.947,397.013z"/>
		<path style="fill:#E89876;" d="M465.351,353.647v54.112c0,38.723-27.701,70.976-64.37,78.025    c-4.883,0.941-9.932,1.432-15.094,1.432c-43.884,0-79.458-35.574-79.458-79.458v-54.112c0-43.884,35.574-79.464,79.458-79.464    c5.161,0,10.21,0.491,15.094,1.432c15.893,3.054,30.099,10.844,41.096,21.841C456.454,311.841,465.351,331.705,465.351,353.647z"/>
		<path style="fill:#FFCBB3;" d="M465.351,353.647v54.112c0,38.723-27.701,70.976-64.37,78.025    c-36.669-7.05-64.37-39.303-64.37-78.025v-54.112c0-38.723,27.701-70.982,64.37-78.031c15.893,3.054,30.099,10.844,41.096,21.841    C456.454,311.841,465.351,331.705,465.351,353.647z"/>
		<path style="fill:#D39262;" d="M385.889,442.94c-13.198,0-25.607-5.14-34.94-14.473c-1.958-1.958-1.958-5.132,0-7.09    c1.958-1.958,5.132-1.958,7.09,0c7.439,7.439,17.33,11.536,27.85,11.536s20.411-4.097,27.85-11.536    c1.958-1.958,5.132-1.958,7.09,0c1.958,1.958,1.958,5.132,0,7.09C411.496,437.8,399.088,442.94,385.889,442.94z"/>
		<g>
			<g>
				<path style="fill:#172635;" d="M351.273,402.058c-2.769,0-5.013-2.245-5.013-5.013v-19.532c0-2.769,2.245-5.013,5.013-5.013      s5.013,2.245,5.013,5.013v19.532C356.286,399.814,354.042,402.058,351.273,402.058z"/>
				<path style="fill:#172635;" d="M420.507,402.058c-2.769,0-5.013-2.245-5.013-5.013v-19.532c0-2.769,2.245-5.013,5.013-5.013      s5.013,2.245,5.013,5.013v19.532C425.52,399.814,423.276,402.058,420.507,402.058z"/>
			</g>
		</g>
		<path style="fill:#F9A74D;" d="M460.626,236.81l-35.648,35.648c-3.02-7.415-10.289-12.647-18.789-12.647    c-6.975,0-13.126,3.522-16.777,8.883c-9.316-11.477-23.532-18.813-39.468-18.813c-28.076,0-50.836,22.76-50.836,50.836    s22.76,50.836,50.836,50.836c11.729,0,22.521-3.982,31.123-10.655c25.246,14.469,57.996,10.937,79.56-10.626    C486.435,304.462,486.435,262.619,460.626,236.81z"/>
		<path style="fill:#E06919;" d="M329.614,300.716c0,22.759,14.957,42.03,35.577,48.506c-4.804,1.516-9.931,2.329-15.247,2.329    c-28.076,0-50.835-22.759-50.835-50.835c0-28.076,22.759-50.835,50.835-50.835c5.316,0,10.432,0.814,15.247,2.329    C344.571,258.686,329.614,277.957,329.614,300.716z"/>
	</g>
	<g>
		<path style="fill:#FFE563;" d="M314.165,186.361c88.016,0,39.208-46.038,39.208-103.669S307.591,1.356,251.611,1.356    S149.85,25.06,149.85,82.692s-48.808,103.669,39.208,103.669H314.165z"/>
		<path style="fill:#FFA829;" d="M200.063,82.693c0,57.629-24.724,103.67,19.859,103.67H189.06c-88.018,0-39.21-46.041-39.21-103.67    c0-57.635,45.784-81.337,101.764-81.337C223.25,1.356,200.063,25.058,200.063,82.693z"/>
		<path style="fill:#FFCBB3;" d="M322.66,98.381v47.027c0,34.62-24.772,63.456-57.551,69.755c-3.753,0.723-7.608,1.153-11.546,1.261    h-0.096c-0.616,0.018-1.231,0.024-1.853,0.024c-39.24,0-71.04-31.806-71.04-71.04V98.381c31.208-2.582,61.059-17.714,71.04-51.515    C261.589,80.667,291.446,95.799,322.66,98.381z"/>
		<path style="fill:#E89876;" d="M264.457,215.283c-3.55,0.651-7.183,1.04-10.895,1.141h-0.096    c-0.616,0.018-1.231,0.024-1.853,0.024c-39.24,0-71.04-31.806-71.04-71.04V98.381c8.815-0.729,17.516-2.462,25.698-5.331v52.358    C206.272,180.256,231.355,209.241,264.457,215.283z"/>
		<path style="fill:#FC74AF;" d="M251.614,175.619c-9.146,0-18.292-3.481-25.254-10.444c-1.751-1.75-1.751-4.588,0-6.339    c1.75-1.75,4.588-1.75,6.339,0c10.43,10.43,27.401,10.43,37.831,0c1.75-1.75,4.588-1.75,6.339,0c1.751,1.75,1.751,4.588,0,6.339    C269.905,172.138,260.76,175.619,251.614,175.619z"/>
		<g>
			<path style="fill:#27394C;" d="M220.668,139.674c-2.475,0-4.482-2.007-4.482-4.482v-17.463c0-2.475,2.007-4.482,4.482-4.482     s4.482,2.007,4.482,4.482v17.463C225.15,137.667,223.143,139.674,220.668,139.674z"/>
			<path style="fill:#27394C;" d="M282.567,139.674c-2.475,0-4.482-2.007-4.482-4.482v-17.463c0-2.475,2.007-4.482,4.482-4.482     c2.475,0,4.482,2.007,4.482,4.482v17.463C287.049,137.667,285.042,139.674,282.567,139.674z"/>
		</g>
	</g>
</g>















</svg>
