<?xml version="1.0" encoding="iso-8859-1"?>
<!-- Generator: Adobe Illustrator 19.0.0, SVG Export Plug-In . SVG Version: 6.00 Build 0)  -->
<svg xmlns="http://www.w3.org/2000/svg" xmlns:xlink="http://www.w3.org/1999/xlink" version="1.1" id="Layer_1" x="0px" y="0px" viewBox="0 0 490 490" style="enable-background:new 0 0 490 490;" xml:space="preserve" width="512" height="512">
<g>
	<path style="fill:#4CBFD4;" d="M17.9,441.85V223.77c0-59.57,23.2-115.58,65.32-157.71c42.13-42.12,98.14-65.32,157.71-65.32   c59.58,0,115.58,23.2,157.71,65.32c42.12,42.13,65.32,98.14,65.32,157.71v218.08"/>
	<path style="fill:#3E5268;" d="M433.961,223.77v233.081H47.901V223.77c0-106.61,86.42-193.03,193.03-193.03   S433.961,117.16,433.961,223.77z"/>
	<g>
		<g>
			<path style="fill:#DD3352;" d="M340.766,446.715v32.544H140.051v-32.544c0-55.425,44.929-100.361,100.354-100.361     c7.842,0,15.475,0.905,22.801,2.602c18.562,4.314,35.143,13.778,48.166,26.793C329.53,393.914,340.766,419.002,340.766,446.715z"/>
			<path style="fill:#FC74AF;" d="M340.766,446.715v32.544H185.653v-32.544c0-47.583,33.117-87.436,77.553-97.76     c18.562,4.314,35.143,13.778,48.166,26.793C329.53,393.914,340.766,419.002,340.766,446.715z"/>
			<path style="fill:#DBA175;" d="M182.687,321.605v42.986c1.646,30.46,26.855,54.648,57.721,54.648     c3.757,0,7.429-0.363,10.984-1.047c25.673-4.93,45.302-26.847,46.737-53.601v-39.077"/>
			<path style="fill:#FFE563;" d="M328.771,337.868c124.336,0,55.387-65.035,55.387-146.449S319.485,76.519,240.405,76.519     S96.651,110.005,96.651,191.419s-68.948,146.449,55.387,146.449H328.771z"/>
			<path style="fill:#FFA829;" d="M167.584,191.421c0,81.41-34.926,146.45,28.054,146.45h-43.597     c-124.34,0-55.391-65.04-55.391-146.45c0-81.418,64.677-114.901,143.757-114.901C200.341,76.52,167.584,110.003,167.584,191.421z     "/>
			<path style="fill:#FFCBB3;" d="M340.772,213.582v66.433c0,48.907-34.994,89.641-81.3,98.54     c-5.302,1.022-10.747,1.629-16.311,1.781h-0.135c-0.87,0.025-1.739,0.034-2.617,0.034c-55.433,0-100.355-44.93-100.355-100.355     v-66.433c44.086-3.647,86.256-25.023,100.355-72.773C254.499,188.559,296.678,209.935,340.772,213.582z"/>
			<path style="fill:#E89876;" d="M258.552,378.724c-5.015,0.92-10.148,1.469-15.39,1.612h-0.135     c-0.87,0.025-1.739,0.034-2.617,0.034c-55.433,0-100.355-44.93-100.355-100.355v-66.433c12.453-1.03,24.745-3.478,36.302-7.531     v73.964C176.357,329.243,211.789,370.189,258.552,378.724z"/>
			<path style="fill:#FC74AF;" d="M240.408,323.86c-13.219,0-26.438-5.032-36.501-15.095c-2.929-2.929-2.929-7.677,0-10.606     c2.929-2.929,7.678-2.929,10.606,0c14.278,14.278,37.511,14.278,51.79,0c2.929-2.929,7.678-2.929,10.606,0     c2.929,2.929,2.929,7.678,0,10.606C266.846,318.829,253.627,323.86,240.408,323.86z"/>
			<g>
				<g>
					<path style="fill:#27394C;" d="M196.692,273.083c-4.142,0-7.5-3.358-7.5-7.5v-24.669c0-4.142,3.358-7.5,7.5-7.5       s7.5,3.358,7.5,7.5v24.669C204.192,269.725,200.834,273.083,196.692,273.083z"/>
					<path style="fill:#27394C;" d="M284.134,273.083c-4.142,0-7.5-3.358-7.5-7.5v-24.669c0-4.142,3.358-7.5,7.5-7.5       s7.5,3.358,7.5,7.5v24.669C291.634,269.725,288.276,273.083,284.134,273.083z"/>
				</g>
			</g>
		</g>
	</g>
	<path style="fill:#4CBFD4;" d="M490,465.56c0,6.55-2.66,12.47-6.95,16.76c-4.29,4.29-10.21,6.94-16.76,6.94H23.7   c-13.09,0-23.7-10.61-23.7-23.7c0-6.55,2.65-12.48,6.94-16.77s10.22-6.94,16.76-6.94h442.59C479.38,441.85,490,452.46,490,465.56z"/>
	<path style="fill:#96EFFF;" d="M490,465.56c0,6.55-2.66,12.47-6.95,16.76c-4.29,4.29-10.21,6.94-16.76,6.94H74.25   c-13.09,0-23.71-10.61-23.71-23.7c0-6.55,2.66-12.48,6.95-16.77c4.29-4.29,10.21-6.94,16.76-6.94h392.04   C479.38,441.85,490,452.46,490,465.56z"/>
</g>















</svg>
