<?xml version="1.0" encoding="iso-8859-1"?>
<!-- Generator: Adobe Illustrator 19.0.0, SVG Export Plug-In . SVG Version: 6.00 Build 0)  -->
<svg xmlns="http://www.w3.org/2000/svg" xmlns:xlink="http://www.w3.org/1999/xlink" version="1.1" id="Layer_1" x="0px" y="0px" viewBox="0 0 490.005 490.005" style="enable-background:new 0 0 490.005 490.005;" xml:space="preserve" width="512" height="512">
<g>
	<path style="fill:#FFA829;" d="M369.605,101.154l-18.46,34.08l-23.2-12.59l-12.34-6.7l18.44-34.05c3.66-6.76,10.62-10.6,17.81-10.6   c3.25,0,6.55,0.79,9.61,2.45c2.76,1.5,5.03,3.54,6.76,5.92C372.625,85.764,373.425,94.094,369.605,101.154z"/>
	<polyline style="fill:#FFE563;" points="274.782,111.405 274.782,52.505 215.228,52.505 215.228,111.405  "/>
	<polyline style="fill:#FFA829;" points="240.447,111.405 240.447,52.505 215.228,52.505 215.228,111.405  "/>
	<path style="fill:#FFE563;" d="M369.605,101.154l-18.46,34.08l-23.2-12.59l17.83-32.93c3.66-6.76,10.62-10.6,17.81-10.6   c1.54,0,3.1,0.18,4.64,0.55C372.625,85.764,373.425,94.094,369.605,101.154z"/>
	<path style="fill:#FFA829;" d="M155.952,81.918l18.473,34.073l-23.215,12.563l-12.351,6.68l-18.459-34.04   c-3.665-6.757-3.082-14.685,0.844-20.709c1.774-2.723,4.238-5.056,7.3-6.714c2.764-1.493,5.712-2.281,8.651-2.431   C144.708,70.985,152.123,74.863,155.952,81.918z"/>
	<path style="fill:#FFE563;" d="M155.952,81.918l18.473,34.073l-23.215,12.563l-17.853-32.917   c-3.665-6.757-3.082-14.685,0.844-20.709c0.841-1.29,1.843-2.499,2.994-3.587C144.708,70.985,152.123,74.863,155.952,81.918z"/>
	<circle style="fill:#FFE563;" cx="245.002" cy="292.961" r="197.043"/>
	<path style="fill:#FFA829;" d="M257.119,489.634c-4,0.25-8.04,0.37-12.11,0.37c-108.83,0-197.05-88.22-197.05-197.04   c0-108.83,88.22-197.05,197.05-197.05c4.07,0,8.11,0.12,12.11,0.37c-103.19,6.25-184.94,91.92-184.94,196.68   C72.179,397.714,153.929,483.384,257.119,489.634z"/>
	<path style="fill:#B4E6FC;" d="M395.225,292.964c0,82.96-67.26,150.22-150.22,150.22c-5.28,0-10.5-0.27-15.64-0.81   c-75.62-7.82-134.59-71.73-134.59-149.41c0-77.69,58.97-141.59,134.59-149.41c5.14-0.54,10.36-0.81,15.64-0.81   C327.965,142.744,395.225,209.994,395.225,292.964z"/>
	<path style="fill:#96EFFF;" d="M363.945,292.964c0,77.68-58.96,141.59-134.58,149.41c-75.62-7.82-134.59-71.73-134.59-149.41   c0-77.69,58.97-141.59,134.59-149.41C304.985,151.374,363.945,215.274,363.945,292.964z"/>
	<path style="fill:#FFE563;" d="M279.058,65.758h-68.111c-8.533,0-15.45-6.917-15.45-15.45c0-9.313,0-18.626,0-27.939   c0-6.132,3.6-11.747,9.242-14.15c25.712-10.954,54.815-10.954,80.526,0c5.642,2.403,9.242,8.018,9.242,14.15   c0,9.313,0,18.626,0,27.939C294.507,58.841,287.59,65.758,279.058,65.758z"/>
	<path style="fill:#FFA829;" d="M227.967,65.75h-17.02c-8.53,0-15.45-6.91-15.45-15.45V22.37c0-6.14,3.6-11.75,9.24-14.15   c12.84-5.48,26.55-8.22,40.25-8.22c-6.85,0-13.7,2.74-20.13,8.22c-2.82,2.4-4.62,8.01-4.62,14.15V50.3   C220.237,58.84,223.697,65.75,227.967,65.75z"/>
	<g>
		<path style="fill:#FFE563;" d="M305.86,332.811c0-35.854-24.355-48.119-47.386-56.745v-55.563    c17.494,1.79,24.306,9.838,30.579,9.838c8.133,0,11.929-10.301,11.929-15.452c0-12.821-24.245-18.57-42.508-19.441v-13.631    c0-5.568-4.514-10.083-10.083-10.083s-10.083,4.514-10.083,10.083v14.36c-24.991,3.247-49.284,16.984-49.284,50.159    c0,33.649,25.492,43.844,49.284,52.341v64.276c-25.826-2.979-32.994-20.924-41.695-20.924c-6.777,0-12.469,8.945-12.469,15.452    c0,12.987,21.776,30.629,54.164,31.915v14.711c0,5.568,4.514,10.083,10.083,10.083s10.083-4.514,10.083-10.083V388.35    C286.685,383.745,305.86,365.406,305.86,332.811z M216.132,243.624c0-12.87,9.052-19.624,22.176-22.148v47.213    C225.769,263.645,216.132,257.666,216.132,243.624z M258.474,361.798v-54.736c11.55,5.545,20.279,13.221,20.279,28.73    C278.752,349.938,271.013,358.388,258.474,361.798z"/>
	</g>
</g>















</svg>
