<?xml version="1.0" encoding="iso-8859-1"?>
<!-- Generator: Adobe Illustrator 19.0.0, SVG Export Plug-In . SVG Version: 6.00 Build 0)  -->
<svg xmlns="http://www.w3.org/2000/svg" xmlns:xlink="http://www.w3.org/1999/xlink" version="1.1" id="Layer_1" x="0px" y="0px" viewBox="0 0 489.437 489.437" style="enable-background:new 0 0 489.437 489.437;" xml:space="preserve" width="512" height="512">
<g>
	<path style="fill:#FC74AF;" d="M322.731,90.204L257.529,6.27c-6.494-8.36-19.127-8.36-25.621,0l-65.202,83.934   c-4.97,6.398-0.411,15.713,7.691,15.713h25.338v69.881c0,4.596,3.726,8.323,8.323,8.323h73.321c4.596,0,8.323-3.726,8.323-8.323   v-69.881h25.338C323.142,105.917,327.701,96.602,322.731,90.204z"/>
	<g>
		<path style="fill:#70E6D1;" d="M128.303,123.081l-102.901-26.6c-10.25-2.65-20.249,5.069-20.282,15.656L4.795,218.419    c-0.025,8.101,9.277,12.689,15.69,7.739l20.058-15.483l42.7,55.317c2.809,3.639,8.035,4.311,11.674,1.503l58.04-44.803    c3.639-2.809,4.311-8.035,1.503-11.674l-42.7-55.317l20.058-15.483C138.229,135.269,136.146,125.109,128.303,123.081z"/>
		<path style="fill:#FFE563;" d="M361.135,123.081l102.901-26.6c10.25-2.65,20.249,5.069,20.282,15.656l0.326,106.283    c0.025,8.101-9.277,12.689-15.69,7.739l-20.058-15.483l-42.7,55.317c-2.809,3.639-8.035,4.311-11.674,1.503l-58.04-44.803    c-3.639-2.809-4.311-8.035-1.503-11.674l42.7-55.317l-20.058-15.483C351.208,135.269,353.291,125.109,361.135,123.081z"/>
	</g>
	<g>
		<path style="fill:#27394C;" d="M176.324,317.708h138.881c13.196,0,23.893,10.697,23.893,23.893v2.106    c0,13.196-10.697,23.893-23.893,23.893H176.324c-13.196,0-23.893-10.697-23.893-23.893v-2.106    C152.431,328.405,163.128,317.708,176.324,317.708z"/>
		<path style="fill:#FFCBB3;" d="M354.49,393.436c0,13.673-10.53,24.878-23.919,25.949c-0.698,0.059-1.409,0.089-2.119,0.089    c-1.823,0-3.599-0.184-5.315-0.545H166.305c-1.717,0.361-3.492,0.545-5.315,0.545h-0.018c-14.377-0.012-26.02-11.661-26.02-26.038    c0-13.555,10.358-24.688,23.594-25.914c0.805-0.083,1.622-0.118,2.445-0.118c1.095,0,2.166,0.065,3.226,0.195h161.011    c1.06-0.13,2.131-0.195,3.226-0.195c1.545,0,3.06,0.136,4.528,0.397C345.203,369.937,354.49,380.603,354.49,393.436z"/>
		<path style="fill:#E89876;" d="M332.98,367.8v32.981c0,6.405-0.835,12.637-2.409,18.604c-0.698,0.059-1.409,0.089-2.119,0.089    c-1.823,0-3.599-0.184-5.315-0.545H166.305c-1.717,0.361-3.492,0.545-5.315,0.545h-0.018c-1.586-5.996-2.427-12.252-2.427-18.693    v-33.259c0.805-0.083,1.622-0.118,2.445-0.118c1.095,0,2.166,0.065,3.226,0.195h161.011c1.06-0.13,2.131-0.195,3.226-0.195    C329.997,367.404,331.512,367.54,332.98,367.8z"/>
		<path style="fill:#E89876;" d="M340.295,399.234c-1.935,0-3.779-1.128-4.6-3.016c-2.094-4.817-8.421-3.278-9.135-3.086    c-2.663,0.756-5.418-0.795-6.175-3.459c-0.756-2.664,0.807-5.441,3.471-6.197c5.305-1.505,16.529-1.617,21.034,8.743    c1.104,2.539-0.059,5.493-2.599,6.596C341.64,399.1,340.962,399.234,340.295,399.234z"/>
		<path style="fill:#E89876;" d="M151.822,399.233c-0.668,0-1.347-0.134-1.998-0.418c-2.539-1.105-3.701-4.059-2.596-6.598    c2.547-5.852,9.168-11.28,20.113-8.965c2.709,0.573,4.44,3.234,3.867,5.943c-0.573,2.709-3.233,4.439-5.943,3.867    c-2.555-0.541-7.1-0.849-8.843,3.157C155.6,398.106,153.757,399.233,151.822,399.233z"/>
		<path style="fill:#E89876;" d="M325.225,355.867v54.112c0,38.723-27.701,70.976-64.37,78.025    c-4.883,0.941-9.932,1.432-15.094,1.432c-43.884,0-79.458-35.574-79.458-79.458v-54.112c0-43.884,35.574-79.464,79.458-79.464    c5.161,0,10.21,0.491,15.094,1.433c15.893,3.054,30.099,10.844,41.096,21.841C316.329,314.061,325.225,333.925,325.225,355.867z"/>
		<path style="fill:#FFCBB3;" d="M325.225,355.867v54.112c0,38.723-27.701,70.976-64.37,78.025    c-36.669-7.05-64.37-39.303-64.37-78.025v-54.112c0-38.723,27.701-70.982,64.37-78.031c15.893,3.054,30.099,10.844,41.096,21.841    C316.329,314.061,325.225,333.925,325.225,355.867z"/>
		<path style="fill:#D39262;" d="M245.764,445.16c-13.198,0-25.607-5.14-34.94-14.473c-1.958-1.958-1.958-5.132,0-7.09    c1.958-1.958,5.132-1.958,7.09,0c7.439,7.439,17.33,11.536,27.85,11.536c10.52,0,20.411-4.097,27.85-11.536    c1.958-1.958,5.132-1.958,7.09,0c1.958,1.958,1.958,5.132,0,7.09C271.371,440.02,258.962,445.16,245.764,445.16z"/>
		<g>
			<g>
				<path style="fill:#172635;" d="M211.147,404.278c-2.769,0-5.013-2.245-5.013-5.013v-19.532c0-2.769,2.245-5.013,5.013-5.013      s5.013,2.245,5.013,5.013v19.532C216.161,402.034,213.916,404.278,211.147,404.278z"/>
				<path style="fill:#172635;" d="M280.381,404.278c-2.769,0-5.013-2.245-5.013-5.013v-19.532c0-2.769,2.245-5.013,5.013-5.013      s5.013,2.245,5.013,5.013v19.532C285.395,402.034,283.15,404.278,280.381,404.278z"/>
			</g>
		</g>
		<path style="fill:#3E5268;" d="M320.501,239.03l-35.648,35.648c-3.02-7.415-10.289-12.647-18.789-12.647    c-6.975,0-13.126,3.522-16.777,8.883c-9.316-11.477-23.532-18.813-39.468-18.813c-28.076,0-50.836,22.76-50.836,50.836    s22.76,50.836,50.836,50.836c11.729,0,22.521-3.982,31.123-10.655c25.246,14.469,57.996,10.937,79.56-10.626    C346.309,306.682,346.309,264.839,320.501,239.03z"/>
		<path style="fill:#27394C;" d="M189.488,302.936c0,22.759,14.957,42.03,35.577,48.506c-4.804,1.516-9.931,2.329-15.247,2.329    c-28.076,0-50.835-22.759-50.835-50.835c0-28.076,22.759-50.835,50.835-50.835c5.316,0,10.432,0.814,15.247,2.329    C204.446,260.906,189.488,280.177,189.488,302.936z"/>
	</g>
</g>















</svg>
