<?xml version="1.0" encoding="iso-8859-1"?>
<!-- Generator: Adobe Illustrator 19.0.0, SVG Export Plug-In . SVG Version: 6.00 Build 0)  -->
<svg xmlns="http://www.w3.org/2000/svg" xmlns:xlink="http://www.w3.org/1999/xlink" version="1.1" id="Layer_1" x="0px" y="0px" viewBox="0 0 490.261 490.261" style="enable-background:new 0 0 490.261 490.261;" xml:space="preserve" width="512" height="512">
<g>
	<circle style="fill:#FC74AF;" cx="245.131" cy="245.131" r="245.131"/>
	<path style="fill:#FFFFFF;" d="M245.131,419.803c-96.315,0-174.675-78.358-174.675-174.673s78.36-174.673,174.675-174.673   s174.673,78.358,174.673,174.673S341.446,419.803,245.131,419.803z"/>
	<path style="fill:#FC74AF;" d="M245.131,349.346c-57.465,0-104.217-46.751-104.217-104.216s46.752-104.215,104.217-104.215   s104.215,46.751,104.215,104.215S302.596,349.346,245.131,349.346z"/>
	<path style="fill:#FFFFFF;" d="M282.047,268.095c0-20.092-13.493-27.526-27.849-33.013v-26.824c4.827,0.67,7.996,2.26,10.588,3.576   c2.137,1.085,3.824,1.942,5.734,1.942c6.094,0,8.73-7.427,8.73-11.215c0-4.181-3.397-7.592-9.825-9.867   c-5.454-1.929-11.575-2.585-15.228-2.808v-10.197c0-3.59-2.91-6.5-6.5-6.5s-6.5,2.91-6.5,6.5v5.972   c-0.037,0.195-0.063,0.393-0.063,0.594v3.911c-9.411,1.308-30.127,6.901-30.127,30.72c0,20.15,15.934,26.256,30.127,31.561v29.991   c-7.52-1.001-12.195-4.644-15.97-7.584c-2.867-2.233-5.132-3.998-7.756-3.998c-5.247,0-9.196,6.898-9.196,11.371   c0,8.858,14.046,19.105,32.922,19.742v3.863c0,0.202,0.026,0.399,0.063,0.594v4.145c0,3.59,2.91,6.5,6.5,6.5s6.5-2.91,6.5-6.5   v-9.409C271.927,297.621,282.047,285.664,282.047,268.095z M254.198,257.986c4.411,2.472,7.902,5.933,7.902,12.128   c0,5.343-2.781,9.247-7.902,11.261V257.986z M241.198,230.222c-6.516-2.761-10.243-5.706-10.243-11.355   c0-5.024,3.622-8.544,10.243-10.036V230.222z"/>
</g>















</svg>
