<?xml version="1.0" encoding="iso-8859-1"?>
<!-- Generator: Adobe Illustrator 19.0.0, SVG Export Plug-In . SVG Version: 6.00 Build 0)  -->
<svg xmlns="http://www.w3.org/2000/svg" xmlns:xlink="http://www.w3.org/1999/xlink" version="1.1" id="Layer_1" x="0px" y="0px" viewBox="0 0 490 490" style="enable-background:new 0 0 490 490;" xml:space="preserve" width="512" height="512">
<g>
	<path style="fill:#E6E6E6;" d="M4.533,115.05v342.8c0,17.76,14.39,32.15,32.15,32.15h326.65c17.75,0,32.15-14.39,32.15-32.15V32.15   c0-17.76-14.4-32.15-32.15-32.15l-243.75,0L4.533,115.05z"/>
	<path style="fill:#BBB8CC;" d="M4.533,115.05h79.66c19.54,0,35.39-15.84,35.39-35.39V0L4.533,115.05z"/>
	<path style="fill:#BBB8CC;" d="M406.869,111.473H205.133c-28.101,0-50.963,22.862-50.963,50.963v276.602   c0,28.101,22.862,50.963,50.963,50.963h201.736c28.101,0,50.963-22.862,50.963-50.963V162.436   C457.832,134.334,434.97,111.473,406.869,111.473z"/>
	<g>
		<path style="fill:#3E5268;" d="M226.921,177.514H70.83c-4.142,0-7.5-3.358-7.5-7.5s3.358-7.5,7.5-7.5h156.091    c4.142,0,7.5,3.358,7.5,7.5S231.063,177.514,226.921,177.514z"/>
		<path style="fill:#3E5268;" d="M226.921,219.541H70.83c-4.142,0-7.5-3.358-7.5-7.5s3.358-7.5,7.5-7.5h156.091    c4.142,0,7.5,3.358,7.5,7.5S231.063,219.541,226.921,219.541z"/>
		<path style="fill:#3E5268;" d="M226.921,261.568H70.83c-4.142,0-7.5-3.358-7.5-7.5c0-4.142,3.358-7.5,7.5-7.5h156.091    c4.142,0,7.5,3.358,7.5,7.5C234.421,258.21,231.063,261.568,226.921,261.568z"/>
		<path style="fill:#3E5268;" d="M226.921,303.595H70.83c-4.142,0-7.5-3.358-7.5-7.5s3.358-7.5,7.5-7.5h156.091    c4.142,0,7.5,3.358,7.5,7.5S231.063,303.595,226.921,303.595z"/>
		<path style="fill:#3E5268;" d="M226.921,345.622H70.83c-4.142,0-7.5-3.358-7.5-7.5s3.358-7.5,7.5-7.5h156.091    c4.142,0,7.5,3.358,7.5,7.5S231.063,345.622,226.921,345.622z"/>
		<path style="fill:#3E5268;" d="M226.921,387.649H70.83c-4.142,0-7.5-3.358-7.5-7.5s3.358-7.5,7.5-7.5h156.091    c4.142,0,7.5,3.358,7.5,7.5S231.063,387.649,226.921,387.649z"/>
		<path style="fill:#3E5268;" d="M226.921,429.676H70.83c-4.142,0-7.5-3.358-7.5-7.5s3.358-7.5,7.5-7.5h156.091    c4.142,0,7.5,3.358,7.5,7.5S231.063,429.676,226.921,429.676z"/>
	</g>
	<g>
		<path style="fill:#3E5268;" d="M189.303,162.439v276.6c0,24,19.46,43.46,43.46,43.46h201.74c24,0,43.46-19.46,43.46-43.46v-276.6    c0-24.01-19.46-43.47-43.46-43.47h-201.74C208.763,118.969,189.303,138.429,189.303,162.439z"/>
		<path style="fill:#96EFFF;" d="M189.303,232.349v206.69c0,24,19.46,43.46,43.46,43.46h201.74c24,0,43.46-19.46,43.46-43.46    v-206.69H189.303z"/>
		<path style="fill:#4CBFD4;" d="M434.504,490H232.768c-28.101,0-50.963-22.862-50.963-50.963V162.436    c0-28.101,22.862-50.963,50.963-50.963h201.736c28.101,0,50.963,22.862,50.963,50.963v276.602    C485.467,467.138,462.605,490,434.504,490z M232.768,126.473c-19.83,0-35.963,16.133-35.963,35.963v276.602    c0,19.83,16.133,35.963,35.963,35.963h201.736c19.83,0,35.963-16.133,35.963-35.963V162.436c0-19.83-16.133-35.963-35.963-35.963    H232.768z"/>
		<g>
			<rect x="189.305" y="224.848" style="fill:#4CBFD4;" width="288.662" height="15"/>
			<rect x="189.305" y="308.232" style="fill:#4CBFD4;" width="288.662" height="15"/>
			<rect x="189.305" y="391.616" style="fill:#4CBFD4;" width="288.662" height="15"/>
		</g>
		<g>
			<rect x="326.135" y="232.348" style="fill:#4CBFD4;" width="15" height="250.152"/>
			<rect x="398.301" y="232.348" style="fill:#4CBFD4;" width="15" height="250.152"/>
			<rect x="253.969" y="232.348" style="fill:#4CBFD4;" width="15" height="250.152"/>
		</g>
		<path style="fill:#E6E6E6;" d="M441.756,212.481h-33.882c-4.142,0-7.5-3.358-7.5-7.5s3.358-7.5,7.5-7.5h33.882    c4.142,0,7.5,3.358,7.5,7.5S445.898,212.481,441.756,212.481z"/>
	</g>
</g>















</svg>
