<?xml version="1.0" encoding="iso-8859-1"?>
<!-- Generator: Adobe Illustrator 19.0.0, SVG Export Plug-In . SVG Version: 6.00 Build 0)  -->
<svg xmlns="http://www.w3.org/2000/svg" xmlns:xlink="http://www.w3.org/1999/xlink" version="1.1" id="Layer_1" x="0px" y="0px" viewBox="0 0 489.659 489.659" style="enable-background:new 0 0 489.659 489.659;" xml:space="preserve" width="512" height="512">
<g>
	<path style="fill:#E06919;" d="M90.104,117.704h207.768c19.741,0,35.744,16.003,35.744,35.744v3.151   c0,19.741-16.003,35.744-35.744,35.744H90.104c-19.741,0-35.744-16.003-35.744-35.744v-3.151   C54.36,133.707,70.363,117.704,90.104,117.704z"/>
	<path style="fill:#FFCBB3;" d="M356.645,230.994c0,20.455-15.753,37.218-35.784,38.821c-1.045,0.089-2.107,0.133-3.17,0.133   c-2.727,0-5.384-0.275-7.952-0.815H75.115c-2.568,0.54-5.225,0.815-7.952,0.815h-0.027c-21.509-0.018-38.927-17.444-38.927-38.953   c0-20.278,15.496-36.934,35.296-38.768c1.204-0.124,2.426-0.177,3.657-0.177c1.638,0,3.241,0.097,4.826,0.292h240.876   c1.585-0.195,3.188-0.292,4.826-0.292c2.311,0,4.578,0.204,6.774,0.593C342.751,195.84,356.645,211.796,356.645,230.994z"/>
	<path style="fill:#E89876;" d="M324.465,192.643v49.34c0,9.581-1.248,18.906-3.604,27.832c-1.045,0.089-2.107,0.133-3.17,0.133   c-2.727,0-5.384-0.275-7.952-0.815H75.115c-2.568,0.54-5.225,0.815-7.952,0.815h-0.027c-2.373-8.97-3.63-18.33-3.63-27.964v-49.757   c1.204-0.124,2.426-0.177,3.657-0.177c1.638,0,3.241,0.097,4.826,0.292h240.876c1.585-0.195,3.188-0.292,4.826-0.292   C320.002,192.05,322.269,192.253,324.465,192.643z"/>
	<path style="fill:#E89876;" d="M335.408,239.668c-2.896,0-5.653-1.687-6.882-4.512c-3.133-7.206-12.599-4.902-13.666-4.616   c-3.993,1.133-8.107-1.19-9.237-5.174c-1.132-3.985,1.208-8.139,5.192-9.27c7.938-2.254,24.729-2.418,31.467,13.08   c1.651,3.798-0.089,8.217-3.888,9.868C337.421,239.467,336.406,239.668,335.408,239.668z"/>
	<path style="fill:#E89876;" d="M53.449,239.666c-0.999,0-2.015-0.201-2.99-0.625c-3.798-1.653-5.536-6.072-3.883-9.871   c3.812-8.753,13.716-16.876,30.089-13.411c4.052,0.857,6.643,4.837,5.785,8.89c-0.856,4.052-4.835,6.644-8.89,5.785   c-3.821-0.808-10.622-1.27-13.23,4.724C59.101,237.981,56.343,239.666,53.449,239.666z"/>
	<path style="fill:#27394C;" d="M312.863,438.433v50.394H75.114v-50.394c0-65.652,53.219-118.879,118.871-118.879   c9.289,0,18.33,1.071,27.008,3.082c21.987,5.109,41.628,16.32,57.053,31.737C299.554,375.89,312.863,405.607,312.863,438.433z"/>
	<path style="fill:#3E5268;" d="M312.863,438.433v50.394H129.13v-50.394c0-56.363,39.228-103.569,91.863-115.798   c21.987,5.109,41.628,16.32,57.053,31.737C299.554,375.89,312.863,405.607,312.863,438.433z"/>
	<polyline style="fill:#FFFFFF;" points="135.932,359.673 193.984,477.479 252.036,359.673  "/>
	<polyline style="fill:#FC74AF;" points="142.959,365.733 193.984,430.909 245.009,365.733  "/>
	<polyline style="fill:#BBB8CC;" points="251.836,360.087 225.367,413.798 193.985,379.637 193.987,379.637 162.605,413.798    136.136,360.087  "/>
	<path style="fill:#172635;" d="M193.987,477.479v11.35h-29.2l-30.44-30.44l12.71-26.39h-29.33l-15.03-69.69   c6.9-8.29,14.92-15.61,23.82-21.75L193.987,477.479z"/>
	<path style="fill:#172635;" d="M193.981,477.479v11.35h29.2l30.44-30.44l-12.71-26.39h29.33l15.03-69.69   c-6.9-8.29-14.92-15.61-23.82-21.75L193.981,477.479z"/>
	<path style="fill:#E89876;" d="M312.863,174.791v80.953c0,57.93-41.442,106.181-96.299,116.728   c-7.305,1.408-14.859,2.143-22.58,2.143c-65.652,0-118.871-53.219-118.871-118.871v-80.953   c0-65.651,53.219-118.879,118.871-118.879c7.722,0,15.275,0.735,22.58,2.143c23.776,4.569,45.028,16.223,61.481,32.675   C299.554,112.248,312.863,141.965,312.863,174.791z"/>
	<path style="fill:#FFCBB3;" d="M312.863,174.791v80.953c0,57.93-41.442,106.181-96.299,116.728   c-54.857-10.547-96.299-58.798-96.299-116.728v-80.953c0-57.93,41.442-106.19,96.299-116.736   c23.776,4.569,45.028,16.223,61.481,32.675C299.554,112.248,312.863,141.965,312.863,174.791z"/>
	<path style="fill:#D39262;" d="M240.955,308.922c-1.919,0-3.839-0.732-5.303-2.197c-22.974-22.974-60.355-22.974-83.329,0   c-2.929,2.929-7.678,2.929-10.606,0c-2.929-2.929-2.929-7.678,0-10.606c28.822-28.822,75.72-28.822,104.542,0   c2.929,2.929,2.929,7.678,0,10.606C244.794,308.189,242.875,308.922,240.955,308.922z"/>
	<g>
		<g>
			<path style="fill:#172635;" d="M142.201,247.215c-4.142,0-7.5-3.358-7.5-7.5v-29.221c0-4.142,3.358-7.5,7.5-7.5     s7.5,3.358,7.5,7.5v29.221C149.701,243.857,146.343,247.215,142.201,247.215z"/>
			<path style="fill:#172635;" d="M245.776,247.215c-4.142,0-7.5-3.358-7.5-7.5v-29.221c0-4.142,3.358-7.5,7.5-7.5     c4.143,0,7.5,3.358,7.5,7.5v29.221C253.276,243.857,249.919,247.215,245.776,247.215z"/>
		</g>
	</g>
	<path style="fill:#F9A74D;" d="M305.796,0l-53.33,53.33c-4.517-11.093-15.392-18.921-28.108-18.921   c-10.435,0-19.636,5.269-25.099,13.289c-13.937-17.17-35.204-28.145-59.045-28.145c-42.002,0-76.052,34.05-76.052,76.052   s34.05,76.052,76.052,76.052c17.546,0,33.692-5.958,46.56-15.939c37.768,21.646,86.764,16.361,119.023-15.897   C344.406,101.209,344.406,38.61,305.796,0z"/>
	<path style="fill:#E06919;" d="M109.798,95.605c0,34.048,22.377,62.878,53.224,72.566c-7.187,2.268-14.857,3.485-22.81,3.485   c-42.002,0-76.05-34.048-76.05-76.05s34.049-76.05,76.05-76.05c7.953,0,15.607,1.217,22.81,3.485   C132.175,32.727,109.798,61.556,109.798,95.605z"/>
	<polygon style="fill:#FC74AF;" points="208.064,448.899 193.984,477.479 179.904,448.899 193.984,430.909  "/>
	<path style="fill:#DD3352;" d="M461.449,406.409c0,42.22-31.43,77.1-72.17,82.51c-3.62,0.49-7.32,0.74-11.08,0.74   c-45.98,0-83.25-37.27-83.25-83.25c0-45.97,37.27-83.24,83.25-83.24c3.76,0,7.46,0.25,11.08,0.74   C430.019,329.319,461.449,364.199,461.449,406.409z"/>
	<path style="fill:#FC74AF;" d="M461.449,406.409c0,42.22-31.43,77.1-72.17,82.51c-40.74-5.41-72.17-40.29-72.17-82.51   s31.43-77.09,72.17-82.5C430.019,329.319,461.449,364.199,461.449,406.409z"/>
	<path style="fill:#FFFFFF;" d="M339.313,452.798c-1.919,0-3.839-0.732-5.304-2.197c-2.929-2.929-2.929-7.678,0-10.606   l77.771-77.771c2.93-2.929,7.678-2.929,10.607,0c2.929,2.929,2.929,7.678,0,10.606l-77.771,77.771   C343.152,452.065,341.232,452.798,339.313,452.798z"/>
	<path style="fill:#FFFFFF;" d="M417.084,452.798c-1.919,0-3.839-0.732-5.304-2.197l-77.771-77.771   c-2.929-2.929-2.929-7.678,0-10.606c2.93-2.929,7.678-2.929,10.607,0l77.771,77.771c2.929,2.929,2.929,7.678,0,10.606   C420.922,452.065,419.003,452.798,417.084,452.798z"/>
</g>















</svg>
