<?xml version="1.0" encoding="iso-8859-1"?>
<!-- Generator: Adobe Illustrator 19.0.0, SVG Export Plug-In . SVG Version: 6.00 Build 0)  -->
<svg xmlns="http://www.w3.org/2000/svg" xmlns:xlink="http://www.w3.org/1999/xlink" version="1.1" id="Layer_1" x="0px" y="0px" viewBox="0 0 491.485 491.485" style="enable-background:new 0 0 491.485 491.485;" xml:space="preserve" width="512" height="512">
<g>
	<path style="fill:#FFA829;" d="M484.215,465.286l-0.01,0.01c-1.629,2.465-3.52,4.794-5.693,6.967l-5.024,5.035   c-8.68,8.669-20.002,12.962-31.303,12.962c-12.398,0-24.765-5.17-33.56-15.375l-95.947-111.29l23.355-23.752l28.295-28.797   l0.157,0.136L476.11,407.4C493.282,422.211,496.196,447.122,484.215,465.286z"/>
	<path style="fill:#FFE563;" d="M484.215,465.286l-0.01,0.01c-7.374,4.857-15.856,7.27-24.326,7.27   c-12.398,0-24.765-5.17-33.56-15.375L330.372,345.89l23.355-23.752l10.758-10.957L476.11,407.4   C493.282,422.211,496.196,447.122,484.215,465.286z"/>
	<circle style="fill:#3E5268;" cx="199.007" cy="200.232" r="199.007"/>
	<path style="fill:#4CBFD4;" d="M344.433,200.231c0,80.318-65.104,145.432-145.423,145.432c-5.894,0-11.713-0.35-17.428-1.041   c-72.106-8.6-128.004-69.968-128.004-144.392c0-74.424,55.898-135.782,128.004-144.392c5.715-0.681,11.534-1.031,17.428-1.031   C279.328,54.808,344.433,119.913,344.433,200.231z"/>
	<path style="fill:#96EFFF;" d="M309.586,200.231c0,74.424-55.898,135.791-128.004,144.392   c-72.106-8.6-128.004-69.968-128.004-144.392c0-74.424,55.898-135.782,128.004-144.392   C253.688,64.45,309.586,125.807,309.586,200.231z"/>
	<path style="fill:#172635;" d="M199.007,353.159c-84.324,0-152.927-68.603-152.927-152.927S114.683,47.305,199.007,47.305   s152.927,68.603,152.927,152.927S283.331,353.159,199.007,353.159z M199.007,62.305c-76.053,0-137.927,61.874-137.927,137.927   s61.874,137.927,137.927,137.927s137.927-61.874,137.927-137.927S275.06,62.305,199.007,62.305z"/>
	<path style="fill:#FC74AF;" d="M130.448,276.292c-1.92,0-3.839-0.732-5.304-2.197c-2.929-2.929-2.929-7.678,0-10.606   L262.262,126.37c2.93-2.929,7.678-2.929,10.607,0c2.929,2.929,2.929,7.678,0,10.606L135.751,274.095   C134.286,275.559,132.367,276.292,130.448,276.292z"/>
	<g>
		<path style="fill:#FC74AF;" d="M159.383,198.082c-10.009,0-19.419-3.898-26.497-10.976c-14.61-14.61-14.61-38.384,0-52.994    c7.078-7.078,16.488-10.976,26.497-10.976c10.01,0,19.42,3.898,26.498,10.976c7.077,7.078,10.975,16.488,10.975,26.497    s-3.897,19.419-10.975,26.497C178.803,194.184,169.393,198.082,159.383,198.082z M159.383,138.136    c-6.002,0-11.646,2.338-15.89,6.583c-8.763,8.762-8.763,23.019,0,31.781c8.762,8.761,23.019,8.763,31.78,0    c8.763-8.762,8.763-23.019,0-31.781C171.03,140.474,165.386,138.136,159.383,138.136z"/>
		<path style="fill:#FC74AF;" d="M238.631,277.329c-10.01,0-19.42-3.898-26.498-10.976c-7.077-7.078-10.975-16.488-10.975-26.497    c0-10.01,3.897-19.42,10.975-26.498c14.612-14.611,38.385-14.609,52.995,0c14.61,14.611,14.61,38.384,0,52.995    C258.05,273.431,248.64,277.329,238.631,277.329z M238.63,217.394c-5.754,0-11.509,2.19-15.89,6.571    c-8.763,8.762-8.763,23.02,0,31.782c8.763,8.763,23.02,8.761,31.78,0c8.763-8.762,8.763-23.02,0-31.782    C250.14,219.584,244.385,217.394,238.63,217.394z"/>
	</g>
</g>















</svg>
