<?xml version="1.0" encoding="iso-8859-1"?>
<!-- Generator: Adobe Illustrator 19.0.0, SVG Export Plug-In . SVG Version: 6.00 Build 0)  -->
<svg xmlns="http://www.w3.org/2000/svg" xmlns:xlink="http://www.w3.org/1999/xlink" version="1.1" id="Layer_1" x="0px" y="0px" viewBox="0 0 490 490" style="enable-background:new 0 0 490 490;" xml:space="preserve" width="512" height="512">
<g>
	<g>
		<path style="fill:#70E6D1;" d="M487.875,189.247l-65.202-83.934c-6.494-8.36-19.127-8.36-25.621,0l-65.202,83.934    c-4.97,6.398-0.411,15.713,7.691,15.713h25.338v276.718c0,4.596,3.726,8.323,8.323,8.323h73.321c4.596,0,8.323-3.726,8.323-8.323    V204.96h25.338C488.285,204.96,492.845,195.645,487.875,189.247z"/>
	</g>
	<g>
		<path style="fill:#FFE563;" d="M192.127,196.368c0-43.709-29.692-58.662-57.769-69.178V59.453    c21.327,2.182,29.631,11.994,37.279,11.994c9.915,0,14.542-12.558,14.542-18.837c0-15.63-29.557-22.638-51.821-23.701V12.292    C134.358,5.503,128.855,0,122.066,0s-12.292,5.503-12.292,12.292v17.506c-30.467,3.958-60.082,20.705-60.082,61.148    c0,41.021,31.077,53.45,60.082,63.808v78.358c-31.484-3.632-40.223-25.508-50.83-25.508c-8.262,0-15.202,10.905-15.202,18.837    c0,15.833,26.547,37.34,66.031,38.908v17.934c0,6.789,5.503,12.292,12.292,12.292s12.292-5.503,12.292-12.292v-19.208    C168.751,258.462,192.127,236.105,192.127,196.368z M82.739,87.641c0-15.689,11.035-23.923,27.035-27.001v57.557    C94.487,112.048,82.739,104.759,82.739,87.641z M134.358,231.706v-66.728c14.081,6.759,24.722,16.118,24.722,35.025    C159.079,217.248,149.644,227.549,134.358,231.706z"/>
	</g>
	<g>
		<path style="fill:#FC74AF;" d="M158.15,396.084L92.948,312.15c-6.494-8.36-19.127-8.36-25.621,0L2.125,396.084    c-4.97,6.398-0.411,15.713,7.691,15.713h25.338v69.881c0,4.596,3.726,8.323,8.323,8.323h73.321c4.596,0,8.323-3.726,8.323-8.323    v-69.881h25.338C158.56,411.797,163.12,402.482,158.15,396.084z"/>
	</g>
	<g>
		<path style="fill:#F9A74D;" d="M323.012,304.321l-65.202-83.934c-6.494-8.36-19.127-8.36-25.621,0l-65.202,83.934    c-4.97,6.398-0.411,15.713,7.691,15.713h25.338v161.644c0,4.596,3.726,8.323,8.323,8.323h73.321c4.596,0,8.323-3.726,8.323-8.323    V320.034h25.338C323.423,320.034,327.982,310.719,323.012,304.321z"/>
	</g>
</g>















</svg>
