<?xml version="1.0" encoding="iso-8859-1"?>
<!-- Generator: Adobe Illustrator 19.0.0, SVG Export Plug-In . SVG Version: 6.00 Build 0)  -->
<svg xmlns="http://www.w3.org/2000/svg" xmlns:xlink="http://www.w3.org/1999/xlink" version="1.1" id="Layer_1" x="0px" y="0px" viewBox="0 0 490.001 490.001" style="enable-background:new 0 0 490.001 490.001;" xml:space="preserve" width="512" height="512">
<g>
	<path style="fill:#FFA829;" d="M489.26,189.924c0,101.201-79.177,183.927-178.968,189.606c-3.624,0.205-7.276,0.308-10.956,0.308   c-104.89,0-189.914-85.033-189.914-189.914C109.422,85.033,194.446,0,299.336,0c3.68,0,7.332,0.103,10.956,0.308   C410.083,5.987,489.26,88.713,489.26,189.924z"/>
	<path style="fill:#FFE563;" d="M489.26,189.924c0,101.201-79.177,183.927-178.968,189.606   c-99.791-5.679-178.968-88.405-178.968-189.606c0-101.211,79.177-183.937,178.968-189.615   C410.083,5.987,489.26,88.713,489.26,189.924z"/>
	<path style="fill:#4CBFD4;" d="M441.784,189.924c0,78.673-63.775,142.447-142.447,142.447c-3.68,0-7.332-0.14-10.947-0.411h-0.019   c-73.545-5.604-131.482-67.053-131.482-142.037S214.826,53.482,288.371,47.878h0.019c3.615-0.271,7.267-0.411,10.947-0.411   C378.009,47.467,441.784,111.251,441.784,189.924z"/>
	<path style="fill:#96EFFF;" d="M419.881,189.924c0,74.983-57.947,136.432-131.491,142.037h-0.019   c-73.545-5.604-131.482-67.053-131.482-142.037S214.826,53.482,288.371,47.878h0.019   C361.934,53.482,419.881,114.941,419.881,189.924z"/>
	<g>
		<path style="fill:#FFA829;" d="M393.763,304.09c-2.072,0-4.135-0.854-5.617-2.526c-2.746-3.101-2.46-7.841,0.641-10.587    c28.918-25.619,45.503-62.453,45.503-101.056c0-74.412-60.538-134.95-134.949-134.95c-74.412,0-134.95,60.538-134.95,134.95    c0,27.623,8.29,54.182,23.974,76.807c2.359,3.404,1.513,8.077-1.892,10.437c-3.404,2.359-8.076,1.513-10.437-1.891    c-17.432-25.147-26.646-54.662-26.646-85.353c0-82.683,67.268-149.95,149.95-149.95S449.29,107.237,449.29,189.92    c0,42.894-18.427,83.819-50.556,112.284C397.306,303.468,395.531,304.09,393.763,304.09z"/>
		<g>
			<path style="fill:#172635;" d="M299.343,79.35c-3.275,0-6.218-2.189-7.179-5.319c-0.954-3.108,0.294-6.616,3.009-8.411     c5.421-3.584,12.836,1.248,11.52,7.7C305.987,76.78,302.881,79.35,299.343,79.35z"/>
		</g>
		<g>
			<path style="fill:#172635;" d="M240.303,95.169c-3.217,0-6.091-2.113-7.114-5.145c-1.009-2.993,0.065-6.438,2.592-8.33     c2.711-2.03,6.494-1.995,9.167,0.088c2.392,1.865,3.407,5.129,2.539,8.026C246.549,92.945,243.582,95.169,240.303,95.169z"/>
		</g>
		<g>
			<path style="fill:#172635;" d="M197.093,138.39c-3.003,0-5.778-1.863-6.93-4.63c-1.253-3.011-0.36-6.604,2.167-8.671     c2.367-1.936,5.75-2.228,8.42-0.744c2.855,1.587,4.382,5,3.651,8.184C203.627,135.901,200.571,138.39,197.093,138.39z"/>
			<path style="fill:#172635;" d="M401.584,256.449c-6.627,0-9.933-8.331-5.195-12.902c2.314-2.232,5.901-2.709,8.73-1.203     c2.77,1.475,4.337,4.607,3.885,7.712C408.475,253.687,405.247,256.449,401.584,256.449z"/>
		</g>
		<g>
			<path style="fill:#172635;" d="M181.273,197.419c-3.004,0-5.775-1.859-6.93-4.63c-1.276-3.061-0.315-6.746,2.311-8.778     c5.204-4.027,13.043,0.415,12.035,7.01C188.135,194.645,184.951,197.419,181.273,197.419z"/>
			<path style="fill:#172635;" d="M417.403,197.419c-2.999,0-5.775-1.863-6.92-4.63c-1.276-3.084-0.319-6.737,2.318-8.788     c5.365-4.173,13.268,0.705,11.962,7.388C424.087,194.85,420.914,197.419,417.403,197.419z"/>
		</g>
		<g>
			<path style="fill:#172635;" d="M197.093,256.449c-6.879,0-10.108-8.906-4.762-13.291c2.444-2.006,5.977-2.237,8.674-0.596     c2.668,1.623,4.073,4.877,3.426,7.931C203.705,253.919,200.602,256.449,197.093,256.449z"/>
			<path style="fill:#172635;" d="M401.584,138.39c-6.396,0-9.845-7.896-5.516-12.585c2.201-2.384,5.79-3.082,8.721-1.696     c3.016,1.427,4.751,4.77,4.184,8.059C408.363,135.714,405.184,138.39,401.584,138.39z"/>
		</g>
		<g>
			<path style="fill:#172635;" d="M358.374,95.169c-3.132,0-6.008-2.019-7.059-4.971c-1.064-2.987-0.095-6.455,2.412-8.416     c5.426-4.244,13.504,0.778,11.956,7.536C364.909,92.694,361.85,95.169,358.374,95.169z"/>
		</g>
	</g>
	<path style="fill:#172635;" d="M349.009,197.42h-49.671c-4.143,0-7.5-3.358-7.5-7.5s3.357-7.5,7.5-7.5h49.671   c4.143,0,7.5,3.358,7.5,7.5S353.152,197.42,349.009,197.42z"/>
	<path style="fill:#172635;" d="M299.339,197.42c-4.143,0-7.5-3.358-7.5-7.5v-82.121c0-4.142,3.357-7.5,7.5-7.5s7.5,3.358,7.5,7.5   v82.121C306.839,194.062,303.481,197.42,299.339,197.42z"/>
	<g>
		<path style="fill:#70E6D1;" d="M366.405,270.998H28.171c-15.149,0-27.43,12.281-27.43,27.43v164.142    c0,15.149,12.281,27.43,27.43,27.43h338.234c15.149,0,27.43-12.281,27.43-27.43V298.428    C393.835,283.279,381.554,270.998,366.405,270.998z"/>
		<circle style="fill:#0E9C80;" cx="361.746" cy="303.087" r="13.289"/>
		<circle style="fill:#0E9C80;" cx="361.746" cy="457.912" r="13.289"/>
		<circle style="fill:#0E9C80;" cx="32.833" cy="457.911" r="13.289"/>
		<circle style="fill:#0E9C80;" cx="32.833" cy="303.088" r="13.289"/>
		<path style="fill:#0E9C80;" d="M361.746,425.822c0.001,0,0.002,0,0.003,0v-90.645c-17.721,0-32.089-14.368-32.089-32.089H64.922    c0,17.723-14.367,32.09-32.09,32.09v90.644c17.723,0,32.09,14.367,32.09,32.09h264.734    C329.656,440.189,344.023,425.822,361.746,425.822z"/>
		<circle style="fill:#70E6D1;" cx="197.291" cy="380.499" r="77.411"/>
		<circle style="fill:#0E9C80;" cx="197.291" cy="380.499" r="53.294"/>
		<path style="fill:#70E6D1;" d="M217.984,393.296c0-10.736-6.853-15.023-14.449-18.061v-14.949c2.012,0.436,3.446,1.156,4.654,1.77    c1.157,0.588,2.157,1.095,3.25,1.095c3.481,0,4.987-4.22,4.987-6.372c0-2.386-1.921-4.327-5.556-5.613    c-2.521-0.892-5.294-1.297-7.335-1.481v-5.65c0-2.658-2.155-4.813-4.813-4.813c-2.658,0-4.813,2.155-4.813,4.813v5.899    c-5.64,1.017-15.753,4.583-15.753,17.057c0,10.787,8.111,14.396,15.753,17.283v16.677c-3.477-0.744-5.782-2.515-7.666-3.983    c-1.552-1.209-2.893-2.254-4.397-2.254c-2.993,0-5.247,3.918-5.247,6.458c0,4.809,7.311,10.343,17.31,11.061v4.733    c0,2.658,2.155,4.813,4.813,4.813c2.658,0,4.813-2.155,4.813-4.813v-5.381C212.752,409.319,217.984,402.758,217.984,393.296z     M203.535,388.561c1.801,1.3,3.09,3.079,3.09,5.86c0,2.871-1.369,4.571-3.09,5.576V388.561z M193.908,371.516    c-2.811-1.372-4.394-2.946-4.394-5.651c0-2.411,1.545-4.186,4.394-5.134V371.516z"/>
		<g>
			<path style="fill:#70E6D1;" d="M338.948,386.516h-39.727c-3.323,0-6.017-2.694-6.017-6.017c0-3.323,2.694-6.017,6.017-6.017     h39.727c3.323,0,6.017,2.694,6.017,6.017C344.965,383.822,342.271,386.516,338.948,386.516z"/>
			<path style="fill:#70E6D1;" d="M95.36,386.516H55.633c-3.323,0-6.017-2.694-6.017-6.017c0-3.323,2.694-6.017,6.017-6.017H95.36     c3.323,0,6.017,2.694,6.017,6.017C101.377,383.822,98.683,386.516,95.36,386.516z"/>
		</g>
	</g>
</g>















</svg>
