<?xml version="1.0" encoding="iso-8859-1"?>
<!-- Generator: Adobe Illustrator 19.0.0, SVG Export Plug-In . SVG Version: 6.00 Build 0)  -->
<svg xmlns="http://www.w3.org/2000/svg" xmlns:xlink="http://www.w3.org/1999/xlink" version="1.1" id="Layer_1" x="0px" y="0px" viewBox="0 0 484.966 484.966" style="enable-background:new 0 0 484.966 484.966;" xml:space="preserve" width="512" height="512">
<g>
	<rect x="92.654" y="208.225" style="fill:#B2B6B7;" width="284.321" height="248.929"/>
	<g>
		<rect x="69.059" y="235.359" style="fill:#E6E6E6;" width="66.066" height="195.839"/>
		<rect x="69.059" y="235.359" style="fill:#BBB8CC;" width="23.595" height="195.839"/>
		<rect x="209.45" y="235.359" style="fill:#E6E6E6;" width="66.066" height="195.839"/>
		<rect x="209.45" y="235.359" style="fill:#BBB8CC;" width="23.595" height="195.839"/>
		<rect x="349.841" y="235.359" style="fill:#E6E6E6;" width="66.066" height="195.839"/>
		<rect x="349.841" y="235.359" style="fill:#BBB8CC;" width="23.595" height="195.839"/>
	</g>
	<g>
		<rect x="69.059" y="235.359" style="fill:#EDBD51;" width="66.066" height="28.314"/>
		<rect x="209.45" y="235.359" style="fill:#EDBD51;" width="66.066" height="28.314"/>
		<rect x="349.841" y="235.359" style="fill:#EDBD51;" width="66.066" height="28.314"/>
	</g>
	<path style="fill:#BBB8CC;" d="M150.386,253.216c0,9.86-7.99,17.86-17.85,17.86h-60.88c-4.93,0-9.4-2-12.63-5.23   s-5.23-7.7-5.23-12.63c0-9.86,7.99-17.86,17.86-17.86h60.88c4.93,0,9.39,2,12.62,5.23S150.386,248.286,150.386,253.216z"/>
	<path style="fill:#E6E6E6;" d="M150.386,253.216c0,9.86-7.99,17.86-17.85,17.86h-35.47c-4.94,0-9.4-2-12.63-5.23   s-5.23-7.7-5.23-12.63c0-9.86,7.99-17.86,17.86-17.86h35.47c4.93,0,9.39,2,12.62,5.23S150.386,248.286,150.386,253.216z"/>
	<path style="fill:#BBB8CC;" d="M290.78,253.216c0,9.86-7.99,17.86-17.85,17.86h-60.88c-4.93,0-9.4-2-12.63-5.23   s-5.23-7.7-5.23-12.63c0-9.86,7.99-17.86,17.86-17.86h60.88c4.93,0,9.39,2,12.62,5.23S290.78,248.286,290.78,253.216z"/>
	<path style="fill:#E6E6E6;" d="M290.78,253.216c0,9.86-7.99,17.86-17.85,17.86h-35.47c-4.94,0-9.4-2-12.63-5.23   s-5.23-7.7-5.23-12.63c0-9.86,7.99-17.86,17.86-17.86h35.47c4.93,0,9.39,2,12.62,5.23S290.78,248.286,290.78,253.216z"/>
	<path style="fill:#BBB8CC;" d="M431.171,253.216c0,9.86-7.99,17.86-17.85,17.86h-60.88c-4.93,0-9.4-2-12.63-5.23   s-5.23-7.7-5.23-12.63c0-9.86,7.99-17.86,17.86-17.86h60.88c4.93,0,9.39,2,12.62,5.23S431.171,248.286,431.171,253.216z"/>
	<path style="fill:#E6E6E6;" d="M431.171,253.216c0,9.86-7.99,17.86-17.85,17.86h-35.47c-4.94,0-9.4-2-12.63-5.23   s-5.23-7.7-5.23-12.63c0-9.86,7.99-17.86,17.86-17.86h35.47c4.93,0,9.39,2,12.62,5.23S431.171,248.286,431.171,253.216z"/>
	<path style="fill:#E6E6E6;" d="M424.691,235.859H60.275c-14.044,0-25.429-11.385-25.429-25.429v-28.84H450.12v28.84   C450.12,224.474,438.735,235.859,424.691,235.859z"/>
	<rect x="34.846" y="163.894" style="fill:#BBB8CC;" width="415.274" height="40.112"/>
	<path style="fill:#E6E6E6;" d="M255.741,3.506l217.115,123.45c6.423,3.652,10.39,10.472,10.39,17.86v16.443   c0,11.229-9.103,20.332-20.332,20.332H22.053c-11.229,0-20.332-9.103-20.332-20.332v-16.443c0-7.389,3.967-14.208,10.39-17.86   L229.226,3.506C237.446-1.169,247.52-1.169,255.741,3.506z"/>
	<path style="fill:#B2B6B7;" d="M275.616,121.859c0-17.263-11.089-24.113-23.332-28.985V68.577c3.393,0.696,5.786,1.895,7.79,2.913   c1.844,0.937,3.438,1.746,5.161,1.746c5.498,0,7.876-6.689,7.876-10.102c0-3.771-3.057-6.845-8.839-8.89   c-4.135-1.463-8.696-2.109-11.988-2.396v-9.21c0-4.142-3.357-7.5-7.5-7.5s-7.5,3.358-7.5,7.5v9.592   c-8.984,1.575-25.43,7.212-25.43,27.324c0,17.338,13.127,23.092,25.43,27.73v27.099c-5.786-1.164-9.564-4.097-12.66-6.509   c-2.576-2.007-4.611-3.593-6.98-3.593c-4.731,0-8.293,6.212-8.293,10.241c0,7.707,11.812,16.582,27.934,17.662v7.738   c0,4.142,3.357,7.5,7.5,7.5s7.5-3.358,7.5-7.5v-8.747C267.164,147.597,275.616,137.072,275.616,121.859z M252.284,113.9   c3.097,2.132,5.354,5.068,5.354,9.769c0,4.861-2.402,7.663-5.354,9.274V113.9z M237.284,87.111   c-4.762-2.265-7.452-4.844-7.452-9.365c0-4.027,2.623-6.967,7.452-8.487V87.111z"/>
	<path style="fill:#BBB8CC;" d="M472.485,457.836c0,7.49-3.04,14.27-7.95,19.18s-11.69,7.95-19.19,7.95H39.617   c-14.98,0-27.13-12.15-27.13-27.13c0-7.5,3.04-14.28,7.95-19.19c4.91-4.91,11.69-7.95,19.18-7.95h405.728   C460.335,430.696,472.485,442.846,472.485,457.836z"/>
	<path style="fill:#E6E6E6;" d="M472.485,457.836c0,7.49-3.04,14.27-7.95,19.18s-11.69,7.95-19.19,7.95H72.197   c-14.99,0-27.13-12.15-27.13-27.13c0-7.5,3.04-14.28,7.94-19.19c4.91-4.91,11.7-7.95,19.19-7.95h373.148   C460.335,430.696,472.485,442.846,472.485,457.836z"/>
</g>















</svg>
