<?xml version="1.0" encoding="iso-8859-1"?>
<!-- Generator: Adobe Illustrator 19.0.0, SVG Export Plug-In . SVG Version: 6.00 Build 0)  -->
<svg xmlns="http://www.w3.org/2000/svg" xmlns:xlink="http://www.w3.org/1999/xlink" version="1.1" id="Layer_1" x="0px" y="0px" viewBox="0 0 492.345 492.345" style="enable-background:new 0 0 492.345 492.345;" xml:space="preserve" width="512" height="512">
<g>
	<polygon style="fill:#96EFFF;" points="357.092,200.918 357.092,324.99 187.439,324.99 187.439,431.818 2.345,431.818    2.345,488.324 187.439,488.324 206.006,488.324 357.092,488.324 394.057,488.324 492.345,488.324 492.345,200.918  "/>
	<path style="fill:#FC74AF;" d="M247.554,9.842c-1.307-1.5-3.156-2.417-5.141-2.553L194.886,4.04   c-4.131-0.288-7.711,2.838-7.994,6.971c-0.283,4.132,2.838,7.711,6.971,7.994l29.529,2.018L17.417,200.625   c-3.122,2.722-3.446,7.46-0.724,10.582c1.483,1.701,3.564,2.571,5.656,2.571c1.749,0,3.505-0.608,4.926-1.847L233.18,32.391   l-2.009,29.396c-0.283,4.132,2.838,7.711,6.971,7.994c0.174,0.012,0.347,0.018,0.519,0.018c3.909,0,7.205-3.031,7.475-6.989   l3.248-47.527C249.52,13.298,248.862,11.341,247.554,9.842z"/>
	<g>
		<path style="fill:#3E5268;" d="M311.262,200.794l4.82-7.736c1.372-2.202,2.179-4.731,2.189-7.326c0-0.019,0-0.039,0-0.058    c0-3.252-1.017-6.273-2.746-8.759c3.188-2.815,5.202-6.927,5.202-11.515c0-6.617-4.185-12.257-10.051-14.418    c0.319-1.233,0.491-2.525,0.491-3.856c0-8.489-6.882-15.366-15.366-15.366c-1.189,0-2.343,0.138-3.458,0.398    c-0.064-8.43-6.917-15.243-15.361-15.243c-2.559,0-4.976,0.634-7.099,1.739c-1.371-7.079-7.6-12.424-15.081-12.424    c-4.603,0-8.729,2.024-11.544,5.227c-2.815-3.203-6.941-5.227-11.544-5.227c-7.482,0-13.711,5.345-15.081,12.424    c-2.122-1.105-4.539-1.739-7.098-1.739c-8.444,0-15.297,6.814-15.361,15.243c-1.115-0.26-2.27-0.398-3.458-0.398    c-8.484,0-15.366,6.877-15.366,15.366c0,1.331,0.172,2.623,0.491,3.856c-5.865,2.161-10.051,7.801-10.051,14.418    c0,4.588,2.014,8.7,5.202,11.515c-1.729,2.486-2.746,5.507-2.746,8.759c0,0.019,0,0.039,0,0.058    c0.01,2.595,0.817,5.124,2.189,7.326l4.82,7.736"/>
		<path style="fill:#27394C;" d="M243.523,118.654c-2.122-1.105-4.539-1.739-7.098-1.739c-8.445,0-15.297,6.814-15.361,15.243    c-1.115-0.26-2.27-0.398-3.458-0.398c-8.484,0-15.366,6.877-15.366,15.366c0,1.331,0.172,2.623,0.491,3.856    c-5.865,2.161-10.051,7.801-10.051,14.418c0,4.588,2.014,8.7,5.202,11.515c-1.729,2.486-2.746,5.507-2.746,8.759v0.059    c0.01,2.594,0.815,5.124,2.186,7.324l4.824,7.737h-26.891l-4.819-7.737c-1.371-2.201-2.181-4.731-2.191-7.324v-0.059    c0-3.252,1.017-6.273,2.746-8.759c-3.188-2.815-5.202-6.927-5.202-11.515c0-6.617,4.185-12.257,10.051-14.418    c-0.319-1.233-0.491-2.525-0.491-3.856c0-8.489,6.882-15.366,15.366-15.366c1.189,0,2.343,0.138,3.458,0.398    c0.064-8.43,6.917-15.243,15.361-15.243c2.559,0,4.976,0.634,7.098,1.739c1.371-7.079,7.6-12.424,15.081-12.424    c3.925,0,7.506,1.474,10.218,3.9C241.73,113.295,242.211,116.394,243.523,118.654z"/>
		<path style="fill:#C99061;" d="M323.16,219.055c0,10.048-7.739,18.283-17.578,19.07c-0.513,0.043-1.035,0.065-1.557,0.065    c-1.34,0-2.645-0.135-3.906-0.4H184.862c-1.262,0.265-2.567,0.4-3.906,0.4h-0.013c-10.566-0.009-19.122-8.569-19.122-19.135    c0-9.961,7.612-18.144,17.339-19.044c0.592-0.061,1.192-0.087,1.796-0.087c0.805,0,1.592,0.048,2.371,0.144h118.327    c0.779-0.096,1.566-0.144,2.371-0.144c1.135,0,2.249,0.1,3.328,0.291C316.335,201.785,323.16,209.624,323.16,219.055z"/>
		<path style="fill:#A86340;" d="M307.352,200.215v24.238c0,4.707-0.613,9.287-1.77,13.672c-0.513,0.043-1.035,0.065-1.557,0.065    c-1.34,0-2.645-0.135-3.906-0.4H184.862c-1.262,0.265-2.567,0.4-3.906,0.4h-0.013c-1.166-4.407-1.783-9.004-1.783-13.737V200.01    c0.592-0.061,1.192-0.087,1.796-0.087c0.805,0,1.592,0.048,2.371,0.144h118.327c0.779-0.096,1.566-0.144,2.371-0.144    C305.16,199.924,306.273,200.024,307.352,200.215z"/>
		<path style="fill:#A86340;" d="M312.728,223.316c-1.422,0-2.777-0.828-3.381-2.216c-1.539-3.54-6.189-2.408-6.713-2.268    c-1.957,0.555-3.982-0.584-4.538-2.542c-0.556-1.958,0.593-3.998,2.551-4.554c3.899-1.107,12.147-1.189,15.458,6.425    c0.811,1.866-0.044,4.037-1.91,4.848C313.716,223.217,313.218,223.316,312.728,223.316z"/>
		<path style="fill:#A86340;" d="M174.218,223.315c-0.491,0-0.99-0.099-1.468-0.307c-1.866-0.812-2.72-2.983-1.908-4.849    c1.872-4.301,6.739-8.29,14.781-6.589c1.991,0.421,3.263,2.376,2.842,4.367c-0.421,1.991-2.375,3.263-4.367,2.842    c-1.877-0.397-5.218-0.624-6.499,2.32C176.995,222.487,175.64,223.315,174.218,223.315z"/>
		<path style="fill:#A86340;" d="M301.652,192.243v38.97c0,28.458-20.357,52.16-47.307,57.338    c-3.586,0.693-7.295,1.056-11.092,1.056c-32.25,0-58.389-26.144-58.389-58.394v-38.966c2.805,3.021,6.809,4.908,11.254,4.908    c4.274,0,8.14-1.744,10.925-4.564c2.741-2.776,4.436-6.588,4.436-10.798c0-0.879-0.074-1.739-0.216-2.579    c0.064,0.005,0.128,0.005,0.192,0.005c5.251,0,9.884-2.633,12.659-6.656c2.103,1.081,4.48,1.695,7.01,1.695    c4.932,0,9.324-2.329,12.134-5.944c2.81,3.616,7.197,5.944,12.134,5.944c2.525,0,4.908-0.614,7.01-1.695    c2.771,4.023,7.408,6.656,12.659,6.656c0.064,0,0.128,0,0.192-0.005c-0.142,0.84-0.221,1.7-0.221,2.579    c0,8.484,6.882,15.361,15.366,15.361C294.843,197.156,298.852,195.264,301.652,192.243z"/>
		<path style="fill:#C99061;" d="M301.652,192.243v38.97c0,28.458-20.357,52.16-47.307,57.338    c-26.945-5.178-47.302-28.88-47.302-57.338v-38.622c2.741-2.776,4.436-6.588,4.436-10.798c0-0.879-0.074-1.739-0.216-2.579    c0.064,0.005,0.128,0.005,0.192,0.005c5.251,0,9.884-2.633,12.659-6.656c2.103,1.081,4.48,1.695,7.01,1.695    c4.932,0,9.324-2.329,12.134-5.944c2.81,3.616,7.197,5.944,12.134,5.944c2.525,0,4.908-0.614,7.01-1.695    c2.771,4.023,7.408,6.656,12.659,6.656c0.064,0,0.128,0,0.192-0.005c-0.142,0.84-0.221,1.7-0.221,2.579    c0,8.484,6.882,15.361,15.366,15.361C294.843,197.156,298.852,195.264,301.652,192.243z"/>
		<path style="fill:#965D36;" d="M243.257,253.797c-7.057,0-13.691-2.748-18.68-7.738c-1.439-1.439-1.439-3.772,0-5.21    c1.439-1.439,3.772-1.439,5.21,0c3.598,3.598,8.381,5.579,13.47,5.579c5.088,0,9.872-1.981,13.469-5.579    c1.439-1.439,3.772-1.439,5.21,0c1.439,1.439,1.439,3.772,0,5.21C256.947,251.049,250.313,253.797,243.257,253.797z"/>
		<g>
			<g>
				<path style="fill:#172635;" d="M217.817,227.023c-2.035,0-3.684-1.65-3.684-3.684v-14.354c0-2.035,1.65-3.684,3.684-3.684      c2.035,0,3.684,1.65,3.684,3.684v14.354C221.501,225.373,219.852,227.023,217.817,227.023z"/>
				<path style="fill:#172635;" d="M268.697,227.023c-2.035,0-3.684-1.65-3.684-3.684v-14.354c0-2.035,1.65-3.684,3.684-3.684      c2.035,0,3.684,1.65,3.684,3.684v14.354C272.381,225.373,270.732,227.023,268.697,227.023z"/>
			</g>
		</g>
	</g>
	<g>
		<path style="fill:#E06919;" d="M30.405,276.989h102.065c9.698,0,17.559,7.861,17.559,17.559v1.548    c0,9.698-7.861,17.559-17.559,17.559H30.405c-9.698,0-17.559-7.861-17.559-17.559v-1.548    C12.846,284.85,20.708,276.989,30.405,276.989z"/>
		<path style="fill:#FFCBB3;" d="M161.342,332.642c0,10.049-7.739,18.283-17.578,19.07c-0.513,0.043-1.035,0.065-1.557,0.065    c-1.34,0-2.645-0.135-3.906-0.4H23.042c-1.262,0.265-2.567,0.4-3.906,0.4h-0.013C8.557,351.769,0,343.208,0,332.642    c0-9.962,7.613-18.144,17.339-19.044c0.592-0.061,1.192-0.087,1.797-0.087c0.805,0,1.592,0.048,2.371,0.144h118.329    c0.779-0.096,1.566-0.144,2.371-0.144c1.135,0,2.249,0.1,3.328,0.291C154.517,315.373,161.342,323.211,161.342,332.642z"/>
		<path style="fill:#E89876;" d="M145.534,313.802v24.238c0,4.707-0.613,9.287-1.77,13.672c-0.513,0.043-1.035,0.065-1.557,0.065    c-1.34,0-2.645-0.135-3.906-0.4H23.042c-1.262,0.265-2.567,0.4-3.906,0.4h-0.013c-1.166-4.407-1.783-9.004-1.783-13.737v-24.443    c0.592-0.061,1.192-0.087,1.797-0.087c0.805,0,1.592,0.048,2.371,0.144h118.329c0.779-0.096,1.566-0.144,2.371-0.144    C143.342,313.511,144.455,313.611,145.534,313.802z"/>
		<path style="fill:#E89876;" d="M150.909,336.903c-1.422,0-2.777-0.829-3.381-2.216c-1.539-3.54-6.189-2.409-6.713-2.268    c-1.957,0.555-3.982-0.584-4.538-2.542c-0.556-1.958,0.593-3.998,2.551-4.554c3.899-1.106,12.147-1.188,15.458,6.425    c0.811,1.866-0.044,4.037-1.91,4.848C151.898,336.805,151.4,336.903,150.909,336.903z"/>
		<path style="fill:#E89876;" d="M12.399,336.902c-0.491,0-0.99-0.099-1.468-0.307c-1.866-0.812-2.72-2.983-1.908-4.849    c1.872-4.301,6.737-8.29,14.781-6.589c1.991,0.421,3.263,2.377,2.842,4.367c-0.421,1.991-2.376,3.262-4.367,2.842    c-1.877-0.397-5.218-0.624-6.499,2.32C15.175,336.074,13.821,336.902,12.399,336.902z"/>
		<path style="fill:#E89876;" d="M139.835,305.033V344.8c0,28.458-20.358,52.161-47.306,57.342    c-3.589,0.692-7.299,1.053-11.093,1.053c-32.251,0-58.395-26.144-58.395-58.395v-39.768c0-32.251,26.144-58.399,58.395-58.399    c3.793,0,7.504,0.361,11.093,1.053c11.68,2.245,22.12,7.969,30.202,16.051C133.297,274.308,139.835,288.907,139.835,305.033z"/>
		<path style="fill:#FFCBB3;" d="M139.835,305.033V344.8c0,28.458-20.358,52.161-47.306,57.342    c-26.948-5.181-47.306-28.884-47.306-57.342v-39.768c0-28.458,20.358-52.165,47.306-57.346c11.68,2.245,22.12,7.969,30.202,16.051    C133.297,274.308,139.835,288.907,139.835,305.033z"/>
		<path style="fill:#D39262;" d="M81.437,370.655c-9.7,0-18.819-3.777-25.678-10.636c-1.439-1.439-1.439-3.772,0-5.21    c1.439-1.439,3.772-1.439,5.21,0c5.467,5.467,12.736,8.478,20.467,8.478s15-3.011,20.467-8.478c1.439-1.439,3.772-1.439,5.21,0    c1.439,1.439,1.439,3.772,0,5.21C100.257,366.878,91.137,370.655,81.437,370.655z"/>
		<g>
			<g>
				<path style="fill:#172635;" d="M55.998,340.61c-2.035,0-3.684-1.65-3.684-3.684v-14.354c0-2.035,1.65-3.684,3.684-3.684      c2.035,0,3.684,1.65,3.684,3.684v14.354C59.682,338.961,58.032,340.61,55.998,340.61z"/>
				<path style="fill:#172635;" d="M106.879,340.61c-2.035,0-3.684-1.65-3.684-3.684v-14.354c0-2.035,1.65-3.684,3.684-3.684      c2.035,0,3.684,1.65,3.684,3.684v14.354C110.563,338.961,108.913,340.61,106.879,340.61z"/>
			</g>
		</g>
		<path style="fill:#F9A74D;" d="M136.363,219.167l-26.198,26.198c-2.219-5.449-7.561-9.295-13.808-9.295    c-5.126,0-9.646,2.589-12.33,6.528c-6.847-8.435-17.294-13.826-29.006-13.826c-20.633,0-37.36,16.727-37.36,37.36    c0,20.633,16.727,37.36,37.36,37.36c8.62,0,16.551-2.927,22.872-7.83c18.553,10.633,42.622,8.037,58.469-7.81    C155.33,268.886,155.33,238.134,136.363,219.167z"/>
		<path style="fill:#E06919;" d="M40.08,266.133c0,16.726,10.992,30.888,26.146,35.647c-3.53,1.114-7.298,1.712-11.205,1.712    c-20.633,0-37.359-16.726-37.359-37.359c0-20.633,16.726-37.359,37.359-37.359c3.907,0,7.667,0.598,11.205,1.712    C51.072,235.244,40.08,249.407,40.08,266.133z"/>
	</g>
	<g>
		<path style="fill:#FFE563;" d="M453.61,141.576c64.684,0,28.815-33.834,28.815-76.189S448.779,5.612,407.639,5.612    s-74.786,17.421-74.786,59.775s-35.87,76.189,28.815,76.189H453.61z"/>
		<path style="fill:#FFA829;" d="M369.754,65.389c0,42.353-18.17,76.189,14.595,76.189h-22.681    c-64.686,0-28.816-33.836-28.816-76.189c0-42.357,33.648-59.776,74.788-59.776C386.796,5.613,369.754,23.032,369.754,65.389z"/>
		<path style="fill:#FFCBB3;" d="M459.854,76.918v34.561c0,25.443-18.205,46.635-42.296,51.264    c-2.758,0.531-5.591,0.848-8.486,0.927h-0.07c-0.452,0.013-0.905,0.018-1.362,0.018c-28.838,0-52.209-23.375-52.209-52.209V76.918    c22.935-1.897,44.874-13.018,52.209-37.86C414.971,63.9,436.914,75.021,459.854,76.918z"/>
		<path style="fill:#E89876;" d="M417.079,162.831c-2.609,0.479-5.279,0.764-8.007,0.839h-0.07    c-0.452,0.013-0.905,0.018-1.362,0.018c-28.838,0-52.209-23.375-52.209-52.209V76.918c6.478-0.536,12.873-1.809,18.886-3.918    v38.479C374.318,137.089,392.752,158.391,417.079,162.831z"/>
		<path style="fill:#FC74AF;" d="M407.64,133.682c-6.721,0-13.443-2.558-18.56-7.675c-1.287-1.286-1.287-3.372,0-4.658    c1.286-1.286,3.372-1.286,4.658,0c7.665,7.665,20.137,7.665,27.803,0c1.286-1.286,3.372-1.286,4.658,0    c1.287,1.286,1.287,3.372,0,4.658C421.083,131.123,414.362,133.682,407.64,133.682z"/>
		<g>
			<path style="fill:#27394C;" d="M384.897,107.265c-1.819,0-3.294-1.475-3.294-3.294V91.137c0-1.819,1.475-3.294,3.294-3.294     c1.819,0,3.294,1.475,3.294,3.294v12.834C388.191,105.79,386.717,107.265,384.897,107.265z"/>
			<path style="fill:#27394C;" d="M430.388,107.265c-1.819,0-3.294-1.475-3.294-3.294V91.137c0-1.819,1.475-3.294,3.294-3.294     c1.819,0,3.294,1.475,3.294,3.294v12.834C433.682,105.79,432.208,107.265,430.388,107.265z"/>
		</g>
	</g>
</g>















</svg>
