<?xml version="1.0" encoding="iso-8859-1"?>
<!-- Generator: Adobe Illustrator 19.0.0, SVG Export Plug-In . SVG Version: 6.00 Build 0)  -->
<svg xmlns="http://www.w3.org/2000/svg" xmlns:xlink="http://www.w3.org/1999/xlink" version="1.1" id="Layer_1" x="0px" y="0px" viewBox="0 0 490 490" style="enable-background:new 0 0 490 490;" xml:space="preserve" width="512" height="512">
<g>
	<path style="fill:#E6E6E6;" d="M49.525,115.05v342.8c0,17.76,14.39,32.15,32.15,32.15h326.65c17.75,0,32.15-14.39,32.15-32.15   V32.15c0-17.76-14.4-32.15-32.15-32.15l-243.75,0L49.525,115.05z"/>
	<g>
		<path style="fill:#27394C;" d="M385.636,156.359H104.364c-4.142,0-7.5-3.358-7.5-7.5s3.358-7.5,7.5-7.5h281.273    c4.143,0,7.5,3.358,7.5,7.5S389.779,156.359,385.636,156.359z"/>
		<path style="fill:#27394C;" d="M385.636,198.386H104.364c-4.142,0-7.5-3.358-7.5-7.5s3.358-7.5,7.5-7.5h281.273    c4.143,0,7.5,3.358,7.5,7.5S389.779,198.386,385.636,198.386z"/>
		<path style="fill:#27394C;" d="M385.636,240.413H104.364c-4.142,0-7.5-3.358-7.5-7.5s3.358-7.5,7.5-7.5h281.273    c4.143,0,7.5,3.358,7.5,7.5S389.779,240.413,385.636,240.413z"/>
		<path style="fill:#27394C;" d="M385.636,282.44H104.364c-4.142,0-7.5-3.358-7.5-7.5s3.358-7.5,7.5-7.5h281.273    c4.143,0,7.5,3.358,7.5,7.5S389.779,282.44,385.636,282.44z"/>
		<path style="fill:#27394C;" d="M385.636,324.467H104.364c-4.142,0-7.5-3.358-7.5-7.5s3.358-7.5,7.5-7.5h281.273    c4.143,0,7.5,3.358,7.5,7.5S389.779,324.467,385.636,324.467z"/>
	</g>
	<path style="fill:#BBB8CC;" d="M49.525,115.05h79.66c19.54,0,35.39-15.84,35.39-35.39V0L49.525,115.05z"/>
	<path style="fill:#FFE563;" d="M204.423,405.659l-18.46,18.46c-1.47,1.46-3.39,2.19-5.31,2.19s-3.84-0.73-5.3-2.19   c-2.93-2.93-2.93-7.68,0-10.61l18.46-18.46c2.93-2.93,7.68-2.93,10.61,0C207.353,397.979,207.353,402.729,204.423,405.659z"/>
	<path style="fill:#4CBFD4;" d="M188.613,421.469l-2.65,2.65c-1.47,1.46-3.39,2.19-5.31,2.19s-3.84-0.73-5.3-2.19   c-2.93-2.93-2.93-7.68,0-10.61l2.65-2.65c2.93-2.93,7.68-2.93,10.61,0C191.543,413.789,191.543,418.539,188.613,421.469z"/>
	
		<ellipse transform="matrix(0.7071 0.7071 -0.7071 0.7071 298.8553 -126.279)" style="fill:#96EFFF;" cx="301.86" cy="297.611" rx="60.617" ry="145.301"/>
	<path style="fill:#4CBFD4;" d="M199.116,400.352c-23.671-23.671,3.139-88.861,59.882-145.605s121.934-83.553,145.605-59.882   c-8.477-8.477-61.351,30.649-118.094,87.393S190.639,391.876,199.116,400.352z"/>
	<path style="fill:#FFE563;" d="M319.864,418.842c-4.143,0-7.5-3.358-7.5-7.5c0-42.216,39.659-73.819,72.93-92.897   c5.99-3.435,9.946-9.314,10.854-16.132c0.899-6.755-1.351-13.396-6.174-18.22l-73.205-73.204c-2.929-2.929-2.929-7.678,0-10.606   c2.93-2.929,7.678-2.929,10.607,0l73.204,73.204c8.153,8.153,11.958,19.382,10.437,30.806   c-1.529,11.486-8.186,21.387-18.262,27.165c-54.046,30.991-65.391,60.547-65.391,79.884   C327.364,415.484,324.006,418.842,319.864,418.842z"/>
	<path style="fill:#FFE563;" d="M339.442,384.262c-14.932,0-27.079,12.148-27.079,27.08s12.147,27.08,27.079,27.08   s27.08-12.148,27.08-27.08S354.374,384.262,339.442,384.262z"/>
	<path style="fill:#4CBFD4;" d="M104.078,449.478c-1.227,0-2.472-0.109-3.733-0.33c-11.749-2.06-20.953-13.555-20.953-26.17   c0-4.142,3.358-7.5,7.5-7.5s7.5,3.358,7.5,7.5c0,5.665,4.51,10.689,8.542,11.396c6.388,1.117,10.58-8.469,12.09-12.643   c5.204-14.387,15.575-21.701,27.742-19.569c15.57,2.729,28.724,20.215,28.724,38.183c0,4.142-3.358,7.5-7.5,7.5s-7.5-3.358-7.5-7.5   c0-11.572-8.77-22.085-16.314-23.408c-4.664-0.816-8.376,2.513-11.047,9.896C123.906,441.277,114.715,449.477,104.078,449.478z"/>
</g>















</svg>
