<?xml version="1.0" encoding="iso-8859-1"?>
<!-- Generator: Adobe Illustrator 19.0.0, SVG Export Plug-In . SVG Version: 6.00 Build 0)  -->
<svg xmlns="http://www.w3.org/2000/svg" xmlns:xlink="http://www.w3.org/1999/xlink" version="1.1" id="Layer_1" x="0px" y="0px" viewBox="0 0 489.998 489.998" style="enable-background:new 0 0 489.998 489.998;" xml:space="preserve" width="512" height="512">
<g>
	<path style="fill:#FFA829;" d="M312.588,439.605v50.394H74.841v-50.394c0-65.651,53.218-118.878,118.869-118.878   c9.289,0,18.33,1.071,27.008,3.082c21.987,5.109,41.627,16.32,57.053,31.736C299.279,377.062,312.588,406.779,312.588,439.605z"/>
	<path style="fill:#FFE563;" d="M312.588,439.605v50.394H128.856v-50.394c0-56.362,39.227-103.568,91.861-115.796   c21.987,5.109,41.627,16.32,57.053,31.736C299.279,377.062,312.588,406.779,312.588,439.605z"/>
	<path style="fill:#3E5268;" d="M298.38,310.676c147.275,0,65.606-77.034,65.606-173.468S287.381,1.109,193.71,1.109   S23.434,40.773,23.434,137.207s-81.669,173.468,65.606,173.468H298.38z"/>
	<path style="fill:#27394C;" d="M107.454,137.21c0,96.43-41.37,173.47,33.23,173.47h-51.64c-147.28,0-65.61-77.04-65.61-173.47   c0-96.44,76.61-136.1,170.28-136.1C146.254,1.11,107.454,40.77,107.454,137.21z"/>
	<path style="fill:#A86340;" d="M125.343,342.33c1.95,36.08,31.81,64.73,68.37,64.73c4.45,0,8.8-0.43,13.01-1.24   c30.41-5.84,53.66-31.8,55.36-63.49"/>
	<path style="fill:#C99061;" d="M312.595,163.46v78.69c0,57.93-41.45,106.18-96.3,116.72c-6.28,1.21-12.73,1.93-19.32,2.11h-0.16   c-1.03,0.03-2.06,0.04-3.1,0.04c-65.66,0-118.87-53.22-118.87-118.87v-78.69c52.22-4.32,102.17-29.64,118.87-86.2   C210.405,133.82,260.365,159.14,312.595,163.46z"/>
	<path style="fill:#A86340;" d="M215.205,359.07c-5.94,1.09-12.02,1.74-18.23,1.91h-0.16c-1.03,0.03-2.06,0.04-3.1,0.04   c-65.66,0-118.87-53.22-118.87-118.87v-78.69c14.75-1.22,29.31-4.12,43-8.92v87.61C117.845,300.46,159.815,348.96,215.205,359.07z"/>
	<g>
		<path style="fill:#27394C;" d="M141.932,232.555c-4.143,0-7.5-3.358-7.5-7.5v-29.22c0-4.142,3.357-7.5,7.5-7.5s7.5,3.358,7.5,7.5    v29.22C149.432,229.197,146.075,232.555,141.932,232.555z"/>
		<path style="fill:#27394C;" d="M245.507,232.555c-4.143,0-7.5-3.358-7.5-7.5v-29.22c0-4.142,3.357-7.5,7.5-7.5s7.5,3.358,7.5,7.5    v29.22C253.007,229.197,249.65,232.555,245.507,232.555z"/>
	</g>
	<path style="fill:#FC74AF;" d="M222.182,282.218c0,15.72-12.74,28.46-28.46,28.46s-28.46-12.74-28.46-28.46   c0-4.97,1.27-8.68,3.52-11.42c4.84-5.91,14.19-7.33,24.94-7.33s20.1,1.42,24.94,7.33   C220.912,273.538,222.182,277.248,222.182,282.218z"/>
	<path style="fill:#FFFFFF;" d="M218.662,270.798c-4.85,5.91-14.2,7.32-24.94,7.32s-20.09-1.41-24.94-7.32   c4.84-5.91,14.19-7.33,24.94-7.33S213.822,264.889,218.662,270.798z"/>
	<path style="fill:#A86340;" d="M374.365,392.448v32.261h-26.72v-32.261c0-7.38,5.98-13.36,13.36-13.36c2.06,0,4.02,0.47,5.76,1.3   C371.254,382.538,374.365,387.128,374.365,392.448z"/>
	<path style="fill:#C99061;" d="M374.365,392.448v17.26h-15.2v-17.26c0-5.32,3.1-9.91,7.6-12.06   C371.254,382.538,374.365,387.128,374.365,392.448z"/>
	<g>
		<polygon style="fill:#FFA829;" points="392.446,453.548 356.54,489.694 266.96,489.694 347.644,409.708 374.528,435.63   "/>
		<path style="fill:#C99061;" d="M347.644,409.715l21.98,21.5l22.82,22.33l30.27-6.45c4.36-0.93,8.1-3.32,10.75-6.6    c0.29-0.36,0.58-0.74,0.84-1.13c2.13-3.07,3.36-6.8,3.36-10.76c0-10.43-8.46-18.89-18.9-18.89H347.644z"/>
		<path style="fill:#A86340;" d="M369.624,431.215l22.82,22.33l30.27-6.45c4.36-0.93,8.1-3.32,10.75-6.6    c0.29-0.36,0.58-0.74,0.84-1.13c-3.4-4.93-9.09-8.15-15.54-8.15H369.624z"/>
		<polygon style="fill:#FFE563;" points="392.446,453.548 356.54,489.694 320.704,489.694 374.528,435.63   "/>
	</g>
	<g>
		<path style="fill:#70E6D1;" d="M489.147,26.231v139.552c0,14.487-11.744,26.231-26.231,26.231H334.632l-41.51,42.324    c-6.17,6.291-16.863,1.922-16.863-6.889v-35.434V26.231C276.259,11.744,288.003,0,302.49,0l160.427,0    C477.404,0,489.147,11.744,489.147,26.231z"/>
	</g>
	<path style="fill:#FFFFFF;" d="M415.837,115.892c0-17.263-11.089-24.113-23.333-28.986V62.609c3.394,0.696,5.787,1.895,7.791,2.913   c1.845,0.937,3.438,1.746,5.161,1.746c5.498,0,7.876-6.689,7.876-10.102c0-3.77-3.057-6.844-8.84-8.89   c-4.135-1.463-8.696-2.109-11.988-2.396v-9.21c0-4.142-3.357-7.5-7.5-7.5s-7.5,3.358-7.5,7.5v9.592   c-8.985,1.576-25.429,7.212-25.429,27.325c0,17.338,13.127,23.091,25.429,27.729v27.1c-5.784-1.164-9.563-4.097-12.658-6.508   c-2.577-2.007-4.613-3.593-6.982-3.593c-4.731,0-8.293,6.212-8.293,10.241c0,7.707,11.812,16.582,27.934,17.661v7.739   c0,4.142,3.357,7.5,7.5,7.5s7.5-3.358,7.5-7.5v-8.747C407.384,141.629,415.837,131.104,415.837,115.892z M392.504,107.933   c3.098,2.132,5.355,5.068,5.355,9.768c0,4.862-2.402,7.664-5.355,9.275V107.933z M377.504,81.142   c-4.761-2.265-7.451-4.844-7.451-9.365c0-4.027,2.622-6.967,7.451-8.486V81.142z"/>
</g>















</svg>
