<?xml version="1.0" encoding="iso-8859-1"?>
<!-- Generator: Adobe Illustrator 19.0.0, SVG Export Plug-In . SVG Version: 6.00 Build 0)  -->
<svg xmlns="http://www.w3.org/2000/svg" xmlns:xlink="http://www.w3.org/1999/xlink" version="1.1" id="Layer_1" x="0px" y="0px" viewBox="0 0 492.5 492.5" style="enable-background:new 0 0 492.5 492.5;" xml:space="preserve" width="512" height="512">
<g>
	<path style="fill:#DD3352;" d="M61.032,282.385c-9.632,0-17.237-2.744-22.605-8.156c-9.678-9.756-9.554-25.204-9.444-38.833   c0.137-16.987-1.099-19.964-3.919-20.212c-0.834-0.076-1.535,0.052-2.468,0.904c-5.185,4.732-7.563,21.116-7.596,31.238   c-0.014,4.133-3.368,7.479-7.5,7.479c-0.006,0-0.012,0-0.019,0c-4.14-0.01-7.488-3.37-7.481-7.51   c0.009-5.164,0.651-31.47,12.472-42.275c3.918-3.583,8.722-5.234,13.908-4.778c4.706,0.415,13.059,2.851,16.133,14.51   c1.588,6.023,1.53,13.184,1.469,20.766c-0.086,10.7-0.183,22.828,5.095,28.148c2.482,2.503,6.394,3.72,11.956,3.72   c4.143,0,7.5,3.358,7.5,7.5S65.175,282.385,61.032,282.385z"/>
	<path style="fill:#FFE563;" d="M298.793,68.11c0,0.28,0,0.56-0.01,0.84c-0.09,7.52-1.43,14.74-3.82,21.45l-121.52,8.88   c-3.2-6.01-5.5-12.57-6.71-19.51c-0.68-3.79-1.03-7.68-1.03-11.66c0-36.76,29.79-66.55,66.54-66.55S298.793,31.35,298.793,68.11z"/>
	<path style="fill:#FFA829;" d="M298.783,68.95c-0.09,7.52-1.43,14.74-3.82,21.45l-121.52,8.88c-3.2-6.01-5.5-12.57-6.71-19.51   c24.54-11.41,51.91-17.78,80.77-17.78C265.263,61.99,282.463,64.41,298.783,68.95z"/>
	<path style="fill:#FC74AF;" d="M425.875,206.221c-8.25-21.091-20.134-40.361-34.879-57.041h0l8.655-56.245   c1.942-12.623-11.128-22.208-22.584-16.561l-50.758,25.022c-24.034-10.87-50.711-16.925-78.804-16.926   C142.054,84.467,56.6,169.437,56.032,274.886c-0.288,53.413,21.299,101.783,56.32,136.681v56.224   c0,12.784,10.363,23.147,23.147,23.147h54.049c12.784,0,23.147-10.363,23.147-23.147v-3.545   c11.287,2.073,22.917,3.165,34.804,3.165c10.331,0,20.468-0.829,30.355-2.404v2.784c0,12.784,10.363,23.147,23.147,23.147h54.049   c12.784,0,23.147-10.363,23.147-23.147v-51.944c20.73-19.374,37.143-43.304,47.664-70.188h47.253   c10.705,0,19.384-8.678,19.384-19.384V225.605c0-10.705-8.678-19.384-19.384-19.384H425.875z"/>
	<path style="fill:#FFA8CA;" d="M492.5,225.605v100.68c0,10.7-8.68,19.38-19.39,19.38h-19c10.71,0,19.39-8.68,19.39-19.38v-100.68   c0-10.7-8.68-19.38-19.39-19.38h19C483.82,206.225,492.5,214.905,492.5,225.605z"/>
	<path style="fill:#DD3352;" d="M321.983,490.938h-20.98c-12.78,0-23.14-10.37-23.14-23.15v-1.72c7.09-1.81,14.09-4.97,20.97-6.06   v7.78C298.833,480.568,309.203,490.938,321.983,490.938z"/>
	<path style="fill:#DD3352;" d="M247.502,84.47c5.67,0,11.29,0.25,16.84,0.74c-97.51,8.53-173.99,89.94-174.52,189.68   c-0.29,53.41,21.3,101.78,56.32,136.68v56.22c0,12.78,10.36,23.15,23.14,23.15h-33.79c-12.78,0-23.14-10.37-23.14-23.15v-56.22   c-35.02-34.9-56.61-83.27-56.32-136.68C56.592,169.44,142.052,84.47,247.502,84.47z"/>
	<path style="fill:#FFA8CA;" d="M418.597,302.187c0,29.15-23.63,52.77-52.77,52.77c17.36,0,31.43-23.62,31.43-52.77   c0-29.15-14.07-52.78-31.43-52.78C394.967,249.407,418.597,273.037,418.597,302.187z"/>
	<path style="fill:#27394C;" d="M391.896,227.653c-4.143,0-7.5-3.358-7.5-7.5v-13.031c0-4.142,3.357-7.5,7.5-7.5s7.5,3.358,7.5,7.5   v13.031C399.396,224.295,396.039,227.653,391.896,227.653z"/>
</g>















</svg>
