<?xml version="1.0" encoding="iso-8859-1"?>
<!-- Generator: Adobe Illustrator 19.0.0, SVG Export Plug-In . SVG Version: 6.00 Build 0)  -->
<svg xmlns="http://www.w3.org/2000/svg" xmlns:xlink="http://www.w3.org/1999/xlink" version="1.1" id="Layer_1" x="0px" y="0px" viewBox="0 0 489.697 489.697" style="enable-background:new 0 0 489.697 489.697;" xml:space="preserve" width="512" height="512">
<g>
	<path style="fill:#70E6D1;" d="M329.936,332l-70.842-40.901v-81.802c0-4.142-3.358-7.5-7.5-7.5s-7.5,3.358-7.5,7.5v81.802   L173.252,332c-3.587,2.071-4.816,6.658-2.745,10.245c1.389,2.406,3.91,3.751,6.502,3.751c1.272,0,2.562-0.324,3.743-1.006   l70.842-40.901l70.842,40.901c1.181,0.682,2.471,1.006,3.743,1.006c2.592,0,5.113-1.346,6.502-3.751   C334.753,338.657,333.524,334.07,329.936,332z"/>
	<g>
		<path style="fill:#3E5268;" d="M319.603,95.482l4.82-7.736c1.372-2.202,2.179-4.731,2.189-7.326c0-0.019,0-0.039,0-0.058    c0-3.252-1.017-6.273-2.746-8.759c3.188-2.815,5.202-6.927,5.202-11.515c0-6.617-4.185-12.257-10.051-14.418    c0.319-1.233,0.491-2.525,0.491-3.856c0-8.489-6.882-15.366-15.366-15.366c-1.189,0-2.343,0.138-3.458,0.398    c-0.064-8.43-6.917-15.243-15.361-15.243c-2.559,0-4.976,0.634-7.099,1.739c-1.371-7.079-7.6-12.424-15.081-12.424    c-4.603,0-8.729,2.024-11.544,5.227c-2.815-3.203-6.941-5.227-11.544-5.227c-7.482,0-13.711,5.345-15.081,12.424    c-2.122-1.105-4.539-1.739-7.098-1.739c-8.444,0-15.297,6.814-15.361,15.243c-1.115-0.26-2.27-0.398-3.458-0.398    c-8.484,0-15.366,6.877-15.366,15.366c0,1.331,0.172,2.623,0.491,3.856c-5.865,2.161-10.051,7.801-10.051,14.418    c0,4.588,2.014,8.7,5.202,11.515c-1.729,2.486-2.746,5.507-2.746,8.759c0,0.019,0,0.039,0,0.058    c0.01,2.595,0.817,5.124,2.189,7.326l4.82,7.736"/>
		<path style="fill:#27394C;" d="M251.864,13.341c-2.122-1.105-4.539-1.739-7.098-1.739c-8.445,0-15.297,6.814-15.361,15.243    c-1.115-0.26-2.27-0.398-3.458-0.398c-8.484,0-15.366,6.877-15.366,15.366c0,1.331,0.172,2.623,0.491,3.856    c-5.865,2.161-10.051,7.801-10.051,14.418c0,4.588,2.014,8.7,5.202,11.515c-1.729,2.486-2.746,5.507-2.746,8.759v0.059    c0.01,2.594,0.815,5.124,2.186,7.324l4.824,7.737h-26.891l-4.819-7.737c-1.371-2.201-2.181-4.731-2.191-7.324v-0.059    c0-3.252,1.017-6.273,2.746-8.759c-3.188-2.815-5.202-6.927-5.202-11.515c0-6.617,4.185-12.257,10.051-14.418    c-0.319-1.233-0.491-2.525-0.491-3.856c0-8.489,6.882-15.366,15.366-15.366c1.189,0,2.343,0.138,3.458,0.398    c0.064-8.43,6.917-15.243,15.361-15.243c2.559,0,4.976,0.634,7.098,1.739c1.371-7.079,7.6-12.424,15.081-12.424    c3.925,0,7.506,1.474,10.218,3.9C250.071,7.982,250.553,11.082,251.864,13.341z"/>
		<path style="fill:#C99061;" d="M331.501,113.742c0,10.048-7.739,18.283-17.578,19.07c-0.513,0.043-1.035,0.065-1.557,0.065    c-1.34,0-2.645-0.135-3.906-0.4H193.203c-1.262,0.265-2.567,0.4-3.906,0.4h-0.013c-10.566-0.009-19.122-8.569-19.122-19.135    c0-9.961,7.612-18.144,17.339-19.044c0.592-0.061,1.192-0.087,1.796-0.087c0.805,0,1.592,0.048,2.371,0.144h118.327    c0.779-0.096,1.566-0.144,2.371-0.144c1.135,0,2.249,0.1,3.328,0.291C324.676,96.473,331.501,104.311,331.501,113.742z"/>
		<path style="fill:#A86340;" d="M315.693,94.902v24.238c0,4.707-0.613,9.287-1.77,13.672c-0.513,0.043-1.035,0.065-1.557,0.065    c-1.34,0-2.645-0.135-3.906-0.4H193.203c-1.262,0.265-2.567,0.4-3.906,0.4h-0.013c-1.166-4.407-1.783-9.004-1.783-13.737V94.698    c0.592-0.061,1.192-0.087,1.796-0.087c0.805,0,1.592,0.048,2.371,0.144h118.327c0.779-0.096,1.566-0.144,2.371-0.144    C313.501,94.611,314.615,94.711,315.693,94.902z"/>
		<path style="fill:#A86340;" d="M321.069,118.003c-1.422,0-2.777-0.828-3.381-2.216c-1.539-3.54-6.189-2.408-6.713-2.268    c-1.957,0.555-3.982-0.584-4.538-2.542c-0.556-1.958,0.593-3.998,2.551-4.554c3.899-1.107,12.147-1.189,15.458,6.425    c0.811,1.866-0.044,4.037-1.91,4.848C322.058,117.904,321.559,118.003,321.069,118.003z"/>
		<path style="fill:#A86340;" d="M182.56,118.002c-0.491,0-0.99-0.099-1.468-0.307c-1.866-0.812-2.72-2.983-1.908-4.849    c1.872-4.301,6.739-8.29,14.781-6.589c1.991,0.421,3.263,2.376,2.842,4.367c-0.421,1.991-2.375,3.263-4.367,2.842    c-1.877-0.397-5.218-0.624-6.499,2.32C185.336,117.174,183.982,118.002,182.56,118.002z"/>
		<path style="fill:#A86340;" d="M309.993,86.931v38.97c0,28.458-20.357,52.16-47.307,57.338c-3.586,0.693-7.295,1.056-11.092,1.056    c-32.25,0-58.389-26.144-58.389-58.394V86.936c2.805,3.021,6.809,4.908,11.254,4.908c4.274,0,8.14-1.744,10.925-4.564    c2.741-2.776,4.436-6.588,4.436-10.798c0-0.879-0.074-1.739-0.216-2.579c0.064,0.005,0.128,0.005,0.192,0.005    c5.251,0,9.884-2.633,12.659-6.656c2.103,1.081,4.48,1.695,7.01,1.695c4.932,0,9.324-2.328,12.134-5.944    c2.81,3.616,7.197,5.944,12.134,5.944c2.525,0,4.908-0.614,7.01-1.695c2.771,4.023,7.408,6.656,12.659,6.656    c0.064,0,0.128,0,0.192-0.005c-0.142,0.84-0.221,1.7-0.221,2.579c0,8.484,6.882,15.361,15.366,15.361    C303.185,91.843,307.193,89.952,309.993,86.931z"/>
		<path style="fill:#C99061;" d="M309.993,86.931v38.97c0,28.458-20.357,52.16-47.307,57.338    c-26.945-5.178-47.302-28.88-47.302-57.338V87.279c2.741-2.776,4.436-6.588,4.436-10.798c0-0.879-0.074-1.739-0.216-2.579    c0.064,0.005,0.128,0.005,0.192,0.005c5.251,0,9.884-2.633,12.659-6.656c2.103,1.081,4.48,1.695,7.01,1.695    c4.932,0,9.324-2.328,12.134-5.944c2.81,3.616,7.197,5.944,12.134,5.944c2.525,0,4.908-0.614,7.01-1.695    c2.771,4.023,7.408,6.656,12.659,6.656c0.064,0,0.128,0,0.192-0.005c-0.142,0.84-0.221,1.7-0.221,2.579    c0,8.484,6.882,15.361,15.366,15.361C303.185,91.843,307.193,89.952,309.993,86.931z"/>
		<path style="fill:#965D36;" d="M251.598,148.484c-7.057,0-13.691-2.748-18.68-7.738c-1.439-1.439-1.439-3.772,0-5.21    c1.439-1.439,3.772-1.439,5.21,0c3.598,3.598,8.381,5.579,13.47,5.579c5.088,0,9.872-1.981,13.469-5.579    c1.439-1.439,3.772-1.439,5.21,0c1.439,1.439,1.439,3.772,0,5.21C265.288,145.737,258.654,148.484,251.598,148.484z"/>
		<g>
			<g>
				<path style="fill:#172635;" d="M226.158,121.71c-2.035,0-3.684-1.65-3.684-3.684v-14.354c0-2.035,1.65-3.684,3.684-3.684      c2.035,0,3.684,1.65,3.684,3.684v14.354C229.843,120.061,228.193,121.71,226.158,121.71z"/>
				<path style="fill:#172635;" d="M277.038,121.71c-2.035,0-3.684-1.65-3.684-3.684v-14.354c0-2.035,1.65-3.684,3.684-3.684      c2.035,0,3.684,1.65,3.684,3.684v14.354C280.723,120.061,279.073,121.71,277.038,121.71z"/>
			</g>
		</g>
	</g>
	<g>
		<path style="fill:#E06919;" d="M30.405,362.242h102.065c9.698,0,17.559,7.861,17.559,17.559v1.548    c0,9.698-7.861,17.559-17.559,17.559H30.405c-9.698,0-17.559-7.861-17.559-17.559v-1.548    C12.846,370.103,20.708,362.242,30.405,362.242z"/>
		<path style="fill:#FFCBB3;" d="M161.342,417.895c0,10.048-7.739,18.283-17.578,19.07c-0.513,0.043-1.035,0.065-1.557,0.065    c-1.34,0-2.645-0.135-3.906-0.4H23.042c-1.262,0.265-2.567,0.4-3.906,0.4h-0.013C8.557,437.022,0,428.461,0,417.895    c0-9.962,7.613-18.144,17.339-19.044c0.592-0.061,1.192-0.087,1.797-0.087c0.805,0,1.592,0.048,2.371,0.144h118.329    c0.779-0.096,1.566-0.144,2.371-0.144c1.135,0,2.249,0.1,3.328,0.291C154.517,400.626,161.342,408.464,161.342,417.895z"/>
		<path style="fill:#E89876;" d="M145.534,399.055v24.238c0,4.707-0.613,9.287-1.77,13.672c-0.513,0.043-1.035,0.065-1.557,0.065    c-1.34,0-2.645-0.135-3.906-0.4H23.042c-1.262,0.265-2.567,0.4-3.906,0.4h-0.013c-1.166-4.407-1.783-9.005-1.783-13.737v-24.443    c0.592-0.061,1.192-0.087,1.797-0.087c0.805,0,1.592,0.048,2.371,0.144h118.329c0.779-0.096,1.566-0.144,2.371-0.144    C143.342,398.764,144.455,398.864,145.534,399.055z"/>
		<path style="fill:#E89876;" d="M150.909,422.156c-1.422,0-2.777-0.829-3.381-2.216c-1.539-3.54-6.189-2.409-6.713-2.268    c-1.957,0.555-3.982-0.584-4.538-2.542c-0.556-1.958,0.593-3.998,2.551-4.554c3.899-1.106,12.147-1.188,15.458,6.425    c0.811,1.866-0.044,4.037-1.91,4.848C151.898,422.058,151.4,422.156,150.909,422.156z"/>
		<path style="fill:#E89876;" d="M12.399,422.155c-0.491,0-0.99-0.099-1.468-0.307c-1.866-0.812-2.72-2.983-1.908-4.849    c1.872-4.301,6.737-8.289,14.781-6.589c1.991,0.421,3.263,2.377,2.842,4.367c-0.421,1.991-2.376,3.262-4.367,2.842    c-1.877-0.397-5.218-0.624-6.499,2.32C15.175,421.327,13.821,422.155,12.399,422.155z"/>
		<path style="fill:#E89876;" d="M139.835,390.286v39.768c0,28.458-20.358,52.161-47.306,57.342    c-3.589,0.692-7.299,1.053-11.093,1.053c-32.251,0-58.395-26.144-58.395-58.395v-39.768c0-32.251,26.144-58.399,58.395-58.399    c3.793,0,7.504,0.361,11.093,1.053c11.68,2.245,22.12,7.969,30.202,16.052C133.297,359.561,139.835,374.16,139.835,390.286z"/>
		<path style="fill:#FFCBB3;" d="M139.835,390.286v39.768c0,28.458-20.358,52.161-47.306,57.342    c-26.948-5.181-47.306-28.884-47.306-57.342v-39.768c0-28.458,20.358-52.165,47.306-57.346c11.68,2.245,22.12,7.969,30.202,16.052    C133.297,359.561,139.835,374.16,139.835,390.286z"/>
		<path style="fill:#D39262;" d="M81.437,455.908c-9.7,0-18.819-3.777-25.678-10.636c-1.439-1.439-1.439-3.772,0-5.21    c1.439-1.439,3.772-1.439,5.21,0c5.467,5.467,12.736,8.478,20.467,8.478s15-3.011,20.467-8.478c1.439-1.439,3.772-1.439,5.21,0    c1.439,1.439,1.439,3.772,0,5.21C100.257,452.131,91.137,455.908,81.437,455.908z"/>
		<g>
			<g>
				<path style="fill:#172635;" d="M55.998,425.863c-2.035,0-3.684-1.65-3.684-3.684v-14.354c0-2.035,1.65-3.684,3.684-3.684      c2.035,0,3.684,1.65,3.684,3.684v14.354C59.682,424.214,58.032,425.863,55.998,425.863z"/>
				<path style="fill:#172635;" d="M106.879,425.863c-2.035,0-3.684-1.65-3.684-3.684v-14.354c0-2.035,1.65-3.684,3.684-3.684      c2.035,0,3.684,1.65,3.684,3.684v14.354C110.563,424.214,108.913,425.863,106.879,425.863z"/>
			</g>
		</g>
		<path style="fill:#F9A74D;" d="M136.363,304.42l-26.198,26.198c-2.219-5.449-7.561-9.295-13.808-9.295    c-5.126,0-9.646,2.589-12.33,6.528c-6.847-8.435-17.294-13.826-29.006-13.826c-20.633,0-37.36,16.727-37.36,37.36    c0,20.633,16.727,37.36,37.36,37.36c8.62,0,16.551-2.927,22.872-7.83c18.553,10.633,42.622,8.037,58.469-7.81    C155.33,354.139,155.33,323.387,136.363,304.42z"/>
		<path style="fill:#E06919;" d="M40.08,351.386c0,16.726,10.992,30.888,26.146,35.647c-3.53,1.114-7.298,1.712-11.205,1.712    c-20.633,0-37.359-16.726-37.359-37.359s16.726-37.359,37.359-37.359c3.907,0,7.667,0.598,11.205,1.712    C51.072,320.497,40.08,334.66,40.08,351.386z"/>
	</g>
	<g>
		<path style="fill:#FFE563;" d="M450.964,466.668c64.684,0,28.815-33.834,28.815-76.189s-33.646-59.775-74.786-59.775    s-74.786,17.421-74.786,59.775s-35.87,76.189,28.815,76.189H450.964z"/>
		<path style="fill:#FFA829;" d="M367.108,390.481c0,42.353-18.17,76.189,14.595,76.189h-22.681    c-64.686,0-28.816-33.836-28.816-76.189c0-42.357,33.648-59.776,74.788-59.776C384.149,330.705,367.108,348.124,367.108,390.481z"/>
		<path style="fill:#FFCBB3;" d="M457.207,402.01v34.561c0,25.443-18.205,46.635-42.296,51.264    c-2.758,0.531-5.591,0.848-8.486,0.927h-0.07c-0.452,0.013-0.905,0.018-1.362,0.018c-28.838,0-52.209-23.375-52.209-52.209V402.01    c22.935-1.897,44.874-13.018,52.209-37.86C412.325,388.992,434.268,400.113,457.207,402.01z"/>
		<path style="fill:#E89876;" d="M414.433,487.923c-2.609,0.479-5.279,0.764-8.007,0.839h-0.07    c-0.452,0.013-0.905,0.018-1.362,0.018c-28.838,0-52.209-23.375-52.209-52.209V402.01c6.478-0.536,12.873-1.809,18.886-3.918    v38.479C371.672,462.181,390.105,483.483,414.433,487.923z"/>
		<path style="fill:#FC74AF;" d="M404.994,458.773c-6.721,0-13.443-2.558-18.56-7.675c-1.286-1.286-1.286-3.372,0-4.658    c1.286-1.286,3.372-1.286,4.658,0c7.665,7.665,20.137,7.665,27.803,0c1.286-1.286,3.372-1.286,4.658,0    c1.287,1.286,1.287,3.372,0,4.658C418.437,456.215,411.715,458.773,404.994,458.773z"/>
		<g>
			<path style="fill:#27394C;" d="M382.251,432.357c-1.819,0-3.294-1.475-3.294-3.294v-12.834c0-1.819,1.475-3.294,3.294-3.294     c1.819,0,3.294,1.475,3.294,3.294v12.834C385.545,430.882,384.07,432.357,382.251,432.357z"/>
			<path style="fill:#27394C;" d="M427.742,432.357c-1.819,0-3.294-1.475-3.294-3.294v-12.834c0-1.819,1.475-3.294,3.294-3.294     c1.819,0,3.294,1.475,3.294,3.294v12.834C431.036,430.882,429.561,432.357,427.742,432.357z"/>
		</g>
	</g>
</g>















</svg>
