<?xml version="1.0" encoding="iso-8859-1"?>
<!-- Generator: Adobe Illustrator 19.0.0, SVG Export Plug-In . SVG Version: 6.00 Build 0)  -->
<svg xmlns="http://www.w3.org/2000/svg" xmlns:xlink="http://www.w3.org/1999/xlink" version="1.1" id="Layer_1" x="0px" y="0px" viewBox="0 0 504.324 504.324" style="enable-background:new 0 0 504.324 504.324;" xml:space="preserve" width="512" height="512">
<g>
	<path style="fill:#FFE563;" d="M389.087,204.552c0,89.94-68.47,163.88-156.13,172.53c-5.67,0.56-11.42,0.85-17.24,0.85   c-95.75,0-173.37-77.62-173.37-173.38c0-95.75,77.62-173.37,173.37-173.37c94.24,0,170.92,75.19,173.31,168.85   C389.067,201.542,389.087,203.042,389.087,204.552z"/>
	<path style="fill:#FFA829;" d="M389.087,204.552c0,89.94-68.47,163.88-156.13,172.53v-141.04c0-19.89,16.12-36.01,36-36.01h120.07   C389.067,201.542,389.087,203.042,389.087,204.552z"/>
	<path style="fill:#FC74AF;" d="M215.719,31.177v173.38H42.349C42.349,108.807,119.969,31.177,215.719,31.177z"/>
	<path style="fill:#70E6D1;" d="M352.389,97.877l-136.67,106.68V31.177C271.239,31.177,320.659,57.277,352.389,97.877z"/>
	<path style="fill:#E6E6E6;" d="M299.395,87.021c-1.919,0-3.839-0.732-5.303-2.197c-2.929-2.929-2.929-7.678,0-10.606l41.05-41.05   c1.406-1.407,3.314-2.197,5.303-2.197h105.556c4.142,0,7.5,3.358,7.5,7.5s-3.358,7.5-7.5,7.5h-102.45l-38.853,38.853   C303.234,86.289,301.314,87.021,299.395,87.021z"/>
	<path style="fill:#3E5268;" d="M446.001,18.163h-61.249c-4.142,0-7.5-3.358-7.5-7.5s3.358-7.5,7.5-7.5h61.249   c4.142,0,7.5,3.358,7.5,7.5S450.143,18.163,446.001,18.163z"/>
	<path style="fill:#E6E6E6;" d="M154.106,92.522c-1.919,0-3.839-0.732-5.303-2.197L109.95,51.472H7.5c-4.142,0-7.5-3.358-7.5-7.5   s3.358-7.5,7.5-7.5h105.556c1.989,0,3.897,0.79,5.303,2.197l41.05,41.05c2.929,2.929,2.929,7.678,0,10.606   C157.945,91.789,156.025,92.522,154.106,92.522z"/>
	<path style="fill:#3E5268;" d="M68.749,23.663H7.5c-4.142,0-7.5-3.358-7.5-7.5s3.358-7.5,7.5-7.5h61.249c4.142,0,7.5,3.358,7.5,7.5   S72.891,23.663,68.749,23.663z"/>
	<path style="fill:#E6E6E6;" d="M350.218,183.688c-1.919,0-3.839-0.732-5.303-2.197c-2.929-2.929-2.929-7.678,0-10.606l41.05-41.049   c1.406-1.407,3.314-2.197,5.303-2.197h105.556c4.142,0,7.5,3.358,7.5,7.5s-3.358,7.5-7.5,7.5h-102.45l-38.853,38.853   C354.057,182.956,352.137,183.688,350.218,183.688z"/>
	<path style="fill:#3E5268;" d="M496.824,114.83h-61.249c-4.142,0-7.5-3.358-7.5-7.5s3.358-7.5,7.5-7.5h61.249   c4.142,0,7.5,3.358,7.5,7.5S500.966,114.83,496.824,114.83z"/>
	<g>
		<path style="fill:#3E5268;" d="M255.403,233.773v225.789c0,19.591,15.885,35.476,35.476,35.476H455.56    c19.591,0,35.476-15.885,35.476-35.476V233.773c0-19.599-15.885-35.485-35.476-35.485H290.88    C271.289,198.288,255.403,214.173,255.403,233.773z"/>
		<path style="fill:#96EFFF;" d="M255.403,290.84v168.721c0,19.591,15.885,35.476,35.476,35.476H455.56    c19.591,0,35.476-15.885,35.476-35.476V290.84H255.403z"/>
		<path style="fill:#4CBFD4;" d="M455.561,501.161H290.884c-22.939,0-41.601-18.662-41.601-41.601V233.77    c0-22.939,18.662-41.601,41.601-41.601h164.677c22.939,0,41.601,18.662,41.601,41.601v225.79    C497.162,482.499,478.5,501.161,455.561,501.161z M290.884,204.413c-16.187,0-29.357,13.169-29.357,29.357v225.79    c0,16.187,13.169,29.357,29.357,29.357h164.677c16.187,0,29.357-13.169,29.357-29.357V233.77    c0-16.187-13.169-29.357-29.357-29.357H290.884z"/>
		<g>
			<rect x="255.405" y="284.717" style="fill:#4CBFD4;" width="235.635" height="12.245"/>
			<rect x="255.405" y="352.784" style="fill:#4CBFD4;" width="235.635" height="12.245"/>
			<rect x="255.405" y="420.85" style="fill:#4CBFD4;" width="235.635" height="12.245"/>
		</g>
		<g>
			<rect x="367.099" y="290.839" style="fill:#4CBFD4;" width="12.245" height="204.199"/>
			<rect x="426.008" y="290.839" style="fill:#4CBFD4;" width="12.245" height="204.199"/>
			<rect x="308.19" y="290.839" style="fill:#4CBFD4;" width="12.245" height="204.199"/>
		</g>
		<path style="fill:#E6E6E6;" d="M461.481,274.622h-27.658c-3.381,0-6.122-2.741-6.122-6.122s2.741-6.122,6.122-6.122h27.658    c3.381,0,6.122,2.741,6.122,6.122S464.862,274.622,461.481,274.622z"/>
	</g>
</g>















</svg>
