<?xml version="1.0" encoding="iso-8859-1"?>
<!-- Generator: Adobe Illustrator 19.0.0, SVG Export Plug-In . SVG Version: 6.00 Build 0)  -->
<svg xmlns="http://www.w3.org/2000/svg" xmlns:xlink="http://www.w3.org/1999/xlink" version="1.1" id="Layer_1" x="0px" y="0px" viewBox="0 0 477.328 477.328" style="enable-background:new 0 0 477.328 477.328;" xml:space="preserve" width="512" height="512">
<g>
	<path style="fill:#F9A74D;" d="M311.592,150.08c-4.143,0-7.5-3.358-7.5-7.5V48.972c0-4.142,3.357-7.5,7.5-7.5s7.5,3.358,7.5,7.5   v93.607C319.092,146.722,315.734,150.08,311.592,150.08z"/>
	<path style="fill:#E06919;" d="M165.733,150.08c-4.142,0-7.5-3.358-7.5-7.5V48.972c0-4.142,3.358-7.5,7.5-7.5s7.5,3.358,7.5,7.5   v93.607C173.233,146.722,169.875,150.08,165.733,150.08z"/>
	<path style="fill:#F9A74D;" d="M387.394,113.037H89.934c-37.682,0-69.08,28.872-72.232,66.422L0.259,387.211   c-3.55,42.277,29.807,78.551,72.232,78.551h332.345c42.425,0,75.782-36.274,72.232-78.551l-17.443-207.752   C456.474,141.909,425.076,113.037,387.394,113.037z"/>
	<path style="fill:#E06919;" d="M99.859,465.761h-27.37c-42.43,0-75.78-36.27-72.23-78.55l17.44-207.75   c3.15-37.55,34.55-66.42,72.23-66.42h27.37c-37.68,0-69.08,28.87-72.23,66.42l-17.45,207.75   C24.069,429.491,57.429,465.761,99.859,465.761z"/>
	<path style="fill:#E06919;" d="M13.347,258.668l4.35,51.84c3.16,37.55,34.55,66.42,72.24,66.42h297.46   c37.68,0,69.08-28.87,72.23-66.42l4.35-51.84v-27.366l-4.35,51.84c-3.15,37.55-34.55,66.42-72.23,66.42H89.937   c-37.69,0-69.08-28.87-72.24-66.42l-4.35-51.84"/>
	<path style="fill:#FFE563;" d="M157.147,349.565v33.46c0,10.01-8.11,18.12-18.11,18.12h-30.98c-10,0-18.12-8.11-18.12-18.12v-33.46   H157.147z"/>
	<path style="fill:#FFE563;" d="M387.397,349.565v33.46c0,10.01-8.12,18.12-18.12,18.12h-30.98c-10,0-18.11-8.11-18.11-18.12v-33.46   H387.397z"/>
	<path style="fill:#F9A74D;" d="M319.092,44.661v22.931H158.233V44.661c0-18.282,14.813-33.095,33.095-33.095h94.669   C304.279,11.566,319.092,26.379,319.092,44.661z"/>
	<path style="fill:#E06919;" d="M214.514,11.566c-18.282,0-33.095,14.813-33.095,33.095v22.931h-23.186V44.661   c0-18.282,14.813-33.095,33.095-33.095H214.514z"/>
	<rect x="89.937" y="349.565" style="fill:#FFA829;" width="67.21" height="9.77"/>
	<rect x="320.187" y="349.565" style="fill:#FFA829;" width="67.21" height="9.77"/>
</g>















</svg>
