<?xml version="1.0" encoding="iso-8859-1"?>
<!-- Generator: Adobe Illustrator 19.0.0, SVG Export Plug-In . SVG Version: 6.00 Build 0)  -->
<svg xmlns="http://www.w3.org/2000/svg" xmlns:xlink="http://www.w3.org/1999/xlink" version="1.1" id="Layer_1" x="0px" y="0px" viewBox="0 0 490.003 490.003" style="enable-background:new 0 0 490.003 490.003;" xml:space="preserve" width="512" height="512">
<g>
	<path style="fill:#70E6D1;" d="M278.134,265.582c0-17.263-11.089-24.112-23.333-28.985v-24.297c3.393,0.696,5.786,1.895,7.79,2.913   c1.845,0.937,3.438,1.746,5.162,1.746c5.497,0,7.875-6.689,7.875-10.102c0-3.771-3.057-6.845-8.839-8.891   c-4.135-1.463-8.696-2.109-11.988-2.395v-9.21c0-4.142-3.357-7.5-7.5-7.5s-7.5,3.358-7.5,7.5v9.592   c-8.985,1.576-25.43,7.213-25.43,27.325c0,17.338,13.128,23.092,25.43,27.729v27.099c-5.784-1.164-9.563-4.097-12.658-6.508   c-2.577-2.007-4.613-3.593-6.982-3.593c-4.731,0-8.293,6.213-8.293,10.241c0,7.706,11.812,16.581,27.934,17.661v7.739   c0,4.142,3.357,7.5,7.5,7.5s7.5-3.358,7.5-7.5v-8.747C269.681,291.32,278.134,280.794,278.134,265.582z M254.801,257.623   c3.097,2.132,5.355,5.068,5.355,9.768c0,4.861-2.402,7.664-5.355,9.275V257.623z M239.801,230.833   c-4.761-2.265-7.451-4.843-7.451-9.365c0-4.027,2.622-6.968,7.451-8.487V230.833z"/>
	<path style="fill:#FC74AF;" d="M245.003,0.002c-135.31,0-245,109.69-245,245s109.69,245,245,245s245-109.69,245-245   S380.313,0.002,245.003,0.002z M245.003,371.302c-69.76,0-126.31-56.54-126.31-126.3c0-69.75,56.55-126.3,126.31-126.3   c69.75,0,126.3,56.55,126.3,126.3C371.303,314.762,314.753,371.302,245.003,371.302z"/>
	<path style="fill:#70E6D1;" d="M245,0.003v118.7c-69.76,0-126.31,56.55-126.31,126.3H0C0,109.693,109.69,0.003,245,0.003z"/>
	<path style="fill:#FFE563;" d="M418.24,71.763l-83.93,83.93c-22.86-22.85-54.44-36.99-89.31-36.99V0.003   C312.65,0.003,373.91,27.423,418.24,71.763z"/>
	<path style="fill:#96EFFF;" d="M490,245.003c0,67.65-27.42,128.91-71.76,173.24l-83.93-83.93c22.85-22.86,36.99-54.43,36.99-89.31   c0-34.87-14.14-66.45-36.99-89.31l83.93-83.93C462.58,116.093,490,177.353,490,245.003z"/>
</g>















</svg>
