<?xml version="1.0" encoding="iso-8859-1"?>
<!-- Generator: Adobe Illustrator 19.0.0, SVG Export Plug-In . SVG Version: 6.00 Build 0)  -->
<svg xmlns="http://www.w3.org/2000/svg" xmlns:xlink="http://www.w3.org/1999/xlink" version="1.1" id="Layer_1" x="0px" y="0px" viewBox="0 0 491.905 491.905" style="enable-background:new 0 0 491.905 491.905;" xml:space="preserve" width="512" height="512">
<g>
	<path style="fill:#3E5268;" d="M245.95,166.716c-4.143,0-7.5-3.358-7.5-7.5V8.193c0-4.142,3.357-7.5,7.5-7.5s7.5,3.358,7.5,7.5   v151.023C253.45,163.358,250.093,166.716,245.95,166.716z"/>
	<path style="fill:#3E5268;" d="M438.943,491.211H52.953c-44.72,0-69.23-52.09-40.72-86.55l100.45-121.42   c0.03-0.03,0.05-0.07,0.08-0.1l22.85-27.62l70.33-85.01c20.77-25.1,59.25-25.1,80.01,0l93.17,112.62l0.01,0.01l100.54,121.52   C508.183,439.121,483.673,491.211,438.943,491.211z"/>
	<path style="fill:#27394C;" d="M245.952,151.681c-8.65,0-17.31,6.28-23.38,18.83l-41.1,85.01l-13.35,27.62   c-0.02,0.03-0.03,0.07-0.05,0.1l-58.7,121.42c-16.66,34.46-2.34,86.55,23.8,86.55h-80.22c-44.72,0-69.23-52.09-40.72-86.55   l100.45-121.42c0.03-0.03,0.05-0.07,0.08-0.1l22.85-27.62l70.33-85.01C216.322,157.961,231.141,151.681,245.952,151.681z"/>
	<path style="fill:#E6E6E6;" d="M360.913,309.082l-71.69-25.81l-16.02,32.08c-11.22,22.47-43.29,22.47-54.51,0l-16.02-32.08   l-41.91,15.09l-29.77,10.72c-15.7,5.65-28.82-12.95-18.31-25.84c0.03-0.03,0.05-0.07,0.08-0.1l22.85-27.62l70.33-85.01   c10.39-12.55,25.2-18.83,40.01-18.83c14.81,0,29.62,6.28,40,18.83l93.17,112.62l0.01,0.01   C389.793,296.032,376.643,314.742,360.913,309.082z"/>
	<path style="fill:#BBB8CC;" d="M245.953,151.681c-8.65,0-17.31,6.28-23.38,18.83l-41.1,85.01l-13.35,27.62   c-0.02,0.03-0.03,0.07-0.05,0.1l-7.31,15.12l-29.77,10.72c-15.7,5.65-28.82-12.95-18.31-25.84c0.03-0.03,0.05-0.07,0.08-0.1   l22.85-27.62l70.33-85.01C216.333,157.961,231.143,151.681,245.953,151.681z"/>
	<polygon style="fill:#FC74AF;" points="353.512,95.947 238.45,95.947 238.45,8.193 353.512,8.193 325.983,52.07  "/>
</g>















</svg>
