<?xml version="1.0" encoding="iso-8859-1"?>
<!-- Generator: Adobe Illustrator 19.0.0, SVG Export Plug-In . SVG Version: 6.00 Build 0)  -->
<svg xmlns="http://www.w3.org/2000/svg" xmlns:xlink="http://www.w3.org/1999/xlink" version="1.1" id="Layer_1" x="0px" y="0px" viewBox="0 0 490 490" style="enable-background:new 0 0 490 490;" xml:space="preserve" width="512" height="512">
<g>
	<path style="fill:#3E5268;" d="M352.991,490H72.16c-21.052,0-38.118-17.066-38.118-38.118V38.118C34.042,17.066,51.108,0,72.16,0   h280.831c21.052,0,38.118,17.066,38.118,38.118v413.764C391.109,472.934,374.043,490,352.991,490z"/>
	<path style="fill:#FFE563;" d="M366.111,47.579v394.84c0,12.47-10.11,22.58-22.59,22.58H81.631c-12.48,0-22.59-10.11-22.59-22.58   V47.579c0-12.47,10.11-22.58,22.58-22.58h26.47c4.59,21.18,23.42,37.05,45.98,37.05h117.01c22.55,0,41.39-15.87,45.98-37.05h26.46   C356.001,24.999,366.111,35.109,366.111,47.579z"/>
	<path style="fill:#27394C;" d="M242.79,40.5H164.6c-4.142,0-7.5-3.358-7.5-7.5s3.358-7.5,7.5-7.5h78.19c4.142,0,7.5,3.358,7.5,7.5   S246.932,40.5,242.79,40.5z"/>
	<path style="fill:#FFA829;" d="M366.111,107.999v192.02h-84.67l-41.51,42.32c-6.17,6.29-16.86,1.92-16.86-6.89v-201.22   c0-14.48,11.74-26.23,26.23-26.23H366.111z"/>
	<path style="fill:#27394C;" d="M272.523,40.498c-3.329,0-6.341-2.285-7.223-5.496c-0.835-3.04,0.352-6.353,2.941-8.151   c5.554-3.856,13.217,1.37,11.553,7.974C278.964,38.121,275.92,40.498,272.523,40.498z"/>
	<g>
		<path style="fill:#70E6D1;" d="M455.958,134.232v139.552c0,14.487-11.744,26.231-26.231,26.231H301.442l-41.51,42.324    c-6.17,6.291-16.863,1.922-16.863-6.889v-35.434V134.232c0-14.487,11.744-26.231,26.231-26.231h160.427    C444.214,108.001,455.958,119.745,455.958,134.232z"/>
	</g>
	<g>
		<path style="fill:#FFFFFF;" d="M188.593,143.489h-84.18c-4.142,0-7.5-3.358-7.5-7.5s3.358-7.5,7.5-7.5h84.18    c4.142,0,7.5,3.358,7.5,7.5S192.735,143.489,188.593,143.489z"/>
		<path style="fill:#FFFFFF;" d="M188.593,185.516h-84.18c-4.142,0-7.5-3.358-7.5-7.5s3.358-7.5,7.5-7.5h84.18    c4.142,0,7.5,3.358,7.5,7.5S192.735,185.516,188.593,185.516z"/>
		<path style="fill:#FFFFFF;" d="M188.593,227.542h-84.18c-4.142,0-7.5-3.358-7.5-7.5s3.358-7.5,7.5-7.5h84.18    c4.142,0,7.5,3.358,7.5,7.5S192.735,227.542,188.593,227.542z"/>
		<path style="fill:#FFFFFF;" d="M188.593,269.57h-84.18c-4.142,0-7.5-3.358-7.5-7.5s3.358-7.5,7.5-7.5h84.18    c4.142,0,7.5,3.358,7.5,7.5S192.735,269.57,188.593,269.57z"/>
		<path style="fill:#FFFFFF;" d="M188.593,311.597h-84.18c-4.142,0-7.5-3.358-7.5-7.5s3.358-7.5,7.5-7.5h84.18    c4.142,0,7.5,3.358,7.5,7.5S192.735,311.597,188.593,311.597z"/>
		<path style="fill:#FFFFFF;" d="M188.593,353.624h-84.18c-4.142,0-7.5-3.358-7.5-7.5s3.358-7.5,7.5-7.5h84.18    c4.142,0,7.5,3.358,7.5,7.5S192.735,353.624,188.593,353.624z"/>
		<path style="fill:#FFFFFF;" d="M188.593,395.651h-84.18c-4.142,0-7.5-3.358-7.5-7.5s3.358-7.5,7.5-7.5h84.18    c4.142,0,7.5,3.358,7.5,7.5S192.735,395.651,188.593,395.651z"/>
	</g>
	<path style="fill:#3E5268;" d="M382.663,223.608c0-17.522-11.245-24.45-23.645-29.38v-23.89c3.32,0.697,5.677,1.877,7.652,2.881   c1.884,0.957,3.51,1.783,5.304,1.783c5.704,0,8.171-6.893,8.171-10.41c0-8.598-14.177-10.945-21.128-11.58v-9.016   c0-4.195-3.401-7.596-7.596-7.596c-4.195,0-7.596,3.401-7.596,7.596v9.407c-16.387,2.803-25.753,12.794-25.753,27.692   c0,17.573,13.819,23.616,25.753,28.119v26.684c-5.684-1.177-9.44-4.059-12.504-6.446c-2.524-1.967-4.706-3.665-7.174-3.665   c-4.902,0-8.591,6.399-8.591,10.548c0,7.851,11.957,16.865,28.27,17.977v7.549c0,4.195,3.401,7.596,7.596,7.596   c4.195,0,7.596-3.401,7.596-7.596v-8.546C374.095,249.688,382.663,239.026,382.663,223.608z M359.018,215.968   c2.944,2.092,5.065,4.955,5.065,9.458c0,4.656-2.253,7.389-5.065,8.989V215.968z M343.825,188.376   c-4.666-2.231-7.172-4.702-7.172-9.099c0-3.881,2.529-6.726,7.172-8.231V188.376z"/>
</g>















</svg>
