<?xml version="1.0" encoding="iso-8859-1"?>
<!-- Generator: Adobe Illustrator 19.0.0, SVG Export Plug-In . SVG Version: 6.00 Build 0)  -->
<svg xmlns="http://www.w3.org/2000/svg" xmlns:xlink="http://www.w3.org/1999/xlink" version="1.1" id="Layer_1" x="0px" y="0px" viewBox="0 0 488.516 488.516" style="enable-background:new 0 0 488.516 488.516;" xml:space="preserve" width="512" height="512">
<g>
	<path style="fill:#FFE563;" d="M213.249,52.377h243.64c17.467,0,31.627,14.16,31.627,31.627v143.949   c0,17.467-14.16,31.627-31.627,31.627h-243.64c-17.467,0-31.627-14.16-31.627-31.627V84.004   C181.622,66.536,195.781,52.377,213.249,52.377z"/>
	<rect x="181.622" y="94.744" style="fill:#3E5268;" width="306.894" height="44.959"/>
	<g>
		<path style="fill:#3E5268;" d="M248.083,174.57h-38.118c-4.142,0-7.5-3.358-7.5-7.5s3.358-7.5,7.5-7.5h38.118    c4.142,0,7.5,3.358,7.5,7.5S252.225,174.57,248.083,174.57z"/>
		<path style="fill:#3E5268;" d="M311.612,174.57h-38.118c-4.142,0-7.5-3.358-7.5-7.5s3.358-7.5,7.5-7.5h38.118    c4.142,0,7.5,3.358,7.5,7.5S315.754,174.57,311.612,174.57z"/>
		<path style="fill:#3E5268;" d="M375.142,174.57h-38.118c-4.142,0-7.5-3.358-7.5-7.5s3.358-7.5,7.5-7.5h38.118    c4.142,0,7.5,3.358,7.5,7.5S379.284,174.57,375.142,174.57z"/>
	</g>
	<g>
		<path style="fill:#70E6D1;" d="M388.968,203.179H29.178C13.064,203.179,0,216.243,0,232.358v174.603    c0,16.115,13.064,29.178,29.178,29.178h359.789c16.115,0,29.178-13.064,29.178-29.178V232.358    C418.146,216.243,405.082,203.179,388.968,203.179z"/>
		<circle style="fill:#0E9C80;" cx="384.011" cy="237.314" r="14.136"/>
		<circle style="fill:#0E9C80;" cx="384.011" cy="402.005" r="14.136"/>
		<circle style="fill:#0E9C80;" cx="34.137" cy="402.004" r="14.136"/>
		<circle style="fill:#0E9C80;" cx="34.137" cy="237.314" r="14.136"/>
		<path style="fill:#0E9C80;" d="M384.011,367.87c0.001,0,0.002,0,0.003,0v-96.422c-18.851,0-34.134-15.284-34.134-34.134H68.272    c0,18.852-15.283,34.135-34.135,34.135v96.421c18.852,0,34.135,15.283,34.135,34.135h281.605    C349.877,383.153,365.16,367.87,384.011,367.87z"/>
		<circle style="fill:#70E6D1;" cx="209.076" cy="319.659" r="82.345"/>
		<circle style="fill:#0E9C80;" cx="209.076" cy="319.659" r="56.69"/>
		<path style="fill:#70E6D1;" d="M231.088,333.271c0-11.42-7.29-15.98-15.37-19.212v-15.902c2.14,0.463,3.665,1.23,4.95,1.883    c1.231,0.625,2.294,1.165,3.458,1.165c3.703,0,5.305-4.488,5.305-6.778c0-2.538-2.044-4.603-5.911-5.971    c-2.682-0.949-5.631-1.38-7.802-1.576v-6.01c0-2.828-2.293-5.12-5.12-5.12c-2.828,0-5.12,2.292-5.12,5.12v6.275    c-6,1.082-16.757,4.875-16.757,18.144c0,11.475,8.627,15.313,16.757,18.384v17.739c-3.699-0.791-6.15-2.676-8.155-4.237    c-1.651-1.286-3.078-2.397-4.678-2.397c-3.184,0-5.581,4.168-5.581,6.87c0,5.116,7.777,11.002,18.413,11.766v5.034    c0,2.828,2.293,5.12,5.12,5.12c2.828,0,5.12-2.292,5.12-5.12v-5.724C225.523,350.316,231.088,343.336,231.088,333.271z     M215.718,328.235c1.915,1.383,3.287,3.275,3.287,6.233c0,3.054-1.456,4.862-3.287,5.932V328.235z M205.477,310.103    c-2.99-1.459-4.674-3.133-4.674-6.011c0-2.564,1.643-4.452,4.674-5.461V310.103z"/>
		<g>
			<path style="fill:#70E6D1;" d="M359.761,326.06h-42.258c-3.535,0-6.4-2.866-6.4-6.4c0-3.535,2.865-6.4,6.4-6.4h42.258     c3.535,0,6.4,2.866,6.4,6.4C366.161,323.194,363.295,326.06,359.761,326.06z"/>
			<path style="fill:#70E6D1;" d="M100.649,326.06H58.39c-3.535,0-6.4-2.866-6.4-6.4c0-3.535,2.866-6.4,6.4-6.4h42.259     c3.535,0,6.4,2.866,6.4,6.4C107.049,323.194,104.184,326.06,100.649,326.06z"/>
		</g>
	</g>
</g>















</svg>
