<?xml version="1.0" encoding="iso-8859-1"?>
<!-- Generator: Adobe Illustrator 19.0.0, SVG Export Plug-In . SVG Version: 6.00 Build 0)  -->
<svg xmlns="http://www.w3.org/2000/svg" xmlns:xlink="http://www.w3.org/1999/xlink" version="1.1" id="Layer_1" x="0px" y="0px" viewBox="0 0 489.609 489.609" style="enable-background:new 0 0 489.609 489.609;" xml:space="preserve" width="512" height="512">
<g>
	<path style="fill:#FC74AF;" d="M482.109,237.304h-20.543c-1.861-55.124-24.194-106.68-63.388-145.875   c-39.194-39.194-90.749-61.526-145.873-63.388V7.5c0-4.142-3.357-7.5-7.5-7.5s-7.5,3.358-7.5,7.5v20.541   c-55.126,1.86-106.683,24.193-145.878,63.388c-39.195,39.194-61.527,90.75-63.388,145.875H7.5c-4.142,0-7.5,3.358-7.5,7.5   s3.358,7.5,7.5,7.5h20.537c1.861,55.125,24.193,106.682,63.388,145.877c39.195,39.196,90.753,61.528,145.878,63.388v20.54   c0,4.142,3.358,7.5,7.5,7.5s7.5-3.358,7.5-7.5v-20.54c55.124-1.862,106.679-24.194,145.873-63.388   c39.195-39.195,61.527-90.751,63.388-145.877h20.543c4.143,0,7.5-3.358,7.5-7.5S486.251,237.304,482.109,237.304z M252.304,446.558   v-27.64c0-4.142-3.357-7.5-7.5-7.5s-7.5,3.358-7.5,7.5v27.64c-105.38-3.868-190.386-88.873-194.255-194.253h27.642   c4.142,0,7.5-3.358,7.5-7.5s-3.358-7.5-7.5-7.5H43.049c3.87-105.379,88.876-190.384,194.255-194.251V70.69   c0,4.142,3.358,7.5,7.5,7.5s7.5-3.358,7.5-7.5V43.053c105.377,3.87,190.38,88.874,194.25,194.251h-27.635   c-4.143,0-7.5,3.358-7.5,7.5s3.357,7.5,7.5,7.5h27.635C442.685,357.683,357.682,442.687,252.304,446.558z"/>
	<g>
		<path style="fill:#FFA829;" d="M156.597,177.637h179.101c17.017,0,30.812,13.795,30.812,30.812v2.716    c0,17.017-13.795,30.812-30.812,30.812H156.597c-17.017,0-30.812-13.795-30.812-30.812v-2.716    C125.785,191.433,139.58,177.637,156.597,177.637z"/>
		<path style="fill:#FFCBB3;" d="M386.361,275.296c0,17.633-13.58,32.083-30.846,33.464c-0.901,0.076-1.817,0.115-2.733,0.115    c-2.351,0-4.641-0.237-6.855-0.702H143.676c-2.214,0.466-4.504,0.702-6.855,0.702h-0.023    c-18.541-0.015-33.556-15.038-33.556-33.579c0-17.48,13.358-31.838,30.426-33.418c1.038-0.107,2.092-0.153,3.152-0.153    c1.412,0,2.794,0.084,4.16,0.252h207.64c1.366-0.168,2.748-0.252,4.16-0.252c1.992,0,3.946,0.176,5.839,0.511    C374.384,244.992,386.361,258.747,386.361,275.296z"/>
		<path style="fill:#E89876;" d="M358.621,242.236v42.533c0,8.259-1.076,16.297-3.107,23.991c-0.901,0.076-1.817,0.115-2.733,0.115    c-2.351,0-4.641-0.237-6.855-0.702H143.676c-2.214,0.466-4.504,0.702-6.855,0.702h-0.023c-2.046-7.733-3.13-15.801-3.13-24.106    v-42.891c1.038-0.107,2.092-0.153,3.152-0.153c1.412,0,2.794,0.084,4.16,0.252h207.64c1.366-0.168,2.748-0.252,4.16-0.252    C354.774,241.725,356.728,241.9,358.621,242.236z"/>
		<path style="fill:#E89876;" d="M368.055,283.808c-2.896,0-5.653-1.687-6.882-4.512c-2.445-5.624-10.177-3.501-10.506-3.409    c-3.988,1.129-8.133-1.182-9.263-5.167c-1.131-3.984,1.182-8.132,5.167-9.263c7.14-2.029,22.263-2.161,28.357,11.858    c1.651,3.798-0.089,8.217-3.888,9.868C370.068,283.607,369.053,283.808,368.055,283.808z"/>
		<path style="fill:#E89876;" d="M124.999,283.807c-0.999,0-2.015-0.201-2.989-0.625c-3.798-1.653-5.537-6.072-3.884-9.87    c3.448-7.922,12.38-15.276,27.1-12.161c4.053,0.857,6.643,4.837,5.785,8.89c-0.857,4.053-4.834,6.645-8.89,5.785    c-2.986-0.631-8.286-1.019-10.242,3.472C130.651,282.121,127.893,283.807,124.999,283.807z"/>
		<path style="fill:#E89876;" d="M348.62,226.848v69.783c0,49.937-35.724,91.53-83.012,100.622    c-6.297,1.214-12.809,1.847-19.465,1.847c-56.593,0-102.469-45.876-102.469-102.469v-69.783    c0-56.593,45.876-102.477,102.469-102.477c6.656,0,13.167,0.634,19.465,1.847c20.495,3.939,38.815,13.984,52.998,28.167    C337.148,172.934,348.62,198.551,348.62,226.848z"/>
		<path style="fill:#FFCBB3;" d="M348.62,226.848v69.783c0,49.937-35.724,91.53-83.012,100.622    c-47.288-9.091-83.012-50.685-83.012-100.622v-69.783c0-49.937,35.724-91.538,83.012-100.629    c20.495,3.939,38.815,13.984,52.998,28.167C337.148,172.934,348.62,198.551,348.62,226.848z"/>
		<g>
			<g>
				<path style="fill:#3E5268;" d="M201.506,290.313c-4.142,0-7.5-3.358-7.5-7.5v-25.188c0-4.142,3.358-7.5,7.5-7.5      s7.5,3.358,7.5,7.5v25.188C209.006,286.956,205.648,290.313,201.506,290.313z"/>
				<path style="fill:#3E5268;" d="M290.789,290.313c-4.143,0-7.5-3.358-7.5-7.5v-25.188c0-4.142,3.357-7.5,7.5-7.5      s7.5,3.358,7.5,7.5v25.188C298.289,286.956,294.932,290.313,290.789,290.313z"/>
			</g>
		</g>
		<path style="fill:#FFE563;" d="M342.528,76.174l-45.971,45.971c-3.894-9.563-13.268-16.31-24.23-16.31    c-8.995,0-16.927,4.542-21.636,11.455c-12.014-14.801-30.347-24.262-50.898-24.262c-36.207,0-65.558,29.351-65.558,65.558    s29.351,65.558,65.558,65.558c15.125,0,29.043-5.136,40.136-13.74c32.557,18.659,74.792,14.104,102.6-13.704    C375.811,163.419,375.811,109.457,342.528,76.174z"/>
		<path style="fill:#FFA829;" d="M173.574,158.587c0,29.35,19.289,54.202,45.88,62.553c-6.195,1.955-12.807,3.004-19.663,3.004    c-36.207,0-65.557-29.35-65.557-65.557s29.351-65.557,65.557-65.557c6.856,0,13.453,1.049,19.663,3.004    C192.863,104.385,173.574,129.237,173.574,158.587z"/>
		<path style="fill:#D39262;" d="M246.148,346.481c-13.979,0-27.953-5.319-38.594-15.96c-2.929-2.929-2.929-7.678,0-10.606    c2.929-2.929,7.678-2.929,10.606,0c15.433,15.433,40.543,15.433,55.975,0c2.93-2.93,7.678-2.929,10.607,0    c2.929,2.929,2.929,7.678-0.001,10.606C274.103,341.16,260.122,346.481,246.148,346.481z"/>
	</g>
</g>















</svg>
