<?xml version="1.0" encoding="iso-8859-1"?>
<!-- Generator: Adobe Illustrator 19.0.0, SVG Export Plug-In . SVG Version: 6.00 Build 0)  -->
<svg xmlns="http://www.w3.org/2000/svg" xmlns:xlink="http://www.w3.org/1999/xlink" version="1.1" id="Layer_1" x="0px" y="0px" viewBox="0 0 490 490" style="enable-background:new 0 0 490 490;" xml:space="preserve" width="512" height="512">
<g>
	<path style="fill:#E6E6E6;" d="M460.4,141.82v305.3H29.6v-305.3c0-19.96,16.17-36.13,36.12-36.13h358.55   C444.22,105.689,460.4,121.859,460.4,141.82z"/>
	<rect x="29.6" y="402.81" style="fill:#BBB8CC;" width="430.8" height="44.31"/>
	<path style="fill:#BBB8CC;" d="M490,457.479c0,2.76-0.34,5.43-0.99,7.99c-3.56,14.1-16.33,24.53-31.53,24.53H32.51   c-8.97,0-17.1-3.64-22.99-9.53c-5.88-5.88-9.52-14.01-9.52-22.99c0-11.09,5.55-20.87,14.02-26.74c5.25-3.64,11.62-5.77,18.49-5.77   h424.97c8.98,0,17.11,3.64,23,9.52C486.36,440.37,490,448.499,490,457.479z"/>
	<path style="fill:#E6E6E6;" d="M490,457.479c0,2.76-0.34,5.43-0.99,7.99c-5.25,3.65-11.62,5.78-18.5,5.78H45.55   c-8.98,0-17.11-3.64-22.99-9.52c-5.89-5.88-9.53-14.01-9.53-22.99c0-2.76,0.34-5.44,0.99-8c5.25-3.64,11.62-5.77,18.49-5.77h424.97   c8.98,0,17.11,3.64,23,9.52C486.36,440.37,490,448.499,490,457.479z"/>
	<path style="fill:#3E5268;" d="M69.596,360.759V169.897c0-13.369,10.838-24.207,24.207-24.207h302.389   c13.369,0,24.207,10.838,24.207,24.207v190.861c0,13.369-10.838,24.207-24.207,24.207H93.803   C80.434,384.966,69.596,374.128,69.596,360.759z"/>
	<path style="fill:#BBB8CC;" d="M290.977,457.483h-91.96c-11.799,0-21.364-9.565-21.364-21.364v-11.153h134.689v11.153   C312.342,447.918,302.776,457.483,290.977,457.483z"/>
	<rect x="108.856" y="247.735" style="fill:#96EFFF;" width="65.962" height="97.737"/>
	<rect x="210.101" y="289.742" style="fill:#FC74AF;" width="65.962" height="55.731"/>
	<rect x="311.345" y="0.001" style="fill:#70E6D1;" width="65.962" height="345.472"/>
</g>















</svg>
