<?xml version="1.0" encoding="iso-8859-1"?>
<!-- Generator: Adobe Illustrator 19.0.0, SVG Export Plug-In . SVG Version: 6.00 Build 0)  -->
<svg xmlns="http://www.w3.org/2000/svg" xmlns:xlink="http://www.w3.org/1999/xlink" version="1.1" id="Layer_1" x="0px" y="0px" viewBox="0 0 489.993 489.993" style="enable-background:new 0 0 489.993 489.993;" xml:space="preserve" width="512" height="512">
<g>
	<path style="fill:#FFCBB3;" d="M424.488,269.799c-10.254,18.489-10.269,59.993-10.269,60.231c0,0-0.756,159.963-116.292,159.963   c-43.196,0-104.006,0-104.006,0c-85.264,0-133.431-87.268-133.431-162.353V160.881c0-19.275,15.64-34.916,34.916-34.916   c9.645,0,18.371,3.918,24.692,10.224c6.321,6.321,10.224,15.061,10.224,24.691V90.173c0-19.291,15.64-34.916,34.916-34.916   c9.645,0,18.37,3.902,24.692,10.223c6.321,6.322,10.224,15.047,10.224,24.692V35.73c0-19.291,15.64-34.916,34.931-34.916   c9.63,0,18.37,3.903,24.692,10.224C266.083,17.359,270,26.084,270,35.73v43.967c0-19.291,15.625-34.916,34.901-34.916   c9.645,0,18.371,3.902,24.692,10.224c6.321,6.321,10.224,15.046,10.224,24.691v187.311c3.576-12.346,8.562-24.365,14.958-35.88   c10.669-19.261,34.931-26.206,54.192-15.522C428.227,226.291,435.172,250.552,424.488,269.799z"/>
	<path style="fill:#E89876;" d="M217.663,489.993c-14.201,0-23.742,0-23.742,0c-85.264,0-133.431-87.268-133.431-162.353V160.881   c0-19.275,15.64-34.916,34.916-34.916c4.17,0,8.161,0.727,11.871,2.077c-13.429,4.852-23.045,17.733-23.045,32.838V327.64   C84.232,402.725,132.399,489.993,217.663,489.993z"/>
	<path style="fill:#E89876;" d="M130.322,253.469V90.987c0-19.075,14.957-35.248,34.027-35.719c4.492-0.111,8.788,0.62,12.76,2.066   c-13.429,4.852-23.045,17.733-23.045,32.838v163.295c0,6.556-5.315,11.871-11.871,11.871h0   C135.636,265.34,130.322,260.025,130.322,253.469z"/>
	<path style="fill:#E89876;" d="M200.153,238.852V35.73c0-19.075,14.957-35.248,34.027-35.719c4.492-0.111,8.788,0.62,12.76,2.066   c-13.429,4.852-23.045,17.733-23.045,32.838v203.937c0,6.556-5.315,11.871-11.871,11.871h0   C205.468,250.723,200.153,245.408,200.153,238.852z"/>
	<path style="fill:#E89876;" d="M270,250.22V79.697c0-19.075,14.957-35.248,34.027-35.719c4.492-0.111,8.788,0.62,12.76,2.066   c-13.429,4.852-23.045,17.733-23.045,32.838V250.22c0,6.556-5.315,11.871-11.871,11.871h0C275.315,262.092,270,256.777,270,250.22z   "/>
	<path style="fill:#E89876;" d="M415.793,220.385c-16.723-3.591-34.5,3.918-43.211,19.647   c-14.706,26.487-22.006,55.705-21.65,85.205c-45.086,0-82.58,32.429-90.436,75.228c-0.829,4.518-4.72,7.825-9.313,7.825h0   c-5.67,0-10.057-4.951-9.412-10.584c5.247-45.807,44.14-81.373,91.354-81.373c-0.356-29.5,6.945-58.718,21.65-85.205   c10.669-19.261,34.931-26.206,54.192-15.522C411.444,216.987,413.73,218.589,415.793,220.385z"/>
	<path style="fill:#E89876;" d="M295.999,356.02c0-45.108-30.642-60.54-59.617-71.392v-69.904   c22.009,2.252,30.579,12.377,38.472,12.377c10.232,0,15.008-12.959,15.008-19.44c0-16.13-30.503-23.363-53.48-24.459v-17.149   c0-7.006-5.679-12.685-12.685-12.685c-7.007,0-12.685,5.679-12.685,12.685v18.066c-31.442,4.085-62.005,21.368-62.005,63.105   c0,42.334,32.072,55.16,62.005,65.85v80.866c-32.492-3.748-41.51-26.324-52.456-26.324c-8.526,0-15.688,11.254-15.688,19.44   c0,16.339,27.396,38.535,68.144,40.153v18.508c0,7.006,5.679,12.685,12.685,12.685c7.007,0,12.685-5.679,12.685-12.685v-19.822   C271.875,420.101,295.999,397.028,295.999,356.02z M183.111,243.813c0-16.191,11.388-24.689,27.9-27.865v59.399   C195.236,269.001,183.111,261.479,183.111,243.813z M236.382,392.489v-68.864c14.531,6.976,25.513,16.634,25.513,36.146   C261.895,377.568,252.157,388.199,236.382,392.489z"/>
	<path style="fill:#FFE563;" d="M306,356.02c0-45.108-30.642-60.54-59.617-71.392v-69.904c22.009,2.252,30.579,12.377,38.472,12.377   c10.232,0,15.007-12.959,15.007-19.44c0-16.13-30.503-23.363-53.48-24.459v-17.149c0-7.006-5.679-12.685-12.685-12.685   s-12.685,5.679-12.685,12.685v18.066c-31.442,4.085-62.005,21.368-62.005,63.105c0,42.334,32.072,55.16,62.005,65.85v80.866   c-32.492-3.748-41.51-26.324-52.456-26.324c-8.526,0-15.688,11.254-15.688,19.44c0,16.339,27.396,38.535,68.144,40.153v18.508   c0,7.006,5.679,12.685,12.685,12.685s12.685-5.679,12.685-12.685v-19.822C281.876,420.101,306,397.028,306,356.02z    M193.112,243.813c0-16.191,11.388-24.689,27.9-27.865v59.399C205.236,269.001,193.112,261.479,193.112,243.813z M246.383,392.489   v-68.864c14.531,6.976,25.513,16.634,25.513,36.146C271.895,377.568,262.158,388.199,246.383,392.489z"/>
</g>















</svg>
