<?xml version="1.0" encoding="iso-8859-1"?>
<!-- Generator: Adobe Illustrator 19.0.0, SVG Export Plug-In . SVG Version: 6.00 Build 0)  -->
<svg xmlns="http://www.w3.org/2000/svg" xmlns:xlink="http://www.w3.org/1999/xlink" version="1.1" id="Layer_1" x="0px" y="0px" viewBox="0 0 490.001 490.001" style="enable-background:new 0 0 490.001 490.001;" xml:space="preserve" width="512" height="512">
<g>
	<path style="fill:#4CBFD4;" d="M276.993,358.284v15.539H83.007v-15.539c0-53.567,43.423-96.996,96.989-96.996   c7.579,0,14.956,0.874,22.036,2.514c17.94,4.169,33.965,13.316,46.551,25.895C266.133,307.253,276.993,331.501,276.993,358.284z"/>
	<path style="fill:#96EFFF;" d="M276.993,358.284v15.539H127.08v-15.539c0-45.988,32.007-84.504,74.953-94.482   c17.94,4.169,33.965,13.316,46.551,25.895C266.133,307.253,276.993,331.501,276.993,358.284z"/>
	<path style="fill:#DBA175;" d="M130.52,280.6c6.22,21.46,26.01,37.15,49.48,37.15c0.45,0,0.9,0,1.35-0.01h0.07   c2.85-0.08,5.65-0.39,8.37-0.92c19.04-3.65,34.36-17.81,39.69-36.21"/>
	<path style="fill:#FFE563;" d="M265.4,253.086c120.167,0,53.53-62.855,53.53-141.538S256.425,0.501,179.996,0.501   S41.063,32.864,41.063,111.548s-66.637,141.538,53.53,141.538H265.4z"/>
	<path style="fill:#FFA829;" d="M109.617,111.55c0,78.68-33.755,141.54,27.113,141.54H94.596   c-120.171,0-53.533-62.859-53.533-141.54C41.063,32.862,103.571,0.502,180,0.502C141.276,0.502,109.617,32.862,109.617,111.55z"/>
	<path style="fill:#FFCBB3;" d="M276.998,132.968v64.206c0,47.267-33.82,86.636-78.574,95.236   c-5.124,0.987-10.387,1.575-15.764,1.722h-0.131c-0.84,0.025-1.681,0.033-2.529,0.033c-53.574,0-96.99-43.424-96.99-96.99v-64.206   c42.608-3.525,83.364-24.184,96.99-70.333C193.618,108.784,234.382,129.444,276.998,132.968z"/>
	<path style="fill:#E89876;" d="M197.535,292.573c-4.847,0.889-9.807,1.42-14.874,1.558h-0.131c-0.84,0.025-1.681,0.033-2.529,0.033   c-53.574,0-96.99-43.424-96.99-96.99v-64.206c12.035-0.995,23.915-3.362,35.085-7.278v71.484   C118.096,244.751,152.34,284.324,197.535,292.573z"/>
	<path style="fill:#D39262;" d="M180,239.8c-12.841,0-25.681-4.888-35.456-14.663c-2.929-2.929-2.929-7.678,0-10.606   c2.93-2.929,7.678-2.929,10.607,0c13.701,13.701,35.995,13.702,49.696,0c2.93-2.929,7.678-2.929,10.607,0   c2.929,2.929,2.929,7.678,0,10.606C205.679,234.913,192.84,239.8,180,239.8z"/>
	<g>
		<g>
			<path style="fill:#27394C;" d="M137.75,190.726c-4.143,0-7.5-3.358-7.5-7.5v-23.842c0-4.142,3.357-7.5,7.5-7.5s7.5,3.358,7.5,7.5     v23.842C145.25,187.368,141.892,190.726,137.75,190.726z"/>
			<path style="fill:#27394C;" d="M222.259,190.726c-4.143,0-7.5-3.358-7.5-7.5v-23.842c0-4.142,3.357-7.5,7.5-7.5     s7.5,3.358,7.5,7.5v23.842C229.759,187.368,226.402,190.726,222.259,190.726z"/>
		</g>
	</g>
	<g>
		<path style="fill:#4CBFD4;" d="M56.189,355.34c0,5.11,2.07,9.73,5.41,13.07c3.34,3.34,7.96,5.41,13.07,5.41h120.25v-8.49    c0-1.81-0.17-3.58-0.5-5.3c-2.48-13.2-14.06-23.18-27.98-23.18h-91.77c-7.78,0-14.43,4.8-17.15,11.6    C56.659,350.58,56.189,352.9,56.189,355.34z"/>
		<path style="fill:#96EFFF;" d="M57.519,348.45c0.94,2.33,2.34,4.43,4.08,6.17c3.34,3.34,7.96,5.41,13.07,5.41h119.75    c-2.48-13.2-14.06-23.18-27.98-23.18h-91.77C66.889,336.85,60.239,341.65,57.519,348.45z"/>
		<g>
			<path style="fill:#4CBFD4;" d="M303.809,355.34c0,5.11-2.07,9.73-5.41,13.07c-3.34,3.34-7.96,5.41-13.07,5.41H136.472v-8.49     c0-1.81,0.17-3.58,0.5-5.3c2.48-13.2,14.06-23.18,27.98-23.18h120.376c7.78,0,14.43,4.8,17.15,11.6     C303.339,350.58,303.809,352.9,303.809,355.34z"/>
			<path style="fill:#96EFFF;" d="M302.479,348.45c-0.94,2.33-2.34,4.43-4.08,6.17c-3.34,3.34-7.96,5.41-13.07,5.41H136.972     c2.48-13.2,14.06-23.18,27.98-23.18h120.376C293.109,336.85,299.759,341.65,302.479,348.45z"/>
			<path style="fill:#FFCBB3;" d="M183.252,336.85v36.97h-46.78v-8.49c0-1.81,0.17-3.58,0.5-5.3c2.48-13.2,14.06-23.18,27.98-23.18     H183.252z"/>
			<path style="fill:#E89876;" d="M183.252,360.03v13.79h-46.78v-8.49c0-1.81,0.17-3.58,0.5-5.3H183.252z"/>
		</g>
	</g>
	<rect x="36.494" y="430.178" style="fill:#E06919;" width="417.013" height="59.823"/>
	<path style="fill:#F9A74D;" d="M465.48,441.087H24.521c-13.542,0-24.52-10.978-24.52-24.52v-18.724   c0-13.542,10.978-24.52,24.52-24.52H465.48c13.542,0,24.52,10.978,24.52,24.52v18.724   C490.001,430.109,479.022,441.087,465.48,441.087z"/>
	<path style="fill:#0E9C80;" d="M470.444,49.91c0,23.7-16.52,43.55-38.67,48.65c-3.61,0.83-7.38,1.27-11.24,1.27   c-27.57,0-49.92-22.35-49.92-49.92c0-27.56,22.35-49.91,49.92-49.91c3.86,0,7.63,0.44,11.24,1.27   C453.924,6.37,470.444,26.21,470.444,49.91z"/>
	<path style="fill:#70E6D1;" d="M470.444,49.91c0,23.7-16.52,43.55-38.67,48.65c-22.15-5.1-38.68-24.94-38.68-48.65   c0-23.7,16.53-43.54,38.68-48.64C453.924,6.37,470.444,26.21,470.444,49.91z"/>
	<path style="fill:#E6E6E6;" d="M417.923,82.551c-2.22,0-4.342-0.986-5.774-2.715l-18.896-22.806   c-2.643-3.189-2.199-7.917,0.99-10.56c3.189-2.644,7.917-2.2,10.561,0.99l11.781,14.219l18.839-35.132   c1.957-3.651,6.505-5.021,10.153-3.065c3.65,1.958,5.023,6.504,3.065,10.154l-24.108,44.959c-1.18,2.2-3.377,3.669-5.861,3.918   C418.421,82.539,418.172,82.551,417.923,82.551z"/>
	<path style="fill:#0E9C80;" d="M470.444,175.515c0,23.7-16.52,43.55-38.67,48.65c-3.61,0.83-7.38,1.27-11.24,1.27   c-27.57,0-49.92-22.35-49.92-49.92c0-27.56,22.35-49.91,49.92-49.91c3.86,0,7.63,0.44,11.24,1.27   C453.924,131.975,470.444,151.815,470.444,175.515z"/>
	<path style="fill:#70E6D1;" d="M470.444,175.515c0,23.7-16.52,43.55-38.67,48.65c-22.15-5.1-38.68-24.94-38.68-48.65   c0-23.7,16.53-43.54,38.68-48.64C453.924,131.975,470.444,151.815,470.444,175.515z"/>
	<path style="fill:#E6E6E6;" d="M417.923,208.156c-2.22,0-4.342-0.986-5.774-2.715l-18.896-22.806   c-2.643-3.189-2.199-7.917,0.99-10.56c3.189-2.644,7.917-2.2,10.561,0.99l11.781,14.219l18.839-35.132   c1.957-3.651,6.505-5.021,10.153-3.065c3.65,1.958,5.023,6.504,3.065,10.154l-24.108,44.959c-1.18,2.2-3.377,3.669-5.861,3.918   C418.421,208.144,418.172,208.156,417.923,208.156z"/>
	<path style="fill:#0E9C80;" d="M470.444,301.12c0,23.7-16.52,43.55-38.67,48.65c-3.61,0.83-7.38,1.27-11.24,1.27   c-27.57,0-49.92-22.35-49.92-49.92c0-27.56,22.35-49.91,49.92-49.91c3.86,0,7.63,0.44,11.24,1.27   C453.924,257.58,470.444,277.42,470.444,301.12z"/>
	<path style="fill:#70E6D1;" d="M470.444,301.12c0,23.7-16.52,43.55-38.67,48.65c-22.15-5.1-38.68-24.94-38.68-48.65   c0-23.7,16.53-43.54,38.68-48.64C453.924,257.58,470.444,277.42,470.444,301.12z"/>
	<path style="fill:#E6E6E6;" d="M417.923,333.761c-2.22,0-4.342-0.986-5.774-2.715l-18.896-22.805   c-2.643-3.189-2.199-7.917,0.99-10.56c3.189-2.644,7.917-2.2,10.561,0.99l11.781,14.218l18.839-35.131   c1.957-3.65,6.505-5.021,10.153-3.065c3.65,1.958,5.023,6.504,3.065,10.154l-24.108,44.959c-1.18,2.2-3.377,3.669-5.861,3.918   C418.421,333.749,418.172,333.761,417.923,333.761z"/>
</g>















</svg>
