<?xml version="1.0" encoding="iso-8859-1"?>
<!-- Generator: Adobe Illustrator 19.0.0, SVG Export Plug-In . SVG Version: 6.00 Build 0)  -->
<svg xmlns="http://www.w3.org/2000/svg" xmlns:xlink="http://www.w3.org/1999/xlink" version="1.1" id="Layer_1" x="0px" y="0px" viewBox="0 0 489.338 489.338" style="enable-background:new 0 0 489.338 489.338;" xml:space="preserve" width="512" height="512">
<g>
	<ellipse style="fill:#96EFFF;" cx="245.155" cy="112.421" rx="125.922" ry="112.421"/>
	<g>
		<circle style="fill:#96EFFF;" cx="387.954" cy="190.832" r="18.244"/>
		<circle style="fill:#96EFFF;" cx="102.357" cy="190.832" r="18.244"/>
	</g>
	<path style="fill:#96EFFF;" d="M404.455,237.878c-6.816,0-10.07-8.775-4.87-13.201c2.486-2.116,6.121-2.35,8.876-0.627   c2.668,1.669,4.01,4.96,3.296,8.022C410.974,235.434,407.917,237.878,404.455,237.878z"/>
	<path style="fill:#96EFFF;" d="M73.455,223.548c-3.071,0-5.891-1.946-6.997-4.803c-1.177-3.042-0.194-6.606,2.379-8.612   c5.42-4.224,13.469,0.833,11.926,7.554C79.989,221.061,76.939,223.548,73.455,223.548z"/>
	<g>
		<path style="fill:#FFE563;" d="M203.731,368.487l6.559-10.526c1.867-2.996,2.965-6.438,2.978-9.968c0-0.026,0-0.053,0-0.079    c0-4.425-1.384-8.536-3.737-11.918c4.338-3.83,7.079-9.425,7.079-15.668c0-9.004-5.695-16.677-13.676-19.618    c0.434-1.678,0.668-3.436,0.668-5.247c0-11.551-9.365-20.909-20.909-20.909c-1.618,0-3.188,0.187-4.706,0.541    c-0.087-11.47-9.412-20.741-20.902-20.741c-3.483,0-6.771,0.862-9.659,2.366c-1.865-9.632-10.341-16.905-20.521-16.905    c-6.263,0-11.878,2.754-15.708,7.112c-3.83-4.358-9.445-7.112-15.708-7.112c-10.18,0-18.656,7.273-20.521,16.905    c-2.888-1.504-6.176-2.366-9.659-2.366c-11.49,0-20.815,9.271-20.902,20.741c-1.517-0.354-3.088-0.541-4.706-0.541    c-11.544,0-20.909,9.358-20.909,20.909c0,1.811,0.234,3.569,0.668,5.247c-7.981,2.941-13.676,10.615-13.676,19.618    c0,6.243,2.741,11.838,7.079,15.668c-2.353,3.382-3.737,7.493-3.737,11.918c0,0.026,0,0.053,0,0.079    c0.013,3.53,1.111,6.972,2.978,9.968l6.559,10.526"/>
		<path style="fill:#FFA829;" d="M111.56,256.72c-2.888-1.504-6.176-2.366-9.659-2.366c-11.49,0-20.815,9.271-20.902,20.741    c-1.517-0.354-3.088-0.541-4.706-0.541c-11.544,0-20.909,9.358-20.909,20.909c0,1.811,0.234,3.569,0.668,5.247    c-7.981,2.941-13.676,10.615-13.676,19.619c0,6.243,2.741,11.838,7.079,15.668c-2.353,3.382-3.737,7.493-3.737,11.918v0.08    c0.013,3.529,1.11,6.972,2.975,9.966l6.564,10.528h-36.59L12.11,357.96c-1.865-2.995-2.968-6.437-2.981-9.966v-0.08    c0-4.425,1.384-8.536,3.737-11.918c-4.338-3.83-7.079-9.425-7.079-15.668c0-9.004,5.695-16.677,13.676-19.619    c-0.434-1.678-0.668-3.436-0.668-5.247c0-11.551,9.365-20.909,20.909-20.909c1.618,0,3.188,0.187,4.706,0.541    c0.087-11.47,9.412-20.741,20.902-20.741c3.483,0,6.771,0.862,9.659,2.366c1.865-9.632,10.341-16.905,20.521-16.905    c5.341,0,10.214,2.005,13.903,5.307C109.12,249.427,109.775,253.645,111.56,256.72z"/>
		<path style="fill:#FFCBB3;" d="M219.921,393.334c0,13.673-10.53,24.877-23.919,25.949c-0.698,0.059-1.409,0.089-2.119,0.089    c-1.823,0-3.599-0.184-5.315-0.545H31.74c-1.717,0.361-3.492,0.545-5.315,0.545h-0.018c-14.377-0.012-26.02-11.66-26.02-26.037    c0-13.554,10.358-24.688,23.593-25.913c0.805-0.083,1.622-0.118,2.444-0.118c1.095,0,2.166,0.065,3.226,0.195h161.007    c1.06-0.13,2.131-0.195,3.226-0.195c1.545,0,3.06,0.136,4.528,0.397C210.634,369.836,219.921,380.501,219.921,393.334z"/>
		<path style="fill:#E89876;" d="M198.411,367.699v32.98c0,6.404-0.835,12.637-2.409,18.603c-0.698,0.059-1.409,0.089-2.119,0.089    c-1.823,0-3.599-0.184-5.315-0.545H31.74c-1.717,0.361-3.492,0.545-5.315,0.545h-0.018c-1.586-5.996-2.427-12.252-2.427-18.692    v-33.259c0.805-0.083,1.622-0.118,2.444-0.118c1.095,0,2.166,0.065,3.226,0.195h161.007c1.06-0.13,2.131-0.195,3.226-0.195    C195.428,367.302,196.943,367.438,198.411,367.699z"/>
		<path style="fill:#E89876;" d="M205.726,399.132c-1.935,0-3.779-1.127-4.6-3.016c-2.094-4.817-8.421-3.277-9.135-3.086    c-2.663,0.756-5.418-0.795-6.175-3.459c-0.756-2.664,0.807-5.44,3.471-6.196c5.305-1.506,16.529-1.617,21.033,8.743    c1.104,2.539-0.059,5.493-2.599,6.596C207.071,398.998,206.393,399.132,205.726,399.132z"/>
		<path style="fill:#E89876;" d="M17.258,399.131c-0.668,0-1.347-0.134-1.998-0.418c-2.539-1.105-3.701-4.059-2.596-6.598    c2.547-5.852,9.169-11.28,20.112-8.965c2.709,0.573,4.44,3.233,3.867,5.942c-0.572,2.709-3.232,4.44-5.942,3.867    c-2.555-0.541-7.1-0.849-8.843,3.157C21.036,398.004,19.192,399.131,17.258,399.131z"/>
		<path style="fill:#E89876;" d="M190.655,356.852v53.027c0,38.722-27.7,70.974-64.37,78.019c-4.88,0.942-9.926,1.437-15.093,1.437    c-43.883,0-79.45-35.574-79.45-79.457v-53.02c3.817,4.111,9.264,6.678,15.314,6.678c5.815,0,11.076-2.373,14.866-6.21    c3.73-3.777,6.036-8.964,6.036-14.692c0-1.197-0.1-2.366-0.294-3.509c0.087,0.007,0.174,0.007,0.261,0.007    c7.146,0,13.449-3.583,17.225-9.057c2.861,1.471,6.096,2.306,9.539,2.306c6.711,0,12.687-3.168,16.51-8.088    c3.823,4.92,9.793,8.088,16.51,8.088c3.436,0,6.678-0.836,9.538-2.306c3.77,5.474,10.08,9.057,17.226,9.057    c0.087,0,0.174,0,0.261-0.007c-0.194,1.143-0.301,2.313-0.301,3.509c0,11.544,9.365,20.902,20.909,20.902    C181.391,363.536,186.845,360.963,190.655,356.852z"/>
		<path style="fill:#FFCBB3;" d="M190.655,356.852v53.027c0,38.722-27.7,70.974-64.37,78.019    c-36.664-7.045-64.363-39.297-64.363-78.019v-52.552c3.73-3.777,6.036-8.964,6.036-14.692c0-1.197-0.1-2.366-0.294-3.509    c0.087,0.007,0.174,0.007,0.261,0.007c7.146,0,13.449-3.583,17.225-9.057c2.861,1.471,6.096,2.306,9.539,2.306    c6.711,0,12.687-3.168,16.51-8.088c3.823,4.92,9.793,8.088,16.51,8.088c3.436,0,6.678-0.836,9.538-2.306    c3.77,5.474,10.08,9.057,17.226,9.057c0.087,0,0.174,0,0.261-0.007c-0.194,1.143-0.301,2.313-0.301,3.509    c0,11.544,9.365,20.902,20.909,20.902C181.391,363.536,186.845,360.963,190.655,356.852z"/>
		<path style="fill:#D39262;" d="M111.197,440.607c-9.602,0-18.629-3.739-25.418-10.528c-1.958-1.958-1.958-5.132,0-7.09    c1.958-1.958,5.132-1.957,7.09,0c4.895,4.896,11.404,7.592,18.328,7.592c6.923,0,13.432-2.696,18.328-7.592    c1.958-1.958,5.132-1.958,7.09,0c1.958,1.958,1.958,5.132,0,7.09C129.825,436.868,120.799,440.607,111.197,440.607z"/>
		<g>
			<g>
				<path style="fill:#172635;" d="M76.582,404.176c-2.769,0-5.013-2.245-5.013-5.013v-19.532c0-2.769,2.245-5.013,5.013-5.013      s5.013,2.245,5.013,5.013v19.532C81.595,401.932,79.35,404.176,76.582,404.176z"/>
				<path style="fill:#172635;" d="M145.814,404.176c-2.769,0-5.013-2.245-5.013-5.013v-19.532c0-2.769,2.245-5.013,5.013-5.013      s5.013,2.245,5.013,5.013v19.532C150.827,401.932,148.582,404.176,145.814,404.176z"/>
			</g>
		</g>
	</g>
	<g>
		<path style="fill:#27394C;" d="M310.785,317.609h138.881c13.196,0,23.893,10.697,23.893,23.893v2.106    c0,13.196-10.697,23.893-23.893,23.893H310.785c-13.196,0-23.893-10.697-23.893-23.893v-2.106    C286.892,328.306,297.589,317.609,310.785,317.609z"/>
		<path style="fill:#C99061;" d="M488.951,393.336c0,13.673-10.53,24.878-23.919,25.949c-0.698,0.059-1.409,0.089-2.119,0.089    c-1.823,0-3.599-0.184-5.315-0.545H300.766c-1.717,0.361-3.492,0.545-5.315,0.545h-0.018c-14.377-0.012-26.02-11.661-26.02-26.038    c0-13.555,10.358-24.688,23.594-25.914c0.805-0.083,1.622-0.118,2.445-0.118c1.095,0,2.166,0.065,3.226,0.195h161.011    c1.06-0.13,2.131-0.195,3.226-0.195c1.545,0,3.06,0.136,4.528,0.397C479.664,369.838,488.951,380.504,488.951,393.336z"/>
		<path style="fill:#A86340;" d="M467.441,367.701v32.981c0,6.405-0.835,12.637-2.409,18.604c-0.698,0.059-1.409,0.089-2.119,0.089    c-1.823,0-3.599-0.184-5.315-0.545H300.766c-1.717,0.361-3.492,0.545-5.315,0.545h-0.018c-1.586-5.996-2.427-12.253-2.427-18.693    v-33.259c0.805-0.083,1.622-0.118,2.445-0.118c1.095,0,2.166,0.065,3.226,0.195h161.011c1.06-0.13,2.131-0.195,3.226-0.195    C464.458,367.304,465.973,367.44,467.441,367.701z"/>
		<path style="fill:#A86340;" d="M474.755,399.134c-1.935,0-3.779-1.128-4.6-3.016c-2.094-4.817-8.421-3.278-9.135-3.086    c-2.663,0.756-5.418-0.795-6.175-3.459c-0.756-2.664,0.807-5.441,3.471-6.197c5.305-1.505,16.529-1.617,21.034,8.743    c1.104,2.539-0.059,5.493-2.599,6.596C476.101,399,475.423,399.134,474.755,399.134z"/>
		<path style="fill:#A86340;" d="M286.283,399.133c-0.668,0-1.347-0.134-1.998-0.418c-2.539-1.105-3.701-4.059-2.596-6.598    c2.547-5.852,9.168-11.28,20.113-8.965c2.709,0.573,4.44,3.234,3.867,5.943c-0.573,2.709-3.233,4.439-5.943,3.867    c-2.555-0.541-7.1-0.849-8.843,3.157C290.061,398.007,288.218,399.133,286.283,399.133z"/>
		<path style="fill:#A86340;" d="M459.686,355.768v54.112c0,38.723-27.701,70.976-64.37,78.025    c-4.883,0.941-9.932,1.432-15.094,1.432c-43.884,0-79.458-35.574-79.458-79.458v-54.112c0-43.884,35.574-79.464,79.458-79.464    c5.161,0,10.21,0.491,15.094,1.432c15.893,3.054,30.099,10.844,41.096,21.841C450.79,313.961,459.686,333.826,459.686,355.768z"/>
		<path style="fill:#C99061;" d="M459.686,355.768v54.112c0,38.723-27.701,70.976-64.37,78.025    c-36.669-7.05-64.37-39.303-64.37-78.025v-54.112c0-38.723,27.701-70.982,64.37-78.031c15.893,3.054,30.099,10.844,41.096,21.841    C450.79,313.961,459.686,333.826,459.686,355.768z"/>
		<path style="fill:#965D36;" d="M380.224,445.061c-13.198,0-25.607-5.14-34.94-14.473c-1.958-1.958-1.958-5.132,0-7.09    c1.958-1.958,5.132-1.958,7.09,0c7.439,7.439,17.33,11.536,27.85,11.536s20.411-4.097,27.85-11.536    c1.958-1.958,5.132-1.958,7.09,0c1.958,1.958,1.958,5.132,0,7.09C405.832,439.921,393.423,445.061,380.224,445.061z"/>
		<g>
			<g>
				<path style="fill:#172635;" d="M345.608,404.179c-2.769,0-5.013-2.245-5.013-5.013v-19.532c0-2.769,2.245-5.013,5.013-5.013      s5.013,2.245,5.013,5.013v19.532C350.622,401.934,348.377,404.179,345.608,404.179z"/>
				<path style="fill:#172635;" d="M414.842,404.179c-2.769,0-5.013-2.245-5.013-5.013v-19.532c0-2.769,2.245-5.013,5.013-5.013      s5.013,2.245,5.013,5.013v19.532C419.856,401.934,417.611,404.179,414.842,404.179z"/>
			</g>
		</g>
		<path style="fill:#3E5268;" d="M454.962,238.931l-35.648,35.648c-3.02-7.415-10.289-12.647-18.789-12.647    c-6.975,0-13.126,3.522-16.777,8.883c-9.316-11.477-23.532-18.813-39.468-18.813c-28.076,0-50.836,22.76-50.836,50.836    s22.76,50.836,50.836,50.836c11.729,0,22.521-3.982,31.123-10.655c25.246,14.469,57.996,10.937,79.56-10.626    C480.77,306.583,480.77,264.739,454.962,238.931z"/>
		<path style="fill:#27394C;" d="M323.949,302.837c0,22.759,14.957,42.03,35.577,48.506c-4.804,1.516-9.931,2.329-15.247,2.329    c-28.076,0-50.835-22.759-50.835-50.835c0-28.076,22.759-50.835,50.835-50.835c5.316,0,10.432,0.814,15.247,2.329    C338.907,260.806,323.949,280.077,323.949,302.837z"/>
	</g>
	<g>
		<path style="fill:#B3B3B3;" d="M283.249,136.218v41.473c0,11.455-9.285,20.739-20.733,20.739h-34.305    c-5.724,0-10.909-2.323-14.663-6.076c-3.754-3.754-6.076-8.938-6.076-14.663v-41.473H283.249z"/>
		<path style="fill:#DADADA;" d="M283.249,136.218v41.473c0,11.455-9.285,20.739-20.733,20.739h-18.452    c-5.724,0-10.909-2.323-14.657-6.076c-3.754-3.754-6.076-8.938-6.076-14.663v-41.473H283.249z"/>
		<path style="fill:#FFA829;" d="M295.695,113.948l-12.856,22.27h-75.367l-12.856-22.27c-13.947-24.159-8.411-52.059,8.54-69.748    c10.358-10.798,24.968-17.789,42-17.789c3.777,0,7.431,0.346,10.95,0.997C294.446,34.516,316.27,78.311,295.695,113.948z"/>
		<path style="fill:#FFE563;" d="M295.695,113.948l-12.856,22.27h-53.467l-12.862-22.27c-13.947-24.159-8.411-52.059,8.546-69.748    c8.059-8.405,18.698-14.505,31.05-16.792C294.446,34.516,316.27,78.311,295.695,113.948z"/>
		<path style="fill:#B3B3B3;" d="M257.966,169.848H218.33c-4.143,0-7.5-3.358-7.5-7.5s3.357-7.5,7.5-7.5h39.636    c4.143,0,7.5,3.358,7.5,7.5S262.109,169.848,257.966,169.848z"/>
		<path style="fill:#FFFFFF;" d="M274.809,84.281c0-4.142-3.357-7.5-7.5-7.5s-7.5,3.358-7.5,7.5c0,8.08-6.573,14.654-14.653,14.654    s-14.654-6.574-14.654-14.654c0-4.142-3.357-7.5-7.5-7.5s-7.5,3.358-7.5,7.5c0,13.761,9.423,25.36,22.154,28.691v23.245h15    v-23.246C265.386,109.641,274.809,98.042,274.809,84.281z"/>
	</g>
</g>















</svg>
