<?xml version="1.0" encoding="iso-8859-1"?>
<!-- Generator: Adobe Illustrator 19.0.0, SVG Export Plug-In . SVG Version: 6.00 Build 0)  -->
<svg xmlns="http://www.w3.org/2000/svg" xmlns:xlink="http://www.w3.org/1999/xlink" version="1.1" id="Layer_1" x="0px" y="0px" viewBox="0 0 488.509 488.509" style="enable-background:new 0 0 488.509 488.509;" xml:space="preserve" width="512" height="512">
<g>
	<path style="fill:#70E6D1;" d="M401.288,437.689c0,28.07-70.3,50.82-157.03,50.82c-65.17,0-121.07-12.84-144.83-31.14   c-7.86-6.05-12.21-12.7-12.21-19.68c0-19.91,35.37-37.14,86.88-45.47h140.32C365.928,400.549,401.288,417.779,401.288,437.689z"/>
	<path style="fill:#0E9C80;" d="M257.088,392.219l-12.83,45.47l-144.83,19.68c-7.86-6.05-12.21-12.7-12.21-19.68   c0-19.91,35.37-37.14,86.88-45.47H257.088z"/>
	<path style="fill:#FC74AF;" d="M414.763,165.881c-4.09-221.175-336.928-221.175-341.018,0c-0.034,1.837-0.051,3.679-0.051,5.525   c0,118.116,69.888,219.895,170.56,266.282c100.672-46.387,170.56-148.167,170.56-266.282   C414.815,169.56,414.797,167.719,414.763,165.881z"/>
	<path style="fill:#DD3352;" d="M244.259,437.687C143.582,391.301,73.695,289.525,73.695,171.403c0-1.84,0.018-3.689,0.054-5.52   C75.776,56.05,158.883,0.759,242.544,0.008C170.093,0.866,98.187,56.157,96.428,165.883c-0.036,1.831-0.045,3.68-0.045,5.52   C96.383,289.525,156.972,391.301,244.259,437.687z"/>
	<path style="fill:#BBB8CC;" d="M334.89,267.545c-33.261,33.261-80.247,44.422-122.717,33.469   c-15.285-3.929-29.983-10.719-43.234-20.37c-5.362-3.897-10.485-8.262-15.323-13.1c-16.795-16.795-27.968-37.101-33.476-58.564   c-10.952-42.47,0.208-89.456,33.469-122.717c50.062-50.062,131.225-50.062,181.287,0c4.838,4.838,9.203,9.961,13.1,15.323   C384.491,151.712,380.114,222.321,334.89,267.545z"/>
	<path style="fill:#E6E6E6;" d="M372.438,176.906c0,47.038-25.332,88.154-63.108,110.44c-13.586,8.03-28.78,13.622-44.975,16.168   c-16.203-2.546-31.397-8.138-44.984-16.168c-37.775-22.286-63.116-63.402-63.116-110.44c0-63.965,46.85-116.979,108.1-126.617   C325.605,59.927,372.438,112.95,372.438,176.906z"/>
	<path style="fill:#0E9C80;" d="M254.682,163.895v-42.261c7.901,0.832,12.992,3.369,16.716,5.225   c2.561,1.276,4.584,2.284,6.542,2.284c6.156,0,9.246-7.655,9.246-11.94c0-4.441-3.837-8.237-11.096-10.976   c-5.729-2.163-13.526-3.622-21.408-4.009V91.915c0-4.32-3.515-7.835-7.834-7.835c-4.32,0-7.835,3.515-7.835,7.835v10.87   c-10.6,1.395-19.577,5.063-25.966,10.611c-7.776,6.753-11.719,16.125-11.719,27.853c0,11.593,3.946,20.529,12.065,27.319   c6.998,5.853,16.11,9.394,25.62,12.791v48.92c-12.032-1.426-18.743-7.131-23.647-11.301c-3.076-2.616-5.506-4.682-8.109-4.682   c-5.112,0-9.66,6.677-9.66,11.94c0,5.117,4.291,10.972,11.478,15.662c8.045,5.25,18.673,8.396,29.938,8.862v11.128   c0,4.32,3.515,7.835,7.835,7.835c4.32,0,7.834-3.515,7.834-7.835v-11.941c10.955-1.808,20.004-6.381,26.175-13.23   c6.675-7.409,10.06-17.282,10.06-29.344C290.917,179.82,272.229,170.474,254.682,163.895z M269.939,209.652   c0,10.134-5.275,16.951-15.256,19.721v-41.491C262.257,191.546,269.939,197.022,269.939,209.652z M222.306,139.176   c0-8.838,5.776-14.64,16.707-16.784v35.765C228.693,153.983,222.306,149.329,222.306,139.176z"/>
	<path style="fill:#DD3352;" d="M244.281,312.577c-11.431,0-22.86-1.434-33.98-4.301c-16.569-4.259-31.973-11.516-45.777-21.569   c-5.708-4.148-11.165-8.813-16.21-13.859c-17.184-17.184-29.438-38.624-35.437-62.002c-5.788-22.442-5.731-46.162,0.166-68.584   c6.078-23.111,18.272-44.308,35.265-61.3c25.628-25.629,59.703-39.743,95.946-39.743c36.244,0,70.318,14.114,95.947,39.743   c5.044,5.044,9.708,10.5,13.863,16.216c18.814,25.841,27.873,57.727,25.504,89.779c-2.394,32.391-16.377,62.894-39.374,85.891l0,0   c-16.993,16.993-38.19,29.187-61.301,35.265C267.576,311.089,255.928,312.577,244.281,312.577z M244.253,56.218   c-32.237,0-62.544,12.554-85.34,35.35c-15.116,15.116-25.962,33.965-31.365,54.509c-5.247,19.951-5.297,41.055-0.146,61.031   c5.334,20.787,16.232,39.848,31.517,55.133c4.493,4.492,9.347,8.643,14.429,12.336c12.271,8.937,25.96,15.386,40.692,19.173   c19.981,5.153,41.086,5.102,61.037-0.145c20.544-5.403,39.394-16.249,54.51-31.364c20.455-20.455,32.892-47.584,35.021-76.39   c2.107-28.514-5.946-56.872-22.675-79.85c-3.699-5.089-7.849-9.943-12.34-14.434C306.797,68.772,276.49,56.218,244.253,56.218z    M334.89,267.545h0.01H334.89z"/>
</g>















</svg>
