<?xml version="1.0" encoding="iso-8859-1"?>
<!-- Generator: Adobe Illustrator 19.0.0, SVG Export Plug-In . SVG Version: 6.00 Build 0)  -->
<svg xmlns="http://www.w3.org/2000/svg" xmlns:xlink="http://www.w3.org/1999/xlink" version="1.1" id="Layer_1" x="0px" y="0px" viewBox="0 0 494.999 494.999" style="enable-background:new 0 0 494.999 494.999;" xml:space="preserve" width="512" height="512">
<g>
	<path style="fill:#3E5268;" d="M387.915,492.5H107.084c-21.052,0-38.118-17.066-38.118-38.118V40.618   c0-21.052,17.066-38.118,38.118-38.118h280.831c21.052,0,38.118,17.066,38.118,38.118v413.764   C426.033,475.433,408.967,492.5,387.915,492.5z"/>
	<path style="fill:#E6E6E6;" d="M401.035,50.079v394.84c0,12.47-10.11,22.58-22.59,22.58h-261.89c-12.48,0-22.59-10.11-22.59-22.58   V50.079c0-12.47,10.11-22.58,22.58-22.58h26.47c4.59,21.18,23.42,37.05,45.98,37.05h117.01c22.55,0,41.39-15.87,45.98-37.05h26.46   C390.925,27.499,401.035,37.608,401.035,50.079z"/>
	<path style="fill:#27394C;" d="M277.714,43h-78.19c-4.142,0-7.5-3.358-7.5-7.5s3.358-7.5,7.5-7.5h78.19c4.143,0,7.5,3.358,7.5,7.5   S281.856,43,277.714,43z"/>
	<path style="fill:#27394C;" d="M307.442,42.998c-6.867,0-10.097-8.945-4.755-13.294c5.344-4.35,13.45,0.49,12.115,7.264   C314.12,40.433,310.969,42.998,307.442,42.998z"/>
	<path style="fill:#0E9C80;" d="M376.61,391.022c0,23.7-16.52,43.55-38.67,48.65c-3.61,0.83-7.38,1.27-11.24,1.27   c-27.57,0-49.92-22.35-49.92-49.92c0-27.56,22.35-49.91,49.92-49.91c3.86,0,7.63,0.44,11.24,1.27   C360.09,347.482,376.61,367.322,376.61,391.022z"/>
	<path style="fill:#70E6D1;" d="M376.61,391.022c0,23.7-16.52,43.55-38.67,48.65c-22.15-5.1-38.68-24.94-38.68-48.65   c0-23.7,16.53-43.54,38.68-48.64C360.09,347.482,376.61,367.322,376.61,391.022z"/>
	<path style="fill:#FFFFFF;" d="M324.088,423.663c-2.22,0-4.342-0.986-5.774-2.715l-18.896-22.805   c-2.643-3.189-2.199-7.917,0.99-10.561c3.188-2.643,7.917-2.199,10.561,0.99l11.78,14.218l18.839-35.131   c1.958-3.651,6.504-5.02,10.153-3.065c3.65,1.958,5.023,6.504,3.065,10.154l-24.108,44.959c-1.18,2.2-3.377,3.669-5.861,3.918   C324.587,423.65,324.337,423.663,324.088,423.663z"/>
	<path style="fill:#DD3352;" d="M221.213,391.022c0,23.7-16.52,43.55-38.67,48.65c-3.61,0.83-7.38,1.27-11.24,1.27   c-27.57,0-49.92-22.35-49.92-49.92c0-27.56,22.35-49.91,49.92-49.91c3.86,0,7.63,0.44,11.24,1.27   C204.693,347.482,221.213,367.322,221.213,391.022z"/>
	<path style="fill:#FC74AF;" d="M221.213,391.022c0,23.7-16.52,43.55-38.67,48.65c-22.15-5.1-38.68-24.94-38.68-48.65   c0-23.7,16.53-43.54,38.68-48.64C204.693,347.482,221.213,367.322,221.213,391.022z"/>
	<path style="fill:#FFFFFF;" d="M156.577,413.246c-1.919,0-3.839-0.732-5.303-2.197c-2.929-2.929-2.929-7.678,0-10.606   l29.442-29.441c2.929-2.929,7.678-2.929,10.606,0c2.929,2.929,2.929,7.678,0,10.606l-29.442,29.441   C160.416,412.514,158.496,413.246,156.577,413.246z"/>
	<path style="fill:#FFFFFF;" d="M186.019,413.246c-1.919,0-3.839-0.732-5.303-2.197l-29.442-29.441   c-2.929-2.929-2.929-7.678,0-10.606c2.929-2.929,7.678-2.929,10.606,0l29.442,29.441c2.929,2.929,2.929,7.678,0,10.606   C189.858,412.514,187.938,413.246,186.019,413.246z"/>
	<path style="fill:#4CBFD4;" d="M440.703,295.186c-1.969,0-3.935-0.771-5.407-2.302c-2.871-2.986-2.777-7.734,0.208-10.604   c10.098-9.708,15.658-22.774,15.658-36.791c0-14.011-5.562-27.078-15.66-36.793c-2.984-2.872-3.076-7.62-0.205-10.604   c2.873-2.985,7.622-3.077,10.604-0.205c13.065,12.569,20.261,29.475,20.261,47.603c0,18.135-7.195,35.041-20.262,47.604   C444.446,294.491,442.573,295.186,440.703,295.186z"/>
	<path style="fill:#4CBFD4;" d="M456.29,326.32c-1.969,0-3.935-0.771-5.407-2.302c-2.871-2.986-2.777-7.734,0.208-10.604   c18.642-17.924,28.908-42.046,28.908-67.925c0-25.869-10.267-49.993-28.909-67.926c-2.985-2.872-3.077-7.62-0.206-10.605   c2.872-2.984,7.62-3.077,10.604-0.206c21.609,20.788,33.511,48.751,33.511,78.737c0,29.997-11.901,57.959-33.512,78.737   C460.033,325.624,458.16,326.32,456.29,326.32z"/>
	<path style="fill:#4CBFD4;" d="M54.296,295.186c-1.87,0-3.743-0.695-5.197-2.094c-13.066-12.563-20.262-29.468-20.262-47.604   c0-18.128,7.195-35.034,20.26-47.603c2.985-2.87,7.734-2.779,10.604,0.206c2.872,2.985,2.78,7.733-0.205,10.605   c-10.098,9.714-15.66,22.781-15.66,36.792c0,14.017,5.561,27.083,15.658,36.791c2.986,2.871,3.079,7.619,0.208,10.604   C58.231,294.415,56.265,295.186,54.296,295.186z"/>
	<path style="fill:#4CBFD4;" d="M38.709,326.32c-1.87,0-3.743-0.695-5.197-2.094C11.901,303.447,0,275.484,0,245.489   c0-29.985,11.901-57.948,33.511-78.736c2.986-2.871,7.734-2.779,10.604,0.205c2.872,2.985,2.78,7.733-0.205,10.604   C25.267,195.497,15,219.621,15,245.489c0,25.877,10.267,50,28.909,67.925c2.986,2.871,3.079,7.619,0.208,10.604   C42.645,325.549,40.678,326.32,38.709,326.32z"/>
	<g>
		<path style="fill:#3E5268;" d="M336.306,215.016l6.209-9.965c1.767-2.837,2.807-6.095,2.819-9.437c0-0.025,0-0.05,0-0.075    c0-4.189-1.31-8.081-3.537-11.283c4.107-3.626,6.701-8.922,6.701-14.832c0-8.524-5.391-15.788-12.947-18.572    c0.411-1.588,0.633-3.253,0.633-4.967c0-10.934-8.865-19.793-19.793-19.793c-1.531,0-3.018,0.177-4.455,0.513    c-0.082-10.859-8.91-19.635-19.787-19.635c-3.297,0-6.41,0.816-9.144,2.24c-1.765-9.118-9.789-16.003-19.426-16.003    c-5.929,0-11.245,2.607-14.87,6.733c-3.626-4.126-8.941-6.733-14.87-6.733c-9.637,0-17.661,6.885-19.426,16.003    c-2.734-1.424-5.847-2.24-9.144-2.24c-10.878,0-19.705,8.777-19.787,19.635c-1.436-0.335-2.923-0.513-4.455-0.513    c-10.928,0-19.793,8.859-19.793,19.793c0,1.715,0.221,3.379,0.633,4.967c-7.555,2.784-12.947,10.049-12.947,18.572    c0,5.91,2.594,11.207,6.701,14.832c-2.227,3.202-3.537,7.093-3.537,11.283c0,0.025,0,0.05,0,0.075    c0.012,3.342,1.052,6.6,2.819,9.437l6.209,9.965"/>
		<path style="fill:#27394C;" d="M249.05,109.209c-2.734-1.424-5.847-2.24-9.144-2.24c-10.878,0-19.705,8.777-19.787,19.635    c-1.436-0.335-2.923-0.513-4.455-0.513c-10.928,0-19.793,8.859-19.793,19.793c0,1.715,0.221,3.379,0.633,4.967    c-7.555,2.784-12.947,10.049-12.947,18.572c0,5.91,2.594,11.207,6.701,14.832c-2.227,3.202-3.537,7.093-3.537,11.282v0.076    c0.013,3.341,1.05,6.6,2.816,9.435l6.214,9.966h-34.639l-6.208-9.966c-1.765-2.835-2.81-6.094-2.822-9.435v-0.076    c0-4.189,1.31-8.081,3.537-11.282c-4.107-3.626-6.701-8.922-6.701-14.832c0-8.524,5.391-15.788,12.947-18.572    c-0.411-1.588-0.633-3.253-0.633-4.967c0-10.934,8.865-19.793,19.793-19.793c1.531,0,3.018,0.177,4.455,0.513    c0.082-10.859,8.91-19.635,19.787-19.635c3.297,0,6.41,0.816,9.144,2.24c1.765-9.118,9.789-16.003,19.426-16.003    c5.056,0,9.669,1.898,13.162,5.024C246.741,102.306,247.361,106.299,249.05,109.209z"/>
		<path style="fill:#C99061;" d="M351.632,238.537c0,12.944-9.968,23.551-22.643,24.565c-0.661,0.056-1.333,0.084-2.006,0.084    c-1.726,0-3.407-0.174-5.032-0.516H173.488c-1.625,0.342-3.306,0.516-5.032,0.516h-0.017    c-13.61-0.011-24.632-11.038-24.632-24.649c0-12.831,9.806-23.371,22.335-24.531c0.762-0.078,1.535-0.112,2.314-0.112    c1.037,0,2.051,0.062,3.054,0.185h152.42c1.003-0.123,2.017-0.185,3.054-0.185c1.462,0,2.897,0.129,4.286,0.375    C342.841,216.292,351.632,226.389,351.632,238.537z"/>
		<path style="fill:#A86340;" d="M331.27,214.27v31.221c0,6.063-0.79,11.963-2.281,17.611c-0.661,0.056-1.333,0.084-2.006,0.084    c-1.726,0-3.407-0.174-5.032-0.516H173.488c-1.625,0.342-3.306,0.516-5.032,0.516h-0.017c-1.502-5.676-2.297-11.599-2.297-17.695    v-31.485c0.762-0.078,1.535-0.112,2.314-0.112c1.037,0,2.051,0.062,3.054,0.185h152.42c1.003-0.123,2.017-0.185,3.054-0.185    C328.446,213.894,329.88,214.023,331.27,214.27z"/>
		<path style="fill:#A86340;" d="M338.194,244.026c-1.832,0-3.578-1.067-4.355-2.855c-1.983-4.56-7.972-3.102-8.648-2.921    c-2.521,0.715-5.129-0.752-5.846-3.274c-0.716-2.522,0.764-5.15,3.286-5.866c5.022-1.426,15.647-1.531,19.912,8.276    c1.045,2.404-0.056,5.2-2.46,6.245C339.468,243.899,338.826,244.026,338.194,244.026z"/>
		<path style="fill:#A86340;" d="M159.778,244.025c-0.632,0-1.275-0.127-1.892-0.396c-2.404-1.046-3.503-3.842-2.458-6.246    c2.412-5.54,8.68-10.678,19.039-8.487c2.564,0.542,4.203,3.061,3.661,5.625c-0.542,2.564-3.059,4.203-5.625,3.661    c-2.418-0.512-6.721-0.803-8.372,2.989C163.354,242.959,161.609,244.025,159.778,244.025z"/>
		<path style="fill:#A86340;" d="M323.927,204.001V254.2c0,36.657-26.223,67.189-60.937,73.858c-4.619,0.892-9.397,1.36-14.288,1.36    c-41.542,0-75.213-33.677-75.213-75.219v-50.192c3.613,3.892,8.77,6.321,14.497,6.321c5.505,0,10.485-2.246,14.073-5.879    c3.531-3.575,5.714-8.486,5.714-13.909c0-1.133-0.095-2.24-0.278-3.322c0.082,0.006,0.165,0.006,0.247,0.006    c6.764,0,12.732-3.392,16.307-8.574c2.708,1.392,5.771,2.183,9.03,2.183c6.353,0,12.01-2.999,15.63-7.657    c3.619,4.657,9.27,7.657,15.63,7.657c3.252,0,6.322-0.791,9.03-2.183c3.569,5.182,9.542,8.574,16.307,8.574    c0.082,0,0.165,0,0.247-0.006c-0.184,1.082-0.285,2.189-0.285,3.322c0,10.928,8.865,19.787,19.793,19.787    C315.157,210.329,320.32,207.893,323.927,204.001z"/>
		<path style="fill:#C99061;" d="M323.927,204.001V254.2c0,36.657-26.223,67.189-60.937,73.858    c-34.708-6.67-60.931-37.201-60.931-73.858V204.45c3.531-3.575,5.714-8.486,5.714-13.909c0-1.133-0.095-2.24-0.278-3.322    c0.082,0.006,0.165,0.006,0.247,0.006c6.764,0,12.732-3.392,16.307-8.574c2.708,1.392,5.771,2.183,9.03,2.183    c6.353,0,12.01-2.999,15.63-7.657c3.619,4.657,9.27,7.657,15.63,7.657c3.252,0,6.322-0.791,9.03-2.183    c3.569,5.182,9.542,8.574,16.307,8.574c0.082,0,0.165,0,0.247-0.006c-0.184,1.082-0.285,2.189-0.285,3.322    c0,10.928,8.865,19.787,19.793,19.787C315.157,210.329,320.32,207.893,323.927,204.001z"/>
		<path style="fill:#965D36;" d="M248.707,283.29c-9.09,0-17.635-3.54-24.062-9.967c-1.854-1.853-1.854-4.858,0-6.712    c1.854-1.853,4.859-1.853,6.712,0c4.634,4.634,10.796,7.187,17.351,7.187c6.554,0,12.716-2.552,17.35-7.187    c1.853-1.854,4.858-1.853,6.712,0c1.854,1.853,1.854,4.858,0,6.712C266.342,279.75,257.797,283.29,248.707,283.29z"/>
		<g>
			<g>
				<path style="fill:#172635;" d="M215.938,248.802c-2.621,0-4.746-2.125-4.746-4.746v-18.49c0-2.621,2.125-4.746,4.746-4.746      s4.746,2.125,4.746,4.746v18.49C220.684,246.677,218.559,248.802,215.938,248.802z"/>
				<path style="fill:#172635;" d="M281.477,248.802c-2.621,0-4.746-2.125-4.746-4.746v-18.49c0-2.621,2.125-4.746,4.746-4.746      s4.746,2.125,4.746,4.746v18.49C286.223,246.677,284.098,248.802,281.477,248.802z"/>
			</g>
		</g>
	</g>
</g>















</svg>
