<?xml version="1.0" encoding="iso-8859-1"?>
<!-- Generator: Adobe Illustrator 19.0.0, SVG Export Plug-In . SVG Version: 6.00 Build 0)  -->
<svg xmlns="http://www.w3.org/2000/svg" xmlns:xlink="http://www.w3.org/1999/xlink" version="1.1" id="Layer_1" x="0px" y="0px" viewBox="0 0 482.501 482.501" style="enable-background:new 0 0 482.501 482.501;" xml:space="preserve" width="512" height="512">
<g>
	<path style="fill:#70E6D1;" d="M345.025,121.634H358.1c17.806,0,32.24,14.434,32.24,32.24v296.386   c0,17.806-14.434,32.24-32.24,32.24H124.401c-17.806,0-32.24-14.434-32.24-32.24V153.874c0-17.806,14.434-32.24,32.24-32.24h13.087   "/>
	<path style="fill:#0E9C80;" d="M119.528,450.261V153.875c0-17.806,14.435-32.241,32.24-32.241h-14.279h-13.087   c-17.806,0-32.24,14.435-32.24,32.241v296.386c0,17.806,14.435,32.24,32.24,32.24h27.366   C133.962,482.501,119.528,468.066,119.528,450.261z"/>
	<path style="fill:#3E5268;" d="M325.504,206.829H157.005c-9.727,0-17.612,7.885-17.612,17.612v18.484   c0,9.727,7.885,17.612,17.612,17.612h168.498c9.727,0,17.612-7.885,17.612-17.612v-18.484   C343.116,214.714,335.231,206.829,325.504,206.829z"/>
	<path style="fill:#0E9C80;" d="M325.504,268.038H157.006c-13.847,0-25.112-11.265-25.112-25.112v-18.484   c0-13.847,11.266-25.112,25.112-25.112h168.498c13.847,0,25.112,11.265,25.112,25.112v18.484   C350.616,256.772,339.35,268.038,325.504,268.038z M157.006,214.329c-5.576,0-10.112,4.536-10.112,10.112v18.484   c0,5.576,4.536,10.112,10.112,10.112h168.498c5.576,0,10.112-4.536,10.112-10.112v-18.484c0-5.576-4.536-10.112-10.112-10.112   H157.006z"/>
	<path style="fill:#E6E6E6;" d="M203.289,437.673h122.215c9.727,0,17.612-7.885,17.612-17.612V314.773   c0-9.727-7.885-17.612-17.612-17.612H157.005c-9.727,0-17.612,7.885-17.612,17.612V420.06c0,9.727,7.885,17.612,17.612,17.612   h14.18H203.289z"/>
	<path style="fill:#0E9C80;" d="M325.504,289.661H157.006c-13.847,0-25.112,11.265-25.112,25.112V420.06   c0,13.847,11.266,25.112,25.112,25.112h50.287c0.003,0,0.006,0,0.01,0s0.006,0,0.01,0H275.2c0.003,0,0.006,0,0.01,0s0.006,0,0.01,0   h50.284c13.847,0,25.112-11.265,25.112-25.112V314.773C350.616,300.926,339.35,289.661,325.504,289.661z M214.802,383.651v-32.468   h52.907v32.468H214.802z M267.71,398.651v31.521h-52.907v-31.521H267.71z M146.893,351.183h52.909v32.468h-52.909V351.183z    M214.802,336.183v-31.522h52.907v31.522H214.802z M282.71,351.183h52.906v32.468H282.71V351.183z M335.616,314.773v21.41H282.71   v-31.522h42.794C331.08,304.661,335.616,309.197,335.616,314.773z M157.006,304.661h42.797v31.522h-52.909v-21.41   C146.893,309.197,151.429,304.661,157.006,304.661z M146.893,420.06v-21.409h52.909v31.521h-42.797   C151.429,430.172,146.893,425.636,146.893,420.06z M325.504,430.172H282.71v-31.521h52.906v21.409   C335.616,425.636,331.08,430.172,325.504,430.172z"/>
	<path style="fill:#0E9C80;" d="M341.018,160.855H141.496c-4.143,0-7.5-3.358-7.5-7.5s3.357-7.5,7.5-7.5h199.522   c4.143,0,7.5,3.358,7.5,7.5S345.161,160.855,341.018,160.855z"/>
	<g>
		<polygon style="fill:#E6E6E6;" points="324.884,0 324.884,160.86 157.634,160.86 157.634,0 199.444,18.45 241.254,0     283.074,18.45   "/>
		<path style="fill:#3E5268;" d="M295.563,62.156H186.95c-4.143,0-7.5-3.358-7.5-7.5s3.357-7.5,7.5-7.5h108.613    c4.143,0,7.5,3.358,7.5,7.5S299.706,62.156,295.563,62.156z"/>
		<path style="fill:#3E5268;" d="M295.563,99.567H186.95c-4.143,0-7.5-3.358-7.5-7.5s3.357-7.5,7.5-7.5h108.613    c4.143,0,7.5,3.358,7.5,7.5S299.706,99.567,295.563,99.567z"/>
	</g>
	<rect x="157.634" y="145.86" style="fill:#BBB8CC;" width="167.25" height="15"/>
</g>















</svg>
