<?xml version="1.0" encoding="iso-8859-1"?>
<!-- Generator: Adobe Illustrator 19.0.0, SVG Export Plug-In . SVG Version: 6.00 Build 0)  -->
<svg xmlns="http://www.w3.org/2000/svg" xmlns:xlink="http://www.w3.org/1999/xlink" version="1.1" id="Layer_1" x="0px" y="0px" viewBox="0 0 490.003 490.003" style="enable-background:new 0 0 490.003 490.003;" xml:space="preserve" width="512" height="512">
<g>
	<path style="fill:#96EFFF;" d="M490.003,52.122v322.64c0,27.4-22.22,49.62-49.62,49.62H49.623c-27.41,0-49.62-22.22-49.62-49.62   V52.122c0-27.4,22.21-49.62,49.62-49.62h390.76C467.783,2.502,490.003,24.722,490.003,52.122z"/>
	<path style="fill:#3E5268;" d="M490.003,348.612v26.15c0,27.4-22.22,49.62-49.62,49.62H49.623c-27.41,0-49.62-22.22-49.62-49.62   v-26.15H490.003z"/>
	<path style="fill:#3E5268;" d="M440.38,17.504c19.089,0,34.62,15.53,34.62,34.62v322.638c0,19.089-15.53,34.62-34.62,34.62H49.62   c-19.089,0-34.62-15.53-34.62-34.62V52.123c0-19.089,15.53-34.62,34.62-34.62h55.332h30.002H440.38 M440.38,2.504H134.953h-30.002   H49.62C22.215,2.504,0,24.719,0,52.123v322.638c0,27.404,22.215,49.62,49.62,49.62H440.38c27.404,0,49.62-22.216,49.62-49.62   V52.123C490,24.719,467.784,2.504,440.38,2.504L440.38,2.504z"/>
	<path style="fill:#27394C;" d="M244.995,391.111c-2.937,0-5.652-1.786-6.846-4.463c-1.326-2.974-0.523-6.596,1.953-8.718   c2.374-2.035,5.826-2.383,8.56-0.864c2.793,1.552,4.334,4.871,3.692,8.005C251.645,388.533,248.542,391.111,244.995,391.111z"/>
	<path style="fill:#27394C;" d="M369.455,455.941c0,1.55-0.11,3.07-0.33,4.56c-0.99,6.89-4.22,13.07-8.91,17.76   c-5.71,5.71-13.61,9.24-22.32,9.24h-185.79c-17.43,0-31.56-14.13-31.56-31.56c0-8.71,3.53-16.61,9.24-22.32   c5.72-5.71,13.6-9.24,22.32-9.24h185.79C355.325,424.381,369.455,438.511,369.455,455.941z"/>
	<path style="fill:#3E5268;" d="M369.125,460.501c-0.99,6.89-4.22,13.07-8.91,17.76c-5.71,5.71-13.61,9.24-22.32,9.24h-146.78   c-5.78-5.73-9.36-13.66-9.36-22.44c0-8.71,3.53-16.61,9.24-22.32c5.71-5.71,13.61-9.24,22.32-9.24h124.58   C353.775,433.501,366.915,445.231,369.125,460.501z"/>
	<path style="fill:#FFFFFF;" d="M175.142,163.802c0-17.263-11.089-24.113-23.332-28.985V110.52c3.393,0.696,5.786,1.895,7.79,2.913   c1.845,0.937,3.438,1.746,5.162,1.746c5.497,0,7.875-6.689,7.875-10.102c0-3.771-3.057-6.845-8.839-8.891   c-4.135-1.463-8.696-2.109-11.988-2.395v-9.21c0-4.142-3.357-7.5-7.5-7.5s-7.5,3.358-7.5,7.5v9.592   c-8.984,1.576-25.43,7.212-25.43,27.325c0,17.338,13.127,23.092,25.43,27.73v27.099c-5.785-1.164-9.564-4.098-12.659-6.509   c-2.577-2.007-4.612-3.593-6.981-3.593c-4.731,0-8.293,6.213-8.293,10.241c0,7.707,11.812,16.582,27.934,17.662v7.738   c0,4.142,3.357,7.5,7.5,7.5s7.5-3.358,7.5-7.5v-8.747C166.691,189.541,175.142,179.015,175.142,163.802z M151.81,155.843   c3.097,2.132,5.354,5.068,5.354,9.768c0,4.861-2.402,7.664-5.354,9.275V155.843z M136.81,129.054   c-4.762-2.265-7.452-4.844-7.452-9.365c0-4.027,2.623-6.968,7.452-8.487V129.054z"/>
	<g>
		<path style="fill:#FFFFFF;" d="M409.552,112.102H226.765c-4.143,0-7.5-3.358-7.5-7.5s3.357-7.5,7.5-7.5h182.786    c4.143,0,7.5,3.358,7.5,7.5S413.694,112.102,409.552,112.102z"/>
		<path style="fill:#FFFFFF;" d="M409.552,154.129H226.765c-4.143,0-7.5-3.358-7.5-7.5s3.357-7.5,7.5-7.5h182.786    c4.143,0,7.5,3.358,7.5,7.5S413.694,154.129,409.552,154.129z"/>
		<path style="fill:#FFFFFF;" d="M409.552,196.156H226.765c-4.143,0-7.5-3.358-7.5-7.5s3.357-7.5,7.5-7.5h182.786    c4.143,0,7.5,3.358,7.5,7.5S413.694,196.156,409.552,196.156z"/>
		<path style="fill:#FFFFFF;" d="M409.552,238.183H98.747c-4.143,0-7.5-3.358-7.5-7.5s3.357-7.5,7.5-7.5h310.805    c4.143,0,7.5,3.358,7.5,7.5S413.694,238.183,409.552,238.183z"/>
		<path style="fill:#FFFFFF;" d="M409.552,280.21H98.747c-4.143,0-7.5-3.358-7.5-7.5s3.357-7.5,7.5-7.5h310.805    c4.143,0,7.5,3.358,7.5,7.5S413.694,280.21,409.552,280.21z"/>
	</g>
</g>















</svg>
