<?xml version="1.0" encoding="iso-8859-1"?>
<!-- Generator: Adobe Illustrator 19.0.0, SVG Export Plug-In . SVG Version: 6.00 Build 0)  -->
<svg xmlns="http://www.w3.org/2000/svg" xmlns:xlink="http://www.w3.org/1999/xlink" version="1.1" id="Layer_1" x="0px" y="0px" viewBox="0 0 490.592 490.592" style="enable-background:new 0 0 490.592 490.592;" xml:space="preserve" width="512" height="512">
<g>
	<path style="fill:#4CBFD4;" d="M407.835,223.766h-152.79v-40.689c0-4.142-3.358-7.5-7.5-7.5s-7.5,3.358-7.5,7.5v40.689H87.256   c-4.142,0-7.5,3.358-7.5,7.5v51.914c0,4.142,3.358,7.5,7.5,7.5s7.5-3.358,7.5-7.5v-44.414h305.579v44.414   c0,4.142,3.358,7.5,7.5,7.5s7.5-3.358,7.5-7.5v-51.914C415.335,227.124,411.977,223.766,407.835,223.766z"/>
	<g>
		<path style="fill:#FFE563;" d="M475.849,401.778l4.82-7.736c1.372-2.202,2.179-4.731,2.189-7.326c0-0.019,0-0.039,0-0.058    c0-3.252-1.017-6.273-2.746-8.759c3.188-2.815,5.202-6.927,5.202-11.515c0-6.617-4.185-12.257-10.051-14.418    c0.319-1.233,0.491-2.525,0.491-3.856c0-8.489-6.882-15.366-15.366-15.366c-1.189,0-2.343,0.138-3.458,0.398    c-0.064-8.43-6.917-15.243-15.361-15.243c-2.559,0-4.976,0.634-7.099,1.739c-1.371-7.079-7.6-12.424-15.081-12.424    c-4.603,0-8.729,2.024-11.544,5.227c-2.815-3.203-6.941-5.227-11.544-5.227c-7.482,0-13.711,5.345-15.081,12.424    c-2.122-1.105-4.539-1.739-7.098-1.739c-8.444,0-15.297,6.814-15.361,15.243c-1.115-0.26-2.27-0.398-3.458-0.398    c-8.484,0-15.366,6.877-15.366,15.366c0,1.331,0.172,2.623,0.491,3.856c-5.865,2.161-10.051,7.801-10.051,14.418    c0,4.588,2.014,8.7,5.202,11.515c-1.729,2.486-2.746,5.507-2.746,8.759c0,0.019,0,0.039,0,0.058    c0.01,2.595,0.817,5.124,2.189,7.326l4.82,7.736"/>
		<path style="fill:#FFA829;" d="M408.11,319.638c-2.122-1.105-4.539-1.739-7.098-1.739c-8.444,0-15.297,6.814-15.361,15.243    c-1.115-0.26-2.27-0.398-3.458-0.398c-8.484,0-15.366,6.877-15.366,15.366c0,1.331,0.172,2.623,0.491,3.856    c-5.865,2.161-10.051,7.801-10.051,14.418c0,4.588,2.014,8.7,5.202,11.515c-1.729,2.486-2.746,5.507-2.746,8.759v0.059    c0.01,2.594,0.815,5.124,2.186,7.324l4.824,7.737h-26.891l-4.819-7.737c-1.371-2.201-2.181-4.731-2.191-7.324v-0.059    c0-3.252,1.017-6.273,2.746-8.759c-3.188-2.815-5.202-6.927-5.202-11.515c0-6.617,4.185-12.257,10.051-14.418    c-0.319-1.233-0.491-2.525-0.491-3.856c0-8.489,6.882-15.366,15.366-15.366c1.189,0,2.343,0.138,3.458,0.398    c0.064-8.43,6.917-15.243,15.361-15.243c2.559,0,4.976,0.634,7.098,1.739c1.371-7.079,7.6-12.424,15.081-12.424    c3.925,0,7.506,1.474,10.218,3.9C406.317,314.278,406.799,317.378,408.11,319.638z"/>
		<path style="fill:#FFCBB3;" d="M487.747,420.038c0,10.048-7.739,18.283-17.578,19.07c-0.513,0.043-1.035,0.065-1.557,0.065    c-1.34,0-2.645-0.135-3.906-0.4H349.449c-1.262,0.265-2.567,0.4-3.906,0.4h-0.013c-10.566-0.009-19.122-8.569-19.122-19.135    c0-9.961,7.612-18.144,17.339-19.044c0.592-0.061,1.192-0.087,1.796-0.087c0.805,0,1.592,0.048,2.371,0.144h118.327    c0.779-0.096,1.566-0.144,2.371-0.144c1.135,0,2.249,0.1,3.328,0.291C480.922,402.769,487.747,410.608,487.747,420.038z"/>
		<path style="fill:#E89876;" d="M471.939,401.199v24.238c0,4.707-0.613,9.287-1.77,13.672c-0.513,0.043-1.035,0.065-1.557,0.065    c-1.34,0-2.645-0.135-3.906-0.4H349.449c-1.262,0.265-2.567,0.4-3.906,0.4h-0.013c-1.166-4.407-1.783-9.004-1.783-13.737v-24.442    c0.592-0.061,1.192-0.087,1.796-0.087c0.805,0,1.592,0.048,2.371,0.144h118.327c0.779-0.096,1.566-0.144,2.371-0.144    C469.747,400.907,470.861,401.007,471.939,401.199z"/>
		<path style="fill:#E89876;" d="M477.315,424.299c-1.422,0-2.777-0.828-3.381-2.216c-1.539-3.54-6.189-2.408-6.713-2.268    c-1.957,0.555-3.982-0.584-4.538-2.542c-0.556-1.958,0.593-3.998,2.551-4.554c3.899-1.107,12.147-1.189,15.458,6.425    c0.811,1.866-0.044,4.037-1.91,4.848C478.304,424.201,477.805,424.299,477.315,424.299z"/>
		<path style="fill:#E89876;" d="M338.806,424.299c-0.491,0-0.99-0.099-1.468-0.307c-1.866-0.812-2.72-2.983-1.908-4.849    c1.872-4.301,6.739-8.29,14.781-6.589c1.991,0.421,3.263,2.376,2.842,4.367c-0.421,1.991-2.375,3.263-4.367,2.842    c-1.877-0.397-5.218-0.624-6.499,2.32C341.582,423.471,340.228,424.299,338.806,424.299z"/>
		<path style="fill:#E89876;" d="M466.239,393.227v38.97c0,28.458-20.357,52.16-47.307,57.338    c-3.586,0.693-7.295,1.056-11.092,1.056c-32.25,0-58.389-26.144-58.389-58.394v-38.966c2.805,3.021,6.809,4.908,11.254,4.908    c4.274,0,8.14-1.744,10.925-4.564c2.741-2.776,4.436-6.588,4.436-10.798c0-0.879-0.074-1.739-0.216-2.579    c0.064,0.005,0.128,0.005,0.192,0.005c5.251,0,9.884-2.633,12.659-6.656c2.103,1.081,4.48,1.695,7.01,1.695    c4.932,0,9.324-2.328,12.134-5.944c2.81,3.616,7.197,5.944,12.134,5.944c2.525,0,4.908-0.614,7.01-1.695    c2.771,4.023,7.408,6.656,12.659,6.656c0.064,0,0.128,0,0.192-0.005c-0.142,0.84-0.221,1.7-0.221,2.579    c0,8.484,6.882,15.361,15.366,15.361C459.431,398.14,463.439,396.248,466.239,393.227z"/>
		<path style="fill:#FFCBB3;" d="M466.239,393.227v38.97c0,28.458-20.357,52.16-47.307,57.338    c-26.945-5.178-47.302-28.88-47.302-57.338v-38.622c2.741-2.776,4.436-6.588,4.436-10.798c0-0.879-0.074-1.739-0.216-2.579    c0.064,0.005,0.128,0.005,0.192,0.005c5.251,0,9.884-2.633,12.659-6.656c2.103,1.081,4.48,1.695,7.01,1.695    c4.932,0,9.324-2.328,12.134-5.944c2.81,3.616,7.197,5.944,12.134,5.944c2.525,0,4.908-0.614,7.01-1.695    c2.771,4.023,7.408,6.656,12.659,6.656c0.064,0,0.128,0,0.192-0.005c-0.142,0.84-0.221,1.7-0.221,2.579    c0,8.484,6.882,15.361,15.366,15.361C459.431,398.14,463.439,396.248,466.239,393.227z"/>
		<path style="fill:#D39262;" d="M407.844,454.781c-7.057,0-13.691-2.748-18.68-7.738c-1.439-1.439-1.439-3.772,0-5.21    c1.439-1.439,3.772-1.439,5.21,0c3.598,3.598,8.381,5.579,13.47,5.579c5.088,0,9.872-1.981,13.469-5.579    c1.439-1.439,3.772-1.439,5.21,0c1.439,1.439,1.439,3.772,0,5.21C421.534,452.033,414.9,454.781,407.844,454.781z"/>
		<g>
			<g>
				<path style="fill:#172635;" d="M382.404,428.007c-2.035,0-3.684-1.65-3.684-3.684v-14.354c0-2.035,1.65-3.684,3.684-3.684      c2.035,0,3.684,1.65,3.684,3.684v14.354C386.089,426.357,384.439,428.007,382.404,428.007z"/>
				<path style="fill:#172635;" d="M433.284,428.007c-2.035,0-3.684-1.65-3.684-3.684v-14.354c0-2.035,1.65-3.684,3.684-3.684      c2.035,0,3.684,1.65,3.684,3.684v14.354C436.969,426.357,435.319,428.007,433.284,428.007z"/>
			</g>
		</g>
	</g>
	<g>
		<path style="fill:#E06919;" d="M33.25,364.052h102.065c9.698,0,17.559,7.861,17.559,17.559v1.548    c0,9.698-7.861,17.559-17.559,17.559H33.25c-9.698,0-17.559-7.861-17.559-17.559v-1.548    C15.691,371.914,23.553,364.052,33.25,364.052z"/>
		<path style="fill:#FFCBB3;" d="M164.187,419.705c0,10.049-7.739,18.283-17.578,19.07c-0.513,0.043-1.035,0.065-1.557,0.065    c-1.34,0-2.645-0.135-3.906-0.4H25.887c-1.262,0.265-2.567,0.4-3.906,0.4h-0.013c-10.566-0.009-19.123-8.569-19.123-19.136    c0-9.962,7.613-18.144,17.339-19.044c0.592-0.061,1.192-0.087,1.797-0.087c0.805,0,1.592,0.048,2.371,0.144H142.68    c0.779-0.096,1.566-0.144,2.371-0.144c1.135,0,2.249,0.1,3.328,0.291C157.361,402.436,164.187,410.274,164.187,419.705z"/>
		<path style="fill:#E89876;" d="M148.379,400.865v24.238c0,4.707-0.613,9.287-1.77,13.672c-0.513,0.043-1.035,0.065-1.557,0.065    c-1.34,0-2.645-0.135-3.906-0.4H25.887c-1.262,0.265-2.567,0.4-3.906,0.4h-0.013c-1.166-4.407-1.783-9.004-1.783-13.737v-24.443    c0.592-0.061,1.192-0.087,1.797-0.087c0.805,0,1.592,0.048,2.371,0.144H142.68c0.779-0.096,1.566-0.144,2.371-0.144    C146.186,400.574,147.3,400.674,148.379,400.865z"/>
		<path style="fill:#E89876;" d="M153.754,423.966c-1.422,0-2.777-0.829-3.381-2.216c-1.539-3.54-6.189-2.409-6.713-2.268    c-1.957,0.555-3.982-0.584-4.538-2.542c-0.556-1.958,0.593-3.998,2.551-4.554c3.899-1.106,12.147-1.188,15.458,6.425    c0.811,1.866-0.044,4.037-1.91,4.848C154.743,423.868,154.244,423.966,153.754,423.966z"/>
		<path style="fill:#E89876;" d="M15.243,423.966c-0.491,0-0.99-0.099-1.468-0.307c-1.866-0.812-2.72-2.983-1.908-4.849    c1.872-4.301,6.737-8.29,14.781-6.589c1.991,0.421,3.263,2.377,2.842,4.367c-0.421,1.991-2.376,3.262-4.367,2.842    c-1.877-0.397-5.218-0.624-6.499,2.32C18.02,423.137,16.665,423.966,15.243,423.966z"/>
		<path style="fill:#E89876;" d="M142.679,392.096v39.768c0,28.458-20.358,52.161-47.306,57.342    c-3.589,0.692-7.299,1.053-11.093,1.053c-32.251,0-58.395-26.144-58.395-58.395v-39.768c0-32.251,26.144-58.399,58.395-58.399    c3.793,0,7.504,0.361,11.093,1.053c11.68,2.245,22.12,7.969,30.202,16.051C136.141,361.372,142.679,375.97,142.679,392.096z"/>
		<path style="fill:#FFCBB3;" d="M142.679,392.096v39.768c0,28.458-20.358,52.161-47.306,57.342    c-26.948-5.181-47.306-28.884-47.306-57.342v-39.768c0-28.458,20.358-52.165,47.306-57.346c11.68,2.245,22.12,7.969,30.202,16.051    C136.141,361.372,142.679,375.97,142.679,392.096z"/>
		<path style="fill:#D39262;" d="M84.282,457.718c-9.7,0-18.819-3.777-25.678-10.636c-1.439-1.439-1.439-3.772,0-5.21    c1.439-1.439,3.772-1.439,5.21,0c5.467,5.467,12.736,8.478,20.467,8.478s15-3.011,20.467-8.478c1.439-1.439,3.772-1.439,5.21,0    c1.439,1.439,1.439,3.772,0,5.21C103.101,453.941,93.982,457.718,84.282,457.718z"/>
		<g>
			<g>
				<path style="fill:#172635;" d="M58.842,427.674c-2.035,0-3.684-1.65-3.684-3.684v-14.354c0-2.035,1.65-3.684,3.684-3.684      c2.035,0,3.684,1.65,3.684,3.684v14.354C62.527,426.024,60.877,427.674,58.842,427.674z"/>
				<path style="fill:#172635;" d="M109.723,427.674c-2.035,0-3.684-1.65-3.684-3.684v-14.354c0-2.035,1.65-3.684,3.684-3.684      s3.684,1.65,3.684,3.684v14.354C113.408,426.024,111.758,427.674,109.723,427.674z"/>
			</g>
		</g>
		<path style="fill:#F9A74D;" d="M139.208,306.231l-26.198,26.198c-2.219-5.449-7.561-9.295-13.808-9.295    c-5.126,0-9.646,2.589-12.33,6.528c-6.847-8.435-17.294-13.826-29.006-13.826c-20.633,0-37.36,16.727-37.36,37.36    c0,20.633,16.727,37.36,37.36,37.36c8.62,0,16.551-2.927,22.872-7.83c18.553,10.633,42.622,8.037,58.469-7.81    C158.174,355.949,158.174,325.198,139.208,306.231z"/>
		<path style="fill:#E06919;" d="M42.925,353.196c0,16.726,10.992,30.888,26.146,35.647c-3.53,1.114-7.298,1.712-11.205,1.712    c-20.633,0-37.359-16.726-37.359-37.359c0-20.633,16.726-37.359,37.359-37.359c3.907,0,7.667,0.598,11.205,1.712    C53.917,322.307,42.925,336.47,42.925,353.196z"/>
	</g>
	<g>
		<path style="fill:#3E5268;" d="M293.515,135.964c64.684,0,28.815-33.834,28.815-76.189S288.684,0,247.543,0    c-41.141,0-74.786,17.421-74.786,59.775s-35.87,76.189,28.815,76.189H293.515z"/>
		<path style="fill:#27394C;" d="M209.659,59.776c0,42.353-18.17,76.189,14.595,76.189h-22.681    c-64.686,0-28.816-33.836-28.816-76.189C172.757,17.419,206.405,0,247.545,0C226.7,0,209.659,17.419,209.659,59.776z"/>
		<path style="fill:#C99061;" d="M299.758,71.306v34.561c0,25.443-18.205,46.635-42.296,51.264    c-2.758,0.531-5.591,0.848-8.486,0.927h-0.07c-0.452,0.013-0.905,0.018-1.362,0.018c-28.838,0-52.209-23.375-52.209-52.209V71.306    c22.935-1.897,44.874-13.018,52.209-37.86C254.876,58.288,276.819,69.408,299.758,71.306z"/>
		<path style="fill:#A86340;" d="M256.984,157.219c-2.609,0.479-5.279,0.764-8.007,0.839h-0.07    c-0.452,0.013-0.905,0.018-1.362,0.018c-28.838,0-52.209-23.375-52.209-52.209V71.306c6.478-0.536,12.873-1.809,18.886-3.918    v38.479C214.223,131.477,232.656,152.779,256.984,157.219z"/>
		<path style="fill:#FC74AF;" d="M247.545,128.069c-6.721,0-13.443-2.558-18.56-7.675c-1.287-1.286-1.287-3.372,0-4.658    c1.286-1.286,3.372-1.286,4.658,0c7.665,7.665,20.137,7.665,27.803,0c1.286-1.286,3.372-1.286,4.658,0    c1.287,1.286,1.287,3.372,0,4.658C260.988,125.511,254.266,128.069,247.545,128.069z"/>
		<g>
			<path style="fill:#27394C;" d="M224.802,101.653c-1.819,0-3.294-1.475-3.294-3.294V85.525c0-1.819,1.475-3.294,3.294-3.294     s3.294,1.475,3.294,3.294v12.834C228.096,100.178,226.621,101.653,224.802,101.653z"/>
			<path style="fill:#27394C;" d="M270.293,101.653c-1.819,0-3.294-1.475-3.294-3.294V85.525c0-1.819,1.475-3.294,3.294-3.294     c1.819,0,3.294,1.475,3.294,3.294v12.834C273.587,100.178,272.112,101.653,270.293,101.653z"/>
		</g>
	</g>
</g>















</svg>
