<?xml version="1.0" encoding="iso-8859-1"?>
<!-- Generator: Adobe Illustrator 19.0.0, SVG Export Plug-In . SVG Version: 6.00 Build 0)  -->
<svg xmlns="http://www.w3.org/2000/svg" xmlns:xlink="http://www.w3.org/1999/xlink" version="1.1" id="Layer_1" x="0px" y="0px" viewBox="0 0 490.001 490.001" style="enable-background:new 0 0 490.001 490.001;" xml:space="preserve" width="512" height="512">
<g>
	<path style="fill:#4CBFD4;" d="M211.132,490h-32.93H54.124c-19.88,0-36-16.11-36-35.99V36c0-19.88,16.12-36,36-36h124.078h32.93"/>
	<path style="fill:#DD3352;" d="M335.21,490h-32.93H178.202c-19.88,0-36-16.11-36-35.99V36c0-19.88,16.12-36,36-36H302.28h32.93"/>
	<circle style="fill:#27394C;" cx="206.371" cy="85.218" r="27.674"/>
	<circle style="fill:#27394C;" cx="82.292" cy="85.218" r="27.674"/>
	<path style="fill:#FC74AF;" d="M440.141,0.001H302.275c-17.528,0-31.736,14.209-31.736,31.736v426.527   c0,17.528,14.209,31.736,31.736,31.736h137.865c17.528,0,31.736-14.209,31.736-31.736V31.737   C471.877,14.21,457.668,0.001,440.141,0.001z"/>
	<path style="fill:#E6E6E6;" d="M220.95,353.326h-29.159c-10.139,0-18.359-8.22-18.359-18.359V156.663   c0-10.139,8.22-18.359,18.359-18.359h29.159c10.139,0,18.359,8.22,18.359,18.359v178.305   C239.309,345.107,231.089,353.326,220.95,353.326z"/>
	<path style="fill:#E6E6E6;" d="M96.872,353.326H67.713c-10.139,0-18.359-8.22-18.359-18.359V156.663   c0-10.139,8.22-18.359,18.359-18.359h29.159c10.139,0,18.359,8.22,18.359,18.359v178.305   C115.231,345.107,107.011,353.326,96.872,353.326z"/>
	<path style="fill:#FFFFFF;" d="M427.038,203.582h-111.66c-8.031,0-14.541-6.51-14.541-14.541v-36.196   c0-8.031,6.51-14.541,14.541-14.541h111.66c8.031,0,14.541,6.51,14.541,14.541v36.196   C441.579,197.072,435.069,203.582,427.038,203.582z"/>
</g>















</svg>
