<?xml version="1.0" encoding="iso-8859-1"?>
<!-- Generator: Adobe Illustrator 19.0.0, SVG Export Plug-In . SVG Version: 6.00 Build 0)  -->
<svg xmlns="http://www.w3.org/2000/svg" xmlns:xlink="http://www.w3.org/1999/xlink" version="1.1" id="Layer_1" x="0px" y="0px" viewBox="0 0 492.279 492.279" style="enable-background:new 0 0 492.279 492.279;" xml:space="preserve" width="512" height="512">
<g>
	<path style="fill:#B3B3B3;" d="M373.3,167.125c0-5.425-0.367-10.769-1.067-15.999l32.754-30.662   c5.428-5.081,6.638-13.232,2.92-19.671l-19.898-34.462c-3.717-6.438-11.382-9.465-18.495-7.305l-42.995,13.056   c-8.407-6.503-17.697-11.905-27.652-16.011l-10.173-43.705C287.008,5.125,280.553,0,273.118,0h-39.796   c-7.435,0-13.889,5.124-15.575,12.366l-10.173,43.705c-9.955,4.106-19.245,9.508-27.652,16.011l-42.995-13.056   c-7.114-2.16-14.778,0.867-18.495,7.305l-19.898,34.462c-3.718,6.438-2.508,14.59,2.92,19.671l32.754,30.662   c-0.7,5.23-1.067,10.574-1.067,15.999c0,5.425,0.367,10.769,1.067,15.999l-32.754,30.662c-5.428,5.081-6.638,13.232-2.92,19.671   l19.898,34.462c3.717,6.438,11.381,9.465,18.495,7.305l42.995-13.056c8.407,6.503,17.696,11.905,27.652,16.011l10.174,43.716   c1.685,7.242,8.14,12.367,15.575,12.367h39.795c7.435,0,13.89-5.125,15.575-12.367l10.174-43.716   c9.955-4.106,19.245-9.508,27.652-16.011l42.995,13.056c7.114,2.16,14.778-0.867,18.495-7.305l19.899-34.462   c3.718-6.438,2.508-14.59-2.92-19.671l-32.754-30.662C372.933,177.895,373.3,172.55,373.3,167.125z"/>
	<path style="fill:#DADADA;" d="M236.505,314.262l-11.786-50.646l-9.52-3.927c-8.236-3.397-15.988-7.885-23.04-13.341l-8.168-6.318   l-49.831,15.132l-16.717-28.95l37.951-35.527l-1.365-10.211c-0.59-4.417-0.89-8.909-0.89-13.349s0.3-8.931,0.89-13.349   l1.365-10.211l-37.951-35.527l16.716-28.951l49.832,15.132l8.168-6.318c7.053-5.456,14.804-9.944,23.04-13.341l9.519-3.926   L236.504,20h33.431l11.786,50.634l9.519,3.926c8.235,3.396,15.988,7.885,23.042,13.341l8.167,6.318l49.831-15.132l16.716,28.95   l-37.951,35.527l1.365,10.211c0.59,4.417,0.89,8.909,0.89,13.349c0,4.44-0.3,8.932-0.89,13.349l-1.365,10.211l37.951,35.527   l-16.716,28.951l-49.831-15.132l-8.167,6.317c-7.054,5.456-14.806,9.945-23.042,13.341l-9.52,3.927l-11.785,50.646H236.505z"/>
	<g>
		<path style="fill:#3E5268;" d="M450.892,353.571c-1.725-2.987-3.626-5.813-5.674-8.471l8.288-27.297    c1.373-4.523-0.552-9.396-4.646-11.76l-21.913-12.65c-4.094-2.363-9.276-1.594-12.507,1.857l-19.524,20.858    c-6.697-0.908-13.529-0.929-20.316-0.025l-19.496-20.832c-3.23-3.452-8.414-4.222-12.508-1.858l-21.913,12.652    c-4.094,2.364-6.019,7.237-4.645,11.761l8.293,27.3c-4.176,5.426-7.574,11.354-10.136,17.607l-27.826,6.48    c-4.604,1.072-7.862,5.175-7.862,9.902l-0.001,25.302c0,4.727,3.257,8.831,7.861,9.903l27.784,6.471    c1.277,3.102,2.774,6.162,4.499,9.149c1.725,2.987,3.626,5.813,5.674,8.471l-8.288,27.297c-1.373,4.523,0.552,9.396,4.646,11.76    l21.913,12.65c4.094,2.363,9.276,1.594,12.507-1.857l19.524-20.858c6.696,0.908,13.529,0.929,20.316,0.025l19.5,20.838    c3.23,3.452,8.414,4.222,12.508,1.858l21.913-12.651c4.094-2.364,6.019-7.238,4.645-11.761l-8.296-27.306    c4.176-5.426,7.574-11.354,10.136-17.607l27.826-6.48c4.604-1.072,7.862-5.175,7.862-9.902l0.001-25.302    c0-4.727-3.258-8.831-7.861-9.903l-27.784-6.471C454.114,359.618,452.617,356.558,450.892,353.571z"/>
	</g>
	<g>
		<path style="fill:#0E9C80;" d="M181.375,367.665c-0.817-3.351-1.848-6.597-3.068-9.723l15.617-23.873    c2.588-3.956,2.108-9.173-1.158-12.591l-17.481-18.292c-3.266-3.417-8.456-4.133-12.525-1.728l-24.594,14.539    c-6.172-2.751-12.724-4.69-19.492-5.727l-12.865-25.467c-2.132-4.22-6.89-6.413-11.483-5.294l-24.584,5.992    c-4.593,1.12-7.809,5.257-7.759,9.984l0.296,28.53c-5.531,4.035-10.457,8.771-14.671,14.054l-28.526-1.591    c-4.72-0.263-8.998,2.761-10.325,7.298l-7.103,24.285c-1.327,4.537,0.648,9.39,4.766,11.712l24.85,14.01    c0.355,3.336,0.933,6.693,1.75,10.044c0.817,3.351,1.848,6.597,3.068,9.723L20.47,437.422c-2.588,3.956-2.108,9.173,1.158,12.591    l17.481,18.292c3.266,3.417,8.456,4.133,12.525,1.728l24.594-14.539c6.172,2.751,12.724,4.689,19.492,5.727l12.867,25.473    c2.132,4.22,6.89,6.414,11.484,5.294l24.583-5.992c4.593-1.12,7.809-5.257,7.759-9.985l-0.298-28.537    c5.531-4.035,10.457-8.771,14.671-14.054l28.526,1.591c4.72,0.263,8.998-2.761,10.325-7.298l7.103-24.285    c1.327-4.537-0.648-9.39-4.766-11.712l-24.85-14.009C182.77,374.373,182.191,371.017,181.375,367.665z"/>
		<path style="fill:#70E6D1;" d="M117.661,482.279c-0.004,0-0.102-0.001-0.148-0.093l-15.188-30.069l-5.089-0.78    c-5.839-0.896-11.537-2.57-16.937-4.977l-4.715-2.102l-29.039,17.167c-0.036,0.005-0.065,0.007-0.089,0.007    c-0.083,0-0.107-0.025-0.118-0.036l-17.481-18.292c-0.054-0.057-0.062-0.142-0.019-0.208l18.437-28.184l-1.873-4.799    c-1.073-2.75-1.971-5.595-2.667-8.454c-0.698-2.862-1.21-5.801-1.522-8.735l-0.545-5.123l-29.338-16.54    c-0.068-0.039-0.101-0.118-0.079-0.194l7.103-24.284c0.026-0.089,0.108-0.121,0.157-0.121l33.695,1.879l3.219-4.036    c3.687-4.622,7.976-8.73,12.747-12.21l4.16-3.035l-0.35-33.679c-0.001-0.078,0.052-0.146,0.128-0.165l24.583-5.992    c0.009-0.001,0.02-0.002,0.032-0.002c0.05,0,0.12,0.015,0.158,0.09l15.186,30.062l5.089,0.78    c5.839,0.896,11.537,2.57,16.937,4.977l4.715,2.102l29.039-17.167c0.036-0.005,0.065-0.007,0.089-0.007    c0.083,0,0.107,0.025,0.118,0.036l17.481,18.292c0.054,0.057,0.062,0.142,0.019,0.208l-18.437,28.184l1.873,4.799    c1.073,2.75,1.971,5.594,2.668,8.456c0.697,2.861,1.209,5.8,1.521,8.734l0.545,5.123l29.339,16.539    c0.067,0.038,0.1,0.12,0.078,0.194l-7.103,24.284c-0.026,0.089-0.107,0.121-0.156,0.121l-33.696-1.879l-3.22,4.037    c-3.686,4.621-7.974,8.729-12.747,12.211l-4.16,3.035l0.352,33.685c0.001,0.078-0.052,0.146-0.128,0.165l-24.583,5.991    L117.661,482.279z"/>
	</g>
	<path style="fill:#3E5268;" d="M151.303,416.242l-5.612-5.394c7.158-12.023,5.641-24.229-4.345-33.826   c-11.355-10.912-22.865-7.83-33.792-2.825l-15.698-15.086c2.66-1.876,5.007-2.71,6.972-3.396c1.769-0.616,3.297-1.149,4.383-2.279   c3.462-3.603,0.583-9.367-1.65-11.513c-2.471-2.375-6.402-2.311-11.37,0.184c-3.655,1.835-7.022,4.505-9.272,6.493l-5.942-5.711   c-2.588-2.488-6.703-2.406-9.19,0.183c-2.488,2.588-2.406,6.703,0.183,9.19l6.174,5.933c-4.604,6.748-11.542,21.183,1.726,33.934   c11.404,10.96,23.484,5.828,34.282,0.671l17.531,16.848c-4.443,3.166-8.794,3.794-12.353,4.309   c-2.812,0.406-5.24,0.757-6.733,2.311c-2.979,3.1-1.156,9.338,1.479,11.871c1.715,1.648,4.378,2.487,7.572,2.487   c6.233,0,14.485-3.205,21.654-9.81l4.995,4.801c1.26,1.211,2.883,1.813,4.503,1.813c1.707,0,3.412-0.668,4.688-1.996   C153.974,422.844,153.892,418.729,151.303,416.242z M121.262,387.371c3.407-0.76,6.818-0.457,9.949,2.552   c3.242,3.116,3.48,6.523,2.593,9.502L121.262,387.371z M94.965,380.129c-4.565,1.77-7.981,1.965-10.963-0.901   c-2.656-2.552-2.891-6.167-0.737-10.342L94.965,380.129z"/>
	<g>
		<path style="fill:#FFA829;" d="M227.678,108.514l87.08,53.239c8.274,5.058,10.88,15.866,5.822,24.14l-0.807,1.321    c-5.058,8.274-15.866,10.88-24.14,5.822l-87.08-53.239c-8.274-5.058-10.88-15.866-5.822-24.14l0.807-1.321    C208.596,106.062,219.404,103.455,227.678,108.514z"/>
		<path style="fill:#FFCBB3;" d="M310.361,224.294c-5.241,8.573-16.139,11.562-24.945,7.101c-0.461-0.231-0.917-0.484-1.363-0.757    c-1.143-0.699-2.186-1.495-3.124-2.379l-98.336-60.121c-1.215-0.432-2.398-0.997-3.542-1.696l-0.011-0.007    c-9.01-5.519-11.845-17.286-6.334-26.301c5.196-8.499,15.959-11.509,24.727-7.204c0.537,0.257,1.062,0.548,1.578,0.863    c0.687,0.42,1.333,0.871,1.948,1.359l100.956,61.722c0.714,0.325,1.411,0.694,2.098,1.114c0.969,0.592,1.867,1.258,2.687,1.984    C313.545,206,315.28,216.248,310.361,224.294z"/>
		<path style="fill:#E89876;" d="M306.701,199.975l-12.643,20.68c-2.455,4.016-5.368,7.604-8.642,10.741    c-0.461-0.231-0.917-0.484-1.363-0.757c-1.143-0.699-2.186-1.495-3.124-2.379l-98.336-60.121    c-1.215-0.432-2.398-0.997-3.542-1.696l-0.011-0.007c1.304-4.368,3.175-8.613,5.644-12.651l12.75-20.854    c0.537,0.257,1.062,0.548,1.578,0.863c0.687,0.42,1.333,0.871,1.948,1.359l100.956,61.722c0.714,0.325,1.411,0.694,2.098,1.114    C304.982,198.583,305.88,199.249,306.701,199.975z"/>
		<path style="fill:#E89876;" d="M299.237,222.488c-1.214-0.742-1.937-2.156-1.728-3.654c0.533-3.823-4.024-5.283-4.545-5.437    c-1.959-0.547-3.093-2.575-2.546-4.536c0.547-1.96,2.592-3.102,4.552-2.555c3.903,1.09,10.984,5.322,9.837,13.545    c-0.281,2.015-2.143,3.421-4.158,3.14C300.132,222.92,299.656,222.744,299.237,222.488z"/>
		<path style="fill:#E89876;" d="M181.063,150.238c-0.419-0.256-0.793-0.6-1.093-1.028c-1.168-1.666-0.765-3.964,0.901-5.132    c3.841-2.693,10.072-3.558,16.048,2.089c1.479,1.398,1.544,3.73,0.146,5.208c-1.398,1.479-3.729,1.544-5.208,0.147    c-1.394-1.318-4.126-3.254-6.755-1.41C183.864,150.98,182.276,150.979,181.063,150.238z"/>
		<path style="fill:#E89876;" d="M306.413,189.52l-20.744,33.929c-14.844,24.28-44.577,33.884-70.271,24.247    c-3.423-1.282-6.777-2.909-10.013-4.888c-27.516-16.823-36.184-52.765-19.361-80.281l20.744-33.929    c16.823-27.516,52.767-36.188,80.283-19.365c3.236,1.979,6.214,4.222,8.915,6.684c8.794,8.007,14.715,18.337,17.395,29.449    C316.861,159.896,314.824,175.762,306.413,189.52z"/>
		<path style="fill:#FFCBB3;" d="M306.413,189.52l-20.744,33.929c-14.844,24.28-44.577,33.884-70.271,24.247    c-20.289-18.477-25.294-49.319-10.45-73.599l20.744-33.929c14.844-24.28,44.579-33.887,70.274-24.251    c8.794,8.007,14.715,18.337,17.395,29.449C316.861,159.896,314.824,175.762,306.413,189.52z"/>
		<path style="fill:#D39262;" d="M222.359,215.047c-8.276-5.06-14.086-13.039-16.36-22.469c-0.477-1.978,0.74-3.968,2.718-4.445    c1.978-0.477,3.968,0.74,4.445,2.718c1.813,7.516,6.444,13.876,13.04,17.909c6.596,4.033,14.369,5.256,21.885,3.443    c1.978-0.477,3.968,0.74,4.445,2.718c0.477,1.978-0.74,3.968-2.718,4.445C240.386,221.64,230.635,220.106,222.359,215.047z"/>
		<g>
			<g>
				<path style="fill:#172635;" d="M216.326,176.143c-1.736-1.061-2.283-3.329-1.222-5.065l7.487-12.247      c1.061-1.736,3.329-2.283,5.065-1.222c1.736,1.061,2.283,3.329,1.222,5.065l-7.487,12.247      C220.33,176.658,218.063,177.205,216.326,176.143z"/>
				<path style="fill:#172635;" d="M259.737,202.684c-1.736-1.061-2.283-3.329-1.222-5.065l7.487-12.247      c1.061-1.736,3.329-2.283,5.065-1.222c1.736,1.061,2.283,3.329,1.222,5.065l-7.487,12.247      C263.741,203.198,261.473,203.745,259.737,202.684z"/>
			</g>
		</g>
		<path style="fill:#FFE563;" d="M348.239,114.451l-36.017,8.686c0.949-5.807-1.603-11.874-6.932-15.133    c-4.374-2.674-9.58-2.823-13.925-0.862c-1.442-10.768-7.543-20.817-17.535-26.926c-17.604-10.763-40.6-5.217-51.362,12.387    c-10.763,17.604-5.217,40.6,12.387,51.362c7.354,4.496,15.648,6.136,23.599,5.25c10.283,18.75,32.172,29.09,53.958,23.836    C338.487,166.763,354.528,140.526,348.239,114.451z"/>
		<path style="fill:#FFA829;" d="M241.595,104.298c-8.725,14.27-6.733,32.087,3.713,44.052c-3.593-0.891-7.12-2.346-10.453-4.384    c-17.604-10.763-23.15-33.758-12.387-51.362s33.758-23.15,51.362-12.387c3.333,2.038,6.229,4.509,8.667,7.305    C267.085,83.678,250.32,90.027,241.595,104.298z"/>
	</g>
	<g>
		<path style="fill:#B3B3B3;" d="M404.448,423.553l-14.861,28.888c-4.105,7.979-13.899,11.119-21.874,7.017l-23.896-12.293    c-3.987-2.051-6.767-5.527-8.036-9.487c-1.27-3.96-1.03-8.404,1.022-12.391l14.861-28.888L404.448,423.553z"/>
		<path style="fill:#DADADA;" d="M404.448,423.553l-14.861,28.888c-4.105,7.979-13.899,11.119-21.874,7.017l-12.853-6.612    c-3.987-2.051-6.767-5.527-8.032-9.485c-1.27-3.96-1.03-8.404,1.022-12.391l14.861-28.888L404.448,423.553z"/>
		<path style="fill:#FFA829;" d="M421.098,412.5l-16.935,10.905l-52.498-27.007l-0.975-20.119    c-1.058-21.826,12.796-39.276,30.942-45.524c11.084-3.81,23.766-3.444,35.63,2.659c2.631,1.354,5.052,2.904,7.27,4.618    C448.691,356.723,448.199,395.05,421.098,412.5z"/>
		<path style="fill:#FFE563;" d="M421.098,412.5l-16.935,10.905l-37.243-19.159l-0.979-20.121    c-1.058-21.826,12.796-39.276,30.946-45.522c8.625-2.967,18.222-3.403,27.645-0.57C448.691,356.723,448.199,395.05,421.098,412.5z    "/>
		<path style="fill:#B3B3B3;" d="M374.786,437.918l-27.609-14.203c-2.886-1.484-4.021-5.027-2.537-7.912    c1.484-2.885,5.026-4.021,7.912-2.537l27.609,14.203c2.886,1.484,4.021,5.027,2.537,7.912    C381.213,438.267,377.672,439.403,374.786,437.918z"/>
		<path style="fill:#FFFFFF;" d="M417.18,384.352c1.484-2.885,0.349-6.427-2.537-7.912s-6.427-0.349-7.912,2.537    c-2.895,5.628-9.83,7.852-15.458,4.956s-7.852-9.83-4.957-15.458c1.484-2.885,0.349-6.427-2.537-7.912s-6.427-0.349-7.912,2.537    c-4.931,9.585-2.524,21.041,5.151,27.924l-8.33,16.192l10.448,5.375l8.33-16.192C401.529,398.64,412.249,393.937,417.18,384.352z"/>
	</g>
</g>















</svg>
