<?xml version="1.0" encoding="iso-8859-1"?>
<!-- Generator: Adobe Illustrator 19.0.0, SVG Export Plug-In . SVG Version: 6.00 Build 0)  -->
<svg xmlns="http://www.w3.org/2000/svg" xmlns:xlink="http://www.w3.org/1999/xlink" version="1.1" id="Layer_1" x="0px" y="0px" viewBox="0 0 481.885 481.885" style="enable-background:new 0 0 481.885 481.885;" xml:space="preserve" width="512" height="512">
<g>
	<path style="fill:#3E5268;" d="M440.366,313.407H248.443v-32.898c0-4.142-3.357-7.5-7.5-7.5s-7.5,3.358-7.5,7.5v32.898H41.519   c-4.143,0-7.5,3.358-7.5,7.5v49.52c0,4.142,3.357,7.5,7.5,7.5s7.5-3.358,7.5-7.5v-42.02h184.424v42.02c0,4.142,3.357,7.5,7.5,7.5   s7.5-3.358,7.5-7.5v-42.02h184.424v42.02c0,4.142,3.357,7.5,7.5,7.5s7.5-3.358,7.5-7.5v-49.52   C447.866,316.765,444.509,313.407,440.366,313.407z"/>
	<circle style="fill:#70E6D1;" cx="41.518" cy="436.947" r="41.518"/>
	<circle style="fill:#70E6D1;" cx="240.942" cy="436.947" r="41.518"/>
	<circle style="fill:#FC74AF;" cx="440.366" cy="436.947" r="41.518"/>
	<g>
		<path style="fill:#FFE563;" d="M334.519,132.092l6.559-10.526c1.867-2.996,2.965-6.438,2.978-9.968c0-0.026,0-0.053,0-0.079    c0-4.425-1.384-8.536-3.737-11.918c4.338-3.83,7.079-9.425,7.079-15.668c0-9.004-5.695-16.677-13.676-19.618    c0.434-1.678,0.668-3.436,0.668-5.247c0-11.551-9.365-20.909-20.909-20.909c-1.618,0-3.188,0.187-4.706,0.541    c-0.087-11.47-9.412-20.741-20.902-20.741c-3.483,0-6.771,0.862-9.659,2.366c-1.865-9.632-10.341-16.905-20.521-16.905    c-6.263,0-11.878,2.754-15.708,7.112c-3.83-4.358-9.445-7.112-15.708-7.112c-10.18,0-18.656,7.273-20.521,16.905    c-2.888-1.504-6.176-2.366-9.659-2.366c-11.49,0-20.815,9.271-20.902,20.741c-1.517-0.354-3.088-0.541-4.706-0.541    c-11.544,0-20.909,9.358-20.909,20.909c0,1.811,0.234,3.569,0.668,5.247c-7.981,2.941-13.676,10.615-13.676,19.618    c0,6.243,2.741,11.838,7.079,15.668c-2.353,3.382-3.737,7.493-3.737,11.918c0,0.026,0,0.053,0,0.079    c0.013,3.53,1.111,6.972,2.978,9.968l6.559,10.526"/>
		<path style="fill:#FFA829;" d="M242.348,20.324c-2.888-1.504-6.176-2.366-9.659-2.366c-11.49,0-20.815,9.271-20.902,20.741    c-1.517-0.354-3.088-0.541-4.706-0.541c-11.544,0-20.909,9.358-20.909,20.909c0,1.811,0.234,3.569,0.668,5.247    c-7.981,2.941-13.676,10.615-13.676,19.619c0,6.243,2.741,11.838,7.079,15.668c-2.353,3.382-3.737,7.493-3.737,11.918v0.08    c0.013,3.529,1.11,6.972,2.975,9.966l6.564,10.528h-36.59l-6.557-10.528c-1.865-2.995-2.968-6.437-2.981-9.966v-0.08    c0-4.425,1.384-8.536,3.737-11.918c-4.338-3.83-7.079-9.425-7.079-15.668c0-9.004,5.695-16.677,13.676-19.619    c-0.434-1.678-0.668-3.436-0.668-5.247c0-11.551,9.365-20.909,20.909-20.909c1.618,0,3.188,0.187,4.706,0.541    c0.087-11.47,9.412-20.741,20.902-20.741c3.483,0,6.771,0.862,9.659,2.366c1.865-9.632,10.341-16.905,20.521-16.905    c5.341,0,10.214,2.005,13.903,5.307C239.908,13.032,240.563,17.249,242.348,20.324z"/>
		<path style="fill:#FFCBB3;" d="M350.709,156.938c0,13.673-10.53,24.877-23.919,25.949c-0.698,0.059-1.409,0.089-2.119,0.089    c-1.823,0-3.599-0.184-5.315-0.545H162.528c-1.717,0.361-3.492,0.545-5.315,0.545h-0.018c-14.377-0.012-26.02-11.66-26.02-26.037    c0-13.554,10.358-24.688,23.593-25.913c0.805-0.083,1.622-0.118,2.444-0.118c1.095,0,2.166,0.065,3.226,0.195h161.007    c1.06-0.13,2.131-0.195,3.226-0.195c1.545,0,3.06,0.136,4.528,0.397C341.422,133.44,350.709,144.106,350.709,156.938z"/>
		<path style="fill:#E89876;" d="M329.2,131.303v32.98c0,6.404-0.835,12.637-2.409,18.603c-0.698,0.059-1.409,0.089-2.119,0.089    c-1.823,0-3.599-0.184-5.315-0.545H162.528c-1.717,0.361-3.492,0.545-5.315,0.545h-0.018c-1.586-5.996-2.427-12.252-2.427-18.692    v-33.259c0.805-0.083,1.622-0.118,2.444-0.118c1.095,0,2.166,0.065,3.226,0.195h161.007c1.06-0.13,2.131-0.195,3.226-0.195    C326.217,130.907,327.732,131.043,329.2,131.303z"/>
		<path style="fill:#E89876;" d="M336.514,162.736c-1.935,0-3.779-1.127-4.6-3.016c-2.094-4.817-8.421-3.277-9.135-3.086    c-2.663,0.756-5.418-0.795-6.175-3.459c-0.756-2.664,0.807-5.44,3.471-6.196c5.305-1.506,16.529-1.617,21.033,8.743    c1.104,2.539-0.059,5.493-2.599,6.596C337.86,162.602,337.181,162.736,336.514,162.736z"/>
		<path style="fill:#E89876;" d="M148.046,162.735c-0.668,0-1.347-0.134-1.998-0.418c-2.539-1.105-3.701-4.059-2.596-6.598    c2.547-5.852,9.169-11.28,20.112-8.965c2.709,0.573,4.44,3.233,3.867,5.942c-0.572,2.709-3.232,4.44-5.942,3.867    c-2.555-0.541-7.1-0.849-8.843,3.157C151.824,161.609,149.981,162.735,148.046,162.735z"/>
		<path style="fill:#E89876;" d="M321.444,120.456v53.027c0,38.722-27.7,70.974-64.37,78.019c-4.88,0.942-9.926,1.437-15.093,1.437    c-43.883,0-79.45-35.574-79.45-79.457v-53.02c3.817,4.111,9.264,6.678,15.314,6.678c5.815,0,11.076-2.373,14.866-6.21    c3.73-3.777,6.036-8.964,6.036-14.692c0-1.197-0.1-2.366-0.294-3.509c0.087,0.007,0.174,0.007,0.261,0.007    c7.146,0,13.449-3.583,17.225-9.057c2.861,1.471,6.096,2.306,9.539,2.306c6.711,0,12.687-3.168,16.51-8.088    c3.823,4.92,9.793,8.088,16.51,8.088c3.436,0,6.678-0.836,9.539-2.306c3.77,5.474,10.08,9.057,17.226,9.057    c0.087,0,0.174,0,0.261-0.007c-0.194,1.143-0.301,2.313-0.301,3.509c0,11.544,9.365,20.902,20.909,20.902    C312.179,127.141,317.634,124.567,321.444,120.456z"/>
		<path style="fill:#FFCBB3;" d="M321.444,120.456v53.027c0,38.722-27.7,70.974-64.37,78.019    c-36.664-7.045-64.363-39.297-64.363-78.019v-52.552c3.73-3.777,6.036-8.964,6.036-14.692c0-1.197-0.1-2.366-0.294-3.509    c0.087,0.007,0.174,0.007,0.261,0.007c7.146,0,13.449-3.583,17.225-9.057c2.861,1.471,6.096,2.306,9.539,2.306    c6.711,0,12.687-3.168,16.51-8.088c3.823,4.92,9.793,8.088,16.51,8.088c3.436,0,6.678-0.836,9.539-2.306    c3.77,5.474,10.08,9.057,17.226,9.057c0.087,0,0.174,0,0.261-0.007c-0.194,1.143-0.301,2.313-0.301,3.509    c0,11.544,9.365,20.902,20.909,20.902C312.179,127.141,317.634,124.567,321.444,120.456z"/>
		<path style="fill:#D39262;" d="M241.986,204.212c-9.602,0-18.629-3.739-25.418-10.528c-1.958-1.958-1.958-5.132,0-7.09    c1.958-1.958,5.132-1.957,7.09,0c4.895,4.896,11.404,7.592,18.328,7.592c6.923,0,13.432-2.696,18.328-7.592    c1.958-1.958,5.132-1.958,7.09,0c1.958,1.958,1.958,5.132,0,7.09C260.614,200.473,251.587,204.212,241.986,204.212z"/>
		<g>
			<g>
				<path style="fill:#172635;" d="M207.37,167.781c-2.769,0-5.013-2.245-5.013-5.013v-19.532c0-2.769,2.245-5.013,5.013-5.013      s5.013,2.245,5.013,5.013v19.532C212.383,165.536,210.139,167.781,207.37,167.781z"/>
				<path style="fill:#172635;" d="M276.602,167.781c-2.769,0-5.013-2.245-5.013-5.013v-19.532c0-2.769,2.245-5.013,5.013-5.013      s5.013,2.245,5.013,5.013v19.532C281.615,165.536,279.371,167.781,276.602,167.781z"/>
			</g>
		</g>
	</g>
</g>















</svg>
