<?xml version="1.0" encoding="iso-8859-1"?>
<!-- Generator: Adobe Illustrator 19.0.0, SVG Export Plug-In . SVG Version: 6.00 Build 0)  -->
<svg xmlns="http://www.w3.org/2000/svg" xmlns:xlink="http://www.w3.org/1999/xlink" version="1.1" id="Layer_1" x="0px" y="0px" viewBox="0 0 490 490" style="enable-background:new 0 0 490 490;" xml:space="preserve" width="512" height="512">
<g>
	<path style="fill:#27394C;" d="M308.52,44.015c0,7.6-3.08,14.49-8.07,19.48c-4.98,4.98-11.87,8.07-19.47,8.07h-71.97   c-15.21,0-27.54-12.34-27.54-27.55H308.52z"/>
	<path style="fill:#3E5268;" d="M308.52,44.015c0,7.6-3.08,14.49-8.07,19.48c-4.98,4.98-11.87,8.07-19.47,8.07h-35.89   c-15.22,0-27.55-12.34-27.55-27.55H308.52z"/>
	<path style="fill:#FFE563;" d="M378.37,152.857V58.205c0-29.61-24.09-53.69-53.7-53.69H165.32c-29.61,0-53.7,24.08-53.7,53.69   v94.652h40V58.205c0-7.55,6.15-13.69,13.7-13.69h159.35c7.56,0,13.7,6.14,13.7,13.69v94.652"/>
	<g>
		<path style="fill:#FFA829;" d="M183.89,4.515h-18.57c-29.61,0-53.7,24.08-53.7,53.69v94.652h18.57V58.205    C130.19,28.595,154.28,4.515,183.89,4.515z"/>
		<path style="fill:#FFA829;" d="M343.24,44.515h-18.57c7.56,0,13.7,6.14,13.7,13.69v94.652h18.57V58.205    C356.94,50.655,350.8,44.515,343.24,44.515z"/>
	</g>
	<path style="fill:#27394C;" d="M490,165.765v284.65c0,19.37-15.7,35.07-35.07,35.07H35.06c-19.36,0-35.06-15.7-35.06-35.07v-284.65   c0-19.36,15.7-35.06,35.06-35.06h419.87C474.3,130.705,490,146.405,490,165.765z"/>
	<path style="fill:#3E5268;" d="M490,165.765v284.65c0,19.37-15.7,35.07-35.07,35.07H70.25c-19.37,0-35.07-15.7-35.07-35.07v-284.65   c0-19.36,15.7-35.06,35.07-35.06h384.68C474.3,130.705,490,146.405,490,165.765z"/>
	<g>
		<path style="fill:#FFE563;" d="M321.563,356.507c0-45.108-30.642-60.54-59.617-71.392v-69.904    c22.009,2.252,30.579,12.377,38.472,12.377c10.232,0,15.008-12.959,15.008-19.44c0-16.13-30.503-23.363-53.48-24.459V166.54    c0-7.006-5.679-12.685-12.685-12.685c-7.007,0-12.685,5.679-12.685,12.685v18.066c-31.442,4.085-62.005,21.368-62.005,63.105    c0,42.334,32.072,55.16,62.005,65.85v80.866c-32.492-3.748-41.51-26.324-52.456-26.324c-8.526,0-15.688,11.254-15.688,19.44    c0,16.339,27.396,38.535,68.144,40.153v18.508c0,7.006,5.679,12.685,12.685,12.685c7.007,0,12.685-5.679,12.685-12.685v-19.822    C297.439,420.588,321.563,397.516,321.563,356.507z M208.675,244.3c0-16.191,11.388-24.689,27.9-27.865v59.399    C220.799,269.489,208.675,261.966,208.675,244.3z M261.945,392.976v-68.864c14.531,6.976,25.513,16.634,25.513,36.146    C287.458,378.055,277.721,388.686,261.945,392.976z"/>
	</g>
	<path style="fill:#FFA829;" d="M440.364,103.337h-20.712c-8.045,0-14.567,6.522-14.567,14.567v12.799h49.846v-12.799   C454.931,109.859,448.409,103.337,440.364,103.337z"/>
	<path style="fill:#FFA829;" d="M84.91,117.905v12.8H35.06v-12.8c0-8.05,6.52-14.57,14.57-14.57h20.71c0.17,0,0.34,0,0.51,0.01   C78.66,103.615,84.91,110.025,84.91,117.905z"/>
	<path style="fill:#FFE563;" d="M84.91,117.905v12.8H56.78v-12.8c0-7.88,6.25-14.3,14.07-14.56   C78.66,103.615,84.91,110.025,84.91,117.905z"/>
	<path style="fill:#FFE563;" d="M454.931,117.904v12.8h-28.13v-12.8c0-7.88,6.25-14.3,14.07-14.56   C448.681,103.614,454.931,110.024,454.931,117.904z"/>
</g>















</svg>
