<?xml version="1.0" encoding="iso-8859-1"?>
<!-- Generator: Adobe Illustrator 19.0.0, SVG Export Plug-In . SVG Version: 6.00 Build 0)  -->
<svg xmlns="http://www.w3.org/2000/svg" xmlns:xlink="http://www.w3.org/1999/xlink" version="1.1" id="Layer_1" x="0px" y="0px" viewBox="0 0 490 490" style="enable-background:new 0 0 490 490;" xml:space="preserve" width="512" height="512">
<g>
	<path style="fill:#70E6D1;" d="M455.808,217.008H34.192C15.308,217.008,0,232.317,0,251.201v204.607   C0,474.692,15.308,490,34.192,490h421.615C474.692,490,490,474.692,490,455.808V251.201   C490,232.317,474.692,217.008,455.808,217.008z"/>
	<circle style="fill:#0E9C80;" cx="450" cy="257.008" r="16.565"/>
	<circle style="fill:#0E9C80;" cx="450" cy="450" r="16.565"/>
	<circle style="fill:#0E9C80;" cx="40.003" cy="449.999" r="16.565"/>
	<circle style="fill:#0E9C80;" cx="40.003" cy="257.009" r="16.565"/>
	<path style="fill:#0E9C80;" d="M450,410c0.001,0,0.002,0,0.003,0V297.009c-22.09,0-40-17.91-40-40h-330c0,22.091-17.909,40-40,40   v112.99c22.091,0,40,17.909,40,40H410C410,427.908,427.909,410,450,410z"/>
	<circle style="fill:#70E6D1;" cx="245.003" cy="353.504" r="96.495"/>
	<circle style="fill:#0E9C80;" cx="245.003" cy="353.504" r="66.431"/>
	<path style="fill:#70E6D1;" d="M270.798,369.455c0-13.382-8.543-18.726-18.011-22.513v-18.635c2.508,0.543,4.295,1.441,5.801,2.206   c1.442,0.733,2.688,1.365,4.052,1.365c4.339,0,6.217-5.26,6.217-7.943c0-2.974-2.395-5.394-6.926-6.997   c-3.143-1.112-6.599-1.617-9.143-1.847v-7.043c0-3.314-2.687-6-6-6s-6,2.686-6,6v7.353c-7.031,1.268-19.637,5.713-19.637,21.262   c0,13.446,10.11,17.945,19.637,21.543v20.788c-4.334-0.927-7.207-3.135-9.556-4.965c-1.935-1.507-3.606-2.809-5.481-2.809   c-3.731,0-6.54,4.884-6.54,8.051c0,5.995,9.113,12.893,21.578,13.788v5.899c0,3.314,2.687,6,6,6s6-2.686,6-6v-6.707   C264.277,389.429,270.798,381.25,270.798,369.455z M252.787,363.553c2.245,1.621,3.852,3.838,3.852,7.304   c0,3.578-1.706,5.698-3.852,6.951V363.553z M240.787,342.306c-3.503-1.71-5.477-3.672-5.477-7.044c0-3.005,1.926-5.217,5.477-6.399   V342.306z"/>
	<path style="fill:#FC74AF;" d="M344.215,114.72L261.292,7.974c-8.26-10.633-24.325-10.633-32.585,0L145.785,114.72   c-6.321,8.137-0.522,19.984,9.781,19.984h32.225v88.873c0,5.846,4.739,10.585,10.585,10.585h93.249   c5.846,0,10.585-4.739,10.585-10.585v-88.873h32.225C344.737,134.704,350.536,122.857,344.215,114.72z"/>
	<g>
		<path style="fill:#70E6D1;" d="M421.582,361.004h-49.52c-4.142,0-7.5-3.358-7.5-7.5s3.358-7.5,7.5-7.5h49.52    c4.142,0,7.5,3.358,7.5,7.5S425.724,361.004,421.582,361.004z"/>
		<path style="fill:#70E6D1;" d="M117.945,361.004H68.424c-4.142,0-7.5-3.358-7.5-7.5s3.358-7.5,7.5-7.5h49.521    c4.142,0,7.5,3.358,7.5,7.5S122.087,361.004,117.945,361.004z"/>
	</g>
</g>















</svg>
