<?xml version="1.0" encoding="iso-8859-1"?>
<!-- Generator: Adobe Illustrator 19.0.0, SVG Export Plug-In . SVG Version: 6.00 Build 0)  -->
<svg xmlns="http://www.w3.org/2000/svg" xmlns:xlink="http://www.w3.org/1999/xlink" version="1.1" id="Layer_1" x="0px" y="0px" viewBox="0 0 487.5 487.5" style="enable-background:new 0 0 487.5 487.5;" xml:space="preserve" width="512" height="512">
<g>
	<path style="fill:#3E5268;" d="M351.382,192.499l9.812-15.747c2.793-4.483,4.436-9.631,4.456-14.913c0-0.039,0-0.079,0-0.118   c0-6.62-2.07-12.77-5.59-17.83c6.49-5.73,10.59-14.1,10.59-23.44c0-13.47-8.52-24.95-20.46-29.35c0.65-2.51,1-5.14,1-7.85   c0-17.28-14.01-31.28-31.28-31.28c-2.42,0-4.77,0.28-7.04,0.81c-0.13-17.16-14.08-31.03-31.27-31.03c-5.21,0-10.13,1.29-14.45,3.54   C264.361,10.88,251.681,0,236.451,0c-9.37,0-17.77,4.12-23.5,10.64C207.221,4.12,198.821,0,189.451,0   c-15.23,0-27.91,10.88-30.7,25.29c-4.32-2.25-9.24-3.54-14.45-3.54c-17.19,0-31.14,13.87-31.27,31.03   c-2.27-0.53-4.62-0.81-7.04-0.81c-17.27,0-31.28,14-31.28,31.28c0,2.71,0.35,5.34,1,7.85c-11.94,4.4-20.46,15.88-20.46,29.35   c0,9.34,4.1,17.71,10.59,23.44c-3.52,5.06-5.59,11.21-5.59,17.83c0,0.039,0,0.079,0,0.118c0.02,5.282,1.662,10.43,4.456,14.913   l9.812,15.747"/>
	<path style="fill:#27394C;" d="M213.491,25.29c-4.32-2.25-9.24-3.54-14.45-3.54c-17.19,0-31.14,13.87-31.27,31.03   c-2.27-0.53-4.62-0.81-7.04-0.81c-17.27,0-31.28,14-31.28,31.28c0,2.71,0.35,5.34,1,7.85c-11.94,4.4-20.46,15.88-20.46,29.35   c0,9.34,4.1,17.71,10.59,23.44c-3.52,5.06-5.59,11.21-5.59,17.83v0.12c0.02,5.28,1.66,10.43,4.45,14.91l9.82,15.75h-54.74   l-9.81-15.75c-2.79-4.48-4.44-9.63-4.46-14.91v-0.12c0-6.62,2.07-12.77,5.59-17.83c-6.49-5.73-10.59-14.1-10.59-23.44   c0-13.47,8.52-24.95,20.46-29.35c-0.65-2.51-1-5.14-1-7.85c0-17.28,14.01-31.28,31.28-31.28c2.42,0,4.77,0.28,7.04,0.81   c0.13-17.16,14.08-31.03,31.27-31.03c5.21,0,10.13,1.29,14.45,3.54c2.79-14.41,15.47-25.29,30.7-25.29c7.99,0,15.28,3,20.8,7.94   C209.841,14.38,210.821,20.69,213.491,25.29z"/>
	<path style="fill:#C99061;" d="M375.603,229.67c0,20.455-15.753,37.217-35.783,38.82c-1.045,0.089-2.107,0.133-3.17,0.133   c-2.727,0-5.384-0.275-7.952-0.815H94.077c-2.568,0.54-5.225,0.815-7.952,0.815h-0.027c-21.509-0.018-38.926-17.444-38.926-38.953   c0-20.278,15.496-36.934,35.296-38.767c1.204-0.124,2.426-0.177,3.657-0.177c1.638,0,3.241,0.097,4.826,0.292h240.873   c1.585-0.195,3.188-0.292,4.826-0.292c2.311,0,4.578,0.204,6.774,0.593C361.71,194.516,375.603,210.472,375.603,229.67z"/>
	<path style="fill:#A86340;" d="M343.424,191.319v49.34c0,9.581-1.248,18.905-3.604,27.831c-1.045,0.089-2.107,0.133-3.17,0.133   c-2.727,0-5.384-0.275-7.952-0.815H94.077c-2.568,0.54-5.225,0.815-7.952,0.815h-0.027c-2.373-8.97-3.63-18.33-3.63-27.964v-49.756   c1.204-0.124,2.426-0.177,3.657-0.177c1.638,0,3.241,0.097,4.826,0.292h240.873c1.585-0.195,3.188-0.292,4.826-0.292   C338.961,190.726,341.228,190.929,343.424,191.319z"/>
	<path style="fill:#A86340;" d="M354.367,238.344c-2.896,0-5.654-1.687-6.882-4.511c-3.133-7.206-12.598-4.903-13.666-4.616   c-3.983,1.131-8.106-1.189-9.238-5.174c-1.131-3.985,1.208-8.139,5.193-9.27c7.937-2.254,24.728-2.419,31.467,13.079   c1.652,3.799-0.089,8.217-3.888,9.868C356.38,238.143,355.365,238.344,354.367,238.344z"/>
	<path style="fill:#A86340;" d="M72.411,238.342c-0.999,0-2.015-0.201-2.989-0.625c-3.798-1.653-5.537-6.072-3.884-9.87   c3.811-8.755,13.718-16.875,30.088-13.412c4.052,0.857,6.643,4.837,5.785,8.89c-0.856,4.052-4.835,6.642-8.89,5.786   c-3.822-0.809-10.622-1.27-13.23,4.723C78.063,236.657,75.306,238.342,72.411,238.342z"/>
	<path style="fill:#DD3352;" d="M331.823,437.106V487.5H94.076v-50.394c0-65.651,53.218-118.878,118.869-118.878   c9.289,0,18.33,1.071,27.008,3.082c21.987,5.109,41.627,16.32,57.053,31.736C318.514,374.564,331.823,404.281,331.823,437.106z"/>
	<path style="fill:#FC74AF;" d="M331.823,437.106V487.5H148.091v-50.394c0-56.362,39.227-103.568,91.861-115.796   c21.987,5.109,41.627,16.32,57.053,31.736C318.514,374.564,331.823,404.281,331.823,437.106z"/>
	<rect x="206.12" y="373.292" style="fill:#DD3352;" width="13.653" height="114.208"/>
	<polyline style="fill:#DD3352;" points="270.796,358.762 244.328,412.472 212.946,378.311 212.948,378.311 181.566,412.472    155.098,358.762  "/>
	<path style="fill:#A86340;" d="M331.821,175.092v79.33c0,57.93-41.44,106.18-96.3,116.72c-7.3,1.41-14.85,2.15-22.58,2.15   c-65.65,0-118.86-53.22-118.86-118.87v-79.32c5.71,6.15,13.86,9.99,22.91,9.99c8.7,0,16.57-3.55,22.24-9.29   c5.58-5.65,9.03-13.41,9.03-21.98c0-1.79-0.15-3.54-0.44-5.25c0.13,0.01,0.26,0.01,0.39,0.01c10.69,0,20.12-5.36,25.77-13.55   c4.28,2.2,9.12,3.45,14.27,3.45c10.04,0,18.98-4.74,24.7-12.1c5.72,7.36,14.65,12.1,24.7,12.1c5.14,0,9.99-1.25,14.27-3.45   c5.64,8.19,15.08,13.55,25.77,13.55c0.13,0,0.26,0,0.39-0.01c-0.29,1.71-0.45,3.46-0.45,5.25c0,17.27,14.01,31.27,31.28,31.27   C317.961,185.092,326.121,181.242,331.821,175.092z"/>
	<path style="fill:#C99061;" d="M331.821,175.092v79.33c0,57.93-41.44,106.18-96.3,116.72c-54.85-10.54-96.29-58.79-96.29-116.72   v-78.62c5.58-5.65,9.03-13.41,9.03-21.98c0-1.79-0.15-3.54-0.44-5.25c0.13,0.01,0.26,0.01,0.39,0.01   c10.69,0,20.12-5.36,25.77-13.55c4.28,2.2,9.12,3.45,14.27,3.45c10.04,0,18.98-4.74,24.7-12.1c5.72,7.36,14.65,12.1,24.7,12.1   c5.14,0,9.99-1.25,14.27-3.45c5.64,8.19,15.08,13.55,25.77,13.55c0.13,0,0.26,0,0.39-0.01c-0.29,1.71-0.45,3.46-0.45,5.25   c0,17.27,14.01,31.27,31.28,31.27C317.961,185.092,326.121,181.242,331.821,175.092z"/>
	<path style="fill:#965D36;" d="M212.948,300.393c-14.365,0-27.869-5.594-38.026-15.751c-2.929-2.929-2.929-7.678,0-10.607   c2.929-2.929,7.678-2.928,10.606,0c7.324,7.324,17.062,11.357,27.419,11.357c10.357,0,20.095-4.033,27.419-11.357   c2.929-2.929,7.678-2.929,10.606,0c2.929,2.929,2.929,7.678,0,10.607C240.817,294.8,227.313,300.393,212.948,300.393z"/>
	<g>
		<g>
			<path style="fill:#172635;" d="M161.162,245.891c-4.142,0-7.5-3.358-7.5-7.5v-29.22c0-4.142,3.358-7.5,7.5-7.5s7.5,3.358,7.5,7.5     v29.22C168.662,242.533,165.304,245.891,161.162,245.891z"/>
			<path style="fill:#172635;" d="M264.736,245.891c-4.142,0-7.5-3.358-7.5-7.5v-29.22c0-4.142,3.358-7.5,7.5-7.5s7.5,3.358,7.5,7.5     v29.22C272.236,242.533,268.878,245.891,264.736,245.891z"/>
		</g>
	</g>
	<path style="fill:#DD3352;" d="M299.62,449.531h-45.611c-4.142,0-7.5-3.358-7.5-7.5s3.358-7.5,7.5-7.5h45.611   c4.142,0,7.5,3.358,7.5,7.5S303.762,449.531,299.62,449.531z"/>
	<path style="fill:#B3B3B3;" d="M419.975,109.856v41.473c0,11.455-9.285,20.739-20.733,20.739h-34.305   c-5.724,0-10.909-2.323-14.663-6.076c-3.754-3.754-6.076-8.938-6.076-14.663v-41.473H419.975z"/>
	<path style="fill:#DADADA;" d="M419.975,109.856v41.473c0,11.455-9.285,20.739-20.733,20.739H380.79   c-5.724,0-10.909-2.323-14.657-6.076c-3.754-3.754-6.076-8.938-6.076-14.663v-41.473H419.975z"/>
	<path style="fill:#FFA829;" d="M432.421,87.586l-12.856,22.27h-75.367l-12.856-22.27c-13.947-24.159-8.411-52.059,8.54-69.748   c10.358-10.798,24.968-17.789,42-17.789c3.777,0,7.431,0.346,10.95,0.997C431.172,8.155,452.996,51.95,432.421,87.586z"/>
	<path style="fill:#FFE563;" d="M432.421,87.586l-12.856,22.27h-53.467l-12.862-22.27c-13.947-24.159-8.411-52.059,8.546-69.748   c8.059-8.405,18.698-14.505,31.05-16.792C431.172,8.155,452.996,51.95,432.421,87.586z"/>
	<path style="fill:#B3B3B3;" d="M394.692,143.487h-39.636c-4.143,0-7.5-3.358-7.5-7.5s3.357-7.5,7.5-7.5h39.636   c4.143,0,7.5,3.358,7.5,7.5S398.835,143.487,394.692,143.487z"/>
	<path style="fill:#FFFFFF;" d="M411.535,57.92c0-4.142-3.357-7.5-7.5-7.5s-7.5,3.358-7.5,7.5c0,8.08-6.573,14.654-14.653,14.654   S367.227,66,367.227,57.92c0-4.142-3.357-7.5-7.5-7.5s-7.5,3.358-7.5,7.5c0,13.761,9.423,25.36,22.154,28.691v23.245h15V86.611   C402.112,83.28,411.535,71.681,411.535,57.92z"/>
</g>















</svg>
