<?xml version="1.0" encoding="iso-8859-1"?>
<!-- Generator: Adobe Illustrator 19.0.0, SVG Export Plug-In . SVG Version: 6.00 Build 0)  -->
<svg xmlns="http://www.w3.org/2000/svg" xmlns:xlink="http://www.w3.org/1999/xlink" version="1.1" id="Layer_1" x="0px" y="0px" viewBox="0 0 490.003 490.003" style="enable-background:new 0 0 490.003 490.003;" xml:space="preserve" width="512" height="512">
<g>
	<path style="fill:#96EFFF;" d="M490.003,52.122v322.64c0,27.4-22.22,49.62-49.62,49.62H49.623c-27.41,0-49.62-22.22-49.62-49.62   V52.122c0-27.4,22.21-49.62,49.62-49.62h390.76C467.783,2.502,490.003,24.722,490.003,52.122z"/>
	<g>
		<rect x="53.693" y="293.097" style="fill:#FFE563;" width="60.485" height="30.361"/>
		<rect x="161.071" y="191.773" style="fill:#FC74AF;" width="60.485" height="131.685"/>
		<rect x="268.45" y="226.671" style="fill:#FFE563;" width="60.485" height="96.788"/>
		<rect x="375.829" y="121.978" style="fill:#FC74AF;" width="60.485" height="201.48"/>
		<path style="fill:#FFFFFF;" d="M104.445,221.519c-1.819,0-3.643-0.658-5.085-1.989c-3.044-2.81-3.233-7.555-0.424-10.598    l66.348-71.872c0.973-1.054,2.228-1.807,3.615-2.169l49.284-12.876c1.387-0.363,2.849-0.32,4.212,0.123l47.867,15.546    l46.69-10.889l62.718-51.379c3.205-2.625,7.93-2.156,10.555,1.049c2.625,3.204,2.155,7.93-1.049,10.555l-64.067,52.485    c-0.888,0.728-1.932,1.241-3.05,1.502l-50.424,11.76c-1.329,0.31-2.721,0.252-4.02-0.171l-47.766-15.513l-45.034,11.766    l-64.858,70.259C108.479,220.708,106.466,221.519,104.445,221.519z"/>
		<circle style="fill:#3E5268;" cx="406.071" cy="60.122" r="30.243"/>
		<circle style="fill:#3E5268;" cx="298.693" cy="154.814" r="30.243"/>
		<circle style="fill:#3E5268;" cx="191.314" cy="119.917" r="30.243"/>
		<circle style="fill:#3E5268;" cx="83.935" cy="236.242" r="30.243"/>
	</g>
	<path style="fill:#E6E6E6;" d="M490.003,348.612v26.15c0,27.4-22.22,49.62-49.62,49.62H49.623c-27.41,0-49.62-22.22-49.62-49.62   v-26.15H490.003z"/>
	<path style="fill:#E6E6E6;" d="M440.38,17.504c19.089,0,34.62,15.53,34.62,34.62v322.638c0,19.089-15.53,34.62-34.62,34.62H49.62   c-19.089,0-34.62-15.53-34.62-34.62V52.123c0-19.089,15.53-34.62,34.62-34.62h55.332h30.002H440.38 M440.38,2.504H134.953h-30.002   H49.62C22.215,2.504,0,24.719,0,52.123v322.638c0,27.404,22.215,49.62,49.62,49.62H440.38c27.404,0,49.62-22.216,49.62-49.62   V52.123C490,24.719,467.784,2.504,440.38,2.504L440.38,2.504z"/>
	<path style="fill:#FFFFFF;" d="M244.995,391.111c-2.937,0-5.652-1.786-6.846-4.463c-1.326-2.974-0.523-6.596,1.953-8.718   c2.374-2.035,5.826-2.383,8.56-0.864c2.793,1.552,4.334,4.871,3.692,8.005C251.645,388.533,248.542,391.111,244.995,391.111z"/>
	<path style="fill:#BBB8CC;" d="M369.455,455.941c0,1.55-0.11,3.07-0.33,4.56c-0.99,6.89-4.22,13.07-8.91,17.76   c-5.71,5.71-13.61,9.24-22.32,9.24h-185.79c-17.43,0-31.56-14.13-31.56-31.56c0-8.71,3.53-16.61,9.24-22.32   c5.72-5.71,13.6-9.24,22.32-9.24h185.79C355.325,424.381,369.455,438.511,369.455,455.941z"/>
	<path style="fill:#E6E6E6;" d="M369.125,460.501c-0.99,6.89-4.22,13.07-8.91,17.76c-5.71,5.71-13.61,9.24-22.32,9.24h-146.78   c-5.78-5.73-9.36-13.66-9.36-22.44c0-8.71,3.53-16.61,9.24-22.32c5.71-5.71,13.61-9.24,22.32-9.24h124.58   C353.775,433.501,366.915,445.231,369.125,460.501z"/>
</g>















</svg>
